<?xml version="1.0" encoding="UTF-8" standalone="no"?>
<!--

    Copyright (c) 2012-2017 Codenvy, S.A.
    All rights reserved. This program and the accompanying materials
    are made available under the terms of the Eclipse Public License v1.0
    which accompanies this distribution, and is available at
    http://www.eclipse.org/legal/epl-v10.html

    Contributors:
      Codenvy, S.A. - initial API and implementation

-->
<svg width="13px" height="11px" viewBox="0 0 13 11" version="1.1" xmlns="http://www.w3.org/2000/svg" xmlns:xlink="http://www.w3.org/1999/xlink">
    <g transform="translate(-32.000000, -5.000000)">
        <path d="M35.5714328,14.5357149 L35.5714328,12.6272305 L37.7142925,11.7120508 L37.7142925,13.4642851 L35.5714328,14.5357149 Z M35.2142895,12.0022298 L32.9598226,11.0368268 L35.2142895,10.0714239 L37.4687565,11.0368268 L35.2142895,12.0022298 Z M41.2857254,14.5357149 L41.2857254,12.6272305 L43.4285851,11.7120508 L43.4285851,13.4642851 L41.2857254,14.5357149 Z M40.9285821,12.0022298 L38.6741151,11.0368268 L40.9285821,10.0714239 L43.183049,11.0368268 L40.9285821,12.0022298 Z M38.4285791,10.3671832 L38.4285791,8.87722604 L40.5714388,7.96204637 L40.5714388,9.44642314 L38.4285791,10.3671832 Z M38.0714358,8.25222529 L35.6104954,7.19753653 L38.0714358,6.14284778 L40.5323762,7.19753653 L38.0714358,8.25222529 Z M44.1428716,11.1428537 C44.1428716,10.8582552 43.9754607,10.6015584 43.7076032,10.4843708 L41.2857254,9.44642314 L41.2857254,7.21427763 C41.2857254,6.92967907 41.1127341,6.67298234 40.850457,6.5557947 L38.350454,5.48436485 C38.2611682,5.4453023 38.166302,5.42856121 38.0714358,5.42856121 C37.9765696,5.42856121 37.8817034,5.4453023 37.7924176,5.48436485 L35.2924146,6.5557947 C35.0301375,6.67298234 34.8571463,6.92967907 34.8571463,7.21427763 L34.8571463,9.44642314 L32.4352684,10.4843708 C32.1729913,10.6015584 32,10.8582552 32,11.1428537 L32,13.4642851 C32,13.7321425 32.1506698,13.9832589 32.3962058,14.1004465 L34.8962088,15.350448 C34.9966554,15.4062517 35.1026823,15.4285731 35.2142895,15.4285731 C35.3258968,15.4285731 35.4319237,15.4062517 35.5323703,15.350448 L38.0323733,14.1004465 C38.0491144,14.0948662 38.0602751,14.0892858 38.0714358,14.0781251 C38.0825965,14.0892858 38.0937573,14.0948662 38.1104984,14.1004465 L40.6105013,15.350448 C40.7109479,15.4062517 40.8169748,15.4285731 40.9285821,15.4285731 C41.0401893,15.4285731 41.1462163,15.4062517 41.2466628,15.350448 L43.7466658,14.1004465 C43.9922018,13.9832589 44.1428716,13.7321425 44.1428716,13.4642851 L44.1428716,11.1428537 Z"></path>
    </g>
</svg>
