<?xml version="1.0" encoding="UTF-8" standalone="no"?>
<!--

    Copyright (c) 2012-2017 Codenvy, S.A.
    All rights reserved. This program and the accompanying materials
    are made available under the terms of the Eclipse Public License v1.0
    which accompanies this distribution, and is available at
    http://www.eclipse.org/legal/epl-v10.html

    Contributors:
      Codenvy, S.A. - initial API and implementation

-->
<svg width="16px" height="16px" viewBox="0 0 16 16" version="1.1" xmlns="http://www.w3.org/2000/svg" xmlns:xlink="http://www.w3.org/1999/xlink">
    <defs>
        <path d="M0,0.310246875 C0,0.138903125 0.1491564,0 0.333565,0 L7.66643667,0 C7.85065667,0 8,0.1413625 8,0.310246875 L8,9.68975425 C8,9.86109825 7.85084333,10 7.66643667,10 L0.333565,10 C0.149342067,10 0,9.85863684 0,9.68975425 L0,0.310246875 L0,0.310246875 Z M1,5.31464063 C1,5.14086875 1.11985232,5 1.27339877,5 L6.72660151,5 C6.87759537,5 7,5.14060938 7,5.31464063 L7,9.06036094 C7,9.23413125 6.88014768,9.375 6.72660151,9.375 L1.27339877,9.375 C1.12240491,9.375 1,9.23439094 1,9.06036094 L1,5.31464063 L1,5.31464063 Z M3.90625,0.9375 L2.1875,1.68945312 L2.1875,3.62304688 L3.90625,4.375 L5.625,3.62304688 L5.625,1.68945312 L3.90625,0.9375 L3.90625,0.9375 Z M5.08896562,1.68945312 L3.90625,2.20679687 L2.723535,1.68945312 L3.90625,1.17210937 L5.08896562,1.68945312 L5.08896562,1.68945312 Z M2.55859375,3.48243125 L3.84765625,4.04639687 L3.84765625,2.58202187 L2.55859375,2.01805625 L2.55859375,3.48243125 L2.55859375,3.48243125 Z" id="recipe-icon-path-1"></path>
        <path id="recipe-icon-path-3" d="M0,0 L4.375,0 L4.375,0.3125 L0,0.3125 L0,0 L0,0 Z"></path>
        <path id="recipe-icon-path-5" d="M0.028934375,0 L0.3125,0 L0.3125,0.3125 L0.028934375,0.3125 L0.028934375,0 L0.028934375,0 Z"></path>
        <path id="recipe-icon-path-7" d="M0.028934375,0 L0.3125,0 L0.3125,0.3125 L0.028934375,0.3125 L0.028934375,0 L0.028934375,0 Z"></path>
        <path id="recipe-icon-path-9" d="M0.028934375,0 L0.3125,0 L0.3125,0.3125 L0.028934375,0.3125 L0.028934375,0 L0.028934375,0 Z"></path>
        <path id="recipe-icon-path-11" d="M0.028934375,0 L0.3125,0 L0.3125,0.3125 L0.028934375,0.3125 L0.028934375,0 L0.028934375,0 Z"></path>
        <path id="recipe-icon-path-13" d="M0,0 L4.375,0 L4.375,0.3125 L0,0.3125 L0,0 L0,0 Z"></path>
        <path id="recipe-icon-path-15" d="M0,0 L4.375,0 L4.375,0.3125 L0,0.3125 L0,0 L0,0 Z"></path>
        <path id="recipe-icon-path-17" d="M0,1 L4.375,1 L4.375,1.3125 L0,1.3125 L0,1 L0,1 Z"></path>
    </defs>
    <g stroke="none" stroke-width="1" fill="none" fill-rule="evenodd">
        <g>
            <g transform="translate(4.000000, 3.000000)">
                <g>
                    <mask id="recipe-icon-mask-2" fill="white">
                        <use xlink:href="#recipe-icon-path-1"></use>
                    </mask>
                    <g></g>
                    <path d="M-1.5625,-2.5625 L9.0625,-2.5625 L9.0625,10.5625 L-1.5625,10.5625 L-1.5625,-2.5625 Z" fill="#E4E4E4"  mask="url(#recipe-icon-mask-2)"></path>
                </g>
                <g transform="translate(1.875000, 4.937500)">
                    <mask id="recipe-icon-mask-4" fill="white">
                        <use xlink:href="#recipe-icon-path-3"></use>
                    </mask>
                    <g id="Clip-5"></g>
                </g>
                <g transform="translate(0.937500, 4.937500)">
                    <mask id="recip-icon-mask-6" fill="white">
                        <use xlink:href="#recipe-icon-path-5"></use>
                    </mask>
                    <g></g>
                </g>
                <g transform="translate(0.937500, 5.875000)">
                    <mask id="recipe-icon-mask-8" fill="white">
                        <use xlink:href="#recipe-icon-path-7"></use>
                    </mask>
                    <g></g>
                </g>
                <g transform="translate(0.937500, 7.750000)">
                    <mask id="recipe-icon-mask-10" fill="white">
                        <use xlink:href="#recipe-icon-path-9"></use>
                    </mask>
                    <g></g>
                </g>
                <g transform="translate(0.937500, 6.812500)">
                    <mask id="recipe-icon-mask-12" fill="white">
                        <use xlink:href="#recipe-icon-path-11"></use>
                    </mask>
                    <g></g>
                </g>
                <g transform="translate(1.875000, 5.875000)">
                    <mask id="recipe-icon-mask-14" fill="white">
                        <use xlink:href="#recipe-icon-path-13"></use>
                    </mask>
                    <g></g>
                </g>
                <g transform="translate(1.875000, 6.812500)">
                    <mask id="recipe-icon-mask-16" fill="white">
                        <use xlink:href="#recipe-icon-path-15"></use>
                    </mask>
                    <g></g>
                </g>
                <g transform="translate(1.875000, 6.750000)">
                    <mask id="recipe-icon-mask-18" fill="white">
                        <use xlink:href="#recipe-icon-path-17"></use>
                    </mask>
                    <g></g>
                </g>
                <g transform="translate(1.500000, 5.200000)" fill="#E4E4E4" >
                    <path d="M4.72000003,2.92958338 C4.72000003,2.85142583 4.65524091,2.78666671 4.57708336,2.78666671 L1.43291663,2.78666671 C1.35475908,2.78666671 1.28999996,2.85142583 1.28999996,2.92958338 L1.28999996,3.21541672 C1.28999996,3.29357427 1.35475908,3.35833339 1.43291663,3.35833339 L4.57708336,3.35833339 C4.65524091,3.35833339 4.72000003,3.29357427 4.72000003,3.21541672 L4.72000003,2.92958338 Z M4.72000003,1.78625003 C4.72000003,1.70809247 4.65524091,1.64333336 4.57708336,1.64333336 L1.43291663,1.64333336 C1.35475908,1.64333336 1.28999996,1.70809247 1.28999996,1.78625003 L1.28999996,2.07208336 C1.28999996,2.15024092 1.35475908,2.21500003 1.43291663,2.21500003 L4.57708336,2.21500003 C4.65524091,2.21500003 4.72000003,2.15024092 4.72000003,2.07208336 L4.72000003,1.78625003 Z M4.72000003,0.642916669 C4.72000003,0.564759116 4.65524091,0.5 4.57708336,0.5 L1.43291663,0.5 C1.35475908,0.5 1.28999996,0.564759116 1.28999996,0.642916669 L1.28999996,0.928750008 C1.28999996,1.00690756 1.35475908,1.07166668 1.43291663,1.07166668 L4.57708336,1.07166668 C4.65524091,1.07166668 4.72000003,1.00690756 4.72000003,0.928750008 L4.72000003,0.642916669 Z"></path>
                    <path d="M0.5,2.92958338 C0.5,2.85142583 0.490559896,2.78666671 0.479166667,2.78666671 L0.0208333333,2.78666671 C0.00944010417,2.78666671 0,2.85142583 0,2.92958338 L0,3.21541672 C0,3.29357427 0.00944010417,3.35833339 0.0208333333,3.35833339 L0.479166667,3.35833339 C0.490559896,3.35833339 0.5,3.29357427 0.5,3.21541672 L0.5,2.92958338 Z M0.5,1.78625003 C0.5,1.70809247 0.490559896,1.64333336 0.479166667,1.64333336 L0.0208333333,1.64333336 C0.00944010417,1.64333336 0,1.70809247 0,1.78625003 L0,2.07208336 C0,2.15024092 0.00944010417,2.21500003 0.0208333333,2.21500003 L0.479166667,2.21500003 C0.490559896,2.21500003 0.5,2.15024092 0.5,2.07208336 L0.5,1.78625003 Z M0.5,0.642916669 C0.5,0.564759116 0.490559896,0.5 0.479166667,0.5 L0.0208333333,0.5 C0.00944010417,0.5 0,0.564759116 0,0.642916669 L0,0.928750008 C0,1.00690756 0.00944010417,1.07166668 0.0208333333,1.07166668 L0.479166667,1.07166668 C0.490559896,1.07166668 0.5,1.00690756 0.5,0.928750008 L0.5,0.642916669 Z"></path>
                </g>
            </g>
        </g>
    </g>
</svg>
