<!--

    Copyright (c) 2012-2018 Red Hat, Inc.
    This program and the accompanying materials are made
    available under the terms of the Eclipse Public License 2.0
    which is available at https://www.eclipse.org/legal/epl-2.0/

    SPDX-License-Identifier: EPL-2.0

    Contributors:
      Red Hat, Inc. - initial API and implementation

-->
<svg width="72" height="72" viewBox="0 0 72 72" fill="none" xmlns="http://www.w3.org/2000/svg">
<path fill-rule="evenodd" clip-rule="evenodd" d="M35.9075 5.07515C27.6471 5.07515 20.1384 8.2948 14.5782 13.545C13.5578 14.5085 11.9474 14.4646 10.9812 13.4469C10.0151 12.4292 10.0591 10.8231 11.0796 9.85955C17.5472 3.75257 26.2946 0 35.9075 0C55.8429 0 72 16.1138 72 35.9958C72 37.3973 70.8608 38.5334 69.4556 38.5334C68.0504 38.5334 66.9112 37.3973 66.9112 35.9958C66.9112 18.9167 53.0325 5.07515 35.9075 5.07515Z" fill="#0088CC"/>
<path fill-rule="evenodd" clip-rule="evenodd" d="M2.27502 37.0677C3.67234 36.9192 4.92579 37.9286 5.07468 39.3221C6.73235 54.8376 19.9045 66.9247 35.9075 66.9247C43.0871 66.9247 49.684 64.4963 54.9392 60.4199C56.0484 59.5594 57.647 59.7587 58.5097 60.865C59.3724 61.9712 59.1726 63.5655 58.0634 64.4259C51.9477 69.1698 44.2595 71.9999 35.9075 71.9999C17.2758 71.9999 1.945 57.9287 0.0145325 39.8599C-0.134357 38.4663 0.877698 37.2162 2.27502 37.0677Z" fill="#0088CC"/>
<path fill-rule="evenodd" clip-rule="evenodd" d="M20.7665 3.85969C21.7602 2.86871 23.3712 2.86871 24.3649 3.85969L54.8471 34.2602C55.3243 34.7361 55.5923 35.3816 55.5923 36.0546C55.5923 36.7276 55.3243 37.373 54.8471 37.8489L35.3988 57.2451C34.4051 58.2361 32.7941 58.2361 31.8005 57.2451C30.8068 56.2541 30.8068 54.6474 31.8005 53.6564L49.4496 36.0546L20.7665 7.44837C19.7729 6.45739 19.7729 4.85068 20.7665 3.85969Z" fill="#0088CC"/>
<path fill-rule="evenodd" clip-rule="evenodd" d="M22.1984 21.2567C23.192 20.2657 24.8031 20.2657 25.7967 21.2567L39.3406 34.7643C39.8179 35.2402 40.0859 35.8858 40.0859 36.5588C40.0858 37.2319 39.8176 37.8774 39.3403 38.3533L15.0994 62.5208C14.1056 63.5116 12.4946 63.5113 11.5011 62.5202C10.5076 61.529 10.5079 59.9223 11.5017 58.9315L33.9428 36.5583L22.1984 24.8453C21.2047 23.8544 21.2047 22.2477 22.1984 21.2567Z" fill="#0088CC"/>
</svg>
