<?xml version="1.0" encoding="utf-8"?>
<!--

    Copyright (c) 2012-2018 Red Hat, Inc.
    This program and the accompanying materials are made
    available under the terms of the Eclipse Public License 2.0
    which is available at https://www.eclipse.org/legal/epl-2.0/

    SPDX-License-Identifier: EPL-2.0

    Contributors:
      Red Hat, Inc. - initial API and implementation

-->
<!DOCTYPE svg PUBLIC "-//W3C//DTD SVG 1.1//EN" "http://www.w3.org/Graphics/SVG/1.1/DTD/svg11.dtd">
<svg version="1.1" xmlns="http://www.w3.org/2000/svg" xmlns:xlink="http://www.w3.org/1999/xlink" x="0px" y="0px" width="16px"
	 height="16px" viewBox="0 0 32 32" enable-background="new 0 0 32 32" xml:space="preserve">
<g id="_x30_2">
	<g>
		<path id="_x3C_Path_x3E__7_" fill-rule="evenodd" clip-rule="evenodd" fill="#808080" d="M11,8h-1v6h0.449
			c0.043,0,0.081,0.017,0.11,0.046L11,14.49V8L11,8z M10,21.001V24h1v-2.999H10z"/>
		<path id="_x3C_Path_x3E__6_" fill-rule="evenodd" clip-rule="evenodd" fill="#3193D4" d="M8.156,14h2.293
			c0.043,0,0.081,0.017,0.11,0.046l2.396,2.408c0.029,0.029,0.046,0.069,0.046,0.11v4.28c0,0.083-0.072,0.156-0.156,0.156H8.156
			C8.072,21.001,8,20.931,8,20.845v-6.688C8,14.071,8.07,14,8.156,14L8.156,14z M10.058,15H9v5.001h3.001v-2.676h-1.444
			c-0.274,0-0.499-0.224-0.499-0.499V15z"/>
		<path id="_x3C_Path_x3E__5_" fill-rule="evenodd" clip-rule="evenodd" fill="#3193D4" d="M19.155,11h2.293
			c0.043,0,0.081,0.017,0.11,0.046l2.396,2.408C23.984,13.483,24,13.523,24,13.564v4.28C24,17.928,23.928,18,23.844,18h-4.688
			c-0.083,0-0.156-0.07-0.156-0.156v-6.688C18.999,11.07,19.069,11,19.155,11L19.155,11z M21.057,12H20v5h3v-2.675h-1.443
			c-0.275,0-0.5-0.225-0.5-0.5V12z"/>
		<path id="_x3C_Path_x3E__4_" fill-rule="evenodd" clip-rule="evenodd" fill="#808080" d="M21,24v-6h1v6H21L21,24z M21,11V8h1
			v3.489l-0.441-0.443C21.529,11.017,21.491,11,21.448,11H21z"/>
		<path fill-rule="evenodd" clip-rule="evenodd" fill="#808080" d="M17.293,12H16.75c-0.138,0-0.25-0.112-0.25-0.25v-0.5
			c0-0.137,0.112-0.25,0.25-0.25h2l0,0h0.006h0.001l0.006,0v0l0.007,0.001v0l0.006,0.001l0,0l0.006,0h0.001l0.006,0.001l0,0
			l0.006,0.001l0,0l0.007,0.001l0,0l0.005,0.001h0.001l0.006,0.001l0,0l0.006,0.001l0.006,0.002l0,0l0.006,0.002l0.006,0.002l0,0
			l0.006,0.002v0l0.005,0.002l0,0l0.006,0.002l0,0l0.005,0.003l0.001,0l0.005,0.003v0l0.006,0.003l0,0l0.005,0.003l0,0l0.005,0.003
			v0l0.006,0.003v0l0.005,0.004v0l0.005,0.003l0,0l0.005,0.003l0.004,0.004h0.001l0.004,0.004l0.005,0.004l0,0l0.005,0.004
			l0.004,0.004v0l0.005,0.004l0.004,0.004l0,0l0.004,0.004l0.004,0.004l0,0l0.004,0.005l0.004,0.004l0,0l0.004,0.005l0.003,0.005
			l0,0l0.004,0.004v0l0.003,0.005l0,0l0.004,0.005l-0.001,0l0.004,0.005l0,0l0.003,0.005h-0.001l0.004,0.005l-0.001,0l0.003,0.005v0
			l0.003,0.005l0,0l0.003,0.006l0,0l0.002,0.005l0,0l0.002,0.005v0l0.002,0.006l0.002,0.005v0l0.002,0.006l0.002,0.005v0
			l0.001,0.006v0l0.002,0.005l0,0l0.001,0.006h-0.001l0.002,0.006v0l0.001,0.006l-0.001,0l0.001,0.006l0,0l0.001,0.006l0,0v0.006v0
			L19,11.243h-0.001L19,11.25l-0.001,0l0.001,2c-0.001,0.138-0.112,0.25-0.25,0.25h-0.501C18.112,13.5,18,13.388,18,13.25v-0.543
			l-4.999,4.999v-1.142c0-0.041-0.017-0.081-0.046-0.11l-0.059-0.059L17.293,12z"/>
		<path fill-rule="evenodd" clip-rule="evenodd" fill="#808080" d="M14.708,20h0.543c0.138,0,0.25,0.112,0.25,0.25v0.501
			c0,0.137-0.112,0.249-0.25,0.25l-2-0.001v0.001L13.244,21v0.001L13.238,21l0,0l-0.007-0.001V21l-0.006-0.001h-0.001l-0.006-0.001
			l0,0l-0.006-0.001l0,0l-0.006-0.001l0,0L13.2,20.995l0,0l-0.006-0.001l0,0l-0.006-0.002l0,0l-0.006-0.001l-0.006-0.002l0,0
			l-0.006-0.002l-0.006-0.002l0,0l-0.006-0.003v0.001l-0.005-0.003h-0.001l-0.005-0.002l0,0l-0.006-0.003l0,0l-0.006-0.003l0,0
			l-0.005-0.003l0,0l-0.005-0.002h-0.001l-0.004-0.004h-0.001l-0.005-0.003l0,0l-0.005-0.004v0.001l-0.005-0.004l0,0l-0.005-0.003
			l-0.005-0.004l0,0l-0.005-0.004l-0.005-0.004l0,0l-0.004-0.004l-0.005-0.005v0.001l-0.004-0.005l-0.004-0.004l0,0l-0.004-0.004
			l-0.004-0.005l0,0l-0.005-0.005l-0.004-0.005h0.001l-0.004-0.005l-0.004-0.005l0,0l-0.003-0.004V20.89l-0.004-0.005l0,0
			l-0.003-0.005l0,0l-0.003-0.005l0,0l-0.003-0.006l0,0l-0.003-0.005l0,0l-0.003-0.006l0,0l-0.002-0.005l0,0l-0.003-0.006l0,0
			l-0.002-0.006l0,0l-0.002-0.005v-0.001l-0.002-0.006l-0.003-0.005v-0.001l-0.001-0.006l-0.002-0.005v-0.001l-0.001-0.006l0,0
			l-0.002-0.006l0,0l-0.001-0.006l0,0l-0.001-0.006v-0.001l-0.001-0.006l0,0l-0.001-0.006h0.001l-0.001-0.007l0,0l-0.001-0.006l0,0
			v-0.007l0,0v-0.006l0,0V18.75c0-0.138,0.112-0.25,0.25-0.249h0.5c0.138-0.001,0.25,0.111,0.25,0.249v0.543l4.998-4.998v1.415
			L14.708,20z"/>
	</g>
</g>
</svg>
