<?xml version="1.0" encoding="utf-8"?>
<!--

    Copyright (c) 2012-2017 Codenvy, S.A.
    All rights reserved. This program and the accompanying materials
    are made available under the terms of the Eclipse Public License v1.0
    which accompanies this distribution, and is available at
    http://www.eclipse.org/legal/epl-v10.html

    Contributors:
      Codenvy, S.A. - initial API and implementation

-->
<!DOCTYPE svg PUBLIC "-//W3C//DTD SVG 1.1//EN" "http://www.w3.org/Graphics/SVG/1.1/DTD/svg11.dtd">
<svg version="1.1" xmlns="http://www.w3.org/2000/svg" xmlns:xlink="http://www.w3.org/1999/xlink" x="0px" y="0px" width="12px"
	 height="12px" viewBox="8 8 16 16" enable-background="new 8 8 16 16" xml:space="preserve">
<g id="_x31_1">
	<path id="_x3C_Path_x3E__23_" fill-rule="evenodd" clip-rule="evenodd" fill="#808080" d="M20.01,15h-9.009c-0.55,0-1,0.452-1,1
		v4.637l-0.594-0.593c-0.176-0.176-0.462-0.176-0.637,0l-0.638,0.638c-0.176,0.175-0.176,0.461,0,0.637l2.55,2.55l0,0l0.008,0.008
		v0.001l0.009,0.007v0.001l0.009,0.007l0,0l0.009,0.007l0,0l0.009,0.007v0.001l0.009,0.006v0.001l0.009,0.006v0.001l0.01,0.006l0,0
		l0.009,0.006l0,0l0.01,0.006v0.001l0.01,0.004l0.01,0.006v0.001l0.01,0.004l0.01,0.005v0.001l0.01,0.004l0,0l0.011,0.004l0,0
		l0.011,0.004v0.001l0.01,0.003l0,0l0.011,0.003v0.001l0.011,0.002v0.001l0.01,0.003l0,0l0.011,0.002v0.001l0.011,0.002v0.001
		l0.011,0.001v0.001l0.01,0.001l0,0l0.011,0.002l0.011,0.001v0.001h0.011l0.012,0.001v0.001h0.011h0.011V24h0.011h0.011v-0.001
		h0.011h0.011v-0.001l0.011-0.001h0.011v-0.001l0.011-0.001l0.011-0.002l0,0l0.011-0.001v-0.001l0.011-0.001v-0.001l0.011-0.002
		v-0.001l0.01-0.002l0,0l0.011-0.003V23.98l0.011-0.002v-0.001l0.01-0.003l0,0l0.011-0.003v-0.001l0.01-0.004l0,0l0.011-0.004l0,0
		l0.01-0.004v-0.001l0.01-0.005l0.01-0.004v-0.001l0.01-0.006l0.01-0.004v-0.001l0.01-0.006l0,0l0.009-0.006l0,0l0.01-0.006v-0.001
		l0.009-0.006v-0.001l0.01-0.006v-0.001l0.009-0.007l0,0l0.008-0.007l0,0l0.01-0.007v-0.001l0.008-0.007v-0.001l0.009-0.008l0,0
		l2.55-2.55c0.176-0.176,0.176-0.462,0-0.637l-0.639-0.638c-0.175-0.176-0.461-0.176-0.637,0l-0.593,0.593V17h9.009
		c0.55,0,1-0.451,1-1V9.146c0.006-0.045,0.009,0.163,0.009-0.137s-0.447-1-1-1c-0.552,0-1,0.447-1,1H20.01V15L20.01,15z M22,17.735
		v2.901l0.594-0.593c0.176-0.176,0.462-0.176,0.637,0l0.638,0.638c0.176,0.175,0.176,0.461,0,0.637l-2.55,2.55l0,0l-0.008,0.008
		v0.001l-0.009,0.007v0.001l-0.009,0.007l0,0l-0.009,0.007l0,0l-0.009,0.007v0.001l-0.009,0.006v0.001l-0.009,0.006v0.001
		l-0.01,0.006l0,0l-0.009,0.006l0,0l-0.01,0.006v0.001l-0.01,0.004l-0.01,0.006v0.001l-0.01,0.004l-0.011,0.005v0.001l-0.01,0.004
		l0,0l-0.01,0.004l0,0l-0.011,0.004v0.001l-0.01,0.003l0,0l-0.011,0.003v0.001l-0.011,0.002v0.001l-0.01,0.003l0,0l-0.011,0.002
		v0.001l-0.011,0.002v0.001l-0.011,0.001v0.001l-0.01,0.001l0,0l-0.011,0.002l-0.011,0.001v0.001h-0.011l-0.012,0.001v0.001h-0.011
		h-0.011V24H21h-0.011v-0.001h-0.011h-0.011v-0.001l-0.011-0.001h-0.011v-0.001l-0.011-0.001l-0.011-0.002l0,0l-0.011-0.001v-0.001
		l-0.011-0.001v-0.001l-0.011-0.002v-0.001l-0.01-0.002l0,0l-0.011-0.003V23.98l-0.011-0.002v-0.001l-0.01-0.003l0,0l-0.011-0.003
		v-0.001l-0.01-0.004l0,0l-0.011-0.004l0,0l-0.01-0.004v-0.001l-0.01-0.005l-0.01-0.004v-0.001l-0.01-0.006l-0.01-0.004v-0.001
		l-0.01-0.006l0,0l-0.01-0.006l0,0l-0.009-0.006v-0.001l-0.009-0.006v-0.001l-0.01-0.006v-0.001l-0.009-0.007l0,0l-0.009-0.007l0,0
		l-0.009-0.007v-0.001l-0.008-0.007v-0.001l-0.009-0.008l0,0l-2.55-2.55c-0.176-0.176-0.176-0.462,0-0.637l0.638-0.638
		c0.176-0.176,0.461-0.176,0.638,0L20,20.637V18h1.01C21.369,18,21.708,17.903,22,17.735z"/>
</g>
</svg>
