<?xml version="1.0" encoding="utf-8"?>
<!--

    Copyright (c) 2012-2016 Codenvy, S.A.
    All rights reserved. This program and the accompanying materials
    are made available under the terms of the Eclipse Public License v1.0
    which accompanies this distribution, and is available at
    http://www.eclipse.org/legal/epl-v10.html

    Contributors:
      Codenvy, S.A. - initial API and implementation

-->
<!DOCTYPE svg PUBLIC "-//W3C//DTD SVG 1.1//EN" "http://www.w3.org/Graphics/SVG/1.1/DTD/svg11.dtd">
<svg version="1.1" xmlns="http://www.w3.org/2000/svg" xmlns:xlink="http://www.w3.org/1999/xlink" x="0px" y="0px" width="32px"
	 height="32px" viewBox="0 0 32 32" enable-background="new 0 0 32 32" xml:space="preserve">
<g id="_x31_4_1_">
	<g>
		<path id="_x3C_Path_x3E__27_" fill-rule="evenodd" clip-rule="evenodd" fill="#E0B91D" d="M18,8h-8c-1.099,0-1.999,0.9-1.999,2
			c0,2.833,0,9.167,0,12c0,1.101,0.899,2,1.999,2h6.429c-0.687-0.516-1.235-1.204-1.583-2H10v-1h4.529
			c-0.066-0.323-0.101-0.657-0.101-1H10v-8h8v3.208C18.452,15.073,18.932,15,19.429,15c0.193,0,0.384,0.011,0.57,0.033V10
			C19.999,8.9,19.098,8,18,8L18,8z M18,10v1h-8v-1H18z"/>
		<path id="_x3C_Path_x3E__26_" fill-rule="evenodd" clip-rule="evenodd" fill="#808080" d="M19.429,16c2.209,0,4,1.791,4,4
			s-1.791,4-4,4s-4-1.791-4-4S17.22,16,19.429,16L19.429,16z M19.929,20.095v-1.75c0-0.138-0.112-0.25-0.25-0.25h-0.5
			c-0.138,0-0.25,0.112-0.25,0.25v1.75l-0.384-0.384c-0.098-0.097-0.256-0.097-0.354,0l-0.354,0.354
			c-0.098,0.097-0.098,0.255,0,0.353l1.414,1.414v0.001l0.005,0.004l0,0l0.005,0.004v0.001l0.005,0.004l0,0l0.005,0.004l0,0
			l0.005,0.004l0,0l0.005,0.004l0,0l0.005,0.003v0.001l0.005,0.003v0.001l0.006,0.002v0.001l0.005,0.003l0,0l0.005,0.003
			l0.006,0.003l0,0l0.006,0.003l0.005,0.002v0.001l0.006,0.002l0,0l0.006,0.002v0.001l0.005,0.002l0,0l0.006,0.002l0,0l0.006,0.002
			l0,0l0.006,0.002l0,0l0.006,0.001v0.001l0.006,0.001l0,0l0.006,0.001l0,0l0.006,0.001v0.001l0.006,0.001l0,0l0.006,0.001h0.006
			v0.001h0.006h0.007v0.001h0.006h0.006l0,0h0.006h0.006l0,0h0.006h0.006v-0.001h0.007h0.006v-0.001h0.006l0.006-0.001l0,0
			l0.006-0.001V21.9l0.006-0.001l0,0l0.006-0.001l0,0l0.006-0.001v-0.001l0.006-0.001l0,0l0.006-0.002l0,0l0.006-0.002l0,0
			l0.006-0.002l0,0l0.005-0.002v-0.001l0.006-0.002l0,0l0.006-0.002v-0.001l0.005-0.002l0.006-0.003l0,0l0.006-0.003l0.005-0.003
			l0,0l0.006-0.003v-0.001l0.005-0.002v-0.001l0.005-0.003V21.86l0.005-0.003l0,0l0.006-0.004l0,0l0.004-0.004l0,0l0.005-0.004l0,0
			l0.005-0.004v-0.001l0.005-0.004l0,0l0.005-0.004v-0.001l1.414-1.414c0.098-0.098,0.098-0.256,0-0.353l-0.354-0.354
			c-0.098-0.097-0.256-0.097-0.354,0L19.929,20.095z"/>
	</g>
</g>
</svg>
