<?xml version="1.0" encoding="UTF-8" standalone="no"?>
<!--

    Copyright (c) 2012-2018 Red Hat, Inc.
    This program and the accompanying materials are made
    available under the terms of the Eclipse Public License 2.0
    which is available at https://www.eclipse.org/legal/epl-2.0/

    SPDX-License-Identifier: EPL-2.0

    Contributors:
      Red Hat, Inc. - initial API and implementation

-->
<svg xmlns="http://www.w3.org/2000/svg" enable-background="new 0 0 32 32" xml:space="preserve" height="32px" width="32px" version="1.1" y="0px" x="0px" xmlns:cc="http://creativecommons.org/ns#" xmlns:dc="http://purl.org/dc/elements/1.1/" viewBox="0 0 32 32"><g id="_x31_5_1_" transform="matrix(1.8771118,0,0,1.8771118,-14.075636,-15.038004)"><path id="_x3C_Path_x3E__28_" d="m9.146,15.005c-0.044-0.006-0.09-0.009-0.137-0.009-0.553,0-1,0.447-1,1,0,0.552,0.447,1,1,1v0.009h4.163c0.415,1.163,1.524,1.995,2.829,1.995,1.304,0,2.413-0.832,2.827-1.995h4.163v-0.009c0.553,0,1-0.448,1-1,0-0.553-0.447-1-1-1-0.047,0-0.093,0.003-0.137,0.009h-4.023c-0.411-1.168-1.522-2.005-2.83-2.005-1.309,0-2.42,0.837-2.831,2.004h-4.024v0.001zm6.855-0.005c0.553,0,1,0.447,1,1s-0.447,1-1,1c-0.554,0-1.001-0.447-1.001-1s0.447-1,1.001-1z" fill-rule="evenodd" clip-rule="evenodd" fill="#808080"/></g></svg>
