<?xml version="1.0" encoding="utf-8"?>
<!--

    Copyright (c) 2012-2016 Codenvy, S.A.
    All rights reserved. This program and the accompanying materials
    are made available under the terms of the Eclipse Public License v1.0
    which accompanies this distribution, and is available at
    http://www.eclipse.org/legal/epl-v10.html

    Contributors:
      Codenvy, S.A. - initial API and implementation

-->
<!DOCTYPE svg PUBLIC "-//W3C//DTD SVG 1.1//EN" "http://www.w3.org/Graphics/SVG/1.1/DTD/svg11.dtd">
<svg version="1.1" xmlns="http://www.w3.org/2000/svg" xmlns:xlink="http://www.w3.org/1999/xlink" x="0px" y="0px" width="32px"
	 height="32px" viewBox="0 0 32 32" enable-background="new 0 0 32 32" xml:space="preserve">
<g id="_x31_7_1_">
	<path id="_x3C_Path_x3E__31_" fill-rule="evenodd" clip-rule="evenodd" fill="#808080" d="M24.001,16c0,1.104-0.896,2-2.001,2
		c-1.104,0-2-0.896-2-2c0-1.104,0.896-2,2-2C23.104,14,24.001,14.896,24.001,16L24.001,16z M19.172,17h-7.808l0.593,0.594
		c0.176,0.176,0.176,0.462,0,0.637l-0.638,0.638c-0.175,0.176-0.461,0.176-0.637,0l-2.55-2.55l0,0L8.125,16.31H8.124l-0.007-0.008
		H8.116l-0.007-0.009l0,0l-0.007-0.009H8.102l-0.007-0.008l0,0l-0.006-0.01H8.088l-0.006-0.009H8.081l-0.006-0.009H8.074
		l-0.005-0.009H8.068l-0.005-0.01H8.063L8.058,16.22l-0.005-0.01H8.052L8.048,16.2l-0.005-0.01H8.042l-0.004-0.01l0,0l-0.004-0.01
		l0,0L8.03,16.16H8.029l-0.003-0.01l0,0l-0.003-0.011H8.022l-0.003-0.01l0,0l-0.003-0.01l0,0l-0.002-0.011H8.014l-0.002-0.011H8.011
		L8.01,16.086H8.009l-0.001-0.01H8.007l-0.001-0.011l-0.002-0.011l0,0l-0.001-0.011v-0.011H8.002l-0.001-0.011v-0.011l0,0V16v-0.011
		l0,0v-0.011l0.001-0.011h0.001v-0.011l0.001-0.011l0,0l0.002-0.011l0.001-0.011h0.001l0.001-0.01H8.01l0.001-0.011h0.001
		l0.002-0.011h0.001l0.002-0.01l0,0l0.003-0.01l0,0l0.003-0.011h0.001l0.003-0.01l0,0l0.003-0.01H8.03l0.004-0.01l0,0l0.004-0.01
		l0,0l0.004-0.01h0.001l0.005-0.01l0.004-0.01h0.001l0.005-0.01l0.005-0.01h0.001l0.005-0.009h0.001l0.005-0.009h0.001l0.006-0.009
		h0.001l0.006-0.009h0.001l0.006-0.009l0,0l0.007-0.008h0.001l0.007-0.009l0,0l0.007-0.009h0.001l0.007-0.009h0.001l0.008-0.008l0,0
		l2.55-2.55c0.176-0.175,0.462-0.175,0.637,0l0.638,0.638c0.176,0.175,0.176,0.461,0,0.637L11.364,15h7.808
		c-0.11,0.313-0.171,0.65-0.171,1S19.061,16.688,19.172,17z"/>
</g>
</svg>
