<?xml version="1.0" encoding="UTF-8" standalone="no"?>
<!--

    Copyright (c) 2012-2018 Red Hat, Inc.
    This program and the accompanying materials are made
    available under the terms of the Eclipse Public License 2.0
    which is available at https://www.eclipse.org/legal/epl-2.0/

    SPDX-License-Identifier: EPL-2.0

    Contributors:
      Red Hat, Inc. - initial API and implementation

-->
<svg xmlns="http://www.w3.org/2000/svg" enable-background="new 0 0 32 32" xml:space="preserve" height="32px" width="32px" version="1.1" y="0px" x="0px" xmlns:cc="http://creativecommons.org/ns#" xmlns:dc="http://purl.org/dc/elements/1.1/" viewBox="0 0 32 32"><g id="_x31_7_1_" transform="matrix(1.875,0,0,1.875,-14.051722,-14.998756)"><path id="_x3C_Path_x3E__31_" d="m24.001,16c0,1.104-0.896,2-2.001,2-1.104,0-2-0.896-2-2s0.896-2,2-2,2.001,0.896,2.001,2zm-4.829,1h-7.808l0.593,0.594c0.176,0.176,0.176,0.462,0,0.637l-0.638,0.638c-0.175,0.176-0.461,0.176-0.637,0l-2.55-2.55-0.007-0.009h-0.001l-0.007-0.008h-0.001l-0.007-0.009-0.007-0.009-0.007-0.008-0.006-0.01h-0.001l-0.006-0.009h-0.001l-0.006-0.009h-0.001l-0.005-0.009h-0.001l-0.005-0.01-0.005-0.009-0.005-0.01h-0.001l-0.004-0.01-0.005-0.01h-0.001l-0.004-0.01-0.004-0.01-0.004-0.01h-0.001l-0.003-0.01-0.003-0.011h-0.001l-0.003-0.01-0.003-0.01-0.002-0.011-0.002-0.011h-0.001l-0.001-0.011h-0.001l-0.001-0.01h-0.001l-0.001-0.011-0.002-0.011-0.001-0.011v-0.011h-0.001l-0.001-0.011v-0.043l0.001-0.011h0.001v-0.011l0.001-0.011,0.002-0.011,0.001-0.011h0.001l0.001-0.01h0.001l0.001-0.011h0.001l0.002-0.011h0.001l0.002-0.01,0.003-0.01,0.003-0.011h0.001l0.003-0.01,0.003-0.01,0.004-0.01,0.004-0.01,0.004-0.01h0.001l0.005-0.01,0.004-0.01h0.001l0.005-0.01,0.005-0.01h0.001l0.005-0.009h0.001l0.005-0.009h0.001l0.006-0.009h0.001l0.006-0.009h0.001l0.006-0.009,0.007-0.008h0.001l0.007-0.009,0.007-0.009h0.001l0.007-0.009h0.001l0.008-0.008,2.55-2.55c0.176-0.175,0.462-0.175,0.637,0l0.638,0.638c0.176,0.175,0.176,0.461,0,0.637l-0.596,0.593h7.808c-0.11,0.313-0.171,0.65-0.171,1s0.06,0.688,0.171,1z" fill-rule="evenodd" clip-rule="evenodd" fill="#808080"/></g></svg>
