<?xml version="1.0" encoding="UTF-8" standalone="no"?>
<!--

    Copyright (c) 2012-2018 Red Hat, Inc.
    This program and the accompanying materials are made
    available under the terms of the Eclipse Public License 2.0
    which is available at https://www.eclipse.org/legal/epl-2.0/

    SPDX-License-Identifier: EPL-2.0

    Contributors:
      Red Hat, Inc. - initial API and implementation

-->
<svg width="101px" height="88px" viewBox="0 0 101 88" version="1.1" xmlns="http://www.w3.org/2000/svg" xmlns:xlink="http://www.w3.org/1999/xlink">
    <g stroke="none" stroke-width="1" fill="none" fill-rule="evenodd">
        <g fill="#AAAAAA">
            <path d="M100.330002,8.89581946 C100.330002,4.48182252 96.7383054,0.903570993 92.3286748,0.903570993 L23.1856562,0.903570993 L41.6178743,19.8042163 C44.0891935,18.9741879 46.9237644,19.5312069 48.8929711,21.4882738 C50.8742527,23.458341 51.4286895,26.298438 50.5733877,28.7635222 L60.8219163,38.9488699 C63.3022916,38.0988409 66.1620185,38.6478596 68.1433,40.6199269 C70.910453,43.3690208 70.910453,47.826173 68.1433,50.5772669 C65.3741345,53.3293609 60.8903404,53.3293609 58.1201687,50.5772669 C56.0382634,48.5071962 55.524076,45.4670924 56.5786129,42.9190054 L47.019357,33.4196811 L47.019357,58.4165346 C47.6935361,58.7485459 48.3304844,59.191561 48.8929711,59.74858 C51.6601242,62.4986739 51.6601242,66.9548261 48.8929711,69.7089201 C46.1258181,72.4580139 41.6390053,72.4580139 38.8738647,69.7089201 C36.1067117,66.9548261 36.1067117,62.4986739 38.8738647,59.74858 C39.5571,59.0695568 40.3500151,58.5555393 41.1942483,58.2115276 L41.1942483,32.9826662 C40.3500151,32.6396545 39.5591124,32.1296371 38.8738647,31.4466138 C36.7778721,29.3645427 36.2737471,26.3064383 37.3484087,23.7483509 L15.3887374,0.903570993 L8.00987938,0.903570993 C3.58614515,0.903570993 0,4.48225801 0,8.89581953 L0,79.7249821 C0,84.1389791 3.58557446,87.7172306 7.99866123,87.7172306 L92.3313406,87.71723 C96.7488792,87.71723 100.330002,84.138543 100.330002,79.7249815 L100.330002,8.89581946 Z"></path>
        </g>
    </g>
</svg>
