<?xml version="1.0" encoding="UTF-8" standalone="no"?>
<!--

    Copyright (c) 2012-2018 Red Hat, Inc.
    This program and the accompanying materials are made
    available under the terms of the Eclipse Public License 2.0
    which is available at https://www.eclipse.org/legal/epl-2.0/

    SPDX-License-Identifier: EPL-2.0

    Contributors:
      Red Hat, Inc. - initial API and implementation

-->
<svg xmlns="http://www.w3.org/2000/svg" enable-background="new 0 0 32 32" xml:space="preserve" height="32px" width="32px" version="1.1" y="0px" x="0px" xmlns:cc="http://creativecommons.org/ns#" xmlns:dc="http://purl.org/dc/elements/1.1/" viewBox="0 0 32 32"><g id="_x31_9_1_" transform="matrix(1.8727761,0,0,1.8727761,-13.888735,-13.898397)"><path id="path5" d="m17,17v3.637l0.593-0.593c0.176-0.176,0.462-0.176,0.637,0l0.639,0.638c0.176,0.175,0.176,0.461,0,0.637l-2.55,2.55-0.009,0.008v0.001l-0.008,0.007v0.001l-0.009,0.007-0.009,0.007-0.009,0.007v0.001l-0.01,0.006v0.001l-0.009,0.006v0.001l-0.01,0.006-0.009,0.006-0.01,0.006v0.001l-0.01,0.004-0.01,0.006v0.001l-0.01,0.004-0.01,0.005v0.001l-0.01,0.004-0.011,0.004-0.01,0.004v0.001l-0.011,0.003-0.011,0.003v0.001l-0.01,0.002v0.001l-0.011,0.003-0.01,0.002v0.001l-0.011,0.002v0.001l-0.011,0.001v0.001l-0.011,0.001-0.011,0.002-0.011,0.001v0.001h-0.011l-0.011,0.001v0.001h-0.022v-0.003h-0.015v-0.001h-0.022v-0.001l-0.012-0.001h-0.011v-0.001l-0.011-0.001-0.011-0.002-0.01-0.001v-0.001l-0.011-0.001v-0.001l-0.011-0.002v-0.001l-0.011-0.002-0.01-0.003v-0.001l-0.011-0.002v-0.001l-0.011-0.003-0.01-0.003v-0.001l-0.011-0.004-0.011-0.004-0.009-0.004v-0.001l-0.006-0.004-0.01-0.004v-0.001l-0.01-0.006-0.01-0.004v-0.001l-0.01-0.006-0.009-0.006-0.01-0.006v-0.001l-0.009-0.006v-0.001l-0.01-0.006v-0.001l-0.008-0.007-0.009-0.007-0.009-0.007v-0.001l-0.009-0.007v-0.001l-0.008-0.008-2.55-2.55c-0.176-0.176-0.176-0.462,0-0.637l0.638-0.638c0.175-0.176,0.461-0.176,0.637,0l0.596,0.596v-3.637h-6c-0.55,0-1-0.451-1-1v-6.854c-0.007-0.044-0.01,0.163-0.01-0.136s0.448-1,1-1c0.553,0,1,0.447,1,1h0.01v5.99h11.999v-5.99h0.01c0-0.553,0.447-1,1-1s1,0.701,1,1-0.003,0.092-0.009,0.136v6.854c0,0.549-0.45,1-1,1h-6z" fill-rule="evenodd" clip-rule="evenodd" fill="#808080"/></g></svg>
