<?xml version="1.0" encoding="UTF-8" standalone="no"?>
<!--

    Copyright (c) 2012-2018 Red Hat, Inc.
    This program and the accompanying materials are made
    available under the terms of the Eclipse Public License 2.0
    which is available at https://www.eclipse.org/legal/epl-2.0/

    SPDX-License-Identifier: EPL-2.0

    Contributors:
      Red Hat, Inc. - initial API and implementation

-->
<svg xmlns="http://www.w3.org/2000/svg" enable-background="new 0 0 32 32" xml:space="preserve" height="32px" width="32px" version="1.1" y="0px" x="0px" xmlns:cc="http://creativecommons.org/ns#" xmlns:dc="http://purl.org/dc/elements/1.1/" viewBox="0 0 32 32"><g id="_x32_0_1_" transform="matrix(1.8746485,0,0,1.8746485,-13.944078,-14.214527)"><path id="_x3C_Path_x3E__34_" d="m16,8c1.104,0,2,0.896,2,2s-0.896,2-2,2-2-0.896-2-2,0.896-2,2-2zm1,4.829v7.808l0.593-0.593c0.176-0.176,0.462-0.176,0.638,0l0.638,0.638c0.176,0.175,0.176,0.461,0,0.637l-2.55,2.55-0.009,0.008v0.001l-0.008,0.007v0.001l-0.009,0.007-0.009,0.007-0.009,0.007v0.001l-0.01,0.006v0.001l-0.009,0.006v0.001l-0.01,0.006-0.009,0.006-0.01,0.006v0.001l-0.01,0.004-0.01,0.006v0.001l-0.01,0.004-0.01,0.005v0.001l-0.01,0.004-0.011,0.004-0.01,0.004v0.001l-0.01,0.003-0.011,0.003v0.001l-0.011,0.002v0.001l-0.01,0.003-0.011,0.002v0.001l-0.011,0.002v0.001l-0.011,0.001v0.001l-0.011,0.001-0.011,0.002-0.011,0.001v0.001h-0.011l-0.011,0.001v0.001h-0.022v-0.003h-0.015v-0.001h-0.022v-0.001l-0.012-0.001h-0.011v-0.001l-0.011-0.001-0.011-0.002-0.01-0.001v-0.001l-0.011-0.001v-0.001l-0.011-0.002v-0.001l-0.011-0.002-0.01-0.003v-0.001l-0.011-0.002v-0.001l-0.011-0.003-0.01-0.003v-0.001l-0.011-0.004-0.011-0.004-0.009-0.004v-0.001l-0.006-0.004-0.01-0.004v-0.001l-0.01-0.006-0.01-0.004v-0.001l-0.01-0.006-0.009-0.006-0.01-0.006v-0.001l-0.009-0.006v-0.001l-0.01-0.006v-0.001l-0.008-0.007-0.009-0.007-0.009-0.007v-0.001l-0.009-0.007v-0.001l-0.008-0.008-2.55-2.55c-0.176-0.176-0.176-0.462,0-0.637l0.638-0.638c0.175-0.176,0.461-0.176,0.637,0l0.596,0.596v-7.808c0.313,0.11,0.649,0.171,1,0.171s0.688-0.06,1-0.171z" fill-rule="evenodd" clip-rule="evenodd" fill="#808080"/></g></svg>
