<?xml version="1.0" encoding="utf-8"?>
<!--

    Copyright (c) 2012-2016 Codenvy, S.A.
    All rights reserved. This program and the accompanying materials
    are made available under the terms of the Eclipse Public License v1.0
    which accompanies this distribution, and is available at
    http://www.eclipse.org/legal/epl-v10.html

    Contributors:
      Codenvy, S.A. - initial API and implementation

-->
<!DOCTYPE svg PUBLIC "-//W3C//DTD SVG 1.1//EN" "http://www.w3.org/Graphics/SVG/1.1/DTD/svg11.dtd">
<svg version="1.1" xmlns="http://www.w3.org/2000/svg" xmlns:xlink="http://www.w3.org/1999/xlink" x="0px" y="0px" width="32px"
	 height="32px" viewBox="0 0 32 32" enable-background="new 0 0 32 32" xml:space="preserve">
<g id="_x32_0_1_">
	<path id="_x3C_Path_x3E__34_" fill-rule="evenodd" clip-rule="evenodd" fill="#808080" d="M16,8c1.104,0,2,0.896,2,2
		c0,1.104-0.896,2-2,2s-2-0.896-2-2C14,8.896,14.896,8,16,8L16,8z M17,12.829v7.808l0.593-0.593c0.176-0.176,0.462-0.176,0.638,0
		l0.638,0.638c0.176,0.175,0.176,0.461,0,0.637l-2.55,2.55l0,0l-0.009,0.008v0.001l-0.008,0.007v0.001l-0.009,0.007l0,0
		l-0.009,0.007l0,0l-0.009,0.007v0.001l-0.01,0.006v0.001l-0.009,0.006v0.001l-0.01,0.006l0,0l-0.009,0.006l0,0l-0.01,0.006v0.001
		l-0.01,0.004l-0.01,0.006v0.001l-0.01,0.004l-0.01,0.005v0.001l-0.01,0.004l0,0l-0.011,0.004l0,0l-0.01,0.004v0.001l-0.01,0.003
		l0,0l-0.011,0.003v0.001l-0.011,0.002v0.001l-0.01,0.003l0,0l-0.011,0.002v0.001l-0.011,0.002v0.001l-0.011,0.001v0.001
		l-0.011,0.001l0,0l-0.011,0.002l-0.011,0.001v0.001h-0.011l-0.011,0.001v0.001h-0.011h-0.011V24H16h-0.011v-0.001h-0.011h-0.011
		v-0.001l-0.012-0.001h-0.011v-0.001l-0.011-0.001l-0.011-0.002l0,0l-0.01-0.001v-0.001l-0.011-0.001v-0.001l-0.011-0.002v-0.001
		l-0.011-0.002l0,0l-0.01-0.003V23.98l-0.011-0.002v-0.001l-0.011-0.003l0,0l-0.01-0.003v-0.001l-0.011-0.004l0,0l-0.011-0.004l0,0
		l-0.009-0.004v-0.001L15.8,23.953l-0.01-0.004v-0.001l-0.01-0.006l-0.01-0.004v-0.001l-0.01-0.006l0,0l-0.009-0.006l0,0
		l-0.01-0.006v-0.001l-0.009-0.006v-0.001l-0.01-0.006v-0.001l-0.008-0.007l0,0l-0.009-0.007l0,0l-0.009-0.007v-0.001l-0.009-0.007
		v-0.001l-0.008-0.008l0,0l-2.55-2.55c-0.176-0.176-0.176-0.462,0-0.637l0.638-0.638c0.175-0.176,0.461-0.176,0.637,0L15,20.637
		v-7.808C15.313,12.939,15.649,13,16,13S16.688,12.94,17,12.829z"/>
</g>
</svg>
