<?xml version="1.0" encoding="UTF-8" standalone="no"?>
<!--

    Copyright (c) 2012-2018 Red Hat, Inc.
    This program and the accompanying materials are made
    available under the terms of the Eclipse Public License 2.0
    which is available at https://www.eclipse.org/legal/epl-2.0/

    SPDX-License-Identifier: EPL-2.0

    Contributors:
      Red Hat, Inc. - initial API and implementation

-->
<svg xmlns="http://www.w3.org/2000/svg" enable-background="new 0 0 32 32" xml:space="preserve" height="32px" width="32px" version="1.1" y="0px" x="0px" xmlns:cc="http://creativecommons.org/ns#" xmlns:dc="http://purl.org/dc/elements/1.1/" viewBox="0 0 32 32"><g id="_x32_1_1_" transform="matrix(1.875,0,0,1.875,-13.948646,-14.220339)"><path id="_x3C_Path_x3E__35_" d="m16,24c1.104,0,2-0.896,2-2s-0.896-2-2-2-2,0.896-2,2,0.896,2,2,2zm1-4.829v-7.808l0.593,0.594c0.177,0.175,0.462,0.175,0.638,0l0.638-0.639c0.176-0.174,0.176-0.46,0-0.637l-2.55-2.549-0.009-0.008-0.008-0.007-0.01-0.007-0.008-0.007-0.009-0.007-0.01-0.006-0.009-0.006v-0.003l-0.01-0.006-0.009-0.005-0.01-0.006-0.007-0.006-0.01-0.006-0.011-0.004-0.01-0.005-0.01-0.004-0.011-0.003v-0.003l-0.01-0.003v-0.001l-0.01-0.003-0.011-0.003-0.009-0.003v-0.001l-0.01-0.002v-0.001l-0.011-0.002-0.011-0.002v-0.002l-0.011-0.001v-0.001l-0.011-0.001-0.011-0.002-0.011-0.001h-0.011-0.011v-0.003h-0.011-0.011v-0.001h-0.019v0.001h-0.011-0.011v0.001h-0.012-0.011l-0.011,0.001-0.011,0.002-0.01,0.001v0.001l-0.009,0.003v0.001l-0.011,0.002-0.011,0.002v0.001l-0.01,0.002v0.002l-0.011,0.002-0.011,0.003-0.01,0.003v0.002l-0.009,0.003v0.001l-0.011,0.003-0.01,0.004-0.009,0.006-0.01,0.004-0.01,0.006-0.01,0.005-0.01,0.006-0.009,0.005-0.009,0.006v0.001l-0.01,0.006-0.01,0.006-0.008,0.007-0.009,0.007-0.009,0.007-0.009,0.007-0.008,0.008-2.55,2.549c-0.176,0.176-0.176,0.462,0,0.637l0.638,0.639c0.175,0.175,0.461,0.175,0.637,0l0.596-0.59v7.808c0.313-0.11,0.649-0.171,1-0.171s0.688,0.061,1,0.171z" fill-rule="evenodd" clip-rule="evenodd" fill="#808080"/></g></svg>
