<?xml version="1.0" encoding="utf-8"?>
<!--

    Copyright (c) 2012-2016 Codenvy, S.A.
    All rights reserved. This program and the accompanying materials
    are made available under the terms of the Eclipse Public License v1.0
    which accompanies this distribution, and is available at
    http://www.eclipse.org/legal/epl-v10.html

    Contributors:
      Codenvy, S.A. - initial API and implementation

-->
<!DOCTYPE svg PUBLIC "-//W3C//DTD SVG 1.1//EN" "http://www.w3.org/Graphics/SVG/1.1/DTD/svg11.dtd">
<svg version="1.1" xmlns="http://www.w3.org/2000/svg" xmlns:xlink="http://www.w3.org/1999/xlink" x="0px" y="0px" width="32px"
	 height="32px" viewBox="0 0 32 32" enable-background="new 0 0 32 32" xml:space="preserve">
<g id="_x32_1_1_">
	<path id="_x3C_Path_x3E__35_" fill-rule="evenodd" clip-rule="evenodd" fill="#808080" d="M16,24c1.104,0,2-0.896,2-2s-0.896-2-2-2
		s-2,0.896-2,2S14.896,24,16,24L16,24z M17,19.171v-7.808l0.593,0.594c0.177,0.175,0.462,0.175,0.638,0l0.638-0.639
		c0.176-0.174,0.176-0.46,0-0.637l-2.55-2.549v0L16.31,8.124v0l-0.008-0.007v0l-0.01-0.007v0l-0.008-0.007l0,0l-0.009-0.007v0
		l-0.01-0.006v0l-0.009-0.006V8.081l-0.01-0.006v0l-0.009-0.005v0l-0.01-0.006l0,0L16.22,8.058l-0.01-0.006v0l-0.011-0.004
		l-0.01-0.005v0l-0.01-0.004l0,0l-0.011-0.003V8.033l-0.01-0.003V8.029l-0.01-0.003v0l-0.011-0.003v0L16.128,8.02V8.019l-0.01-0.002
		V8.016l-0.011-0.002v0l-0.011-0.002V8.01l-0.011-0.001V8.008l-0.011-0.001l0,0l-0.011-0.002l-0.011-0.001v0l-0.011,0l-0.011,0
		V8.001l-0.011,0h-0.011V8H16h-0.011v0.001h-0.011l-0.011,0v0.001l-0.012,0l-0.011,0v0l-0.011,0.001l-0.011,0.002l0,0l-0.01,0.001
		v0.001L15.903,8.01v0.001l-0.011,0.002v0l-0.011,0.002v0.001l-0.01,0.002V8.02l-0.011,0.002v0l-0.011,0.003v0l-0.01,0.003V8.03
		L15.83,8.033v0.001l-0.011,0.003l0,0l-0.01,0.004v0L15.8,8.047l-0.01,0.004v0l-0.01,0.006l-0.01,0.005l0,0l-0.01,0.006v0
		l-0.009,0.005v0l-0.009,0.006v0.001l-0.01,0.006v0l-0.01,0.006v0l-0.008,0.007l0,0l-0.009,0.007v0l-0.009,0.007v0l-0.009,0.007v0
		l-0.008,0.008v0l-2.55,2.549c-0.176,0.176-0.176,0.462,0,0.637l0.638,0.639c0.175,0.175,0.461,0.175,0.637,0L15,11.363v7.808
		C15.313,19.061,15.649,19,16,19S16.688,19.061,17,19.171z"/>
</g>
</svg>
