<?xml version="1.0" encoding="UTF-8" standalone="no"?>
<!--

    Copyright (c) 2012-2018 Red Hat, Inc.
    This program and the accompanying materials are made
    available under the terms of the Eclipse Public License 2.0
    which is available at https://www.eclipse.org/legal/epl-2.0/

    SPDX-License-Identifier: EPL-2.0

    Contributors:
      Red Hat, Inc. - initial API and implementation

-->
<svg width="388px" height="476px" viewBox="0 0 388 476" version="1.1" xmlns="http://www.w3.org/2000/svg" xmlns:xlink="http://www.w3.org/1999/xlink">
    <g stroke="none" stroke-width="1" fill="none" fill-rule="evenodd">
        <g transform="translate(-1.000000, -1.000000)" fill="#B6BABD">
            <g transform="translate(0.593994, 0.999885)">
                <g transform="translate(0.000000, 0.000000)">
                    <path d="M317.83035,441.57934 C268.211132,459.821732 104.542875,467.909389 53.7243655,445.786249 C35.4562455,437.840239 56.20812,423.30187 66.98582,420.98652 C78.22378,418.54968 84.64648,419.00294 84.64648,419.00294 C76.4401893,400.802849 -54.5998549,427.492303 28.26273,459.25402 C122.520598,495.383616 336.480221,465.217035 348.808361,441.579339 C361.136501,417.941644 379.238049,419.00294 317.83035,441.57934 Z"></path>
                    <path d="M106.54468,284.63069 C136.592044,286.246538 173.6366,288.57683 220.75896,284.63069 C259.26943,281.38079 297.93645,267.47446 297.93645,267.47446 C297.93645,267.47446 293.837644,279.591994 274.53298,286.99744 C180.03826,311.8518 31.5993656,306.931756 50.04233,274.86698 C63.0922613,252.178484 102.62392,256.82084 102.62392,256.82084 C102.62392,256.82084 61.3688964,282.201287 106.54468,284.63069 Z"></path>
                    <path d="M324.749756,339.980581 C402.876712,300.259881 339.306044,272.597771 319.19516,276.7063 C311.593407,278.259291 310.394123,272.841153 310.20953,269.65714 C310.024937,266.473127 313.03187,265.23905 318.41955,263.3279 C379.74707,241.76549 440.91382,326.91937 312.6211,360.64495 C312.6211,360.64495 316.570447,348.379253 318.41955,344.193471"></path>
                    <path d="M156.1805,131.04973 C73.05927,196.69253 138.22549,218.12127 157.1455,260.88396 C108.62595,217.10729 80.01958,178.57111 103.90669,142.7054 C138.97101,90.05752 186.10115,84.532613 164.63921,0.000213148746 C164.63921,0.000213148746 259.83614,49.215833 156.1805,131.04973 Z"></path>
                    <path d="M233.084536,177.790945 C188.008595,213.388481 205.452065,233.68577 215.712226,256.875616 C189.400484,233.135897 187.44478,201.392222 200.398558,181.94255 C219.413643,153.39205 244.971919,150.39594 233.33329,104.554734 C233.33329,104.554734 289.296113,133.413115 233.084536,177.790945 Z"></path>
                </g>
            </g>
            <path d="M50.984375,302.640625 C47.1289062,338.119141 102.835938,433.445312 102.835938,433.445312 C102.835938,433.445312 111.915717,444.900026 122.429244,446.836202 C143.344778,450.688018 175.849997,449.445313 195.238281,449.445313 C216.217743,449.445313 249.54424,447.929018 267.21853,444.123405 C274.50819,442.553801 279.135248,433.445312 279.135248,433.445312 C279.135248,433.445312 330.767578,313.742188 314.140625,287.484375 C295.666016,313.742188 231.672287,317.580078 189.766037,319.943359 C147.859787,322.306641 67.5019531,315.777344 50.984375,302.640625 Z M133.064,380.8 L133.064,345.592 L121.76,345.592 L121.76,380.296 C121.76,381.208005 121.724,382.155995 121.652,383.14 C121.58,384.124005 121.364002,385.035996 121.004,385.876 C120.643998,386.716004 120.056004,387.399997 119.24,387.928 C118.423996,388.456003 117.272007,388.72 115.784,388.72 C114.439993,388.72 113.348004,388.504002 112.508,388.072 C111.667996,387.639998 111.008002,387.052004 110.528,386.308 C110.047998,385.563996 109.712001,384.664005 109.52,383.608 C109.327999,382.551995 109.232,381.400006 109.232,380.152 L109.232,377.848 L99.008,377.848 L99.008,382.312 C99.008,385.144014 99.4879952,387.55599 100.448,389.548 C101.408005,391.54001 102.679992,393.171994 104.264,394.444 C105.848008,395.716006 107.64799,396.651997 109.664,397.252 C111.68001,397.852003 113.767989,398.152 115.928,398.152 C119.768019,398.152 122.815989,397.564006 125.072,396.388 C127.328011,395.211994 129.055994,393.748009 130.256,391.996 C131.456006,390.243991 132.223998,388.36001 132.56,386.344 C132.896002,384.32799 133.064,382.480008 133.064,380.8 Z M157.04,345.592 L137.6,397 L148.976,397 L153.008,385.552 L172.232,385.552 L176.12,397 L187.856,397 L168.632,345.592 L157.04,345.592 Z M212.912,397 L229.976,345.592 L218.312,345.592 L206.72,381.736 L206.576,381.736 L195.128,345.592 L183.536,345.592 L200.168,397 L212.912,397 Z M245.096,345.592 L225.656,397 L237.032,397 L241.064,385.552 L260.288,385.552 L264.176,397 L275.912,397 L256.688,345.592 L245.096,345.592 Z"></path>
            <path d="M155.96,377.128 L162.656,358.264 L162.8,358.264 L169.28,377.128 L155.96,377.128 Z"></path>
            <path d="M244.016,377.128 L250.712,358.264 L250.856,358.264 L257.336,377.128 L244.016,377.128 Z"></path>
        </g>
    </g>
</svg>
