<?xml version="1.0" encoding="UTF-8"?>
<!--

    Copyright (c) 2012-2018 Red Hat, Inc.
    This program and the accompanying materials are made
    available under the terms of the Eclipse Public License 2.0
    which is available at https://www.eclipse.org/legal/epl-2.0/

    SPDX-License-Identifier: EPL-2.0

    Contributors:
      Red Hat, Inc. - initial API and implementation

-->
<svg width="23px" height="22px" viewBox="0 0 23 22" version="1.1" xmlns="http://www.w3.org/2000/svg" xmlns:xlink="http://www.w3.org/1999/xlink">
    <defs>
        <linearGradient x1="0%" y1="0%" x2="101.999998%" y2="100.999999%" id="debug-linearGradient-1">
            <stop stop-color="#FDE869" offset="0%"></stop>
            <stop stop-color="#00B1C1" offset="100%"></stop>
        </linearGradient>
        <path d="M112.982161,17.0357078 C112.982161,17.3677394 112.707049,17.6428514 112.375018,17.6428514 L110.250015,17.6428514 C110.250015,18.8286787 109.993877,19.7204208 109.614412,20.3939707 L111.587628,22.376674 C111.824794,22.6138394 111.824794,22.9933042 111.587628,23.2304696 C111.473789,23.3537957 111.312516,23.4107154 111.160731,23.4107154 C111.008945,23.4107154 110.847672,23.3537957 110.733833,23.2304696 L108.855482,21.3616058 C108.855482,21.3616058 107.612735,22.5 106.00001,22.5 L106.00001,13.9999899 L104.785723,13.9999899 L104.785723,22.5 C103.068645,22.5 101.816411,21.2477664 101.816411,21.2477664 L100.08036,23.2114964 C99.9570342,23.344309 99.7957617,23.4107154 99.6250025,23.4107154 C99.4827033,23.4107154 99.340404,23.3632823 99.2170779,23.2589295 C98.9704259,23.0312506 98.9514526,22.6517859 99.1696448,22.3956472 L101.085942,20.2421848 C100.75391,19.5876081 100.535718,18.7432991 100.535718,17.6428514 L98.4107154,17.6428514 C98.0786837,17.6428514 97.8035718,17.3677394 97.8035718,17.0357078 C97.8035718,16.7036761 98.0786837,16.4285642 98.4107154,16.4285642 L100.535718,16.4285642 L100.535718,13.6394984 L98.8945329,11.9983134 C98.6573675,11.7611479 98.6573675,11.3816832 98.8945329,11.1445177 C99.1316984,10.9073523 99.5111631,10.9073523 99.7483286,11.1445177 L101.389514,12.7857027 L109.39622,12.7857027 L111.037405,11.1445177 C111.27457,10.9073523 111.654035,10.9073523 111.8912,11.1445177 C112.128366,11.3816832 112.128366,11.7611479 111.8912,11.9983134 L110.250015,13.6394984 L110.250015,16.4285642 L112.375018,16.4285642 C112.707049,16.4285642 112.982161,16.7036761 112.982161,17.0357078 Z M108.428584,11.5714155 L102.357149,11.5714155 C102.357149,9.89228408 103.713735,8.53569764 105.392867,8.53569764 C107.071998,8.53569764 108.428584,9.89228408 108.428584,11.5714155 Z" id="debug-path-2"></path>
        <filter x="-39.5%" y="-40.3%" width="179.1%" height="180.7%" filterUnits="objectBoundingBox" id="debug-filter-3">
            <feOffset dx="0" dy="0" in="SourceAlpha" result="shadowOffsetOuter1"></feOffset>
            <feGaussianBlur stdDeviation="2" in="shadowOffsetOuter1" result="shadowBlurOuter1"></feGaussianBlur>
            <feColorMatrix values="0 0 0 0 0   0 0 0 0 0   0 0 0 0 0  0 0 0 0.20533288 0" type="matrix" in="shadowBlurOuter1"></feColorMatrix>
        </filter>
    </defs>
    <g id="IDE-6-Debug" stroke="none" stroke-width="1" fill="none" fill-rule="evenodd" transform="translate(-954.000000, -111.000000)">
        <g transform="translate(256.000000, 106.000000)">
            <g transform="translate(604.000000, 0.000000)">
                <g transform="translate(105.392867, 15.973207) rotate(-270.000000) translate(-105.392867, -15.973207) ">
                    <use fill="black" fill-opacity="1" filter="url(#debug-filter-3)" xlink:href="#debug-path-2"></use>
                    <use fill="url(#debug-linearGradient-1)" fill-rule="evenodd" xlink:href="#debug-path-2"></use>
                </g>
            </g>
        </g>
    </g>
</svg>
