<?xml version="1.0" encoding="UTF-8"?>
<!--

    Copyright (c) 2012-2018 Red Hat, Inc.
    This program and the accompanying materials are made
    available under the terms of the Eclipse Public License 2.0
    which is available at https://www.eclipse.org/legal/epl-2.0/

    SPDX-License-Identifier: EPL-2.0

    Contributors:
      Red Hat, Inc. - initial API and implementation

-->
<svg width="20px" height="22px" viewBox="0 0 20 22" version="1.1" xmlns="http://www.w3.org/2000/svg" xmlns:xlink="http://www.w3.org/1999/xlink">
    <defs>
        <linearGradient x1="0%" y1="0%" x2="101.999998%" y2="100.999999%" id="run-linearGradient-1">
            <stop stop-color="#00EAF8" offset="0%"></stop>
            <stop stop-color="#6D42EF" offset="100%"></stop>
        </linearGradient>
        <path d="M57.595,15.1578125 L47.155,9.11666667 C47.0275,9.04375 46.89625,9 46.74625,9 C46.3375,9 46.00375,9.328125 46.00375,9.72916667 L46,9.72916667 L46,22.2708333 L46.00375,22.2708333 C46.00375,22.671875 46.3375,23 46.74625,23 C46.9,23 47.0275,22.9489583 47.16625,22.8760417 L57.595,16.8421875 C57.8425,16.6416667 58,16.3390625 58,16 C58,15.6609375 57.8425,15.3619792 57.595,15.1578125 L57.595,15.1578125 Z" id="run-path-2"></path>
        <filter x="-50.0%" y="-42.9%" width="200.0%" height="185.7%" filterUnits="objectBoundingBox" id="run-filter-3">
            <feOffset dx="0" dy="0" in="SourceAlpha" result="shadowOffsetOuter1"></feOffset>
            <feGaussianBlur stdDeviation="2" in="shadowOffsetOuter1" result="shadowBlurOuter1"></feGaussianBlur>
            <feColorMatrix values="0 0 0 0 0   0 0 0 0 0   0 0 0 0 0  0 0 0 0.20533288 0" type="matrix" in="shadowBlurOuter1"></feColorMatrix>
        </filter>
    </defs>
    <g id="IDE-6-Run" stroke="none" stroke-width="1" fill="none" fill-rule="evenodd" transform="translate(-902.000000, -111.000000)">
        <g transform="translate(256.000000, 106.000000)">
            <g transform="translate(604.000000, 0.000000)">
                <g>
                    <use fill="black" fill-opacity="1" filter="url(#run-filter-3)" xlink:href="#run-path-2"></use>
                    <use fill="url(#run-linearGradient-1)" fill-rule="evenodd" xlink:href="#run-path-2"></use>
                </g>
            </g>
        </g>
    </g>
</svg>
