<?xml version="1.0" encoding="utf-8"?>
<!--

    Copyright (c) 2012-2021 Red Hat, Inc.
    This program and the accompanying materials are made
    available under the terms of the Eclipse Public License 2.0
    which is available at https://www.eclipse.org/legal/epl-2.0/

    SPDX-License-Identifier: EPL-2.0

    Contributors:
      Red Hat, Inc. - initial API and implementation

-->
<svg width="147px" height="20px" viewBox="0 0 147 20" version="1.1" xmlns="http://www.w3.org/2000/svg" xmlns:xlink="http://www.w3.org/1999/xlink">
    <g stroke="none" stroke-width="1" fill="none" fill-rule="evenodd">
        <g id="che-review">
            <g id="review-button">
                <g id="che-review">
                    <rect id="Rectangle-path" fill="#292C2F" fill-rule="nonzero" x="0" y="0" width="117" height="20" rx="4"></rect>
                    <g id="Che-logo" transform="translate(8.000000, 2.000000)" fill="#FFFFFF">
                          <polygon id="Path-1" points="0.00849162302 8.43339117 0 3.76684272 6.28508764 0 12.5555079 3.76444243 8.68435713 6.08858226 6.29640981 4.69321826"></polygon>
                          <polygon id="Path-2" points="0 11.8401916 6.29139203 15.5603621 12.6082589 11.7541815 12.6082589 7.13817228 6.29139203 10.8266058 0 7.13817228"></polygon>
                    </g>
                    <rect id="Rectangle-path" fill="#525D84" fill-rule="nonzero" x="30" y="0" width="117" height="20" rx="4"></rect>
                    <polygon id="Shape" fill="#525D84" fill-rule="nonzero" points="30 0 34 0 34 20 30 20"></polygon>
                </g>
            </g>
            <path d="M39.0615,10.8125 L39.0615,14.1015 L38,14.1015 L38,6.22 L40.2275,6.22 C40.7261692,6.22 41.1569982,6.27041616 41.52,6.37125 C41.8830018,6.47208384 42.1827488,6.61783238 42.41925,6.8085 C42.6557512,6.99916762 42.8308328,7.22924865 42.9445,7.49875 C43.0581672,7.76825135 43.115,8.06983166 43.115,8.4035 C43.115,8.68216806 43.0710004,8.94249879 42.983,9.1845 C42.8949996,9.42650121 42.7675842,9.64374904 42.60075,9.83625 C42.4339158,10.028751 42.2304179,10.1928326 41.99025,10.3285 C41.7500821,10.4641673 41.4778349,10.566833 41.1735,10.6365 C41.3055007,10.7135004 41.4228328,10.8253326 41.5255,10.972 L43.8245,14.1015 L42.8785,14.1015 C42.6841657,14.1015 42.5411671,14.0263341 42.4495,13.876 L40.4035,11.06 C40.3411664,10.9719996 40.2733337,10.9087502 40.2,10.87025 C40.1266663,10.8317498 40.0166674,10.8125 39.87,10.8125 L39.0615,10.8125 Z M39.0615,10.037 L40.178,10.037 C40.4896682,10.037 40.7637488,9.99941704 41.00025,9.92425 C41.2367512,9.84908296 41.4347492,9.74275069 41.59425,9.60525 C41.7537508,9.46774931 41.8738329,9.30366762 41.9545,9.113 C42.0351671,8.92233238 42.0755,8.71150115 42.0755,8.4805 C42.0755,8.01116432 41.9205849,7.65733452 41.61075,7.419 C41.3009151,7.18066547 40.8398364,7.0615 40.2275,7.0615 L39.0615,7.0615 L39.0615,10.037 Z M47.0255,8.442 C47.3591683,8.442 47.6671653,8.49791611 47.9495,8.60975 C48.2318347,8.72158389 48.4756656,8.88291561 48.681,9.09375 C48.8863344,9.30458439 49.0467494,9.56491512 49.16225,9.87475 C49.2777506,10.1845849 49.3355,10.537498 49.3355,10.9335 C49.3355,11.0875008 49.3190002,11.1901664 49.286,11.2415 C49.2529998,11.2928336 49.1906671,11.3185 49.099,11.3185 L45.392,11.3185 C45.3993334,11.6705018 45.4469996,11.9766654 45.535,12.237 C45.6230004,12.4973346 45.7439992,12.7145825 45.898,12.88875 C46.0520008,13.0629175 46.2353323,13.1930829 46.448,13.27925 C46.6606677,13.3654171 46.8989987,13.4085 47.163,13.4085 C47.4086679,13.4085 47.6204158,13.3800836 47.79825,13.32325 C47.9760842,13.2664164 48.129166,13.2050003 48.2575,13.139 C48.385834,13.0729997 48.4930829,13.0115836 48.57925,12.95475 C48.6654171,12.8979164 48.7396664,12.8695 48.802,12.8695 C48.8826671,12.8695 48.9449998,12.9006664 48.989,12.963 L49.264,13.3205 C49.1429994,13.4671674 48.9981675,13.5945828 48.8295,13.70275 C48.6608325,13.8109172 48.480251,13.899833 48.28775,13.9695 C48.095249,14.039167 47.8963344,14.0914165 47.691,14.12625 C47.4856656,14.1610835 47.2821677,14.1785 47.0805,14.1785 C46.6954981,14.1785 46.3407516,14.1134173 46.01625,13.98325 C45.6917484,13.8530827 45.4112512,13.6624179 45.17475,13.41125 C44.9382488,13.1600821 44.7540007,12.8493352 44.622,12.479 C44.4899993,12.1086648 44.424,11.6833357 44.424,11.203 C44.424,10.8143314 44.4835827,10.451335 44.60275,10.114 C44.7219173,9.77666498 44.8933322,9.48425124 45.117,9.23675 C45.3406678,8.98924876 45.6138317,8.79491737 45.9365,8.65375 C46.2591683,8.51258263 46.6221647,8.442 47.0255,8.442 L47.0255,8.442 Z M47.0475,9.1625 C46.5744976,9.1625 46.2023347,9.29908197 45.931,9.57225 C45.6596653,9.84541803 45.4910003,10.2239976 45.425,10.708 L48.4555,10.708 C48.4555,10.4806655 48.4243336,10.2725843 48.362,10.08375 C48.2996664,9.89491572 48.2080006,9.73175069 48.087,9.59425 C47.9659994,9.45674931 47.8184175,9.35041704 47.64425,9.27525 C47.4700825,9.20008296 47.2711678,9.1625 47.0475,9.1625 L47.0475,9.1625 Z M49.737,8.53 L50.54,8.53 C50.6170004,8.53 50.6811664,8.55016646 50.7325,8.5905 C50.7838336,8.63083353 50.8204999,8.67849972 50.8425,8.7335 L52.256,12.3195 C52.3073336,12.4515007 52.3476665,12.5834993 52.377,12.7155 C52.4063335,12.8475007 52.4338332,12.977666 52.4595,13.106 C52.4888335,12.977666 52.5199998,12.8475007 52.553,12.7155 C52.5860002,12.5834993 52.6281664,12.4515007 52.6795,12.3195 L54.1095,8.7335 C54.1315001,8.67483304 54.1672498,8.62625019 54.21675,8.58775 C54.2662502,8.54924981 54.3276663,8.53 54.401,8.53 L55.1655,8.53 L52.894,14.1015 L52.0085,14.1015 L49.737,8.53 Z M57.162,8.53 L57.162,14.1015 L56.183,14.1015 L56.183,8.53 L57.162,8.53 Z M57.382,6.781 C57.382,6.87633381 57.3627502,6.96524959 57.32425,7.04775 C57.2857498,7.13025041 57.234417,7.20358301 57.17025,7.26775 C57.106083,7.33191699 57.0318338,7.38233315 56.9475,7.419 C56.8631662,7.45566685 56.7733338,7.474 56.678,7.474 C56.5826662,7.474 56.4937504,7.45566685 56.41125,7.419 C56.3287496,7.38233315 56.255417,7.33191699 56.19125,7.26775 C56.127083,7.20358301 56.0766669,7.13025041 56.04,7.04775 C56.0033332,6.96524959 55.985,6.87633381 55.985,6.781 C55.985,6.68566619 56.0033332,6.5949171 56.04,6.50875 C56.0766669,6.4225829 56.127083,6.34741699 56.19125,6.28325 C56.255417,6.21908301 56.3287496,6.16866685 56.41125,6.132 C56.4937504,6.09533315 56.5826662,6.077 56.678,6.077 C56.7733338,6.077 56.8631662,6.09533315 56.9475,6.132 C57.0318338,6.16866685 57.106083,6.21908301 57.17025,6.28325 C57.234417,6.34741699 57.2857498,6.4225829 57.32425,6.50875 C57.3627502,6.5949171 57.382,6.68566619 57.382,6.781 L57.382,6.781 Z M61.0945,8.442 C61.4281683,8.442 61.7361653,8.49791611 62.0185,8.60975 C62.3008347,8.72158389 62.5446656,8.88291561 62.75,9.09375 C62.9553344,9.30458439 63.1157494,9.56491512 63.23125,9.87475 C63.3467506,10.1845849 63.4045,10.537498 63.4045,10.9335 C63.4045,11.0875008 63.3880002,11.1901664 63.355,11.2415 C63.3219998,11.2928336 63.2596671,11.3185 63.168,11.3185 L59.461,11.3185 C59.4683334,11.6705018 59.5159996,11.9766654 59.604,12.237 C59.6920004,12.4973346 59.8129992,12.7145825 59.967,12.88875 C60.1210008,13.0629175 60.3043323,13.1930829 60.517,13.27925 C60.7296677,13.3654171 60.9679987,13.4085 61.232,13.4085 C61.4776679,13.4085 61.6894158,13.3800836 61.86725,13.32325 C62.0450842,13.2664164 62.198166,13.2050003 62.3265,13.139 C62.454834,13.0729997 62.5620829,13.0115836 62.64825,12.95475 C62.7344171,12.8979164 62.8086664,12.8695 62.871,12.8695 C62.9516671,12.8695 63.0139998,12.9006664 63.058,12.963 L63.333,13.3205 C63.2119994,13.4671674 63.0671675,13.5945828 62.8985,13.70275 C62.7298325,13.8109172 62.549251,13.899833 62.35675,13.9695 C62.164249,14.039167 61.9653344,14.0914165 61.76,14.12625 C61.5546656,14.1610835 61.3511677,14.1785 61.1495,14.1785 C60.7644981,14.1785 60.4097516,14.1134173 60.08525,13.98325 C59.7607484,13.8530827 59.4802512,13.6624179 59.24375,13.41125 C59.0072488,13.1600821 58.8230007,12.8493352 58.691,12.479 C58.5589993,12.1086648 58.493,11.6833357 58.493,11.203 C58.493,10.8143314 58.5525827,10.451335 58.67175,10.114 C58.7909173,9.77666498 58.9623322,9.48425124 59.186,9.23675 C59.4096678,8.98924876 59.6828317,8.79491737 60.0055,8.65375 C60.3281683,8.51258263 60.6911647,8.442 61.0945,8.442 L61.0945,8.442 Z M61.1165,9.1625 C60.6434976,9.1625 60.2713347,9.29908197 60,9.57225 C59.7286653,9.84541803 59.5600003,10.2239976 59.494,10.708 L62.5245,10.708 C62.5245,10.4806655 62.4933336,10.2725843 62.431,10.08375 C62.3686664,9.89491572 62.2770006,9.73175069 62.156,9.59425 C62.0349994,9.45674931 61.8874175,9.35041704 61.71325,9.27525 C61.5390825,9.20008296 61.3401678,9.1625 61.1165,9.1625 L61.1165,9.1625 Z M63.927,8.53 L64.697,8.53 C64.7776671,8.53 64.8436664,8.55016646 64.895,8.5905 C64.9463336,8.63083353 64.9811666,8.67849972 64.9995,8.7335 L66.0665,12.3195 C66.0958335,12.4515007 66.1233332,12.5789161 66.149,12.70175 C66.1746668,12.8245839 66.1966666,12.9483327 66.215,13.073 C66.2443335,12.9483327 66.2773332,12.8245839 66.314,12.70175 C66.3506668,12.5789161 66.3891665,12.4515007 66.4295,12.3195 L67.6065,8.7115 C67.6248334,8.65649973 67.6569164,8.61066685 67.70275,8.574 C67.7485836,8.53733315 67.806333,8.519 67.876,8.519 L68.2995,8.519 C68.3728337,8.519 68.4333331,8.53733315 68.481,8.574 C68.5286669,8.61066685 68.5616666,8.65649973 68.58,8.7115 L69.7295,12.3195 C69.7698335,12.447834 69.8055832,12.5743327 69.83675,12.699 C69.8679168,12.8236673 69.8981665,12.9464994 69.9275,13.0675 C69.9458334,12.9464994 69.9696665,12.8200007 69.999,12.688 C70.0283335,12.5559993 70.0594998,12.4331672 70.0925,12.3195 L71.1815,8.7335 C71.1998334,8.67483304 71.2346664,8.62625019 71.286,8.58775 C71.3373336,8.54924981 71.397833,8.53 71.4675,8.53 L72.2045,8.53 L70.4005,14.1015 L69.625,14.1015 C69.5296662,14.1015 69.4636668,14.0391673 69.427,13.9145 L68.195,10.136 C68.1656665,10.0516662 68.1418334,9.9664171 68.1235,9.88025 C68.1051666,9.7940829 68.0868334,9.70883375 68.0685,9.6245 C68.0501666,9.70883375 68.0318334,9.79499956 68.0135,9.883 C67.9951666,9.97100044 67.9713335,10.0571662 67.942,10.1415 L66.6935,13.9145 C66.6531665,14.0391673 66.5780005,14.1015 66.468,14.1015 L65.731,14.1015 L63.927,8.53 Z M75.2845,8.442 C75.6181683,8.442 75.9261653,8.49791611 76.2085,8.60975 C76.4908347,8.72158389 76.7346656,8.88291561 76.94,9.09375 C77.1453344,9.30458439 77.3057494,9.56491512 77.42125,9.87475 C77.5367506,10.1845849 77.5945,10.537498 77.5945,10.9335 C77.5945,11.0875008 77.5780002,11.1901664 77.545,11.2415 C77.5119998,11.2928336 77.4496671,11.3185 77.358,11.3185 L73.651,11.3185 C73.6583334,11.6705018 73.7059996,11.9766654 73.794,12.237 C73.8820004,12.4973346 74.0029992,12.7145825 74.157,12.88875 C74.3110008,13.0629175 74.4943323,13.1930829 74.707,13.27925 C74.9196677,13.3654171 75.1579987,13.4085 75.422,13.4085 C75.6676679,13.4085 75.8794158,13.3800836 76.05725,13.32325 C76.2350842,13.2664164 76.388166,13.2050003 76.5165,13.139 C76.644834,13.0729997 76.7520829,13.0115836 76.83825,12.95475 C76.9244171,12.8979164 76.9986664,12.8695 77.061,12.8695 C77.1416671,12.8695 77.2039998,12.9006664 77.248,12.963 L77.523,13.3205 C77.4019994,13.4671674 77.2571675,13.5945828 77.0885,13.70275 C76.9198325,13.8109172 76.739251,13.899833 76.54675,13.9695 C76.354249,14.039167 76.1553344,14.0914165 75.95,14.12625 C75.7446656,14.1610835 75.5411677,14.1785 75.3395,14.1785 C74.9544981,14.1785 74.5997516,14.1134173 74.27525,13.98325 C73.9507484,13.8530827 73.6702512,13.6624179 73.43375,13.41125 C73.1972488,13.1600821 73.0130007,12.8493352 72.881,12.479 C72.7489993,12.1086648 72.683,11.6833357 72.683,11.203 C72.683,10.8143314 72.7425827,10.451335 72.86175,10.114 C72.9809173,9.77666498 73.1523322,9.48425124 73.376,9.23675 C73.5996678,8.98924876 73.8728317,8.79491737 74.1955,8.65375 C74.5181683,8.51258263 74.8811646,8.442 75.2845,8.442 L75.2845,8.442 Z M75.3065,9.1625 C74.8334976,9.1625 74.4613347,9.29908197 74.19,9.57225 C73.9186653,9.84541803 73.7500003,10.2239976 73.684,10.708 L76.7145,10.708 C76.7145,10.4806655 76.6833336,10.2725843 76.621,10.08375 C76.5586664,9.89491572 76.4670006,9.73175069 76.346,9.59425 C76.2249994,9.45674931 76.0774175,9.35041704 75.90325,9.27525 C75.7290825,9.20008296 75.5301678,9.1625 75.3065,9.1625 L75.3065,9.1625 Z M78.843,14.1015 L78.843,8.53 L79.404,8.53 C79.5103339,8.53 79.5836665,8.55016646 79.624,8.5905 C79.6643335,8.63083353 79.6918333,8.7004995 79.7065,8.7995 L79.7725,9.6685 C79.9631676,9.27983139 80.1987486,8.97641776 80.47925,8.75825 C80.7597514,8.54008224 81.0888314,8.431 81.4665,8.431 C81.6205008,8.431 81.7598327,8.44841649 81.8845,8.48325 C82.0091673,8.51808351 82.1246661,8.56666635 82.231,8.629 L82.1045,9.3605 C82.0788332,9.45216712 82.0220004,9.498 81.934,9.498 C81.8826664,9.498 81.8038339,9.48058351 81.6975,9.44575 C81.5911661,9.41091649 81.4426676,9.3935 81.252,9.3935 C80.9109983,9.3935 80.6259178,9.49249901 80.39675,9.6905 C80.1675822,9.88850099 79.9760008,10.1763314 79.822,10.554 L79.822,14.1015 L78.843,14.1015 Z M84.673,6.22 L85.5585,6.22 C85.6538338,6.22 85.7326664,6.24383309 85.795,6.2915 C85.8573336,6.3391669 85.8994999,6.3996663 85.9215,6.473 L87.5495,11.951 C87.5788335,12.0500005 87.6054165,12.1563328 87.62925,12.27 C87.6530835,12.3836672 87.6759999,12.5028327 87.698,12.6275 C87.7236668,12.5028327 87.7493332,12.3827506 87.775,12.26725 C87.8006668,12.1517494 87.8299998,12.0463338 87.863,11.951 L89.7165,6.473 C89.7385001,6.41066635 89.781583,6.35291693 89.84575,6.29975 C89.909917,6.24658307 89.9878329,6.22 90.0795,6.22 L90.3875,6.22 C90.4828338,6.22 90.5607497,6.24383309 90.62125,6.2915 C90.6817503,6.3391669 90.7248332,6.3996663 90.7505,6.473 L92.593,11.951 C92.6590003,12.1416676 92.7176664,12.3598321 92.769,12.6055 C92.7910001,12.4844994 92.8111666,12.3690005 92.8295,12.259 C92.8478334,12.1489994 92.8716665,12.0463338 92.901,11.951 L94.5345,6.473 C94.5528334,6.40699967 94.594083,6.34833359 94.65825,6.297 C94.722417,6.24566641 94.8003329,6.22 94.892,6.22 L95.7225,6.22 L93.264,14.1015 L92.307,14.1015 L90.3105,8.09 C90.2701665,7.97633276 90.2335002,7.84433408 90.2005,7.694 C90.1821666,7.7673337 90.1647501,7.83791633 90.14825,7.90575 C90.1317499,7.97358367 90.1143334,8.03499972 90.096,8.09 L88.0885,14.1015 L87.1315,14.1015 L84.673,6.22 Z M98.687,8.442 C99.094002,8.442 99.4615817,8.50983265 99.78975,8.6455 C100.117918,8.78116734 100.396582,8.97366542 100.62575,9.223 C100.854918,9.47233458 101.030916,9.7739149 101.15375,10.12775 C101.276584,10.4815851 101.338,10.8766645 101.338,11.313 C101.338,11.7530022 101.276584,12.1489982 101.15375,12.501 C101.030916,12.8530018 100.854918,13.1536654 100.62575,13.403 C100.396582,13.6523346 100.117918,13.843916 99.78975,13.97775 C99.4615817,14.111584 99.094002,14.1785 98.687,14.1785 C98.279998,14.1785 97.9124183,14.111584 97.58425,13.97775 C97.2560817,13.843916 96.9765012,13.6523346 96.7455,13.403 C96.5144988,13.1536654 96.3366673,12.8530018 96.212,12.501 C96.0873327,12.1489982 96.025,11.7530022 96.025,11.313 C96.025,10.8766645 96.0873327,10.4815851 96.212,10.12775 C96.3366673,9.7739149 96.5144988,9.47233458 96.7455,9.223 C96.9765012,8.97366542 97.2560817,8.78116734 97.58425,8.6455 C97.9124183,8.50983265 98.279998,8.442 98.687,8.442 L98.687,8.442 Z M98.687,13.414 C99.2370027,13.414 99.6476653,13.2297518 99.919,12.86125 C100.190335,12.4927482 100.326,11.9785033 100.326,11.3185 C100.326,10.65483 100.190335,10.1378352 99.919,9.7675 C99.6476653,9.39716481 99.2370027,9.212 98.687,9.212 C98.4083319,9.212 98.1663344,9.25966619 97.961,9.355 C97.7556656,9.45033381 97.5842507,9.58783243 97.44675,9.7675 C97.3092493,9.94716756 97.2065837,10.168082 97.13875,10.43025 C97.0709163,10.692418 97.037,10.9884984 97.037,11.3185 C97.037,11.6485016 97.0709163,11.9436654 97.13875,12.204 C97.2065837,12.4643346 97.3092493,12.6834158 97.44675,12.86125 C97.5842507,13.0390842 97.7556656,13.1756662 97.961,13.271 C98.1663344,13.3663338 98.4083319,13.414 98.687,13.414 L98.687,13.414 Z M102.548,14.1015 L102.548,8.53 L103.109,8.53 C103.215334,8.53 103.288666,8.55016646 103.329,8.5905 C103.369334,8.63083353 103.396833,8.7004995 103.4115,8.7995 L103.4775,9.6685 C103.668168,9.27983139 103.903749,8.97641776 104.18425,8.75825 C104.464751,8.54008224 104.793831,8.431 105.1715,8.431 C105.325501,8.431 105.464833,8.44841649 105.5895,8.48325 C105.714167,8.51808351 105.829666,8.56666635 105.936,8.629 L105.8095,9.3605 C105.783833,9.45216712 105.727,9.498 105.639,9.498 C105.587666,9.498 105.508834,9.48058351 105.4025,9.44575 C105.296166,9.41091649 105.147668,9.3935 104.957,9.3935 C104.615998,9.3935 104.330918,9.49249901 104.10175,9.6905 C103.872582,9.88850099 103.681001,10.1763314 103.527,10.554 L103.527,14.1015 L102.548,14.1015 Z M107.9985,6 L107.9985,10.7685 L108.2515,10.7685 C108.324834,10.7685 108.385333,10.7584168 108.433,10.73825 C108.480667,10.7180832 108.533833,10.6768336 108.5925,10.6145 L110.3525,8.728 C110.4075,8.66933304 110.4625,8.62166685 110.5175,8.585 C110.5725,8.54833315 110.645833,8.53 110.7375,8.53 L111.6285,8.53 L109.577,10.7135 C109.525666,10.7758336 109.47525,10.8308331 109.42575,10.8785 C109.37625,10.9261669 109.320334,10.9683331 109.258,11.005 C109.324,11.0490002 109.383583,11.0994164 109.43675,11.15625 C109.489917,11.2130836 109.540333,11.2781663 109.588,11.3515 L111.766,14.1015 L110.886,14.1015 C110.805333,14.1015 110.736584,14.0859168 110.67975,14.05475 C110.622916,14.0235832 110.568834,13.9750003 110.5175,13.909 L108.686,11.6265 C108.631,11.5494996 108.576,11.4990835 108.521,11.47525 C108.466,11.4514165 108.383501,11.4395 108.2735,11.4395 L107.9985,11.4395 L107.9985,14.1015 L107.014,14.1015 L107.014,6 L107.9985,6 Z M115.935,9.4485 C115.891,9.52916707 115.823167,9.5695 115.7315,9.5695 C115.6765,9.5695 115.614167,9.54933353 115.5445,9.509 C115.474833,9.46866646 115.389584,9.42375025 115.28875,9.37425 C115.187916,9.32474975 115.067834,9.27891688 114.9285,9.23675 C114.789166,9.19458312 114.624168,9.1735 114.4335,9.1735 C114.268499,9.1735 114.120001,9.19458312 113.988,9.23675 C113.855999,9.27891688 113.74325,9.3366663 113.64975,9.41 C113.55625,9.4833337 113.48475,9.56858285 113.43525,9.66575 C113.38575,9.76291715 113.361,9.86833276 113.361,9.982 C113.361,10.1250007 113.40225,10.2441662 113.48475,10.3395 C113.56725,10.4348338 113.676333,10.517333 113.812,10.587 C113.947667,10.656667 114.101666,10.7180831 114.274,10.77125 C114.446334,10.8244169 114.623249,10.8812497 114.80475,10.94175 C114.986251,11.0022503 115.163166,11.0691663 115.3355,11.1425 C115.507834,11.2158337 115.661833,11.3074994 115.7975,11.4175 C115.933167,11.5275005 116.04225,11.6622492 116.12475,11.82175 C116.20725,11.9812508 116.2485,12.1728322 116.2485,12.3965 C116.2485,12.6531679 116.202667,12.8905822 116.111,13.10875 C116.019333,13.3269178 115.883668,13.5157492 115.704,13.67525 C115.524332,13.8347508 115.304335,13.9603329 115.044,14.052 C114.783665,14.1436671 114.483002,14.1895 114.142,14.1895 C113.753331,14.1895 113.401335,14.1262506 113.086,13.99975 C112.770665,13.8732494 112.503001,13.711001 112.283,13.513 L112.514,13.139 C112.543333,13.0913331 112.578166,13.0546668 112.6185,13.029 C112.658834,13.0033332 112.712,12.9905 112.778,12.9905 C112.844,12.9905 112.913666,13.0161664 112.987,13.0675 C113.060334,13.1188336 113.149249,13.1756664 113.25375,13.238 C113.358251,13.3003336 113.484749,13.3571664 113.63325,13.4085 C113.781751,13.4598336 113.967832,13.4855 114.1915,13.4855 C114.382168,13.4855 114.548999,13.4607502 114.692,13.41125 C114.835001,13.3617498 114.954166,13.2948338 115.0495,13.2105 C115.144834,13.1261662 115.215416,13.0290005 115.26125,12.919 C115.307084,12.8089994 115.33,12.6916673 115.33,12.567 C115.33,12.4129992 115.28875,12.2855838 115.20625,12.18475 C115.12375,12.0839162 115.014667,11.9977504 114.879,11.92625 C114.743333,11.8547496 114.588418,11.7924169 114.41425,11.73925 C114.240082,11.6860831 114.062251,11.630167 113.88075,11.5715 C113.699249,11.512833 113.521418,11.445917 113.34725,11.37075 C113.173082,11.295583 113.018167,11.2011672 112.8825,11.0875 C112.746833,10.9738328 112.63775,10.8335842 112.55525,10.66675 C112.47275,10.4999158 112.4315,10.2973345 112.4315,10.059 C112.4315,9.84633227 112.4755,9.64191765 112.5635,9.44575 C112.6515,9.24958235 112.779832,9.07725074 112.9485,8.92875 C113.117168,8.78024926 113.324332,8.66200044 113.57,8.574 C113.815668,8.48599956 114.096165,8.442 114.4115,8.442 C114.778168,8.442 115.107249,8.49974942 115.39875,8.61525 C115.690251,8.73075058 115.942332,8.88933232 116.155,9.091 L115.935,9.4485 Z M117.519,15.988 L117.519,8.53 L118.102,8.53 C118.241334,8.53 118.329333,8.59783265 118.366,8.7335 L118.4485,9.3935 C118.686835,9.10383188 118.959082,8.87100088 119.26525,8.695 C119.571418,8.51899912 119.924331,8.431 120.324,8.431 C120.643002,8.431 120.932665,8.49241605 121.193,8.61525 C121.453335,8.73808395 121.675166,8.91958213 121.8585,9.15975 C122.041834,9.39991787 122.183,9.69783155 122.282,10.0535 C122.381,10.4091684 122.4305,10.8179977 122.4305,11.28 C122.4305,11.6906687 122.375501,12.0729149 122.2655,12.42675 C122.155499,12.7805851 121.997834,13.0867487 121.7925,13.34525 C121.587166,13.6037513 121.335085,13.8072493 121.03625,13.95575 C120.737415,14.1042507 120.401002,14.1785 120.027,14.1785 C119.682332,14.1785 119.388085,14.1216672 119.14425,14.008 C118.900415,13.8943328 118.685001,13.733001 118.498,13.524 L118.498,15.988 L117.519,15.988 Z M119.9995,9.223 C119.680498,9.223 119.400918,9.2963326 119.16075,9.443 C118.920582,9.5896674 118.699668,9.79683199 118.498,10.0645 L118.498,12.7595 C118.677668,13.0015012 118.874749,13.1719995 119.08925,13.271 C119.303751,13.3700005 119.542999,13.4195 119.807,13.4195 C120.324003,13.4195 120.721832,13.2343352 121.0005,12.864 C121.279168,12.4936648 121.4185,11.9656701 121.4185,11.28 C121.4185,10.9169982 121.386417,10.6053346 121.32225,10.345 C121.258083,10.0846654 121.165501,9.87108417 121.0445,9.70425 C120.923499,9.53741583 120.775001,9.41550038 120.599,9.3385 C120.422999,9.26149961 120.223168,9.223 119.9995,9.223 L119.9995,9.223 Z M127.683,14.1015 L127.2485,14.1015 C127.153166,14.1015 127.076167,14.0868335 127.0175,14.0575 C126.958833,14.0281665 126.920333,13.9658338 126.902,13.8705 L126.792,13.3535 C126.645333,13.4855007 126.502334,13.6037495 126.363,13.70825 C126.223666,13.8127505 126.077001,13.9007496 125.923,13.97225 C125.768999,14.0437504 125.604918,14.0978331 125.43075,14.1345 C125.256582,14.1711668 125.063168,14.1895 124.8505,14.1895 C124.634166,14.1895 124.431584,14.1592503 124.24275,14.09875 C124.053916,14.0382497 123.889834,13.9475006 123.7505,13.8265 C123.611166,13.7054994 123.50025,13.5524176 123.41775,13.36725 C123.33525,13.1820824 123.294,12.9630013 123.294,12.71 C123.294,12.4899989 123.354499,12.278251 123.4755,12.07475 C123.596501,11.871249 123.791749,11.6906675 124.06125,11.533 C124.330751,11.3753325 124.683664,11.2460838 125.12,11.14525 C125.556336,11.0444162 126.08983,10.9866667 126.7205,10.972 L126.7205,10.5375 C126.7205,10.1048312 126.627918,9.77758444 126.44275,9.55575 C126.257582,9.33391556 125.983502,9.223 125.6205,9.223 C125.382165,9.223 125.181417,9.2532497 125.01825,9.31375 C124.855083,9.3742503 124.713917,9.44208296 124.59475,9.51725 C124.475583,9.59241704 124.372917,9.6602497 124.28675,9.72075 C124.200583,9.7812503 124.115334,9.8115 124.031,9.8115 C123.965,9.8115 123.90725,9.79408351 123.85775,9.75925 C123.80825,9.72441649 123.768833,9.68133359 123.7395,9.63 L123.5635,9.3165 C123.871502,9.01949851 124.203332,8.7976674 124.559,8.651 C124.914668,8.5043326 125.308831,8.431 125.7415,8.431 C126.053168,8.431 126.329999,8.48233282 126.572,8.585 C126.814001,8.68766718 127.017499,8.83066575 127.1825,9.014 C127.347501,9.19733425 127.472166,9.41916536 127.5565,9.6795 C127.640834,9.93983463 127.683,10.2258318 127.683,10.5375 L127.683,14.1015 Z M125.142,13.502 C125.314334,13.502 125.471999,13.4845835 125.615,13.44975 C125.758001,13.4149165 125.892749,13.365417 126.01925,13.30125 C126.145751,13.237083 126.266749,13.1591671 126.38225,13.0675 C126.497751,12.9758329 126.610499,12.8713339 126.7205,12.754 L126.7205,11.5935 C126.269498,11.6081667 125.886335,11.6439164 125.571,11.70075 C125.255665,11.7575836 124.999001,11.8318329 124.801,11.9235 C124.602999,12.0151671 124.459084,12.1233327 124.36925,12.248 C124.279416,12.3726673 124.2345,12.5119992 124.2345,12.666 C124.2345,12.8126674 124.258333,12.9391661 124.306,13.0455 C124.353667,13.1518339 124.417833,13.2389163 124.4985,13.30675 C124.579167,13.3745837 124.674499,13.4240832 124.7845,13.45525 C124.894501,13.4864168 125.013666,13.502 125.142,13.502 L125.142,13.502 Z M132.9685,9.52 C132.939167,9.56033353 132.909833,9.59149989 132.8805,9.6135 C132.851167,9.63550011 132.809,9.6465 132.754,9.6465 C132.699,9.6465 132.639417,9.62358356 132.57525,9.57775 C132.511083,9.53191644 132.4295,9.48150027 132.3305,9.4265 C132.2315,9.37149972 132.111417,9.32108356 131.97025,9.27525 C131.829083,9.22941644 131.655834,9.2065 131.4505,9.2065 C131.179165,9.2065 130.939001,9.25508285 130.73,9.35225 C130.520999,9.44941715 130.345917,9.58966575 130.20475,9.773 C130.063583,9.95633425 129.95725,10.1781654 129.88575,10.4385 C129.81425,10.6988346 129.7785,10.9903317 129.7785,11.313 C129.7785,11.650335 129.817,11.950082 129.894,12.21225 C129.971,12.474418 130.079166,12.6944158 130.2185,12.87225 C130.357834,13.0500842 130.527416,13.1857495 130.72725,13.27925 C130.927084,13.3727505 131.151665,13.4195 131.401,13.4195 C131.639335,13.4195 131.835499,13.3910836 131.9895,13.33425 C132.143501,13.2774164 132.271833,13.214167 132.3745,13.1445 C132.477167,13.074833 132.5615,13.0115836 132.6275,12.95475 C132.6935,12.8979164 132.7595,12.8695 132.8255,12.8695 C132.909834,12.8695 132.972166,12.9006664 133.0125,12.963 L133.2875,13.3205 C133.045499,13.6175015 132.743002,13.8347493 132.38,13.97225 C132.016998,14.1097507 131.633835,14.1785 131.2305,14.1785 C130.882165,14.1785 130.558585,14.114334 130.25975,13.986 C129.960915,13.857666 129.701501,13.6715846 129.4815,13.42775 C129.261499,13.1839154 129.088251,12.8841684 128.96175,12.5285 C128.835249,12.1728316 128.772,11.7676689 128.772,11.313 C128.772,10.8986646 128.829749,10.5155018 128.94525,10.1635 C129.060751,9.81149824 129.229416,9.50808461 129.45125,9.25325 C129.673084,8.99841539 129.947165,8.79950071 130.2735,8.6565 C130.599835,8.51349928 130.973831,8.442 131.3955,8.442 C131.784169,8.442 132.128832,8.50524937 132.4295,8.63175 C132.730168,8.75825063 132.995999,8.93699884 133.227,9.168 L132.9685,9.52 Z M136.5105,8.442 C136.844168,8.442 137.152165,8.49791611 137.4345,8.60975 C137.716835,8.72158389 137.960666,8.88291561 138.166,9.09375 C138.371334,9.30458439 138.531749,9.56491512 138.64725,9.87475 C138.762751,10.1845849 138.8205,10.537498 138.8205,10.9335 C138.8205,11.0875008 138.804,11.1901664 138.771,11.2415 C138.738,11.2928336 138.675667,11.3185 138.584,11.3185 L134.877,11.3185 C134.884333,11.6705018 134.932,11.9766654 135.02,12.237 C135.108,12.4973346 135.228999,12.7145825 135.383,12.88875 C135.537001,13.0629175 135.720332,13.1930829 135.933,13.27925 C136.145668,13.3654171 136.383999,13.4085 136.648,13.4085 C136.893668,13.4085 137.105416,13.3800836 137.28325,13.32325 C137.461084,13.2664164 137.614166,13.2050003 137.7425,13.139 C137.870834,13.0729997 137.978083,13.0115836 138.06425,12.95475 C138.150417,12.8979164 138.224666,12.8695 138.287,12.8695 C138.367667,12.8695 138.43,12.9006664 138.474,12.963 L138.749,13.3205 C138.627999,13.4671674 138.483168,13.5945828 138.3145,13.70275 C138.145832,13.8109172 137.965251,13.899833 137.77275,13.9695 C137.580249,14.039167 137.381334,14.0914165 137.176,14.12625 C136.970666,14.1610835 136.767168,14.1785 136.5655,14.1785 C136.180498,14.1785 135.825752,14.1134173 135.50125,13.98325 C135.176748,13.8530827 134.896251,13.6624179 134.65975,13.41125 C134.423249,13.1600821 134.239001,12.8493352 134.107,12.479 C133.974999,12.1086648 133.909,11.6833357 133.909,11.203 C133.909,10.8143314 133.968583,10.451335 134.08775,10.114 C134.206917,9.77666498 134.378332,9.48425124 134.602,9.23675 C134.825668,8.98924876 135.098832,8.79491737 135.4215,8.65375 C135.744168,8.51258263 136.107165,8.442 136.5105,8.442 L136.5105,8.442 Z M136.5325,9.1625 C136.059498,9.1625 135.687335,9.29908197 135.416,9.57225 C135.144665,9.84541803 134.976,10.2239976 134.91,10.708 L137.9405,10.708 C137.9405,10.4806655 137.909334,10.2725843 137.847,10.08375 C137.784666,9.89491572 137.693001,9.73175069 137.572,9.59425 C137.450999,9.45674931 137.303418,9.35041704 137.12925,9.27525 C136.955082,9.20008296 136.756168,9.1625 136.5325,9.1625 L136.5325,9.1625 Z" id="Reviewer-Workspace" fill="#FFFFFF" fill-rule="nonzero"></path>
        </g>
    </g>
</svg>
