<?xml version="1.0" encoding="UTF-8" standalone="no"?>
<!--

    Copyright (c) 2012-2018 Red Hat, Inc.
    This program and the accompanying materials are made
    available under the terms of the Eclipse Public License 2.0
    which is available at https://www.eclipse.org/legal/epl-2.0/

    SPDX-License-Identifier: EPL-2.0

    Contributors:
      Red Hat, Inc. - initial API and implementation

-->
<svg width="30px" height="32px" viewBox="0 0 30 32" version="1.1" xmlns="http://www.w3.org/2000/svg" xmlns:xlink="http://www.w3.org/1999/xlink">
    <defs>
        <linearGradient x1="0%" y1="0%" x2="101.999998%" y2="100.999999%" id="linearGradient-1">
            <stop stop-color="#00EAF8" offset="2.49123087%"></stop>
            <stop stop-color="#6D42EF" offset="100%"></stop>
        </linearGradient>
        <path d="M378.01289,282.254705 L378,282.26087 L378,282.268923 C378.003396,282.264564 378.007693,282.259824 378.01289,282.254705 Z M378.313287,282.111037 L389,277 L400,282.26087 L400,295.652174 L389.23913,301.266541 L389.23913,288.004495 C396.413043,284.390631 400,282.5558 400,282.5 C400,282.497874 400,282.421569 400,282.271086 L399.768576,282.181237 L388.973086,287.521739 L378.313287,282.111037 Z M388.76087,301.266541 L378,295.652174 L378,282.544026 C378.087337,282.638955 381.674293,284.454169 388.76087,287.989666 L388.76087,301.266541 Z" id="path-2"></path>
        <filter x="-27.3%" y="-24.7%" width="154.5%" height="149.5%" filterUnits="objectBoundingBox" id="filter-3">
            <feOffset dx="0" dy="0" in="SourceAlpha" result="shadowOffsetOuter1"></feOffset>
            <feGaussianBlur stdDeviation="2" in="shadowOffsetOuter1" result="shadowBlurOuter1"></feGaussianBlur>
            <feColorMatrix values="0 0 0 0 0   0 0 0 0 0   0 0 0 0 0  0 0 0 0.20533288 0" type="matrix" in="shadowBlurOuter1"></feColorMatrix>
        </filter>
    </defs>
    <g id="Loading" stroke="none" stroke-width="1" fill="none" fill-rule="evenodd">
        <g id="Revised" transform="translate(-374.000000, -273.000000)">
            <g id="Combined-Shape-Copy">
                <use fill="black" fill-opacity="1" filter="url(#filter-3)" xmlns:xlink="http://www.w3.org/1999/xlink" xlink:href="#path-2"></use>
                <use fill="url(#linearGradient-1)" fill-rule="evenodd" xmlns:xlink="http://www.w3.org/1999/xlink" xlink:href="#path-2"></use>
            </g>
        </g>
    </g>
</svg>
