<?xml version="1.0" encoding="UTF-8" standalone="no"?>
<!--

    Copyright (c) 2012-2018 Red Hat, Inc.
    This program and the accompanying materials are made
    available under the terms of the Eclipse Public License 2.0
    which is available at https://www.eclipse.org/legal/epl-2.0/

    SPDX-License-Identifier: EPL-2.0

    Contributors:
      Red Hat, Inc. - initial API and implementation

-->
<svg width="150px" height="113px" viewBox="0 0 150 113" version="1.1" xmlns="http://www.w3.org/2000/svg" xmlns:xlink="http://www.w3.org/1999/xlink">
    <g transform="translate(-1611.000000, -566.000000)">
        <g transform="translate(1610.843750, 566.500000)">
            <g>
                <path d="M93.413,1.575 L88.361,0.19 C87.71,-0.027 87.07,0.041 86.447,0.394 C85.822,0.747 85.4,1.277 85.183,1.983 L54.793,107.165 C54.576,107.871 54.644,108.537 54.997,109.161 C55.35,109.786 55.879,110.207 56.586,110.424 L61.637,111.809 C62.289,112.028 62.927,111.96 63.552,111.606 C64.177,111.252 64.598,110.723 64.815,110.018 L95.205,4.835 C95.422,4.129 95.354,3.463 95.001,2.838 C94.648,2.213 94.119,1.792 93.413,1.575 L93.413,1.575 Z"></path>
                <path d="M47.87,22.108 C47.87,21.402 47.598,20.777 47.055,20.234 L42.981,16.16 C42.438,15.617 41.813,15.345 41.107,15.345 C40.401,15.345 39.776,15.617 39.233,16.16 L1.267,54.126 C0.723,54.669 0.452,55.294 0.452,56 C0.452,56.706 0.724,57.331 1.267,57.874 L39.233,95.84 C39.776,96.384 40.4,96.654 41.107,96.654 C41.814,96.654 42.438,96.383 42.981,95.84 L47.055,91.768 C47.598,91.225 47.87,90.6 47.87,89.893 C47.87,89.188 47.598,88.563 47.055,88.02 L15.036,56 L47.055,23.982 C47.599,23.439 47.87,22.814 47.87,22.108 L47.87,22.108 Z"></path>
                <path d="M148.732,54.125 L110.765,16.159 C110.222,15.616 109.597,15.344 108.892,15.344 C108.185,15.344 107.562,15.616 107.017,16.159 L102.945,20.233 C102.402,20.776 102.131,21.4 102.131,22.107 C102.131,22.814 102.402,23.438 102.945,23.981 L134.964,56 L102.945,88.02 C102.402,88.563 102.131,89.188 102.131,89.893 C102.131,90.6 102.402,91.225 102.945,91.768 L107.017,95.84 C107.562,96.384 108.185,96.654 108.892,96.654 C109.597,96.654 110.222,96.383 110.765,95.84 L148.732,57.874 C149.275,57.331 149.546,56.705 149.546,55.999 C149.546,55.293 149.275,54.668 148.732,54.125 L148.732,54.125 Z"></path>
            </g>
        </g>
    </g>
</svg>
