<?xml version="1.0" encoding="utf-8"?>
<!--

    Copyright (c) 2012-2016 Codenvy, S.A.
    All rights reserved. This program and the accompanying materials
    are made available under the terms of the Eclipse Public License v1.0
    which accompanies this distribution, and is available at
    http://www.eclipse.org/legal/epl-v10.html

    Contributors:
      Codenvy, S.A. - initial API and implementation

-->
<!DOCTYPE svg PUBLIC "-//W3C//DTD SVG 1.1//EN" "http://www.w3.org/Graphics/SVG/1.1/DTD/svg11.dtd">
<svg version="1.1" id="moduleFolder" xmlns="http://www.w3.org/2000/svg" xmlns:xlink="http://www.w3.org/1999/xlink" x="0px" y="0px"
     width="16px" height="16px" viewBox="7 7 18 18" enable-background="new 0 0 32 32" xml:space="preserve">
    <g>
            <path fill-rule="evenodd" clip-rule="evenodd" fill="#E0B91D" d="M9,8c1.795,0,2.976,0,4.771,0c0.158,0,0.29,0.041,0.402,0.111
                L10.5,10.231v5.154l4.5,2.598v0.577v2.976H9c-0.55,0-1-0.45-1-1V9C8,8.45,8.45,8,9,8L9,8z M20.5,10.461H23c0.551,0,1,0.451,1,1
                v5.364l-3.5-2.021V10.461z"/>
            <path fill-rule="evenodd" clip-rule="evenodd" fill="#3193D4" d="M23.502,17.692L20,15.67l-3.501,2.021l3.502,2.021L23.502,17.692
                L23.502,17.692z M16,18.556l3.5,2.021V24L16,21.979V18.556L16,18.556z M20.5,24v-3.425l3.5-2.021v3.425L20.5,24z"/>
            <path fill-rule="evenodd" clip-rule="evenodd" fill="#72AD42" d="M19.002,10.521L15.5,8.499l-3.501,2.021l3.502,2.022
                L19.002,10.521L19.002,10.521z M11.5,11.384l3.5,2.021v3.424l-3.5-2.021V11.384L11.5,11.384z M16,16.829v-3.425l3.5-2.021v3.425
                L16,16.829z"/>
        </g>

</svg>
