<?xml version="1.0" encoding="UTF-8" standalone="no"?>
<!--

    Copyright (c) 2012-2018 Red Hat, Inc.
    This program and the accompanying materials are made
    available under the terms of the Eclipse Public License 2.0
    which is available at https://www.eclipse.org/legal/epl-2.0/

    SPDX-License-Identifier: EPL-2.0

    Contributors:
      Red Hat, Inc. - initial API and implementation

-->
<svg
        xmlns="http://www.w3.org/2000/svg"
        width="32"
        height="32"
        viewBox="0 0 8.4666665 8.4666669">
    <g
            transform="translate(0,-288.53332)">
        <path
                style="fill:#3cac64;fill-opacity:1;stroke-width:0.77782053;stroke-miterlimit:4;stroke-dasharray:none;paint-order:markers stroke fill"
                d="M 4.5 2.5 C 3.3920007 2.5 2.5 3.3919686 2.5 4.5 L 2.5 27.5 C 2.5 28.608031 3.3920007 29.5 4.5 29.5 L 27.5 29.5 C 28.607999 29.5 29.5 28.608031 29.5 27.5 L 29.5 4.5 C 29.5 3.3919686 28.607999 2.5 27.5 2.5 L 4.5 2.5 z M 15.148438 7.0039062 L 16.935547 7.0039062 L 24.017578 25 L 21.603516 25 L 19.607422 19.734375 L 12.363281 19.734375 L 10.40625 25 L 8.0039062 25 L 15.148438 7.0039062 z M 15.949219 9.6054688 C 15.653553 10.745775 15.267366 11.948455 14.791016 13.210938 L 13.003906 17.962891 L 18.980469 17.962891 L 17.15625 13.210938 C 16.655261 11.883295 16.278038 10.680615 16.023438 9.6054688 L 15.949219 9.6054688 z "
                transform="matrix(0.26458333,0,0,0.26458333,0,288.53332)"
                id="rect4792"/>
    </g>
</svg>
