<?xml version="1.0" encoding="UTF-8" standalone="no"?>
<!--

    Copyright (c) 2012-2018 Red Hat, Inc.
    This program and the accompanying materials are made
    available under the terms of the Eclipse Public License 2.0
    which is available at https://www.eclipse.org/legal/epl-2.0/

    SPDX-License-Identifier: EPL-2.0

    Contributors:
      Red Hat, Inc. - initial API and implementation

-->
<svg
        xmlns="http://www.w3.org/2000/svg"
        width="32"
        height="32"
        viewBox="0 0 8.4666664 8.4666667">
    <g
            transform="translate(0,-288.53315)">
        <path
                style="fill:#dccb58;fill-opacity:1;stroke-width:0.75590551;stroke-miterlimit:4;stroke-dasharray:none;paint-order:markers stroke fill"
                d="M 4 2.5 C 3.1690004 2.5 2.5 3.3919933 2.5 4.5 L 2.5 27.5 C 2.5 28.608007 3.1690004 29.5 4 29.5 L 28 29.5 C 28.831 29.5 29.5 28.608007 29.5 27.5 L 29.5 4.5 C 29.5 3.3919933 28.831 2.5 28 2.5 L 4 2.5 z M 17.414062 6.2050781 C 18.71235 6.2050781 19.932904 6.3556015 21.076172 6.6601562 C 22.229128 6.9562511 23.30878 7.4052098 24.316406 8.0058594 L 24.316406 10.708984 C 23.328158 9.9052983 22.272328 9.3038631 21.148438 8.90625 C 20.034236 8.5086369 18.847423 8.3105469 17.587891 8.3105469 C 15.107581 8.3105469 13.20829 8.9745373 11.890625 10.302734 C 10.57296 11.622472 9.9140625 13.534946 9.9140625 16.039062 C 9.9140625 18.534719 10.57296 20.447194 11.890625 21.775391 C 13.20829 23.095128 15.107581 23.753906 17.587891 23.753906 C 18.847423 23.753906 20.034236 23.555816 21.148438 23.158203 C 22.272328 22.76059 23.328158 22.159155 24.316406 21.355469 L 24.316406 24.033203 C 23.289403 24.642313 22.199832 25.099742 21.046875 25.404297 C 19.903607 25.708852 18.692972 25.861328 17.414062 25.861328 C 14.12959 25.861328 11.541642 24.985565 9.6523438 23.234375 C 7.7630453 21.474725 6.8183594 19.07615 6.8183594 16.039062 C 6.8183594 12.993515 7.7630453 10.59494 9.6523438 8.84375 C 11.541642 7.0841004 14.12959 6.2050781 17.414062 6.2050781 z "
                transform="matrix(0.26458333,0,0,0.26458333,0,288.53315)"
                id="rect101"/>
    </g>
</svg>
