<?xml version="1.0" encoding="UTF-8" standalone="no"?>
<!--

    Copyright (c) 2012-2018 Red Hat, Inc.
    This program and the accompanying materials are made
    available under the terms of the Eclipse Public License 2.0
    which is available at https://www.eclipse.org/legal/epl-2.0/

    SPDX-License-Identifier: EPL-2.0

    Contributors:
      Red Hat, Inc. - initial API and implementation

-->
<svg
        xmlns="http://www.w3.org/2000/svg"
        width="32"
        height="32"
        viewBox="0 0 8.4666665 8.4666669">
    <g
            transform="translate(0,-288.53332)">
        <path
                style="fill:#f24a5e;fill-opacity:1;stroke-width:0.77782053;stroke-miterlimit:4;stroke-dasharray:none;paint-order:markers stroke fill"
                d="M 4.5 2.5 C 3.3920007 2.5 2.5 3.3919686 2.5 4.5 L 2.5 27.5 C 2.5 28.608031 3.3920007 29.5 4.5 29.5 L 27.5 29.5 C 28.607999 29.5 29.5 28.608031 29.5 27.5 L 29.5 4.5 C 29.5 3.3919686 28.607999 2.5 27.5 2.5 L 4.5 2.5 z M 9.0019531 7.0019531 L 14.003906 7.0019531 C 16.853209 7.0019531 19.041523 7.769362 20.572266 9.3027344 C 22.186365 10.893506 22.994141 13.115201 22.994141 15.96875 C 22.994141 19.404488 21.853223 21.918994 19.572266 23.509766 C 18.140036 24.501948 16.230799 24.998047 13.84375 24.998047 L 9.0019531 24.998047 L 9.0019531 7.0019531 z M 11.046875 8.921875 L 11.046875 23.054688 L 13.673828 23.054688 C 18.425192 23.054688 20.800781 20.691865 20.800781 15.96875 C 20.800781 11.270235 18.466834 8.921875 13.798828 8.921875 L 11.046875 8.921875 z "
                transform="matrix(0.26458333,0,0,0.26458333,0,288.53332)"
                id="rect4792"/>
    </g>
</svg>
