<?xml version="1.0" encoding="UTF-8" standalone="no"?>
<!--

    Copyright (c) 2012-2018 Red Hat, Inc.
    This program and the accompanying materials are made
    available under the terms of the Eclipse Public License 2.0
    which is available at https://www.eclipse.org/legal/epl-2.0/

    SPDX-License-Identifier: EPL-2.0

    Contributors:
      Red Hat, Inc. - initial API and implementation

-->
<svg
        xmlns="http://www.w3.org/2000/svg"
        width="32"
        height="32"
        viewBox="0 0 8.4666665 8.4666669">
    <g
            transform="translate(0,-288.53332)">
        <path
                style="fill:#dccb58;fill-opacity:1;stroke-width:0.77782053;stroke-miterlimit:4;stroke-dasharray:none;paint-order:markers stroke fill"
                d="M 4.5 2.5 C 3.3920007 2.5 2.5 3.3919686 2.5 4.5 L 2.5 27.5 C 2.5 28.608031 3.3920007 29.5 4.5 29.5 L 27.5 29.5 C 28.607999 29.5 29.5 28.608031 29.5 27.5 L 29.5 4.5 C 29.5 3.3919686 28.607999 2.5 27.5 2.5 L 4.5 2.5 z M 8.0078125 7.0019531 L 10.847656 7.0019531 L 14.679688 17.580078 C 15.134791 18.818256 15.565029 20.179889 15.96875 21.664062 L 16.033203 21.664062 C 16.36352 20.327487 16.771394 18.981882 17.255859 17.628906 L 21.066406 7.0019531 L 23.994141 7.0019531 L 23.994141 24.998047 L 22.056641 24.998047 L 22.056641 15.267578 C 22.056641 13.307813 22.101369 11.209263 22.189453 8.9707031 L 22.101562 8.9707031 C 21.514332 10.864869 20.875543 12.779679 20.185547 14.714844 L 16.662109 24.40625 L 15.197266 24.40625 L 11.640625 14.505859 C 10.906587 12.455896 10.305722 10.601683 9.8359375 8.9453125 L 9.7460938 8.9453125 C 9.8341783 11.585665 9.8789063 13.668187 9.8789062 15.193359 L 9.8789062 24.998047 L 8.0078125 24.998047 L 8.0078125 7.0019531 z "
                transform="matrix(0.26458333,0,0,0.26458333,0,288.53332)"
                id="rect4792"/>
    </g>
</svg>
