<?xml version="1.0" encoding="UTF-8" standalone="no"?>
<!--

    Copyright (c) 2012-2018 Red Hat, Inc.
    This program and the accompanying materials are made
    available under the terms of the Eclipse Public License 2.0
    which is available at https://www.eclipse.org/legal/epl-2.0/

    SPDX-License-Identifier: EPL-2.0

    Contributors:
      Red Hat, Inc. - initial API and implementation

-->
<svg
        xmlns="http://www.w3.org/2000/svg"
        width="32"
        height="32"
        viewBox="0 0 8.4666664 8.4666667">
    <g
            transform="translate(0,-288.53315)">
        <path
                style="fill:#dccb58;fill-opacity:1;stroke-width:0.75590551;stroke-miterlimit:4;stroke-dasharray:none;paint-order:markers stroke fill"
                d="M 4 2.5 C 3.1690004 2.5 2.5 3.3919933 2.5 4.5 L 2.5 27.5 C 2.5 28.608007 3.1690004 29.5 4 29.5 L 28 29.5 C 28.831 29.5 29.5 28.608007 29.5 27.5 L 29.5 4.5 C 29.5 3.3919933 28.831 2.5 28 2.5 L 4 2.5 z M 8.0019531 6.546875 L 14.279297 6.546875 C 16.628052 6.546875 18.379128 6.9990925 19.535156 7.9042969 C 20.691184 8.8095012 21.269531 10.176578 21.269531 12.003906 C 21.269531 13.196746 20.966867 14.18589 20.361328 14.972656 C 19.764965 15.759423 18.892947 16.30482 17.746094 16.609375 C 18.342457 16.795492 18.920804 17.193625 19.480469 17.802734 C 20.049308 18.411844 20.618661 19.248512 21.1875 20.314453 L 24.007812 25.492188 L 21.021484 25.492188 L 18.392578 20.632812 C 17.713641 19.363834 17.054347 18.521955 16.412109 18.107422 C 15.779047 17.692889 14.911526 17.484375 13.810547 17.484375 L 10.783203 17.484375 L 10.783203 25.492188 L 8.0019531 25.492188 L 8.0019531 6.546875 z M 10.783203 8.6523438 L 10.783203 15.378906 L 14.279297 15.378906 C 15.618821 15.378906 16.627704 15.096107 17.306641 14.529297 C 17.994752 13.954027 18.337891 13.112147 18.337891 12.003906 C 18.337891 10.895665 17.994752 10.062257 17.306641 9.5039062 C 16.627704 8.9370961 15.618821 8.6523438 14.279297 8.6523438 L 10.783203 8.6523438 z "
                transform="matrix(0.26458333,0,0,0.26458333,0,288.53315)"
                id="rect101"/>
    </g>
</svg>
