<?xml version="1.0" encoding="UTF-8" standalone="no"?>
<!--

    Copyright (c) 2012-2018 Red Hat, Inc.
    This program and the accompanying materials are made
    available under the terms of the Eclipse Public License 2.0
    which is available at https://www.eclipse.org/legal/epl-2.0/

    SPDX-License-Identifier: EPL-2.0

    Contributors:
      Red Hat, Inc. - initial API and implementation

-->
<svg
        xmlns="http://www.w3.org/2000/svg"
        width="32"
        height="32"
        viewBox="0 0 8.4666665 8.4666669">
    <g
            transform="translate(0,-288.53332)">
        <path
                style="fill:#757d88;fill-opacity:1;stroke-width:0.77782053;stroke-miterlimit:4;stroke-dasharray:none;paint-order:markers stroke fill"
                d="M 4.5 2.5 C 3.3920007 2.5 2.5 3.3919686 2.5 4.5 L 2.5 27.5 C 2.5 28.608031 3.3920007 29.5 4.5 29.5 L 27.5 29.5 C 28.607999 29.5 29.5 28.608031 29.5 27.5 L 29.5 4.5 C 29.5 3.3919686 28.607999 2.5 27.5 2.5 L 4.5 2.5 z M 16.361328 7.0097656 C 18.276319 7.0097656 19.803286 7.512715 20.939453 8.5175781 C 21.938181 9.3938188 22.4375 10.445829 22.4375 11.675781 C 22.4375 12.801228 21.987782 13.834839 21.089844 14.775391 C 20.705013 15.161258 19.980835 15.736304 18.917969 16.5 L 18.355469 16.921875 C 17.393392 17.637338 16.912109 18.657956 16.912109 19.984375 L 16.912109 20.574219 L 14.863281 20.574219 L 14.863281 19.755859 C 14.863281 18.148078 15.537858 16.772384 16.884766 15.630859 L 17.501953 15.113281 L 17.736328 14.943359 C 19.20235 13.777718 19.935547 12.688683 19.935547 11.675781 C 19.935547 10.896007 19.623059 10.221153 19 9.6503906 C 18.312802 9.0394338 17.433357 8.734375 16.361328 8.734375 C 14.015693 8.734375 12.495189 9.9805956 11.798828 12.472656 L 9.5996094 12.025391 C 10.415084 8.681206 12.668785 7.0097656 16.361328 7.0097656 z M 14.4375 22.431641 L 17.310547 22.431641 L 17.310547 25 L 14.4375 25 L 14.4375 22.431641 z "
                transform="matrix(0.26458333,0,0,0.26458333,0,288.53332)"
                id="rect4792"/>
    </g>
</svg>
