<?xml version="1.0" encoding="UTF-8" standalone="no"?>
<!--

    Copyright (c) 2012-2018 Red Hat, Inc.
    This program and the accompanying materials are made
    available under the terms of the Eclipse Public License 2.0
    which is available at https://www.eclipse.org/legal/epl-2.0/

    SPDX-License-Identifier: EPL-2.0

    Contributors:
      Red Hat, Inc. - initial API and implementation

-->
<svg width="9px" height="10px" viewBox="0 0 9 10" version="1.1" xmlns="http://www.w3.org/2000/svg" xmlns:xlink="http://www.w3.org/1999/xlink" >
    <g stroke-width="1" fill="none" fill-rule="evenodd">
        <g transform="translate(-329.000000, -440.000000)" fill="#D84C4C">
            <g transform="translate(325.000000, 97.292902)">
                <g transform="translate(0.000000, 0.168250)">
                    <path d="M10.411838,348.689729 C10.411838,348.784596 10.3727755,348.879462 10.3058111,348.946426 L9.80357835,349.448659 C9.73661398,349.515623 9.6417478,349.554686 9.54688161,349.554686 C9.45201543,349.554686 9.36272961,349.515623 9.29576524,349.448659 L8.28571939,348.438613 L7.27567355,349.448659 C7.20870918,349.515623 7.11942336,349.554686 7.02455718,349.554686 C6.92969099,349.554686 6.83482481,349.515623 6.76786044,349.448659 L6.2656277,348.946426 C6.19866334,348.879462 6.15960079,348.784596 6.15960079,348.689729 C6.15960079,348.594863 6.19866334,348.505577 6.2656277,348.438613 L7.27567355,347.428567 L6.2656277,346.418521 C6.19866334,346.351557 6.15960079,346.262271 6.15960079,346.167405 C6.15960079,346.072539 6.19866334,345.977673 6.2656277,345.910708 L6.76786044,345.408475 C6.83482481,345.341511 6.92969099,345.302449 7.02455718,345.302449 C7.11942336,345.302449 7.20870918,345.341511 7.27567355,345.408475 L8.28571939,346.418521 L9.29576524,345.408475 C9.36272961,345.341511 9.45201543,345.302449 9.54688161,345.302449 C9.6417478,345.302449 9.73661398,345.341511 9.80357835,345.408475 L10.3058111,345.910708 C10.3727755,345.977673 10.411838,346.072539 10.411838,346.167405 C10.411838,346.262271 10.3727755,346.351557 10.3058111,346.418521 L9.29576524,347.428567 L10.3058111,348.438613 C10.3727755,348.505577 10.411838,348.594863 10.411838,348.689729 L10.411838,348.689729 Z M12.5714388,347.428567 C12.5714388,345.062493 10.6517936,343.142848 8.28571939,343.142848 C5.91964515,343.142848 4,345.062493 4,347.428567 C4,349.794641 5.91964515,351.714287 8.28571939,351.714287 C10.6517936,351.714287 12.5714388,349.794641 12.5714388,347.428567 L12.5714388,347.428567 Z"></path>
                </g>
            </g>
        </g>
    </g>
</svg>
