<?xml version="1.0" encoding="UTF-8" standalone="no"?>
<!--

    Copyright (c) 2012-2018 Red Hat, Inc.
    This program and the accompanying materials are made
    available under the terms of the Eclipse Public License 2.0
    which is available at https://www.eclipse.org/legal/epl-2.0/

    SPDX-License-Identifier: EPL-2.0

    Contributors:
      Red Hat, Inc. - initial API and implementation

-->
<svg id="svg2" xmlns:rdf="http://www.w3.org/1999/02/22-rdf-syntax-ns#" xmlns="http://www.w3.org/2000/svg" height="16px" viewBox="0 0 16 16" width="16px" version="1.1" xmlns:cc="http://creativecommons.org/ns#" xmlns:dc="http://purl.org/dc/elements/1.1/">
 <metadata id="metadata10">
 </metadata>
 <path id="path4" fill="#999" d="M3.40625,3.65625c-0.4910345,0-0.90625,0.3839655-0.90625,0.875v0.78125c0,0.4910345,0.4152155,0.90625,0.90625,0.90625h8.625c0.491034,0,0.90625-0.4152155,0.90625-0.90625v-0.78125c0-0.4910345-0.415216-0.875-0.90625-0.875h-8.625zm0,3.125c-0.4910345,0-0.90625,0.4152155-0.90625,0.90625v0.78125c0,0.4910345,0.4152155,0.875,0.90625,0.875h8.625c0.491034,0,0.90625-0.3839655,0.90625-0.875v-0.78125c0-0.4910345-0.415216-0.90625-0.90625-0.90625h-8.625zm1.3125,3.09375c-0.6763809,0.0093783-1.0173718,0.0374764-1.21875,0.0625h-0.09375c-0.4910345,0-0.90625,0.383966-0.90625,0.875v0.78125c0,0.491034,0.4152155,0.90625,0.90625,0.90625h8.625c0.055978,0,0.102746-0.020961,0.15625-0.03125h0.21875l0.25-0.15625c0.367504-0.254048,0.46124-0.548231,0.4375-1.21875-0.023023-0.65033-0.134287-0.884292-0.53125-1.09375-0.07762-0.0409563-0.24568-0.043856-0.53125-0.0625-0.502819-0.0328276-1.520306-0.0624361-4.125-0.0625-1.4993484-0.0000369-2.5111191-0.0093783-3.1875,0zm-1.03125,1.0625h0.0625l-0.0625,0.03125v-0.03125z"/>
</svg>
