<?xml version="1.0" encoding="UTF-8" standalone="no"?>
<!--

    Copyright (c) 2012-2018 Red Hat, Inc.
    This program and the accompanying materials are made
    available under the terms of the Eclipse Public License 2.0
    which is available at https://www.eclipse.org/legal/epl-2.0/

    SPDX-License-Identifier: EPL-2.0

    Contributors:
      Red Hat, Inc. - initial API and implementation

-->
<svg
        xmlns="http://www.w3.org/2000/svg"
        width="32"
        height="32"
        viewBox="0 0 8.4666659 8.4666659">
    <g
            transform="translate(0,-288.53334)">
        <path
                style="fill:#ffffff;fill-opacity:1;stroke-width:0.75590551;stroke-miterlimit:4;stroke-dasharray:none;paint-order:markers stroke fill"
                d="M 6 1 A 4.9999997 5.0000236 0 0 0 1 6 A 4.9999997 5.0000236 0 0 0 3.9023438 10.53125 L 3.9023438 21.466797 A 4.9999997 5.0000236 0 0 0 1 26 A 4.9999997 5.0000236 0 0 0 6 31 A 4.9999997 5.0000236 0 0 0 11 26 A 4.9999997 5.0000236 0 0 0 8 21.423828 L 8 10.580078 A 4.9999997 5.0000236 0 0 0 11 6 A 4.9999997 5.0000236 0 0 0 6 1 z M 6 3.5 A 2.5000002 2.500013 0 0 1 8.5 6 A 2.5000002 2.500013 0 0 1 6 8.5 A 2.5000002 2.500013 0 0 1 3.5 6 A 2.5000002 2.500013 0 0 1 6 3.5 z M 6 23.5 A 2.5000002 2.500013 0 0 1 8.5 26 A 2.5000002 2.500013 0 0 1 6 28.5 A 2.5000002 2.500013 0 0 1 3.5 26 A 2.5000002 2.500013 0 0 1 6 23.5 z "
                transform="matrix(0.26458333,0,0,0.26458333,0,288.53334)"
                id="path12"/>
        <path
                style="fill:#ffffff;fill-opacity:1;stroke-width:0.75590551;stroke-miterlimit:4;stroke-dasharray:none;paint-order:markers stroke fill"
                d="M 19.001953 1.2421875 L 11 6 L 18.998047 10.767578 L 19 8 L 21 8 C 24 7.9999988 24 11 24 11 L 24 21.419922 A 4.9999997 5.0000236 0 0 0 21 26 A 4.9999997 5.0000236 0 0 0 26 31 A 4.9999997 5.0000236 0 0 0 31 26 A 4.9999997 5.0000236 0 0 0 28 21.423828 L 28 11 C 28 11 28 4 21 4 L 19 4 L 19.001953 1.2421875 z M 26 23.5 A 2.5000002 2.500013 0 0 1 28.5 26 A 2.5000002 2.500013 0 0 1 26 28.5 A 2.5000002 2.500013 0 0 1 23.5 26 A 2.5000002 2.500013 0 0 1 26 23.5 z "
                transform="matrix(0.26458333,0,0,0.26458333,0,288.53334)"
                id="path12-6"/>
    </g>
</svg>
