<?xml version="1.0" encoding="utf-8"?>
<!--

    Copyright (c) 2012-2018 Red Hat, Inc.
    This program and the accompanying materials are made
    available under the terms of the Eclipse Public License 2.0
    which is available at https://www.eclipse.org/legal/epl-2.0/

    SPDX-License-Identifier: EPL-2.0

    Contributors:
      Red Hat, Inc. - initial API and implementation

-->
<svg version="1.1" xmlns="http://www.w3.org/2000/svg" xmlns:xlink="http://www.w3.org/1999/xlink" x="0px" y="0px" width="32px"
	 height="32px" viewBox="0 0 32 32" enable-background="new 0 0 32 32" xml:space="preserve">
<g id="Layer_1">
</g>
<g id="Layer_1_1_">
</g>
<g id="Layer_1_2_">
</g>
<g id="Layer_1_3_">
</g>
<g id="Layer_1_4_">
</g>
<g id="Layer_1_5_">
</g>
<g id="Layer_1_6_">
</g>
<g id="Layer_1_7_">
</g>
<g id="Layer_1_8_">
</g>
<g id="Layer_1_9_">
</g>
<g id="Layer_1_10_">
</g>
<g id="Layer_1_11_">
</g>
<g id="Layer_1_12_">
</g>
<g id="Layer_1_13_">
</g>
<g id="Layer_1_14_">
</g>
<g id="Layer_1_15_">
</g>
<g id="Layer_1_16_">
</g>
<g id="Layer_1_17_">
</g>
<g id="Layer_1_18_">
</g>
<g id="Layer_1_19_">
</g>
<g id="Layer_1_20_">
</g>
<g id="Layer_1_21_">
</g>
<g id="Layer_1_22_">
</g>
<g id="Layer_1_23_">
</g>
<g id="Layer_1_24_">
</g>
<g id="Layer_1_25_">
</g>
<g id="Layer_1_26_">
</g>
<g id="Layer_1_27_">
</g>
<g id="Layer_1_28_">
</g>
<g id="Layer_1_29_">
</g>
<g id="Layer_1_30_">
</g>
<g id="Layer_1_31_">
</g>
<g id="Layer_1_32_">
</g>
<g id="Layer_1_33_">
	<path fill-rule="evenodd" clip-rule="evenodd" fill="#72AD42" d="M24,13.999c0-0.152-0.062-0.293-0.171-0.403l-4.572-4.573
		c-0.107-0.107-0.251-0.171-0.403-0.171c-0.313,0-0.571,0.262-0.571,0.574v2.287h-2c-2.93,0-6.574,0.518-7.81,3.599
		C8.099,16.259,8,17.286,8,18.286c0,1.252,0.624,2.888,1.132,4.029c0.096,0.205,0.194,0.49,0.327,0.68
		c0.062,0.089,0.126,0.152,0.249,0.152c0.178,0,0.285-0.144,0.285-0.314c0-0.142-0.035-0.302-0.045-0.446
		c-0.027-0.365-0.043-0.733-0.043-1.099c0-4.261,2.526-5.002,6.377-5.002h2v2.287c0,0.312,0.259,0.573,0.571,0.573
		c0.152,0,0.296-0.063,0.403-0.171l4.572-4.573C23.938,14.295,24,14.151,24,13.999z"/>
</g>
<g id="Layer_1_34_">
</g>
<g id="Layer_1_35_">
</g>
<g id="Layer_1_36_">
</g>
<g id="Layer_1_37_">
</g>
<g id="Layer_1_38_">
</g>
<g id="Layer_1_39_">
</g>
<g id="Layer_1_40_">
</g>
<g id="Layer_1_41_">
</g>
</svg>
