<?xml version="1.0" encoding="utf-8"?>
<!--

    Copyright (c) 2012-2018 Red Hat, Inc.
    This program and the accompanying materials are made
    available under the terms of the Eclipse Public License 2.0
    which is available at https://www.eclipse.org/legal/epl-2.0/

    SPDX-License-Identifier: EPL-2.0

    Contributors:
      Red Hat, Inc. - initial API and implementation

-->
<!DOCTYPE svg PUBLIC "-//W3C//DTD SVG 1.1//EN" "http://www.w3.org/Graphics/SVG/1.1/DTD/svg11.dtd">
<svg version="1.1" xmlns="http://www.w3.org/2000/svg" xmlns:xlink="http://www.w3.org/1999/xlink" x="0px" y="0px" width="32px"
	 height="32px" viewBox="0 0 32 32" enable-background="new 0 0 32 32" xml:space="preserve">
<g id="Javadoc">
	<g>
		<path fill-rule="evenodd" clip-rule="evenodd" fill="#E0B91D" d="M11.45,8h8.467c0.069,0,0.129,0.026,0.178,0.074l3.833,3.853
			C23.976,11.975,24,12.035,24,12.103V23.75c0,0.138-0.112,0.25-0.25,0.25h-12.3c-0.137,0-0.25-0.112-0.25-0.25v-2.784
			C11.433,20.989,11.669,21,11.906,21c0.3,0,0.599-0.025,0.895-0.073V22.4h9.6v-9.08H20.09c-0.44,0-0.799-0.359-0.799-0.8V9.6h-6.49
			v1.421C12.619,11.007,12.436,11,12.252,11c-0.357,0-0.709,0.025-1.052,0.08V8.25C11.2,8.113,11.313,8,11.45,8z"/>
		<path id="_x3C_Path_x3E__2_" fill-rule="evenodd" clip-rule="evenodd" fill="#3193D4" d="M15.994,15.821
			c-0.027,0.629-0.235,1.173-0.624,1.632c-0.388,0.46-0.969,0.689-1.738,0.689c-0.258,0-0.478-0.065-0.665-0.194
			c-0.186-0.131-0.317-0.315-0.394-0.553c-0.129,0.243-0.292,0.426-0.489,0.548s-0.429,0.182-0.694,0.182
			c-0.471,0-0.831-0.17-1.08-0.509s-0.342-0.789-0.275-1.349c0.083-0.719,0.314-1.294,0.694-1.727s0.842-0.648,1.386-0.648
			c0.382,0,0.689,0.037,0.922,0.112c0.231,0.075,0.487,0.189,0.766,0.343l-0.016,0.018h0.024l-0.242,2.427
			c-0.015,0.25,0.004,0.419,0.055,0.514c0.052,0.092,0.123,0.14,0.211,0.14c0.354,0,0.639-0.154,0.851-0.463
			c0.213-0.307,0.333-0.695,0.358-1.163c0.051-0.969-0.159-1.725-0.63-2.267c-0.471-0.542-1.197-0.813-2.181-0.813
			c-0.954,0-1.711,0.292-2.273,0.876c-0.563,0.584-0.868,1.379-0.914,2.386c-0.056,0.981,0.173,1.757,0.684,2.327
			c0.51,0.569,1.242,0.854,2.196,0.854c0.266,0,0.541-0.026,0.827-0.079s0.533-0.121,0.742-0.2l0.18,0.715
			c-0.212,0.12-0.48,0.214-0.809,0.281C12.538,19.966,12.218,20,11.906,20c-1.276,0-2.259-0.356-2.947-1.069
			c-0.689-0.713-1.006-1.688-0.953-2.929c0.057-1.228,0.465-2.202,1.224-2.922c0.758-0.72,1.766-1.08,3.022-1.08
			c1.235,0,2.18,0.34,2.835,1.021C15.744,13.703,16.047,14.636,15.994,15.821L15.994,15.821z M11.209,16.264
			c-0.027,0.344,0,0.604,0.084,0.779s0.22,0.265,0.409,0.265c0.171,0,0.323-0.043,0.458-0.13c0.134-0.085,0.252-0.245,0.353-0.477
			l0.188-1.939c-0.069-0.015-0.137-0.026-0.203-0.037s-0.133-0.015-0.199-0.015c-0.328,0-0.579,0.129-0.75,0.388
			C11.375,15.357,11.264,15.747,11.209,16.264z"/>
	</g>
</g>
</svg>
