<?xml version="1.0" encoding="utf-8"?>
<!--

    Copyright (c) 2012-2018 Red Hat, Inc.
    This program and the accompanying materials are made
    available under the terms of the Eclipse Public License 2.0
    which is available at https://www.eclipse.org/legal/epl-2.0/

    SPDX-License-Identifier: EPL-2.0

    Contributors:
      Red Hat, Inc. - initial API and implementation

-->
<!DOCTYPE svg PUBLIC "-//W3C//DTD SVG 1.1//EN" "http://www.w3.org/Graphics/SVG/1.1/DTD/svg11.dtd">
<svg version="1.1" xmlns="http://www.w3.org/2000/svg" xmlns:xlink="http://www.w3.org/1999/xlink" x="0px" y="0px" width="32px"
	 height="32px" viewBox="0 0 32 32" enable-background="new 0 0 32 32" xml:space="preserve">
<g id="Jexception_x5F_obj">
	<g>
		<path fill-rule="evenodd" clip-rule="evenodd" fill="#3193D4" d="M15.153,8h2.293v6.795c0,0.998-0.329,1.787-0.984,2.373
			c-0.654,0.585-1.474,0.877-2.459,0.877c-1.074,0-1.925-0.258-2.548-0.774c-0.623-0.519-0.924-1.283-0.899-2.293l0.013-0.042h2.244
			c0,0.481,0.111,0.825,0.334,1.031c0.223,0.208,0.509,0.309,0.856,0.309c0.313,0,0.583-0.13,0.811-0.388
			c0.225-0.257,0.34-0.622,0.34-1.093V8z"/>
		<path id="_x3C_Path_x3E__3_" fill-rule="evenodd" clip-rule="evenodd" fill="#E0B91D" d="M19.696,22h1.501
			c0.138,0,0.249,0.112,0.249,0.25v1.5c0,0.138-0.111,0.25-0.249,0.25h-1.501c-0.138,0-0.25-0.112-0.25-0.25v-1.5
			C19.446,22.112,19.559,22,19.696,22L19.696,22z M21.197,12h-1.501c-0.138,0-0.25,0.112-0.25,0.25v8.5
			c0,0.138,0.112,0.25,0.25,0.25h1.501c0.138,0,0.249-0.112,0.249-0.25v-8.5C21.446,12.112,21.335,12,21.197,12z"/>
	</g>
</g>
</svg>
