<?xml version="1.0" encoding="utf-8"?>
<!--

    Copyright (c) 2012-2018 Red Hat, Inc.
    This program and the accompanying materials are made
    available under the terms of the Eclipse Public License 2.0
    which is available at https://www.eclipse.org/legal/epl-2.0/

    SPDX-License-Identifier: EPL-2.0

    Contributors:
      Red Hat, Inc. - initial API and implementation

-->
<!DOCTYPE svg PUBLIC "-//W3C//DTD SVG 1.1//EN" "http://www.w3.org/Graphics/SVG/1.1/DTD/svg11.dtd">
<svg version="1.1" xmlns="http://www.w3.org/2000/svg" xmlns:xlink="http://www.w3.org/1999/xlink" x="0px" y="0px" width="32px"
	 height="32px" viewBox="0 0 32 32" enable-background="new 0 0 32 32" xml:space="preserve">
<g id="Local">
	<path id="_x3C_Path_x3E__4_" fill-rule="evenodd" clip-rule="evenodd" fill="#808080" d="M16,8c4.419,0,8,3.582,8,8
		c0,4.419-3.581,8-8,8c-4.418,0-8-3.581-8-8C8,11.582,11.582,8,16,8L16,8z M15.75,11c-0.138,0-0.25,0.112-0.25,0.25v4.956l2.798,2.8
		c0.098,0.097,0.257,0.097,0.354-0.001l0.354-0.354c0.097-0.097,0.097-0.256,0-0.354L16.5,15.793V11.25
		c0-0.138-0.112-0.25-0.249-0.25H15.75L15.75,11z M16,10c-3.313,0-6,2.687-6,6s2.687,6,6,6c3.314,0,6-2.687,6-6S19.314,10,16,10z"/>
</g>
</svg>
