<?xml version="1.0" encoding="UTF-8" standalone="no"?>
<!--

    Copyright (c) 2015-2018 Red Hat, Inc.
    This program and the accompanying materials are made
    available under the terms of the Eclipse Public License 2.0
    which is available at https://www.eclipse.org/legal/epl-2.0/

    SPDX-License-Identifier: EPL-2.0

    Contributors:
      Red Hat, Inc. - initial API and implementation

-->
<svg width="1096px" height="220px" viewBox="0 0 1096 220" version="1.1" xmlns="http://www.w3.org/2000/svg" xmlns:xlink="http://www.w3.org/1999/xlink">
    <g fill-rule="evenodd">
        <g transform="translate(-304.00000, -344.000000)">
            <g transform="translate(304.000000, 344.000000)">
                <g>
                    <rect fill="#0D4269" x="0" y="0" width="1096" height="220"></rect>
                    <path d="M33,99.9834934 C33,98.3247777 34.3499733,96.9801228 36.0065204,96.9801228 L46.4899241,96.9801228 C48.1503795,96.9801228 49.4964446,95.6304366 49.4964446,93.9805092 L49.4964446,87.588331 C49.4964446,85.9316901 50.8474087,84.5887173 52.4978,84.5887173 L57.6949435,84.5887173 C59.3525463,84.5887173 60.6962989,83.2554473 60.6962989,81.5810959 L60.6962989,78.0076215 C60.6962989,76.346558 62.0416413,75.0184933 63.7034356,75.0413366 L77.488786,75.2308322 C79.1495818,75.2536618 80.4959225,76.6070031 80.4959223,78.2712659 L80.4959218,81.5896204 C80.4959215,83.245976 81.8327054,84.6114315 83.4972981,84.6397155 L91.9799086,84.7838481 C93.6375232,84.8120135 94.9753241,86.1770567 94.967968,87.8333114 L94.9412827,93.8416391 C94.9339277,95.4976458 96.2762173,96.8314872 97.927937,96.8209303 L117.00506,96.699 C118.661898,96.6884104 120.005031,95.3411811 120.005031,93.6716436 L120.005031,93.3758578 C120.005031,91.7144846 121.356253,90.340562 123.009993,90.307378 L124.183888,90.2838227 C125.843483,90.2505213 127.18885,88.8761495 127.18885,87.2279598 L127.18885,85.5842827 C127.18885,83.9298776 128.541617,82.5887174 130.187067,82.5887174 L139.740739,82.5887175 C141.396608,82.5887175 142.77614,83.9360932 142.821626,85.5842828 L142.866987,87.2279599 C142.912644,88.8823649 144.291581,90.2235251 145.953433,90.223525 L148.534197,90.2235248 C150.193137,90.2235247 151.537974,91.5661807 151.537975,93.2162527 L151.537975,93.2248624 C152.107726,93.2248624 151.772803,93.7052604 151.772803,93.7052604 C151.643112,95.3480679 152.874941,96.6798265 154.530209,96.6798264 L161.732295,96.679826 C163.384859,96.6798259 164.724528,98.0303383 164.724528,99.6857416 L164.724528,106.994084 C164.724528,108.654206 163.382327,110 161.725109,110 L145.738374,109.999999 C144.081841,109.999999 141.391041,109.999999 139.74679,109.999999 L35.9921654,109.999999 C34.3396381,109.999999 33,108.655682 33,106.996628 L33,99.9834934 Z" fill-opacity="0.5" fill="#FFFFFF"></path>
                    <path d="M265.137736,132.841977 C265.137736,131.183531 266.474144,129.839096 268.138174,129.839096 L278.812427,129.839096 C280.469523,129.839096 281.812865,128.498635 281.812865,126.838897 L281.812865,120.31367 C281.812865,118.656706 283.156009,117.313471 284.817007,117.313471 L290.12989,117.313471 C291.789032,117.313471 293.134032,115.965759 293.134032,114.313056 L293.134032,110.621306 C293.134032,108.964223 294.47829,107.63937 296.130343,107.66208 L310.151808,107.854821 C311.806625,107.877568 313.148119,109.245302 313.148118,110.901645 L313.148118,114.307835 C313.148118,115.967802 314.499381,117.336431 316.146531,117.364419 L324.791968,117.511318 C326.447947,117.539456 327.784408,118.907321 327.777059,120.562002 L327.749807,126.697824 C327.742449,128.354533 329.081443,129.688965 330.743855,129.67834 L350.077806,129.554768 C351.738731,129.544152 353.085177,128.182402 353.085177,126.53212 L353.085177,126.158451 C353.085177,124.499705 354.434016,123.127959 356.080685,123.094917 L357.3513,123.069421 C359.005673,123.036224 360.346808,121.665026 360.346808,120.003426 L360.346808,118.297695 C360.346808,116.637589 361.686962,115.291808 363.340343,115.291808 L373.071812,115.291808 C374.725096,115.291808 376.102446,116.636095 376.148302,118.297695 L376.195376,120.003426 C376.241191,121.663532 377.615765,123.009313 379.278112,123.009313 L381.959891,123.009313 C383.616625,123.009313 384.959674,124.348833 384.959675,126.009088 L384.959675,126.04316 C385.535597,126.04316 385.199979,126.558474 385.199979,126.558474 C385.067263,128.202666 386.311122,129.535547 387.95105,129.535547 L395.297686,129.535547 C396.949776,129.535546 398.28906,130.875795 398.28906,132.540474 L398.28906,139.995073 C398.28906,141.654648 396.948915,143 395.291871,143 L379.062536,142.999999 C377.407234,142.999999 374.722636,142.999999 373.0696,142.999999 L268.133483,142.999999 C266.478978,142.999999 265.137736,141.665635 265.137736,139.997119 L265.137736,132.841977 Z" fill-opacity="0.5" fill="#FFFFFF" transform="translate(331.713398, 125.331191) scale(-1, 1) translate(-331.713398, -125.331191) "></path>
                    <path d="M895.971542,101.860955 C895.971542,100.205132 897.31786,98.8628232 898.969622,98.8628232 L910.885547,98.8628232 C912.541341,98.8628232 913.883628,97.5235384 913.883628,95.8600562 L913.883628,88.4108172 C913.883628,86.7524347 915.231529,85.4080502 916.889711,85.4080502 L923.038514,85.4080502 C924.698727,85.4080502 926.044597,84.0682337 926.044597,82.4105604 L926.044597,77.9939675 C926.044597,76.3384997 927.389438,75.0149642 929.045213,75.0377247 L944.542707,75.2507558 C946.199902,75.2735358 947.543323,76.6353357 947.543323,78.2997614 L947.543323,82.4002917 C947.543322,84.0614309 948.884319,85.4308359 950.53874,85.4589471 L960.276329,85.6244037 C961.930652,85.6525132 963.265769,87.021229 963.258464,88.6659048 L963.227133,95.7201847 C963.219798,97.3718499 964.564144,98.7021588 966.205726,98.6916667 L987.451028,98.5558786 C989.103395,98.5453176 990.442903,97.198999 990.442903,95.5305679 L990.442903,94.6891176 C990.442903,93.0288456 991.783822,91.6560224 993.436394,91.6228619 L995.24971,91.586476 C996.902969,91.5533017 998.243201,90.1760285 998.243201,88.5335326 L998.243201,86.2292964 C998.243201,84.5763766 999.582215,83.2364203 1001.24236,83.2364203 L1012.12858,83.2364205 C1013.78497,83.2364205 1015.165,84.5868007 1015.21033,86.2292965 L1015.27392,88.5335327 C1015.31954,90.1864524 1016.69261,91.5264085 1018.35844,91.5264084 L1021.67992,91.5264082 C1023.33784,91.5264081 1024.68184,92.8707413 1024.68184,94.5295852 L1024.68184,94.7853054 C1025.30049,94.7853054 1024.953,95.5444676 1024.953,95.5444676 C1024.80325,97.1970634 1026.02886,98.5367569 1027.6834,98.5367569 L1035.99845,98.5367564 C1037.65616,98.5367563 1039,99.871499 1039,101.53355 L1039,110.003207 C1039,111.65829 1037.64812,113 1036.00073,113 L1018.127,112.999999 C1016.47056,112.999999 1013.78956,112.999999 1012.12269,112.999999 L898.976587,112.999999 C897.316946,112.999999 895.971542,111.657263 895.971542,110.001868 L895.971542,101.860955 Z" fill-opacity="0.5" fill="#FFFFFF"></path>
                    <path d="M1016.27547,165.947557 C1016.27547,164.288841 1017.62545,162.944187 1019.28199,162.944187 L1029.7654,162.944187 C1031.42585,162.944187 1032.77192,161.5945 1032.77192,159.944573 L1032.77192,153.552395 C1032.77192,151.895754 1034.12288,150.552781 1035.77327,150.552781 L1040.97042,150.552781 C1042.62802,150.552781 1043.97177,149.219511 1043.97177,147.54516 L1043.97177,143.971685 C1043.97177,142.310622 1045.31711,140.982557 1046.97891,141.0054 L1060.76426,141.194896 C1062.42505,141.217726 1063.77139,142.571067 1063.77139,144.23533 L1063.77139,147.553684 C1063.77139,149.21004 1065.10818,150.575495 1066.77277,150.603779 L1075.25538,150.747912 C1076.913,150.776077 1078.2508,152.141121 1078.24344,153.797375 L1078.21676,159.805703 C1078.2094,161.46171 1079.54517,162.785938 1081.21073,162.763308 L1086.99271,162.684749 C1088.65359,162.662183 1090,163.994402 1090,165.649805 L1090,172.958148 C1090,174.618269 1088.65744,175.964064 1086.99557,175.964064 L1019.2799,175.964063 C1017.6206,175.964063 1016.27547,174.619746 1016.27547,172.960692 L1016.27547,165.947557 Z" fill-opacity="0.5" fill="#FFFFFF"></path>
                    <path d="M209.462467,100.117871 C209.462467,98.4628232 210.804069,97.1211421 212.463161,97.1211421 L217.769945,97.1211421 C219.427182,97.1211421 220.770639,95.7752104 220.770639,94.126404 L220.770639,91.6216776 C220.770639,89.9677295 222.10794,88.6269396 223.760907,88.6269396 L225.457774,88.6269396 C227.109254,88.6269396 228.448043,87.2809371 228.448043,85.628969 L228.448043,85.0519265 C228.448043,83.396193 229.799044,82.0725269 231.443382,82.0951303 L239.025177,82.1993508 C240.679457,82.2220908 242.020515,83.579327 242.020515,85.2467256 L242.020515,85.6207393 C242.020515,87.2810179 243.359664,88.6496939 245.026667,88.6780188 L248.943956,88.7445796 C250.604208,88.7727898 251.944154,90.1361861 251.936809,91.7899776 L251.926856,94.0308418 C251.919512,95.6845584 253.248869,97.0070179 254.913159,96.9844054 L257.000399,96.9560463 C258.657033,96.9335378 260,98.2625817 260,99.9177245 L260,103.043723 C260,104.701921 258.648243,106.046156 257.008683,106.046156 L212.453784,106.046156 C210.801725,106.046156 209.462467,104.709991 209.462467,103.049427 L209.462467,100.117871 Z" fill-opacity="0.5" fill="#FFFFFF"></path>
                    <path d="M679.137736,130.988604 C679.137736,129.329888 680.487709,127.985233 682.144257,127.985233 L692.62766,127.985233 C694.288116,127.985233 695.634181,126.635547 695.634181,124.985619 L695.634181,118.593441 C695.634181,116.9368 696.985145,115.593828 698.635536,115.593828 L703.83268,115.593828 C705.490283,115.593828 706.834035,114.260557 706.834035,112.586206 L706.834035,109.012732 C706.834035,107.351668 708.179377,106.023603 709.841172,106.046447 L723.626522,106.235942 C725.287318,106.258772 726.633659,107.612113 726.633658,109.276376 L726.633658,112.594731 C726.633658,114.251086 727.970442,115.616542 729.635034,115.644826 L738.117645,115.788958 C739.775259,115.817124 741.11306,117.182167 741.105704,118.838422 L741.079019,124.846749 C741.071664,126.502756 742.413953,127.836597 744.065673,127.82604 L763.142796,127.70411 C764.799634,127.693521 766.142768,126.346291 766.142768,124.676754 L766.142768,124.380968 C766.142768,122.719595 767.493989,121.345672 769.147729,121.312488 L770.321624,121.288933 C771.981219,121.255631 773.326586,119.88126 773.326586,118.23307 L773.326586,116.589393 C773.326586,114.934988 774.679353,113.593828 776.324803,113.593828 L785.878475,113.593828 C787.534344,113.593828 788.913876,114.941203 788.959362,116.589393 L789.004723,118.23307 C789.05038,119.887475 790.429317,121.228635 792.091169,121.228635 L794.671933,121.228635 C796.330873,121.228635 797.67571,122.571291 797.675711,124.221363 L797.675711,124.229973 C798.245462,124.229973 797.910539,124.710371 797.910539,124.710371 C797.780848,126.353178 799.012677,127.684937 800.667945,127.684937 L807.870031,127.684936 C809.522596,127.684936 810.862264,129.035448 810.862264,130.690852 L810.862264,137.999194 C810.862264,139.659316 809.520063,141.00511 807.862845,141.00511 L791.87611,141.005109 C790.219577,141.005109 787.528777,141.005109 785.884526,141.005109 L682.129902,141.005109 C680.477374,141.005109 679.137736,139.660793 679.137736,138.001739 L679.137736,130.988604 Z" fill-opacity="0.5" fill="#FFFFFF" transform="translate(745.000000, 123.525633) scale(-1, 1) translate(-745.000000, -123.525633) "></path>
                </g>
            </g>
        </g>
    </g>
</svg>
