<?xml version="1.0" ?><!DOCTYPE svg  PUBLIC '-//W3C//DTD SVG 1.1//EN'  'http://www.w3.org/Graphics/SVG/1.1/DTD/svg11.dtd'><svg enable-background="new 0 0 128 128" height="128px" id="Layer_1" version="1.1" viewBox="0 0 128 128" width="128px" xml:space="preserve" xmlns="http://www.w3.org/2000/svg" xmlns:xlink="http://www.w3.org/1999/xlink"><path d="M106.4,24.6l-16-16C90,8.2,89.5,8,89,8H31.5C26,8,21,12,21,17.5v90c0,5.5,5,10.5,10.5,10.5h66  c5.5,0,9.5-5,9.5-10.5V26C107,25.5,106.8,25,106.4,24.6z M91,14.8l9.2,9.2h-3.7c-3.3,0-5.5-2.2-5.5-5.5V14.8z M103,107.5  c0,3.3-2.2,6.5-5.5,6.5h-66c-3.3,0-6.5-3.2-6.5-6.5v-90c0-3.3,3.2-5.5,6.5-5.5H87v6.5c0,5.5,4,9.5,9.5,9.5h6.5V107.5z" fill="#2C3E50"/></svg>