<?xml version="1.0" encoding="UTF-8" standalone="no"?>
<!--

    Copyright (c) 2012-2017 Codenvy, S.A.
    All rights reserved. This program and the accompanying materials
    are made available under the terms of the Eclipse Public License v1.0
    which accompanies this distribution, and is available at
    http://www.eclipse.org/legal/epl-v10.html

    Contributors:
      Codenvy, S.A. - initial API and implementation

-->
<svg width="12px" height="10px" viewBox="0 0 12 10" version="1.1" xmlns="http://www.w3.org/2000/svg" xmlns:xlink="http://www.w3.org/1999/xlink" >
    <g stroke="none" stroke-width="1" fill="none" fill-rule="evenodd">
        <g transform="translate(-8.000000, -6.000000)">
            <g transform="translate(8.000000, 6.000000)">
                <path d="M5.3204844,8.57142833 L0.714285714,8.57142857 C0.319754464,8.57142857 0,8.25167411 0,7.85714286 L0,0.714285714 C0,0.319754464 0.319754464,0 0.714285714,0 L9.28571429,0 C9.68024554,0 10,0.319754464 10,0.714285714 L10,3.12601749 C9.68038008,3.043753 9.34529957,3 9,3 C6.790861,3 5,4.790861 5,7 C5,7.55784827 5.11419523,8.08902481 5.3204844,8.57142833 Z M1.42857143,5 L2.85714286,3.57142857 L1.42857143,2.14285714 L2.14285714,1.42857143 L4.28571429,3.57142857 L2.14285714,5.71428571 L1.42857143,5 L1.42857143,5 Z" fill="#AAAAAA" ></path>
                <circle fill="#4EABFF" cx="9" cy="7" r="3"></circle>
                <path d="M9,6 L9,8" id="Line1" stroke="#FFFFFF" stroke-linecap="square"></path>
                <path d="M8,7 L10,7" id="Line2" stroke="#FFFFFF" stroke-linecap="square"></path>
            </g>
        </g>
    </g>
</svg>
