<?xml version="1.0" encoding="utf-8"?>
<!--

    Copyright (c) 2012-2018 Red Hat, Inc.
    This program and the accompanying materials are made
    available under the terms of the Eclipse Public License 2.0
    which is available at https://www.eclipse.org/legal/epl-2.0/

    SPDX-License-Identifier: EPL-2.0

    Contributors:
      Red Hat, Inc. - initial API and implementation

-->
<svg width="8px" height="7px" viewBox="0 0 8 7" version="1.1" xmlns="http://www.w3.org/2000/svg" xmlns:xlink="http://www.w3.org/1999/xlink">
    <g stroke="none" stroke-width="1" fill="#808080" fill-rule="evenodd">
            <path d="M8,6.41414141 C8,6.3510101 7.97474747,6.28787879 7.92929293,6.24242424 L7.18686869,5.5 L7.92929293,4.75757576 C7.97474747,4.71212121 8,4.6489899 8,4.58585859 C8,4.52272727 7.97474747,4.45959596 7.92929293,4.41414141 L7.58585859,4.07070707 C7.54040404,4.02525253 7.47727273,4 7.41414141,4 C7.3510101,4 7.28787879,4.02525253 7.24242424,4.07070707 L6.5,4.81313131 L5.75757576,4.07070707 C5.71212121,4.02525253 5.6489899,4 5.58585859,4 C5.52272727,4 5.45959596,4.02525253 5.41414141,4.07070707 L5.07070707,4.41414141 C5.02525253,4.45959596 5,4.52272727 5,4.58585859 C5,4.6489899 5.02525253,4.71212121 5.07070707,4.75757576 L5.81313131,5.5 L5.07070707,6.24242424 C5.02525253,6.28787879 5,6.3510101 5,6.41414141 C5,6.47727273 5.02525253,6.54040404 5.07070707,6.58585859 L5.41414141,6.92929293 C5.45959596,6.97474747 5.52272727,7 5.58585859,7 C5.6489899,7 5.71212121,6.97474747 5.75757576,6.92929293 L6.5,6.18686869 L7.24242424,6.92929293 C7.28787879,6.97474747 7.3510101,7 7.41414141,7 C7.47727273,7 7.54040404,6.97474747 7.58585859,6.92929293 L7.92929293,6.58585859 C7.97474747,6.54040404 8,6.47727273 8,6.41414141 L8,6.41414141 Z"></path>
            <path d="M0.4995,3 L7.5,3 C7.775,3 8,2.75454545 8,2.45454545 L8,2.45454545 C8,2.15454545 7.775,1.90909091 7.5,1.90909091 L0.4995,1.90909091 C0.2245,1.90909091 1.02140518e-13,2.15454545 1.02140518e-13,2.45454545 L1.02140518e-13,2.45454545 C1.02140518e-13,2.75454545 0.2245,3 0.4995,3 L0.4995,3 L0.4995,3 Z M0.4995,1.09090909 L7.5,1.09090909 C7.775,1.09090909 8,0.846 8,0.545454545 L8,0.545454545 C8,0.245454545 7.775,3.06421555e-14 7.5,3.06421555e-14 L0.4995,3.06421555e-14 C0.2245,3.06421555e-14 1.02140518e-13,0.245454545 1.02140518e-13,0.545454545 L1.02140518e-13,0.545454545 C1.02140518e-13,0.846 0.2245,1.09090909 0.4995,1.09090909 L0.4995,1.09090909 Z"></path>
            <path d="M4.88903809,7.00000003 L3.78344727,5.90909091 L0.4995,5.90909091 C0.2245,5.90909091 1.02140518e-13,6.15454545 1.02140518e-13,6.45454545 C1.02140518e-13,6.75454545 0.2245,7 0.4995,7 L4.88903809,7.00000003 Z M3.74920654,5.09090912 L4.89141846,4 L0.4995,4 C0.2245,4 1.02140518e-13,4.24545455 1.02140518e-13,4.54545455 C1.02140518e-13,4.846 0.2245,5.09090909 0.4995,5.09090909 L3.74920654,5.09090912 Z"></path>
        </g>
</svg>