<?xml version="1.0" encoding="utf-8"?>
<!--

    Copyright (c) 2012-2018 Red Hat, Inc.
    This program and the accompanying materials are made
    available under the terms of the Eclipse Public License 2.0
    which is available at https://www.eclipse.org/legal/epl-2.0/

    SPDX-License-Identifier: EPL-2.0

    Contributors:
      Red Hat, Inc. - initial API and implementation

-->
<svg width="8px" height="8px" viewBox="0 0 8 8" version="1.1" xmlns="http://www.w3.org/2000/svg" xmlns:xlink="http://www.w3.org/1999/xlink">
    <g stroke="none" stroke-width="1" fill="none" fill-rule="evenodd">
        <path d="M8.34379299,1.85454525 C8.64970663,1.85454525 8.89999962,1.54316084 8.89999962,1.16103878 C8.89999962,0.779610228 8.64970663,0.467532319 8.34379299,0.467532319 L0.556343932,0.467532319 C0.250430284,0.467532319 0.000693506467,0.779610228 0.000693506467,1.16103878 C0.000693506467,1.54316084 0.250430284,1.85454525 0.556343932,1.85454525 L8.34379299,1.85454525 Z M2.22569341,6.70909049 C2.22569341,6.70909049 3.67194335,5.32207757 3.49712193,5.32207757 L0.318232779,5.32207757 C0.143411357,5.32207757 0.000693506467,5.63415547 0.000693506467,6.01558403 C0.000693506467,6.39770609 0.143411357,6.70909049 0.318232779,6.70909049 L2.22569341,6.70909049 Z" fill="#808080"></path>
        <path d="M0,3.40194916 C0,3.12442485 0.220001211,2.89944694 0.504002871,2.89944694 L8.6038807,2.89944694 C8.76742266,2.89944694 8.89999962,3.03429881 8.89999962,3.20216863 L8.89999962,6.14731976 C8.89999962,6.31450833 8.7716189,6.45004145 8.6080227,6.45004145 L4.44999981,6.45004145 L4.44999981,5.33164376 L7.64874758,5.33164376 L7.64874758,4.17087546 L0.501855691,4.17087546 C0.224688446,4.17087546 0,3.94940951 0,3.66837324 L0,3.40194916 Z" fill="#4EABFF"></path>
        <path d="M4.17400651,7.87810946 C3.97533811,8.07684811 3.81428555,8.00429454 3.81428555,7.74108592 L3.81428555,4.81166324 C3.81428555,4.53724859 3.96818047,4.46868647 4.17400651,4.67451251 L5.41580087,5.91630687 C5.61446927,6.11497527 5.62162691,6.42997717 5.41580087,6.63587599 L4.17400651,7.87810946 Z" fill="#CF405F" transform="translate(4.660509, 6.278794) scale(-1, 1) translate(-4.660509, -6.278794) "></path>
    </g>
</svg>