<?xml version="1.0" encoding="UTF-8" standalone="no"?>
<!--

    Copyright (c) 2012-2018 Red Hat, Inc.
    This program and the accompanying materials are made
    available under the terms of the Eclipse Public License 2.0
    which is available at https://www.eclipse.org/legal/epl-2.0/

    SPDX-License-Identifier: EPL-2.0

    Contributors:
      Red Hat, Inc. - initial API and implementation

-->
<svg width="9px" height="8px" viewBox="0 0 9 8" version="1.1" xmlns="http://www.w3.org/2000/svg" xmlns:xlink="http://www.w3.org/1999/xlink">
    <g stroke="none" stroke-width="1" fill="none" fill-rule="evenodd" >
        <g transform="translate(-1.000000, 0.000000)" fill="#AAAAAA">
            <path d="M9.20857157,0 L1.63142858,0 C1.28266295,0 1,0.282662951 1,0.631428582 L1,6.94571441 C1,7.29448004 1.28266295,7.57714299 1.63142858,7.57714299 L9.20857157,7.57714299 C9.5573372,7.57714299 9.84000015,7.29448004 9.84000015,6.94571441 L9.84000015,0.631428582 C9.84000015,0.282662951 9.5573372,0 9.20857157,0 L9.20857157,0 Z M8.3185717,2.05142866 L2.78857149,2.05142866 L2.78857149,1.42000008 L8.3185717,1.42000008 L8.3185717,2.05142866 L8.3185717,2.05142866 Z M7.3185717,3.05142866 L2.78857149,3.05142866 L2.78857149,2.42000008 L7.3185717,2.42000008 L7.3185717,3.05142866 L7.3185717,3.05142866 Z M8.3185717,4.05142866 L2.78857149,4.05142866 L2.78857149,3.42000008 L8.3185717,3.42000008 L8.3185717,4.05142866 L8.3185717,4.05142866 Z M6.31857147,5.05142866 L2.78857149,5.05142866 L2.78857149,4.42000008 L6.31857147,4.42000008 L6.31857147,5.05142866 L6.31857147,5.05142866 Z M7.3185717,6.05142866 L2.78857149,6.05142866 L2.78857149,5.42000008 L7.3185717,5.42000008 L7.3185717,6.05142866 L7.3185717,6.05142866 Z"></path>
        </g>
    </g>
</svg>
