<?xml version="1.0" encoding="utf-8"?>
<!--

    Copyright (c) 2012-2017 Codenvy, S.A.
    All rights reserved. This program and the accompanying materials
    are made available under the terms of the Eclipse Public License v1.0
    which accompanies this distribution, and is available at
    http://www.eclipse.org/legal/epl-v10.html

    Contributors:
      Codenvy, S.A. - initial API and implementation

-->
<svg width="8px" height="8px" viewBox="0 0 8 8" version="1.1" xmlns="http://www.w3.org/2000/svg" xmlns:xlink="http://www.w3.org/1999/xlink">
    <g stroke="none" stroke-width="1" fill="#808080" fill-rule="evenodd">
        <path d="M5,1.29462433 C5,1.13190781 5.12890625,1 5.29861927,1 L7.70138073,1 C7.8663036,1 8,1.1368058 8,1.29845962 L8,7.25152817 C8,7.41636287 7.86114502,7.54998779 7.69615936,7.54998779 L0.500435829,7.54998779 C0.224052752,7.54998779 8.58627134e-16,7.33205797 8.21420683e-16,7.05767414 L6.67577371e-17,1.49231365 C2.9888457e-17,1.22041633 0.228953736,1 0.496199727,0.999999999 L2.1394043,0.999999996 L2.1394043,2 L1,2 L1,6.55297852 L7.01586914,6.55297852 L7.01586914,2 L5.29744843,2 C5.1331722,2 5,1.86095428 5,1.70537567 L5,1.29462433 Z"></path>
        <path d="M2.35776811,2.72774174 C2.16017824,2.92540148 2,2.86372501 2,2.57610628 L2,0.509530088 C2,0.228124391 2.16507938,0.165079385 2.35776811,0.357768111 L3.18477734,1.18477734 C3.38236722,1.38236722 3.37746607,1.70768321 3.18477734,1.90044007 L2.35776811,2.72774174 Z"></path>
    </g>
</svg>