<?xml version="1.0" encoding="utf-8"?>
<!--

    Copyright (c) 2012-2018 Red Hat, Inc.
    This program and the accompanying materials are made
    available under the terms of the Eclipse Public License 2.0
    which is available at https://www.eclipse.org/legal/epl-2.0/

    SPDX-License-Identifier: EPL-2.0

    Contributors:
      Red Hat, Inc. - initial API and implementation

-->
<svg width="10px" height="8px" viewBox="0 0 10 8" version="1.1" xmlns="http://www.w3.org/2000/svg" xmlns:xlink="http://www.w3.org/1999/xlink">
    <g fill="none" fill-rule="evenodd">
        <polygon id="Shape" fill="#CF405F" points="0.364181818 7.61593939 0.364181818 4.53030303 1.90672727 6.07284848"></polygon>
        <path d="M1.99181818,7.53030303 L8.546,7.53030303 C8.846,7.53030303 9.09145455,7.28484848 9.09145455,6.98484848 L9.09145455,6.98484848 C9.09145455,6.68484848 8.846,6.43939394 8.546,6.43939394 L3.08272727,6.43939394 L1.99181818,7.53030303 L1.99181818,7.53030303 Z M2.99763636,5.62121212 L8.546,5.62121212 C8.846,5.62121212 9.09145455,5.37575758 9.09145455,5.07575758 L9.09145455,5.07575758 C9.09145455,4.77575758 8.846,4.53030303 8.546,4.53030303 L1.90672727,4.53030303 L2.99763636,5.62121212 L2.99763636,5.62121212 Z" fill="#4EABFF"></path>
        <path d="M0.909090909,3.25757576 L8.546,3.25757576 C8.846,3.25757576 9.09145455,3.01212121 9.09145455,2.71212121 L9.09145455,2.71212121 C9.09145455,2.41212121 8.846,2.16666667 8.546,2.16666667 L0.909090909,2.16666667 C0.609090909,2.16666667 0.364181818,2.41212121 0.364181818,2.71212121 L0.364181818,2.71212121 C0.364181818,3.01212121 0.609090909,3.25757576 0.909090909,3.25757576 L0.909090909,3.25757576 L0.909090909,3.25757576 Z M0.909090909,1.34848485 L8.546,1.34848485 C8.846,1.34848485 9.09145455,1.10357576 9.09145455,0.803030303 L9.09145455,0.803030303 C9.09145455,0.503030303 8.846,0.257575758 8.546,0.257575758 L0.909090909,0.257575758 C0.609090909,0.257575758 0.364181818,0.503030303 0.364181818,0.803030303 L0.364181818,0.803030303 C0.364181818,1.10357576 0.609090909,1.34848485 0.909090909,1.34848485 L0.909090909,1.34848485 Z" fill="#808080"></path>
    </g>
</svg>