<?xml version="1.0" encoding="UTF-8" standalone="no"?>
<!--

    Copyright (c) 2012-2016 Codenvy, S.A.
    All rights reserved. This program and the accompanying materials
    are made available under the terms of the Eclipse Public License v1.0
    which accompanies this distribution, and is available at
    http://www.eclipse.org/legal/epl-v10.html

    Contributors:
      Codenvy, S.A. - initial API and implementation

-->
<svg width="16px" height="16px" viewBox="0 0 16 16" version="1.1" xmlns="http://www.w3.org/2000/svg"
     xmlns:xlink="http://www.w3.org/1999/xlink">
    <g stroke="none" stroke-width="1">
        <g transform="translate(-18.000000, -3.000000)">
            <g transform="translate(-10.000000, -4.000000)">
                <g transform="translate(28.000000, 7.000000)">
                    <path d="M5.29949615,16 C5.85058247,16 6.2973262,15.5601021 6.2973262,15 L6.2973262,10.6 C6.2973262,10.0477153 5.84443803,9.6 5.29949615,9.6 L0.997830057,9.6 C0.446743734,9.6 0,10.0398979 0,10.6 L0,15 C0,15.5522847 0.452888171,16 0.997830057,16 L5.29949615,16 Z"/>
                    <path d="M14.7454855,16 C15.2965718,16 15.7433155,15.5601021 15.7433155,15 L15.7433155,10.6 C15.7433155,10.0477153 15.2904273,9.6 14.7454855,9.6 L10.4438194,9.6 C9.89273304,9.6 9.4459893,10.0398979 9.4459893,10.6 L9.4459893,15 C9.4459893,15.5522847 9.89887748,16 10.4438194,16 L14.7454855,16 Z"/>
                    <path d="M14.7454855,6.4 C15.2965718,6.4 15.7433155,5.96010208 15.7433155,5.4 L15.7433155,1 C15.7433155,0.44771525 15.2904273,0 14.7454855,0 L10.4438194,0 C9.89273304,0 9.4459893,0.439897919 9.4459893,1 L9.4459893,5.4 C9.4459893,5.95228475 9.89887748,6.4 10.4438194,6.4 L14.7454855,6.4 Z"/>
                    <path d="M5.29949615,6.4 C5.85058247,6.4 6.2973262,5.96010208 6.2973262,5.4 L6.2973262,1 C6.2973262,0.44771525 5.84443803,0 5.29949615,0 L0.997830057,0 C0.446743734,0 0,0.439897919 0,1 L0,5.4 C0,5.95228475 0.452888171,6.4 0.997830057,6.4 L5.29949615,6.4 Z"/>
                </g>
            </g>
        </g>
    </g>
</svg>
