<?xml version="1.0" encoding="UTF-8" standalone="no"?>
<!--

    Copyright (c) 2012-2017 Codenvy, S.A.
    All rights reserved. This program and the accompanying materials
    are made available under the terms of the Eclipse Public License v1.0
    which accompanies this distribution, and is available at
    http://www.eclipse.org/legal/epl-v10.html

    Contributors:
      Codenvy, S.A. - initial API and implementation

-->
<svg width="50px" height="40px" viewBox="0 0 50 40" version="1.1" xmlns="http://www.w3.org/2000/svg" xmlns:xlink="http://www.w3.org/1999/xlink">
    <g stroke="none" stroke-width="1" fill="none" fill-rule="evenodd">
        <g fill="#3193D4">
            <path d="M44.029,20.227 C43.767,20.575 43.304,20.705 42.899,20.544 L30.813,17.77 L30.813,43.751 C30.813,44.286 30.379,44.72 29.843,44.72 L20.157,44.72 C19.623,44.72 19.189,44.286 19.189,43.751 L19.189,17.77 L7.101,20.544 C6.697,20.704 6.234,20.574 5.972,20.227 C5.709,19.879 5.71,19.399 5.978,19.054 L24.232,-4.69 C24.416,-4.929 24.699,-5.068 25,-5.068 C25.301,-5.068 25.585,-4.928 25.768,-4.69 L44.023,19.054 C44.156,19.227 44.224,19.435 44.224,19.644 C44.224,19.849 44.16,20.054 44.029,20.227 Z" transform="translate(24.999933, 19.826000) rotate(-270.000000) translate(-24.999933, -19.826000) "></path>
        </g>
    </g>
</svg>
