<?xml version="1.0" encoding="utf-8"?>
<!--

    Copyright (c) 2012-2018 Red Hat, Inc.
    This program and the accompanying materials are made
    available under the terms of the Eclipse Public License 2.0
    which is available at https://www.eclipse.org/legal/epl-2.0/

    SPDX-License-Identifier: EPL-2.0

    Contributors:
      Red Hat, Inc. - initial API and implementation

-->
<!DOCTYPE svg PUBLIC "-//W3C//DTD SVG 1.1//EN" "http://www.w3.org/Graphics/SVG/1.1/DTD/svg11.dtd">
<svg version="1.1" id="about" xmlns="http://www.w3.org/2000/svg" xmlns:xlink="http://www.w3.org/1999/xlink" x="0px" y="0px"
     width="16px" height="16px" viewBox="7 7 18 18" enable-background="new 0 0 32 32" xml:space="preserve">
    <g>
        <path fill-rule="evenodd" clip-rule="evenodd" fill="#4D4D4D" d="M16,8c4.419,0,8,3.582,8,8c0,4.419-3.581,8-8,8
        		c-1.405,0-2.727-0.363-3.875-1H9v-3.125C8.363,18.728,8,17.406,8,16C8,11.582,11.582,8,16,8L16,8z M15.25,12
        		C15.112,12,15,12.112,15,12.25v1.5c0,0.138,0.112,0.25,0.25,0.25h1.501C16.888,14,17,13.888,17,13.75v-1.5
        		c0-0.137-0.112-0.25-0.249-0.25H15.25L15.25,12z M15.25,15C15.112,15,15,15.113,15,15.25v4.5c0,0.138,0.113,0.25,0.25,0.25h1.501
        		C16.888,20,17,19.888,17,19.75v-4.5c0-0.137-0.112-0.25-0.249-0.25H15.25L15.25,15z M11,21.001h1.643l0.452,0.25
        		C13.987,21.746,14.981,22,16,22c3.314,0,6-2.686,6-6s-2.686-6-6-6s-6,2.686-6,6c0,1.02,0.254,2.013,0.749,2.904L11,19.357V21.001z"
        		/>
    </g>
</svg>
