<?xml version="1.0" encoding="utf-8"?>
<!--

    Copyright (c) 2012-2018 Red Hat, Inc.
    This program and the accompanying materials are made
    available under the terms of the Eclipse Public License 2.0
    which is available at https://www.eclipse.org/legal/epl-2.0/

    SPDX-License-Identifier: EPL-2.0

    Contributors:
      Red Hat, Inc. - initial API and implementation

-->
<!DOCTYPE svg PUBLIC "-//W3C//DTD SVG 1.1//EN" "http://www.w3.org/Graphics/SVG/1.1/DTD/svg11.dtd">
<svg version="1.1" xmlns="http://www.w3.org/2000/svg" xmlns:xlink="http://www.w3.org/1999/xlink" x="0px" y="0px" width="32px"
	 height="32px" viewBox="0 0 32 32" enable-background="new 0 0 32 32" xml:space="preserve">
<g id="CSS">
	<path fill-rule="evenodd" clip-rule="evenodd" fill="#3193D4" d="M13.914,8h1.852c0.169,0,0.283,0.15,0.253,0.333l-0.598,3.667
		h2.465l0.598-3.667C18.513,8.15,18.676,8,18.845,8h1.851c0.17,0,0.283,0.15,0.254,0.333l-0.598,3.667h3.381
		c0.175,0,0.293,0.149,0.263,0.333l-0.326,2.001c-0.029,0.183-0.196,0.333-0.371,0.333h-3.382l-0.435,2.666h3.382
		c0.175,0,0.293,0.149,0.263,0.333L22.8,19.667C22.771,19.85,22.604,20,22.429,20h-3.382l-0.599,3.667
		C18.419,23.851,18.256,24,18.087,24h-1.851c-0.169,0-0.283-0.149-0.254-0.333L16.581,20h-2.465l-0.598,3.667
		C13.488,23.851,13.326,24,13.157,24h-1.852c-0.169,0-0.283-0.149-0.253-0.333L11.65,20H8.269c-0.174,0-0.293-0.15-0.263-0.333
		l0.326-2.001c0.03-0.184,0.197-0.333,0.371-0.333h3.382l0.436-2.666H9.138c-0.175,0-0.293-0.149-0.263-0.333l0.326-2.001
		c0.029-0.184,0.196-0.333,0.371-0.333h3.383l0.598-3.667C13.583,8.15,13.745,8,13.914,8L13.914,8z M14.986,14.667l-0.436,2.666
		h2.465l0.435-2.666H14.986z"/>
</g>
</svg>
