<?xml version="1.0" encoding="utf-8"?>
<!--

    Copyright (c) 2012-2018 Red Hat, Inc.
    This program and the accompanying materials are made
    available under the terms of the Eclipse Public License 2.0
    which is available at https://www.eclipse.org/legal/epl-2.0/

    SPDX-License-Identifier: EPL-2.0

    Contributors:
      Red Hat, Inc. - initial API and implementation

-->
<!DOCTYPE svg PUBLIC "-//W3C//DTD SVG 1.1//EN" "http://www.w3.org/Graphics/SVG/1.1/DTD/svg11.dtd">
<svg version="1.1" xmlns="http://www.w3.org/2000/svg" xmlns:xlink="http://www.w3.org/1999/xlink" x="0px" y="0px" width="32px"
	 height="32px" viewBox="0 0 32 32" enable-background="new 0 0 32 32" xml:space="preserve">
<g id="HTML">
	<path fill-rule="evenodd" clip-rule="evenodd" fill="#CF405F" d="M14.202,10.228l0.608,0.608c0.167,0.167,0.167,0.44,0,0.607
		L10.253,16l4.558,4.558c0.167,0.167,0.166,0.44,0,0.607l-0.608,0.607c-0.167,0.167-0.44,0.167-0.607,0
		c-1.823-1.823-3.646-3.646-5.469-5.469c-0.167-0.167-0.167-0.44,0-0.607l5.469-5.469C13.762,10.061,14.034,10.061,14.202,10.228
		L14.202,10.228z M17.799,10.228l-0.608,0.608c-0.167,0.167-0.167,0.44,0,0.607L21.748,16l-4.558,4.558
		c-0.167,0.167-0.167,0.44,0,0.607l0.608,0.607c0.166,0.167,0.44,0.167,0.607,0c1.822-1.823,3.646-3.646,5.469-5.469
		c0.167-0.167,0.167-0.44,0-0.607l-5.469-5.469C18.238,10.061,17.966,10.061,17.799,10.228z"/>
</g>
</svg>
