<?xml version="1.0" encoding="utf-8"?>
<!--

    Copyright (c) 2012-2018 Red Hat, Inc.
    This program and the accompanying materials are made
    available under the terms of the Eclipse Public License 2.0
    which is available at https://www.eclipse.org/legal/epl-2.0/

    SPDX-License-Identifier: EPL-2.0

    Contributors:
      Red Hat, Inc. - initial API and implementation

-->
<!DOCTYPE svg PUBLIC "-//W3C//DTD SVG 1.1//EN" "http://www.w3.org/Graphics/SVG/1.1/DTD/svg11.dtd">
<svg version="1.1" xmlns="http://www.w3.org/2000/svg" xmlns:xlink="http://www.w3.org/1999/xlink" x="0px" y="0px" width="32px"
	 height="32px" viewBox="0 0 32 32" enable-background="new 0 0 32 32" xml:space="preserve">
<g id="LESS">
	<path fill-rule="evenodd" clip-rule="evenodd" fill="#3193D4" d="M23.75,12H8.25C8.113,12,8,12.113,8,12.25v7.5
		C8,19.888,8.112,20,8.25,20h15.5c0.138,0,0.25-0.112,0.25-0.25v-7.5C24,12.112,23.888,12,23.75,12L23.75,12z M13.953,21
		l-0.435,2.667C13.489,23.851,13.326,24,13.157,24h-1.852c-0.169,0-0.283-0.149-0.253-0.333L11.487,21H13.953L13.953,21z M13.914,8
		h1.852c0.169,0,0.283,0.15,0.253,0.333L15.584,11h-2.466l0.435-2.667C13.583,8.15,13.745,8,13.914,8L13.914,8z M18.049,11
		l0.435-2.667C18.513,8.15,18.676,8,18.845,8h1.851c0.17,0,0.283,0.15,0.254,0.333L20.515,11H18.049L18.049,11z M18.884,21
		l-0.436,2.667C18.419,23.851,18.256,24,18.087,24h-1.851c-0.169,0-0.283-0.149-0.254-0.333L16.418,21H18.884L18.884,21z
		 M11.324,17.094h1.466v0.608h-2.259v-3.404h0.793V17.094L11.324,17.094z M15.252,16.247h-1.335v0.847h1.573v0.608h-2.366v-3.404
		h2.371v0.608h-1.578v0.732h1.335V16.247L15.252,16.247z M17.655,16.797c0-0.119-0.04-0.211-0.119-0.276
		c-0.079-0.066-0.222-0.134-0.428-0.208c-0.431-0.135-0.749-0.28-0.956-0.436c-0.208-0.155-0.312-0.379-0.312-0.672
		c0-0.285,0.124-0.515,0.371-0.691c0.247-0.176,0.561-0.264,0.94-0.264c0.377,0,0.687,0.098,0.927,0.292
		c0.241,0.193,0.357,0.443,0.35,0.749l-0.004,0.014h-0.768c0-0.135-0.046-0.244-0.138-0.329c-0.091-0.085-0.219-0.127-0.381-0.127
		c-0.159,0-0.283,0.035-0.374,0.104c-0.091,0.07-0.136,0.157-0.136,0.259c0,0.099,0.046,0.179,0.137,0.238
		c0.091,0.06,0.263,0.136,0.513,0.225c0.387,0.116,0.678,0.257,0.873,0.426c0.196,0.168,0.294,0.398,0.294,0.693
		c0,0.299-0.116,0.533-0.35,0.701c-0.232,0.169-0.541,0.254-0.927,0.254c-0.387,0-0.721-0.098-1.003-0.291
		c-0.282-0.194-0.42-0.474-0.411-0.838l0.005-0.015h0.77c0,0.195,0.053,0.335,0.158,0.419c0.106,0.084,0.267,0.126,0.481,0.126
		c0.163,0,0.285-0.032,0.365-0.099C17.615,16.988,17.655,16.903,17.655,16.797L17.655,16.797z M20.679,16.797
		c0-0.119-0.04-0.211-0.119-0.276c-0.079-0.066-0.223-0.134-0.429-0.208c-0.43-0.135-0.748-0.28-0.956-0.436
		c-0.207-0.155-0.311-0.379-0.311-0.672c0-0.285,0.123-0.515,0.371-0.691c0.246-0.176,0.56-0.264,0.94-0.264
		c0.377,0,0.687,0.098,0.927,0.292c0.24,0.193,0.357,0.443,0.349,0.749l-0.003,0.014h-0.768c0-0.135-0.046-0.244-0.138-0.329
		c-0.092-0.085-0.22-0.127-0.382-0.127c-0.158,0-0.283,0.035-0.374,0.104c-0.09,0.07-0.135,0.157-0.135,0.259
		c0,0.099,0.046,0.179,0.137,0.238c0.091,0.06,0.262,0.136,0.513,0.225c0.387,0.116,0.678,0.257,0.873,0.426
		c0.195,0.168,0.294,0.398,0.294,0.693c0,0.299-0.116,0.533-0.35,0.701c-0.232,0.169-0.542,0.254-0.928,0.254
		s-0.72-0.098-1.003-0.291c-0.281-0.194-0.419-0.474-0.411-0.838l0.005-0.015h0.77c0,0.195,0.053,0.335,0.159,0.419
		c0.105,0.084,0.266,0.126,0.48,0.126c0.164,0,0.286-0.032,0.367-0.099C20.638,16.988,20.679,16.903,20.679,16.797z"/>
</g>
</svg>
