<?xml version="1.0" encoding="utf-8"?>
<!--

    Copyright (c) 2012-2017 Codenvy, S.A.
    All rights reserved. This program and the accompanying materials
    are made available under the terms of the Eclipse Public License v1.0
    which accompanies this distribution, and is available at
    http://www.eclipse.org/legal/epl-v10.html

    Contributors:
      Codenvy, S.A. - initial API and implementation

-->
<!DOCTYPE svg PUBLIC "-//W3C//DTD SVG 1.1//EN" "http://www.w3.org/Graphics/SVG/1.1/DTD/svg11.dtd">
<svg version="1.1" id="dockerFile" xmlns="http://www.w3.org/2000/svg" xmlns:xlink="http://www.w3.org/1999/xlink" x="0px" y="0px"
     width="16px" height="16px" viewBox="7 7 18 18" enable-background="new 0 0 32 32" xml:space="preserve">
    <g>
            <path fill-rule="evenodd" clip-rule="evenodd" fill="#3193D4" d="M15.902,15.699c0.061,0.005,0.057-0.045,0.057-0.085
                    c0.001-0.14,0.001-0.28,0.001-0.419c0-0.149,0.001-0.298-0.001-0.447c0-0.036,0.001-0.079-0.05-0.079
                    c-0.052,0-0.05,0.043-0.05,0.079c-0.001,0.289-0.001,0.577,0,0.867C15.859,15.649,15.854,15.695,15.902,15.699L15.902,15.699
                    L15.902,15.699z M14.393,18.171c-0.004-0.196-0.162-0.347-0.359-0.341c-0.191,0.005-0.338,0.159-0.336,0.353
                    c0.002,0.188,0.159,0.344,0.347,0.343C14.243,18.523,14.395,18.369,14.393,18.171L14.393,18.171L14.393,18.171z M14.052,18.427
                    c-0.138,0.003-0.25-0.103-0.256-0.24c-0.005-0.134,0.093-0.248,0.224-0.255c0.047-0.003,0.112-0.025,0.079,0.076
                    c-0.027,0.081,0.032,0.144,0.11,0.112c0.093-0.036,0.082,0.013,0.084,0.067C14.29,18.319,14.185,18.424,14.052,18.427
                    L14.052,18.427L14.052,18.427z M13.4,14.249c0.055,0.002,0.044-0.047,0.045-0.081c0.002-0.144,0.001-0.288,0.001-0.432
                    s0-0.288-0.001-0.433c0-0.033,0.008-0.081-0.048-0.077c-0.045,0.003-0.038,0.043-0.038,0.073c-0.001,0.288-0.001,0.576,0,0.865
                    C13.359,14.198,13.348,14.246,13.4,14.249L13.4,14.249L13.4,14.249z M13.549,14.181c0,0.031-0.002,0.069,0.044,0.068
                    c0.045-0.001,0.042-0.04,0.042-0.07c0.001-0.149,0.001-0.297,0.001-0.446c0-0.144,0-0.288-0.001-0.432
                    c0-0.03,0.008-0.07-0.038-0.074c-0.056-0.005-0.048,0.042-0.048,0.076C13.548,13.595,13.548,13.888,13.549,14.181L13.549,14.181z
                     M13.211,14.265c0.057,0.004,0.063-0.041,0.063-0.083c0-0.293,0.001-0.587,0-0.88c0-0.038-0.007-0.076-0.056-0.077
                    c-0.056-0.001-0.05,0.042-0.05,0.077c-0.001,0.145-0.001,0.289-0.001,0.433c0,0.149,0,0.298,0.001,0.447
                    C13.168,14.215,13.158,14.262,13.211,14.265L13.211,14.265z M13.023,14.265c0.048,0.003,0.061-0.032,0.061-0.072
                    c0-0.298,0-0.595,0-0.893c0-0.037-0.007-0.076-0.057-0.076c-0.057,0-0.046,0.045-0.046,0.079c-0.001,0.144-0.001,0.289-0.001,0.433
                    c0,0.149-0.001,0.298,0.001,0.446C12.981,14.215,12.969,14.262,13.023,14.265L13.023,14.265L13.023,14.265z M18.284,15.703
                    c0.057,0.004,0.063-0.041,0.063-0.083c0.001-0.145,0-0.29,0-0.434s0-0.289,0-0.434c0-0.042-0.004-0.088-0.061-0.085
                    c-0.054,0.002-0.042,0.05-0.042,0.083c-0.001,0.289-0.001,0.579,0,0.868C18.244,15.651,18.232,15.698,18.284,15.703L18.284,15.703z
                     M15.033,14.667c-0.063,0.003-0.043,0.059-0.044,0.095c-0.002,0.14-0.001,0.28-0.001,0.42c0,0.145-0.001,0.289,0.001,0.434
                    c0,0.037-0.015,0.091,0.051,0.087c0.048-0.003,0.052-0.044,0.052-0.081c0.001-0.289,0.001-0.579,0-0.868
                    C15.092,14.711,15.09,14.663,15.033,14.667L15.033,14.667z M13.738,14.181c0,0.031-0.001,0.069,0.044,0.068s0.042-0.039,0.042-0.07
                    c0.001-0.145,0.001-0.289,0.001-0.433c0-0.149,0.001-0.297-0.001-0.446c0-0.03,0.008-0.07-0.037-0.074
                    c-0.057-0.005-0.049,0.042-0.049,0.076C13.737,13.595,13.737,13.888,13.738,14.181L13.738,14.181L13.738,14.181z M13.928,15.177
                    c0,0.144-0.001,0.288,0,0.432c0.001,0.033-0.011,0.081,0.045,0.08c0.046-0.001,0.038-0.042,0.038-0.072
                    c0.001-0.288,0.001-0.575,0-0.863c0-0.029,0.009-0.07-0.037-0.072c-0.056-0.003-0.046,0.045-0.046,0.078
                    C13.926,14.899,13.927,15.039,13.928,15.177L13.928,15.177L13.928,15.177z M15.281,14.766c0-0.044,0.006-0.101-0.06-0.099
                    c-0.063,0.001-0.046,0.057-0.046,0.093c-0.001,0.283-0.001,0.567,0,0.85c0,0.037-0.016,0.092,0.048,0.092
                    c0.065,0,0.058-0.056,0.059-0.1c0.001-0.139,0-0.279,0-0.418C15.282,15.043,15.283,14.905,15.281,14.766L15.281,14.766
                    L15.281,14.766z M13.972,14.249c0.045,0,0.04-0.041,0.04-0.07c0.001-0.148,0.001-0.297,0.001-0.445c0-0.148,0-0.296-0.001-0.445
                    c0-0.026,0.002-0.058-0.035-0.062c-0.046-0.005-0.048,0.031-0.048,0.063c-0.001,0.296-0.001,0.594,0,0.89
                    C13.929,14.21,13.927,14.25,13.972,14.249L13.972,14.249L13.972,14.249z M18.104,15.703c0.048-0.001,0.053-0.042,0.053-0.08
                    c0.001-0.294,0.001-0.587,0-0.881c0-0.039-0.009-0.076-0.058-0.076c-0.056,0-0.045,0.046-0.045,0.08
                    c-0.002,0.145-0.001,0.29-0.001,0.434c0,0.145-0.001,0.289,0.001,0.434C18.055,15.65,18.038,15.705,18.104,15.703L18.104,15.703z
                     M15.412,14.682c-0.056,0-0.045,0.047-0.046,0.081c-0.001,0.14-0.001,0.28-0.001,0.42c0,0.144,0,0.289,0.001,0.433
                    c0,0.031-0.004,0.069,0.041,0.072c0.046,0.002,0.045-0.037,0.045-0.067c0.001-0.289,0.001-0.578,0-0.866
                    C15.452,14.723,15.456,14.682,15.412,14.682L15.412,14.682L15.412,14.682z M11.964,15.687c0.045,0,0.043-0.038,0.043-0.069
                    c0.001-0.14,0.001-0.28,0.001-0.419c0-0.149,0-0.298-0.001-0.447c0-0.031,0.003-0.069-0.043-0.069
                    c-0.045,0-0.043,0.038-0.043,0.069c-0.001,0.289-0.001,0.578,0,0.866C11.921,15.647,11.919,15.686,11.964,15.687L11.964,15.687
                    L11.964,15.687z M14.849,14.667c-0.066-0.003-0.049,0.053-0.05,0.089c-0.002,0.285-0.002,0.569,0,0.854
                    c0,0.036-0.019,0.091,0.047,0.092c0.057,0,0.057-0.048,0.057-0.089c0-0.14,0-0.28,0-0.42c0-0.145,0-0.289,0-0.434
                    C14.901,14.718,14.905,14.669,14.849,14.667L14.849,14.667L14.849,14.667z M11.773,15.687c0.045,0.001,0.044-0.038,0.044-0.069
                    c0.001-0.144,0-0.289,0-0.433c0-0.145,0.001-0.289,0-0.433c0-0.031,0.002-0.069-0.042-0.07c-0.046-0.001-0.044,0.038-0.044,0.069
                    c-0.001,0.289-0.001,0.577,0,0.866C11.731,15.646,11.729,15.685,11.773,15.687L11.773,15.687L11.773,15.687z M12.111,15.611
                    c0,0.03-0.007,0.071,0.037,0.074c0.057,0.004,0.049-0.042,0.049-0.076c0.001-0.284,0.001-0.568,0-0.853
                    c0-0.03,0.007-0.071-0.038-0.074c-0.057-0.004-0.048,0.043-0.048,0.077c-0.001,0.14-0.001,0.28-0.001,0.419
                    C12.11,15.322,12.109,15.467,12.111,15.611L12.111,15.611L12.111,15.611z M11.545,15.609c0,0.033-0.011,0.081,0.046,0.076
                    c0.044-0.003,0.037-0.045,0.037-0.074c0.001-0.284,0.001-0.568,0-0.851c0-0.033,0.008-0.081-0.048-0.076
                    c-0.045,0.003-0.035,0.045-0.035,0.074c-0.001,0.14-0.001,0.279-0.001,0.419C11.544,15.321,11.543,15.465,11.545,15.609
                    L11.545,15.609L11.545,15.609z M21.695,16.277L21.695,16.277c-0.066,0.201-0.183,0.383-0.277,0.573
                    c-0.022,0.046-0.044,0.079,0.037,0.084c0.46,0.022,0.904-0.02,1.302-0.279c0.075-0.049,0.142-0.111,0.223-0.177
                    c-0.008,0.34,0.253,0.42,0.496,0.509c0.146,0.053,0.302,0.083,0.454,0.14c-0.046,0-0.092,0-0.138,0
                    c-0.805,0-1.609,0.001-2.414-0.002c-0.081-0.001-0.13,0.02-0.175,0.091c-1.018,1.626-2.484,2.624-4.331,3.083
                    c-0.949,0.235-1.915,0.327-2.89,0.24c-1.257-0.111-2.352-0.572-3.181-1.563c-0.42-0.502-0.688-1.078-0.805-1.722
                    c-0.018-0.097-0.048-0.131-0.152-0.13c-0.614,0.006-1.229,0.002-1.844,0.002c0.221-0.076,0.452-0.119,0.662-0.225
                    c0.205-0.103,0.268-0.195,0.287-0.427c0.234,0.239,0.521,0.361,0.835,0.424c0.161,0.032,0.16,0.032,0.146-0.125
                    c-0.026-0.298-0.006-0.595,0.017-0.893c0.006-0.083,0.049-0.089,0.115-0.089c0.34,0.002,0.678-0.002,1.018,0.003
                    c0.09,0.001,0.113-0.025,0.112-0.114c-0.004-0.411,0.003-0.823-0.005-1.234c-0.002-0.111,0.035-0.133,0.137-0.131
                    c0.398,0.005,0.796,0,1.194,0.004c0.089,0.001,0.113-0.024,0.112-0.113c-0.004-0.398,0.001-0.796-0.004-1.194
                    c-0.002-0.104,0.022-0.137,0.131-0.136c0.869,0.004,1.736,0,2.604,0.005c0.118,0,0.152-0.026,0.149-0.148
                    c-0.008-0.393,0-0.787-0.005-1.18c-0.001-0.091,0.02-0.125,0.118-0.124c0.502,0.005,1.004,0.005,1.506,0
                    c0.102-0.001,0.117,0.037,0.116,0.125c-0.003,0.859-0.003,1.718-0.001,2.577c0,0.208-0.029,0.183,0.19,0.184
                    c0.366,0.001,0.732,0.005,1.099-0.002c0.113-0.002,0.155,0.02,0.152,0.146c-0.011,0.402,0,0.804-0.007,1.207
                    c-0.002,0.103,0.028,0.128,0.129,0.127c0.496-0.004,0.994,0.021,1.478-0.132c0.178-0.057,0.35-0.123,0.516-0.205
                    c0.063-0.031,0.083-0.054,0.039-0.128c-0.38-0.639-0.381-1.301-0.103-1.974c0.069-0.169,0.19-0.305,0.321-0.431
                    c0.146,0.075,0.261,0.189,0.378,0.3c0.354,0.333,0.616,0.72,0.703,1.208c0.019,0.104,0.076,0.059,0.128,0.048
                    c0.588-0.127,1.147-0.069,1.67,0.252c0.07,0.044,0.074,0.071,0.04,0.143c-0.365,0.78-1.023,1.09-1.838,1.107
                    C21.899,15.986,21.771,16.043,21.695,16.277L21.695,16.277z M17.188,14.64c-0.001-0.074,0.031-0.091,0.098-0.091
                    c0.356,0.002,0.714,0.002,1.071,0c0.068,0,0.098,0.025,0.098,0.095c-0.002,0.362-0.002,0.723,0,1.085
                    c0,0.073-0.036,0.091-0.102,0.09c-0.177-0.002-0.354-0.001-0.529-0.001c-0.177,0-0.354-0.002-0.529,0.001
                    c-0.07,0.001-0.108-0.012-0.107-0.095C17.191,15.362,17.19,15.001,17.188,14.64L17.188,14.64L17.188,14.64z M17.018,14.275
                    L17.018,14.275c-0.003-0.352-0.003-0.705,0-1.058c0-0.084-0.035-0.107-0.114-0.106c-0.353,0.003-0.705,0.003-1.058,0
                    c-0.079-0.001-0.101,0.027-0.099,0.103c0.004,0.175,0.001,0.352,0.001,0.528s0.003,0.353-0.001,0.528
                    c-0.001,0.07,0.011,0.109,0.095,0.108c0.356-0.003,0.714-0.003,1.071,0C16.987,14.378,17.019,14.352,17.018,14.275L17.018,14.275z
                     M15.749,12.299L15.749,12.299c-0.001,0.177,0.002,0.354-0.002,0.529c-0.002,0.079,0.017,0.113,0.104,0.112
                    c0.353-0.004,0.705-0.004,1.058,0c0.084,0,0.108-0.032,0.108-0.112c-0.003-0.348-0.003-0.696,0-1.044
                    c0.001-0.08-0.025-0.111-0.109-0.11c-0.353,0.003-0.704,0.004-1.057,0c-0.089-0.001-0.105,0.034-0.104,0.112
                    C15.752,11.956,15.749,12.128,15.749,12.299L15.749,12.299z M15.747,14.659c-0.001-0.079,0.017-0.111,0.104-0.111
                    c0.353,0.004,0.704,0.004,1.057,0.001c0.084-0.001,0.108,0.031,0.107,0.111c-0.002,0.348-0.003,0.695,0,1.043
                    c0.002,0.087-0.025,0.12-0.116,0.117c-0.176-0.006-0.353-0.002-0.528-0.002c-0.171,0-0.344-0.003-0.515,0.002
                    c-0.079,0.002-0.112-0.017-0.111-0.104C15.75,15.364,15.749,15.012,15.747,14.659L15.747,14.659L15.747,14.659z M14.414,13.111
                    L14.414,13.111c-0.086-0.001-0.106,0.029-0.104,0.109c0.003,0.352,0.003,0.704,0,1.056c-0.002,0.076,0.021,0.102,0.099,0.102
                    c0.353-0.003,0.704-0.003,1.056,0c0.078,0,0.101-0.028,0.1-0.104c-0.004-0.175-0.002-0.352-0.002-0.527
                    c0-0.175-0.003-0.352,0.002-0.528c0.003-0.082-0.024-0.108-0.108-0.107C15.108,13.115,14.761,13.115,14.414,13.111L14.414,13.111z
                     M15.562,15.197c0,0.176-0.002,0.352,0.001,0.528c0.002,0.07-0.023,0.095-0.094,0.094c-0.357-0.002-0.714-0.002-1.071,0
                    c-0.063,0-0.088-0.02-0.088-0.085c0.003-0.366,0.003-0.732,0-1.098c0-0.064,0.022-0.088,0.087-0.087
                    c0.357,0.002,0.714,0.003,1.07,0c0.083-0.001,0.098,0.036,0.096,0.106c-0.003,0.181-0.001,0.361-0.001,0.542V15.197L15.562,15.197z
                     M12.964,13.111c0.356,0.003,0.713,0.003,1.069,0c0.072,0,0.092,0.028,0.092,0.096c-0.002,0.361-0.002,0.722,0,1.083
                    c0,0.063-0.022,0.089-0.087,0.088c-0.36-0.002-0.721-0.002-1.082,0c-0.08,0-0.084-0.043-0.083-0.104c0.001-0.176,0-0.352,0-0.527
                    c0-0.181,0.002-0.361-0.001-0.542C12.871,13.137,12.893,13.11,12.964,13.111L12.964,13.111z M12.981,14.549
                    c0.176,0.005,0.353,0.001,0.529,0.001c0.172,0,0.343,0.003,0.516-0.001c0.078-0.002,0.1,0.027,0.1,0.102
                    c-0.003,0.357-0.003,0.714,0,1.071c0.001,0.081-0.032,0.098-0.104,0.097c-0.349-0.002-0.696-0.004-1.045,0
                    c-0.085,0.001-0.106-0.028-0.105-0.109c0.004-0.353,0.004-0.705-0.001-1.058C12.869,14.565,12.901,14.546,12.981,14.549
                    L12.981,14.549L12.981,14.549z M11.431,14.646c-0.001-0.081,0.032-0.098,0.104-0.098c0.349,0.002,0.696,0.004,1.044,0
                    c0.086-0.001,0.106,0.03,0.106,0.11c-0.004,0.353-0.005,0.705,0,1.057c0,0.087-0.031,0.107-0.111,0.105
                    c-0.171-0.005-0.343-0.001-0.515-0.001c-0.171,0-0.343-0.002-0.515,0.001c-0.076,0.001-0.114-0.013-0.114-0.103
                    C11.436,15.36,11.436,15.003,11.431,14.646L11.431,14.646L11.431,14.646z M20.916,17.229c-0.316,0.47-0.674,0.904-1.096,1.282
                    c-0.515,0.461-1.089,0.829-1.719,1.112c-0.666,0.299-1.362,0.488-2.084,0.596c-0.352,0.054-0.706,0.075-1.061,0.099l0,0
                    c-0.885,0.035-1.748-0.049-2.566-0.418c-0.483-0.219-0.898-0.531-1.278-0.896c-0.019-0.018-0.045-0.032-0.044-0.079
                    c0.438,0.028,0.878,0.023,1.315-0.003c0.338-0.029,0.673-0.079,1.002-0.164l0,0l0,0c0.042-0.015,0.085-0.029,0.127-0.044
                    c0.068-0.022,0.111-0.065,0.089-0.142c-0.023-0.077-0.084-0.085-0.152-0.063c-0.273,0.09-0.555,0.143-0.842,0.17
                    c-0.229,0.021-0.455,0.053-0.686,0.042c-0.323,0.012-0.646,0.003-0.971-0.02c-0.05-0.004-0.082-0.022-0.109-0.063
                    c-0.31-0.436-0.518-0.913-0.611-1.439c-0.013-0.072,0.016-0.075,0.067-0.075c0.18,0.003,0.36,0.004,0.54,0.005
                    c0.041-0.002,0.081-0.005,0.122-0.005c2.857,0,5.714,0,8.57,0c0.04,0,0.081,0.003,0.122,0.004c0.401-0.001,0.804,0,1.205-0.005
                    c0.101-0.001,0.108,0.028,0.057,0.104L20.916,17.229L20.916,17.229z M21.178,16.795c-0.04,0.072-0.078,0.091-0.16,0.067
                    c-0.179-0.051-0.357-0.101-0.509-0.211c-0.053-0.038-0.076-0.029-0.121,0.013c-0.099,0.095-0.216,0.162-0.354,0.187
                    c-0.301,0.114-0.617,0.13-0.932,0.131c-0.375,0.002-0.749-0.034-1.113-0.13c-0.23-0.061-0.469-0.11-0.631-0.312
                    c-0.037-0.045-0.053-0.005-0.072,0.013c-0.431,0.383-0.955,0.44-1.497,0.42c-0.305-0.013-0.599-0.081-0.873-0.222
                    c-0.113-0.059-0.203-0.189-0.307-0.208c-0.091-0.018-0.183,0.141-0.3,0.189c-0.304,0.126-0.622,0.183-0.945,0.22
                    c-0.433,0.049-0.865,0.048-1.293-0.046c-0.2-0.044-0.396-0.103-0.544-0.254c-0.048-0.049-0.072-0.022-0.112,0.002
                    c-0.193,0.122-0.403,0.199-0.632,0.225c-0.17,0.056-0.346,0.054-0.521,0.058c-0.048,0.002-0.071-0.015-0.079-0.066
                    c-0.038-0.252-0.021-0.504-0.016-0.758c0.002-0.066,0.045-0.078,0.102-0.077c0.153,0.003,0.308,0.003,0.461,0.005
                    c0.059-0.001,0.117-0.004,0.176-0.004c2.798,0,5.596,0,8.394-0.002c0.481,0,0.952-0.075,1.399-0.266
                    c0.171-0.073,0.334-0.161,0.483-0.271c0.029-0.021,0.088-0.041,0.025-0.1c-0.24-0.228-0.357-0.52-0.397-0.839
                    c-0.053-0.411-0.018-0.812,0.19-1.183c0.08-0.145,0.085-0.146,0.207-0.039c0.375,0.333,0.654,0.722,0.711,1.238
                    c0.008,0.071,0.007,0.144,0.005,0.216c-0.001,0.032,0,0.053,0.037,0.055c0.542-0.245,1.085-0.261,1.636-0.028
                    c0.109,0.046,0.101,0.094,0.045,0.179c-0.27,0.42-0.669,0.631-1.146,0.715c-0.226,0.04-0.455,0.072-0.686,0.032
                    c-0.104-0.019-0.159,0.013-0.198,0.121C21.494,16.186,21.343,16.493,21.178,16.795L21.178,16.795L21.178,16.795z M13.548,15.183
                    c0,0.144-0.001,0.288,0,0.432c0,0.029-0.006,0.07,0.039,0.073c0.056,0.004,0.048-0.042,0.048-0.076
                    c0.001-0.284,0.001-0.568,0-0.852c0-0.033,0.011-0.082-0.045-0.08c-0.053,0.001-0.041,0.05-0.042,0.083
                    C13.547,14.903,13.548,15.043,13.548,15.183L13.548,15.183L13.548,15.183z M13.738,15.611c0,0.033-0.009,0.082,0.047,0.078
                    c0.053-0.004,0.039-0.052,0.04-0.085c0.001-0.14,0-0.279,0-0.419c0-0.139,0.001-0.279,0-0.419
                    c-0.001-0.033,0.013-0.081-0.041-0.085c-0.056-0.004-0.046,0.045-0.046,0.079C13.737,15.043,13.737,15.327,13.738,15.611
                    L13.738,15.611L13.738,15.611z M12.301,15.62c0,0.031,0,0.069,0.046,0.066c0.045-0.002,0.04-0.042,0.04-0.072
                    c0.001-0.14,0-0.28,0-0.419c0-0.144,0.002-0.289,0-0.433c-0.001-0.033,0.01-0.081-0.046-0.08c-0.045,0.001-0.04,0.042-0.04,0.071
                    C12.3,15.043,12.3,15.332,12.301,15.62L12.301,15.62L12.301,15.62z M13.358,15.609c0.001,0.033-0.01,0.081,0.047,0.079
                    c0.045-0.001,0.04-0.042,0.04-0.071c0.001-0.288,0.001-0.576,0-0.865c0-0.03,0.006-0.07-0.039-0.072
                    c-0.056-0.002-0.047,0.044-0.047,0.077c-0.001,0.14-0.001,0.279-0.001,0.419C13.358,15.321,13.357,15.465,13.358,15.609
                    L13.358,15.609L13.358,15.609z M13.219,15.702c0.058-0.002,0.055-0.05,0.055-0.091c0-0.287,0-0.575,0-0.863
                    c0-0.044-0.008-0.086-0.064-0.082c-0.051,0.004-0.042,0.05-0.042,0.084c-0.001,0.144-0.001,0.288-0.001,0.432
                    c0,0.144-0.001,0.287,0.001,0.432C13.167,15.652,13.154,15.705,13.219,15.702L13.219,15.702L13.219,15.702z M12.49,15.619
                    c0,0.03-0.002,0.07,0.045,0.067c0.045-0.002,0.038-0.042,0.039-0.072c0.001-0.144,0-0.288,0-0.432c0-0.14,0.001-0.279,0-0.418
                    c-0.001-0.032,0.014-0.082-0.044-0.081c-0.044,0-0.039,0.042-0.04,0.071C12.49,15.043,12.49,15.331,12.49,15.619L12.49,15.619
                    L12.49,15.619z M13.021,15.702c0.058,0.004,0.062-0.042,0.062-0.084c0-0.29,0-0.578,0-0.868c0-0.042-0.004-0.088-0.062-0.084
                    c-0.054,0.004-0.04,0.051-0.04,0.084c-0.001,0.145-0.001,0.29-0.001,0.434s-0.001,0.289,0.001,0.433
                    C12.981,15.65,12.968,15.698,13.021,15.702L13.021,15.702L13.021,15.702z M15.365,14.165c0,0.033-0.012,0.083,0.04,0.085
                    c0.065,0.002,0.047-0.055,0.047-0.091c0.003-0.14,0.001-0.281,0.001-0.42s0.002-0.28-0.001-0.42c0-0.036,0.02-0.093-0.046-0.091
                    c-0.053,0.001-0.041,0.051-0.041,0.084C15.364,13.595,15.364,13.88,15.365,14.165L15.365,14.165L15.365,14.165z M14.65,14.666
                    c-0.054,0.003-0.041,0.051-0.041,0.084c-0.002,0.145-0.001,0.289-0.001,0.434c0,0.145-0.001,0.289,0.001,0.434
                    c0,0.033-0.013,0.081,0.041,0.084c0.056,0.004,0.062-0.042,0.062-0.084c0-0.29,0-0.579,0-0.868
                    C14.712,14.708,14.707,14.663,14.65,14.666L14.65,14.666z M16.616,12.306c0,0.144-0.001,0.289,0,0.433
                    c0.001,0.037-0.016,0.09,0.052,0.087c0.049-0.003,0.05-0.044,0.05-0.081c0-0.293,0.001-0.586,0-0.878
                    c0-0.037-0.002-0.078-0.052-0.08c-0.067-0.003-0.049,0.051-0.05,0.087C16.614,12.018,16.615,12.163,16.616,12.306L16.616,12.306
                    L16.616,12.306z M16.426,12.301c0,0.149-0.001,0.298,0.001,0.447c0,0.034-0.01,0.079,0.046,0.078c0.05,0,0.055-0.039,0.055-0.077
                    c0.001-0.293,0.001-0.586,0-0.878c0-0.042-0.001-0.088-0.06-0.085c-0.056,0.002-0.041,0.051-0.041,0.083
                    C16.425,12.013,16.426,12.158,16.426,12.301L16.426,12.301L16.426,12.301z M17.485,15.604c0,0.039-0.022,0.103,0.053,0.098
                    c0.066-0.005,0.052-0.063,0.053-0.105c0.001-0.135,0-0.27,0-0.405c0-0.139,0.001-0.279,0-0.418
                    c-0.001-0.042,0.013-0.101-0.054-0.105c-0.075-0.004-0.051,0.06-0.051,0.099C17.483,15.044,17.483,15.324,17.485,15.604
                    L17.485,15.604L17.485,15.604z M16.047,12.739c0,0.037-0.016,0.092,0.052,0.086c0.057-0.005,0.05-0.055,0.05-0.094
                    c0.001-0.14,0-0.279,0-0.419c0-0.145,0-0.289-0.001-0.433c0-0.039,0.007-0.089-0.052-0.092c-0.066-0.004-0.049,0.051-0.049,0.087
                    C16.045,12.162,16.046,12.45,16.047,12.739L16.047,12.739L16.047,12.739z M15.904,12.811c0.052-0.001,0.041-0.05,0.042-0.083
                    c0.001-0.14,0-0.279,0-0.418c0-0.148,0.001-0.297,0-0.445c0-0.03,0.007-0.071-0.038-0.075c-0.057-0.004-0.048,0.043-0.048,0.077
                    c-0.001,0.288-0.001,0.576,0,0.863C15.86,12.762,15.85,12.812,15.904,12.811L15.904,12.811L15.904,12.811z M16.808,15.617
                    c0,0.029-0.008,0.071,0.038,0.072c0.056,0,0.045-0.047,0.045-0.08c0.002-0.139,0-0.279,0-0.418c0-0.145,0.002-0.288,0-0.432
                    c-0.001-0.033,0.01-0.081-0.047-0.079c-0.045,0.002-0.037,0.044-0.037,0.073C16.806,15.041,16.806,15.329,16.808,15.617
                    L16.808,15.617L16.808,15.617z M16.476,13.225c-0.066-0.003-0.048,0.053-0.049,0.089c-0.002,0.14-0.001,0.279-0.001,0.419
                    c0,0.148,0,0.297,0.001,0.446c0,0.033-0.013,0.081,0.04,0.085c0.056,0.005,0.063-0.039,0.063-0.083c0-0.289,0.001-0.577,0-0.866
                    C16.529,13.276,16.533,13.228,16.476,13.225L16.476,13.225L16.476,13.225z M16.285,13.225c-0.065-0.003-0.047,0.053-0.048,0.089
                    c-0.002,0.14-0.001,0.279-0.001,0.419c0,0.148,0,0.297,0.001,0.446c0,0.033-0.013,0.081,0.04,0.085
                    c0.055,0.005,0.063-0.039,0.063-0.083c0-0.289,0.001-0.577,0-0.866C16.34,13.276,16.344,13.228,16.285,13.225L16.285,13.225
                    L16.285,13.225z M16.807,12.301c0,0.144-0.001,0.289,0.001,0.433c0,0.033-0.014,0.081,0.044,0.079
                    c0.045-0.001,0.039-0.042,0.039-0.073c0.001-0.293,0.001-0.586,0-0.879c0-0.03,0.006-0.07-0.039-0.072
                    c-0.059-0.002-0.044,0.046-0.044,0.08C16.806,12.012,16.807,12.157,16.807,12.301L16.807,12.301L16.807,12.301z M16.094,13.224
                    c-0.058,0-0.047,0.045-0.047,0.079c-0.001,0.144-0.001,0.289-0.001,0.433c0,0.149,0,0.298,0.001,0.446
                    c0,0.033-0.012,0.08,0.042,0.083c0.048,0.003,0.061-0.033,0.061-0.072c0.001-0.298,0.001-0.595,0-0.893
                    C16.149,13.264,16.143,13.225,16.094,13.224L16.094,13.224L16.094,13.224z M16.663,13.224c-0.058,0-0.046,0.045-0.047,0.079
                    c-0.001,0.144-0.001,0.289-0.001,0.433c0,0.149,0,0.298,0.001,0.446c0.001,0.033-0.013,0.08,0.042,0.083
                    c0.048,0.003,0.061-0.033,0.061-0.072c0-0.298,0-0.595,0-0.893C16.719,13.264,16.712,13.225,16.663,13.224L16.663,13.224
                    L16.663,13.224z M17.351,15.7c0.051-0.002,0.05-0.044,0.05-0.08c0.001-0.145,0-0.289,0-0.434c0-0.145,0.001-0.29,0-0.434
                    c0-0.036,0.003-0.078-0.047-0.083s-0.057,0.035-0.057,0.073c-0.001,0.294-0.001,0.588,0,0.882
                    C17.297,15.662,17.3,15.703,17.351,15.7L17.351,15.7L17.351,15.7z M16.891,13.303c0-0.033,0.009-0.081-0.048-0.077
                    c-0.045,0.003-0.035,0.045-0.035,0.074c-0.001,0.14-0.001,0.279-0.001,0.418c0,0.148-0.001,0.296,0.001,0.445
                    c0,0.033-0.014,0.083,0.04,0.084c0.053,0.001,0.043-0.048,0.043-0.082C16.892,13.878,16.892,13.591,16.891,13.303L16.891,13.303
                    L16.891,13.303z M16.236,12.741c0,0.033-0.013,0.081,0.04,0.085c0.057,0.005,0.063-0.039,0.063-0.083c0-0.144,0-0.289,0-0.433
                    s0-0.289-0.001-0.433c0-0.04,0.006-0.089-0.053-0.092c-0.066-0.003-0.048,0.053-0.048,0.088
                    C16.235,12.163,16.236,12.451,16.236,12.741L16.236,12.741L16.236,12.741z M14.842,14.264c0.049,0.002,0.059-0.035,0.059-0.074
                    c0-0.297,0.001-0.595,0-0.892c0-0.038-0.007-0.076-0.058-0.075c-0.058,0.001-0.044,0.047-0.044,0.08c-0.002,0.145,0,0.289,0,0.433
                    c0,0.149-0.001,0.298,0,0.446C14.8,14.216,14.786,14.262,14.842,14.264L14.842,14.264L14.842,14.264z M14.988,14.193
                    c0,0.03-0.005,0.069,0.041,0.072c0.047,0.003,0.061-0.029,0.061-0.07c0-0.298,0.001-0.595,0-0.893c0-0.037-0.003-0.077-0.053-0.078
                    c-0.058-0.002-0.048,0.042-0.048,0.076c-0.001,0.144-0.001,0.289-0.001,0.433C14.988,13.886,14.988,14.04,14.988,14.193
                    L14.988,14.193L14.988,14.193z M14.65,14.264c0.059,0.003,0.061-0.042,0.061-0.084c0-0.293,0.001-0.586,0-0.879
                    c0-0.037-0.005-0.076-0.055-0.077c-0.058,0-0.047,0.045-0.047,0.078c-0.001,0.145-0.001,0.289-0.001,0.433
                    c0,0.149-0.001,0.298,0.001,0.447C14.61,14.214,14.597,14.261,14.65,14.264L14.65,14.264L14.65,14.264z M14.459,14.666
                    c-0.053,0.005-0.04,0.052-0.04,0.086c-0.001,0.145-0.001,0.289-0.001,0.434s-0.001,0.29,0.001,0.434
                    c0,0.033-0.013,0.081,0.042,0.083c0.057,0.002,0.061-0.044,0.061-0.086c0-0.289,0-0.578,0-0.868
                    C14.521,14.705,14.515,14.662,14.459,14.666L14.459,14.666L14.459,14.666z M15.175,14.194c0,0.032-0.001,0.068,0.043,0.071
                    c0.046,0.003,0.063-0.028,0.063-0.069c0-0.298,0-0.596,0-0.895c0-0.037-0.005-0.076-0.055-0.078
                    c-0.056-0.001-0.051,0.041-0.051,0.076c-0.001,0.149-0.001,0.298-0.001,0.447S15.174,14.044,15.175,14.194L15.175,14.194
                    L15.175,14.194z M14.46,14.264c0.058,0.003,0.061-0.042,0.061-0.084c0-0.293,0.001-0.586-0.001-0.879
                    c0-0.037-0.004-0.076-0.055-0.077c-0.057,0-0.046,0.045-0.046,0.078c-0.001,0.145,0,0.289,0,0.433c0,0.149-0.001,0.298,0,0.447
                    C14.42,14.214,14.406,14.261,14.46,14.264L14.46,14.264L14.46,14.264z M17.864,15.625c0,0.034-0.008,0.08,0.048,0.079
                    c0.048-0.001,0.055-0.039,0.055-0.078c0.001-0.294,0.001-0.587,0-0.881c0-0.038-0.006-0.077-0.055-0.079
                    c-0.056-0.002-0.048,0.042-0.048,0.077c-0.001,0.145-0.001,0.29-0.001,0.434C17.863,15.327,17.863,15.476,17.864,15.625
                    L17.864,15.625L17.864,15.625z M16.046,15.182c0,0.145-0.001,0.289,0.001,0.434c0,0.033-0.014,0.081,0.038,0.086
                    c0.057,0.006,0.064-0.038,0.064-0.082c0-0.29,0-0.579,0-0.868c0-0.041-0.001-0.089-0.06-0.086c-0.063,0.003-0.042,0.06-0.043,0.095
                    C16.045,14.901,16.046,15.041,16.046,15.182L16.046,15.182L16.046,15.182z M16.467,15.702c0.058,0.004,0.062-0.042,0.062-0.084
                    c0-0.29,0-0.578,0-0.868c0-0.042-0.004-0.088-0.062-0.084c-0.054,0.004-0.04,0.051-0.041,0.084c-0.001,0.145,0,0.29,0,0.434
                    s-0.001,0.289,0,0.433C16.427,15.65,16.413,15.698,16.467,15.702L16.467,15.702L16.467,15.702z M15.945,13.294
                    c0-0.031-0.001-0.07-0.046-0.067c-0.045,0.003-0.039,0.043-0.039,0.073c0,0.145,0,0.289,0,0.433s-0.001,0.289,0,0.434
                    c0.001,0.033-0.011,0.081,0.045,0.081c0.044-0.001,0.039-0.042,0.039-0.073C15.945,13.881,15.945,13.587,15.945,13.294
                    L15.945,13.294L15.945,13.294z M16.285,15.702c0.049-0.001,0.054-0.041,0.054-0.079c0-0.293,0-0.587,0-0.88
                    c0-0.038-0.007-0.076-0.056-0.076c-0.057,0-0.047,0.045-0.047,0.079c0,0.145,0,0.29,0,0.434s-0.001,0.289,0,0.434
                    C16.237,15.649,16.22,15.703,16.285,15.702L16.285,15.702z M16.66,15.703c0.048,0.002,0.059-0.035,0.059-0.074
                    c0-0.298,0-0.596,0-0.894c0-0.042-0.018-0.073-0.063-0.068c-0.044,0.004-0.038,0.043-0.039,0.074
                    c-0.001,0.149-0.001,0.298-0.001,0.447c0,0.145,0,0.289,0.001,0.434C16.617,15.654,16.604,15.7,16.66,15.703L16.66,15.703
                    L16.66,15.703z M17.726,15.702c0.057-0.005,0.052-0.054,0.052-0.094c0.001-0.14,0-0.28,0-0.42c0-0.145,0-0.289,0-0.434
                    c0-0.042-0.002-0.088-0.059-0.087c-0.056,0-0.044,0.048-0.044,0.081c-0.001,0.29-0.001,0.579,0,0.868
                    C17.675,15.653,17.66,15.708,17.726,15.702L17.726,15.702z"/>

    </g>
</svg>
