<?xml version="1.0" encoding="utf-8"?>
<!--

    Copyright (c) 2012-2017 Codenvy, S.A.
    All rights reserved. This program and the accompanying materials
    are made available under the terms of the Eclipse Public License v1.0
    which accompanies this distribution, and is available at
    http://www.eclipse.org/legal/epl-v10.html

    Contributors:
      Codenvy, S.A. - initial API and implementation

-->
<!DOCTYPE svg PUBLIC "-//W3C//DTD SVG 1.1//EN" "http://www.w3.org/Graphics/SVG/1.1/DTD/svg11.dtd">
<svg version="1.1" id="notValidProjectFolder" xmlns="http://www.w3.org/2000/svg" xmlns:xlink="http://www.w3.org/1999/xlink" x="0px" y="0px"
     width="16px" height="16px" viewBox="7 7 18 18" enable-background="new 0 0 32 32" xml:space="preserve">
    <g>
            <path fill-rule="evenodd" clip-rule="evenodd" fill="#E0B91D" d="M9,8c1.795,0,2.976,0,4.771,0c0.55,0,0.786,0.493,1,1
                l0.615,1.461H23c0.551,0,1,0.451,1,1v4.328l-0.319-0.319c-0.624-0.625-1.639-0.625-2.263,0L20,16.887l-1.417-1.418
                c-0.624-0.624-1.639-0.623-2.263,0l-0.851,0.851c-0.624,0.624-0.624,1.64-0.001,2.263L16.887,20l-1.418,1.418
                c-0.038,0.038-0.073,0.077-0.107,0.118H9c-0.55,0-1-0.45-1-1V9C8,8.45,8.45,8,9,8L9,8z M24,19.114L23.114,20l0.839,0.839
                C23.983,20.743,24,20.642,24,20.536V19.114z"/>
            <path fill-rule="evenodd" clip-rule="evenodd" fill="#CF405F" d="M16.176,17.026l0.852-0.85c0.233-0.234,0.614-0.234,0.849,0
                L20,18.301l2.125-2.125c0.233-0.234,0.615-0.234,0.849,0l0.851,0.851c0.233,0.233,0.233,0.615,0,0.849L21.7,20l2.124,2.124
                c0.233,0.234,0.233,0.615,0,0.849l-0.851,0.852c-0.233,0.233-0.615,0.233-0.849,0L20,21.7l-2.125,2.124
                c-0.233,0.233-0.614,0.234-0.849,0l-0.851-0.851c-0.233-0.233-0.233-0.615,0-0.849L18.301,20l-2.125-2.125
                C15.943,17.642,15.942,17.26,16.176,17.026z"/>
        </g>
</svg>
