<?xml version="1.0" encoding="utf-8"?>
<!--

    Copyright (c) 2012-2018 Red Hat, Inc.
    This program and the accompanying materials are made
    available under the terms of the Eclipse Public License 2.0
    which is available at https://www.eclipse.org/legal/epl-2.0/

    SPDX-License-Identifier: EPL-2.0

    Contributors:
      Red Hat, Inc. - initial API and implementation

-->
<svg version="1.1" xmlns="http://www.w3.org/2000/svg" xmlns:xlink="http://www.w3.org/1999/xlink" x="0px" y="0px" width="32px"
	 height="32px" viewBox="0 0 32 32" enable-background="new 0 0 32 32" xml:space="preserve">
<g id="Layer_1">
</g>
<g id="Layer_1_1_">
</g>
<g id="Layer_1_2_">
</g>
<g id="Layer_1_3_">
</g>
<g id="Layer_1_4_">
</g>
<g id="Layer_1_5_">
</g>
<g id="Layer_1_6_">
</g>
<g id="Layer_1_7_">
</g>
<g id="Layer_1_8_">
</g>
<g id="Layer_1_9_">
</g>
<g id="Layer_1_10_">
</g>
<g id="Layer_1_11_">
</g>
<g id="Layer_1_12_">
</g>
<g id="Layer_1_13_">
</g>
<g id="Layer_1_14_">
</g>
<g id="Layer_1_15_">
</g>
<g id="Layer_1_16_">
</g>
<g id="Layer_1_17_">
</g>
<g id="Layer_1_18_">
</g>
<g id="Layer_1_19_">
</g>
<g id="Layer_1_20_">
</g>
<g id="Layer_1_21_">
</g>
<g id="Layer_1_22_">
	<g>
		<path fill-rule="evenodd" clip-rule="evenodd" fill="#808080" d="M13,18.75v-0.501C13,18.112,13.112,18,13.249,18H23.75
			c0.138,0,0.25,0.112,0.25,0.249v0.501c0,0.137-0.112,0.25-0.25,0.25H13.249C13.112,19,13,18.888,13,18.75z"/>
		<path fill-rule="evenodd" clip-rule="evenodd" fill="#3193D4" d="M11.618,13.066l-3.553,3.553
			c-0.064,0.065-0.083,0.158-0.048,0.243S8.132,17,8.224,17h3.553c0.123,0,0.223-0.101,0.223-0.223v-3.553
			c0-0.092-0.052-0.171-0.137-0.207C11.776,12.983,11.684,13.001,11.618,13.066z"/>
	</g>
</g>
<g id="Layer_1_23_">
</g>
<g id="Layer_1_24_">
</g>
<g id="Layer_1_25_">
</g>
<g id="Layer_1_26_">
</g>
<g id="Layer_1_27_">
</g>
<g id="Layer_1_28_">
</g>
<g id="Layer_1_29_">
</g>
<g id="Layer_1_30_">
</g>
<g id="Layer_1_31_">
</g>
<g id="Layer_1_32_">
</g>
<g id="Layer_1_33_">
</g>
<g id="Layer_1_34_">
</g>
<g id="Layer_1_35_">
</g>
<g id="Layer_1_36_">
</g>
<g id="Layer_1_37_">
</g>
<g id="Layer_1_38_">
</g>
<g id="Layer_1_39_">
</g>
<g id="Layer_1_40_">
</g>
<g id="Layer_1_41_">
</g>
</svg>
