<?xml version="1.0" encoding="UTF-8" standalone="no"?>
<!--

    Copyright (c) 2012-2018 Red Hat, Inc.
    This program and the accompanying materials are made
    available under the terms of the Eclipse Public License 2.0
    which is available at https://www.eclipse.org/legal/epl-2.0/

    SPDX-License-Identifier: EPL-2.0

    Contributors:
      Red Hat, Inc. - initial API and implementation

-->
<svg width="14px" height="14px" viewBox="-4 -3 20 21" version="1.1" xmlns="http://www.w3.org/2000/svg"
     xmlns:xlink="http://www.w3.org/1999/xlink">
    <path fill="#727272"
          d="M15.4,13.5l-3.9-3.9c0.6-1.0,1.0-2.0,1.0-3.4C12.5,2.8,9.7,0,6.3,0 C2.8,0,0,2.8,0,6.3c0,3.5,2.8,6.3,6.3,6.3c1.2,0,2.4-0.4,3.4-1.0l3.9,3.9 c0.1,0.1,0.3,0.1,0.5,0l1.4-1.4C15.5,13.9,15.5,13.7,15.4,13.5z M2.0,6.0 c0-2.3,1.9-4.3,4.3-4.3c2.4,0,4.3,1.9,4.3,4.3c0,2.4-1.9,4.3-4.3,4.3 C3.9,10.5,2.0,8.6,2.0,6.3z"/>
</svg>
