<?xml version="1.0" encoding="utf-8"?>
<!--

    Copyright (c) 2012-2018 Red Hat, Inc.
    This program and the accompanying materials are made
    available under the terms of the Eclipse Public License 2.0
    which is available at https://www.eclipse.org/legal/epl-2.0/

    SPDX-License-Identifier: EPL-2.0

    Contributors:
      Red Hat, Inc. - initial API and implementation

-->
<!DOCTYPE svg PUBLIC "-//W3C//DTD SVG 1.1//EN" "http://www.w3.org/Graphics/SVG/1.1/DTD/svg11.dtd">
<svg version="1.1" id="newFolder" xmlns="http://www.w3.org/2000/svg" xmlns:xlink="http://www.w3.org/1999/xlink" x="0px" y="0px"
     width="16px" height="16px" viewBox="7 7 18 18" enable-background="new 0 0 32 32" xml:space="preserve">
    <g>
        <path fill-rule="evenodd" clip-rule="evenodd" fill="#4D4D4D" d="M9,8c1.796,0,2.976,0,4.771,0c0.549,0,0.786,0.493,1,1
                l0.614,1.461h7.615c0.55,0,1,0.451,1,1v6.625C23.844,18.03,23.676,18,23.5,18h-1.499v-1.5v-4.039h-7.942L13.022,10
                c-1.008,0-2.015,0-3.022,0v9.536h5.002l-0.001,0.963c0,0.402,0.158,0.768,0.416,1.037H9c-0.55,0-0.999-0.45-0.999-1V9
                C8.001,8.45,8.45,8,9,8L9,8z M16.001,20.5c0,0.275,0.225,0.499,0.5,0.5H19v2.5c0,0.275,0.225,0.5,0.501,0.5h1
                c0.275,0,0.5-0.226,0.5-0.5V21H23.5c0.276,0,0.501-0.225,0.501-0.5v-1.001c0-0.274-0.225-0.499-0.501-0.499h-2.499v-2.5
                c0-0.274-0.225-0.5-0.5-0.499l-1-0.001C19.225,16,19,16.225,19,16.5V19h-2.499c-0.275,0-0.5,0.225-0.499,0.5L16.001,20.5z"/>
    </g>
</svg>
