<?xml version="1.0" encoding="utf-8"?>
<!--

    Copyright (c) 2012-2018 Red Hat, Inc.
    This program and the accompanying materials are made
    available under the terms of the Eclipse Public License 2.0
    which is available at https://www.eclipse.org/legal/epl-2.0/

    SPDX-License-Identifier: EPL-2.0

    Contributors:
      Red Hat, Inc. - initial API and implementation

-->
<!DOCTYPE svg PUBLIC "-//W3C//DTD SVG 1.1//EN" "http://www.w3.org/Graphics/SVG/1.1/DTD/svg11.dtd">
<svg version="1.1" id="defaultImage" xmlns="http://www.w3.org/2000/svg" xmlns:xlink="http://www.w3.org/1999/xlink" x="0px" y="0px"
     width="16px" height="16px" viewBox="7 7 18 18" enable-background="new 0 0 32 32" xml:space="preserve">
    <g>
        <path fill-rule="evenodd" clip-rule="evenodd" fill="#72AD42" d="M24,9.25v13.5c0,0.138-0.112,0.25-0.25,0.25H8.25
                C8.112,23,8,22.888,8,22.75V9.25C8,9.113,8.112,9,8.25,9h15.5C23.888,9,24,9.112,24,9.25L24,9.25z M14,13l-2.801,6H20.8l-2.4-3.2
                L16.934,17L14,13L14,13z M20.533,14.066c0-0.515-0.418-0.933-0.934-0.933s-0.933,0.418-0.933,0.933
                c0,0.516,0.417,0.934,0.933,0.934S20.533,14.583,20.533,14.066L20.533,14.066z M22,11H10v10h12V11z"/>
    </g>
</svg>
