<?xml version="1.0" encoding="utf-8"?>
<!--

    Copyright (c) 2012-2018 Red Hat, Inc.
    This program and the accompanying materials are made
    available under the terms of the Eclipse Public License 2.0
    which is available at https://www.eclipse.org/legal/epl-2.0/

    SPDX-License-Identifier: EPL-2.0

    Contributors:
      Red Hat, Inc. - initial API and implementation

-->
<!DOCTYPE svg PUBLIC "-//W3C//DTD SVG 1.1//EN" "http://www.w3.org/Graphics/SVG/1.1/DTD/svg11.dtd">
<svg version="1.1" id="jsonFile" xmlns="http://www.w3.org/2000/svg" xmlns:xlink="http://www.w3.org/1999/xlink" x="0px" y="0px"
     width="16px" height="16px" viewBox="7 7 18 18" enable-background="new 0 0 32 32" xml:space="preserve">
    <g>
            <path fill-rule="evenodd" clip-rule="evenodd" fill="#72AD42" d="M12.268,24c-1.063-0.298-1.818-0.776-2.269-1.429
                    s-0.675-1.444-0.675-2.376v-1.657c0-0.502-0.108-0.893-0.326-1.177C8.781,17.079,8.445,16.938,8,16.938V15.08
                    c0.445,0,0.78-0.139,0.998-0.421c0.218-0.282,0.326-0.677,0.326-1.19v-1.663c0-0.932,0.225-1.723,0.675-2.376
                    c0.45-0.652,1.205-1.127,2.269-1.429l0.513,1.44c-0.399,0.159-0.676,0.44-0.834,0.845c-0.157,0.401-0.237,0.91-0.237,1.52v1.663
                    c0,0.565-0.125,1.071-0.373,1.509c-0.25,0.44-0.631,0.781-1.139,1.026c0.508,0.256,0.889,0.604,1.139,1.043
                    c0.249,0.438,0.373,0.936,0.373,1.49v1.659c0,0.607,0.081,1.116,0.237,1.518c0.158,0.404,0.435,0.684,0.834,0.843L12.268,24
                    L12.268,24z M19.22,22.556c0.394-0.159,0.67-0.438,0.829-0.843c0.162-0.401,0.242-0.909,0.242-1.518v-1.659
                    c0-0.561,0.123-1.061,0.371-1.498c0.248-0.438,0.631-0.784,1.149-1.035c-0.519-0.245-0.901-0.586-1.149-1.026
                    c-0.248-0.438-0.371-0.943-0.371-1.509v-1.663c0-0.611-0.08-1.118-0.242-1.52C19.89,9.88,19.613,9.599,19.22,9.44L19.735,8
                    c1.058,0.301,1.811,0.776,2.263,1.429c0.452,0.652,0.678,1.444,0.678,2.376v1.663c0,0.513,0.109,0.909,0.324,1.19
                    c0.214,0.282,0.55,0.421,1.001,0.421v1.858c-0.451,0-0.787,0.142-1.001,0.424c-0.215,0.285-0.324,0.675-0.324,1.177v1.657
                    c0,0.932-0.226,1.724-0.678,2.376c-0.452,0.654-1.205,1.131-2.263,1.429L19.22,22.556z"/>
    </g>
</svg>
