<?xml version="1.0" encoding="utf-8"?>
<!--

    Copyright (c) 2012-2018 Red Hat, Inc.
    This program and the accompanying materials are made
    available under the terms of the Eclipse Public License 2.0
    which is available at https://www.eclipse.org/legal/epl-2.0/

    SPDX-License-Identifier: EPL-2.0

    Contributors:
      Red Hat, Inc. - initial API and implementation

-->
<!DOCTYPE svg PUBLIC "-//W3C//DTD SVG 1.1//EN" "http://www.w3.org/Graphics/SVG/1.1/DTD/svg11.dtd">
<svg version="1.1" id="mdFile" xmlns="http://www.w3.org/2000/svg" xmlns:xlink="http://www.w3.org/1999/xlink" x="0px" y="0px"
     width="16px" height="16px" viewBox="7 7 18 18" enable-background="new 0 0 32 32" xml:space="preserve">
    <g>
            <path fill-rule="evenodd" clip-rule="evenodd" fill="#9A5CFF" d="M22.847,11H9.153C8.518,11,8,11.518,8,12.154v7.692
                    C8,20.482,8.518,21,9.153,21h13.693C23.482,21,24,20.482,24,19.847v-7.693C24,11.518,23.482,11,22.847,11L22.847,11L22.847,11z
                    M17,18.998L15,19v-3l-1.5,1.923L12,16v3H9.999v-6h2l1.5,2L15,13l2-0.002V18.998L17,18.998L17,18.998z M19.985,19.499L17.5,16H19
                    v-3h2v3h1.499L19.985,19.499L19.985,19.499z"/>
    </g>
</svg>
