<?xml version="1.0" encoding="utf-8"?>
<!--

    Copyright (c) 2012-2018 Red Hat, Inc.
    This program and the accompanying materials are made
    available under the terms of the Eclipse Public License 2.0
    which is available at https://www.eclipse.org/legal/epl-2.0/

    SPDX-License-Identifier: EPL-2.0

    Contributors:
      Red Hat, Inc. - initial API and implementation

-->
<!DOCTYPE svg PUBLIC "-//W3C//DTD SVG 1.1//EN" "http://www.w3.org/Graphics/SVG/1.1/DTD/svg11.dtd">
<svg version="1.1" id="projectFolder" xmlns="http://www.w3.org/2000/svg" xmlns:xlink="http://www.w3.org/1999/xlink" x="0px" y="0px"
     width="16px" height="16px" viewBox="7 7 18 18" enable-background="new 0 0 32 32" xml:space="preserve">
    <g>
        <path fill-rule="evenodd" clip-rule="evenodd" fill="#E0B91D" d="M9,8c1.795,0,2.976,0,4.771,0c0.55,0,0.787,0.493,1,1
            l0.615,1.461H23c0.55,0,1,0.451,1,1v5.364l-4-2.31l-5,2.887v4.134H9c-0.55,0-1-0.45-1-1V9C8,8.45,8.45,8,9,8z"/>
        <path fill-rule="evenodd" clip-rule="evenodd" fill="#3193D4" d="M23.502,17.692L20,15.67l-3.501,2.021l3.502,2.021L23.502,17.692
            L23.502,17.692z M16,18.556l3.5,2.021V24L16,21.979V18.556L16,18.556z M20.5,24v-3.425l3.5-2.021v3.425L20.5,24z"/>
    </g>
</svg>
