<?xml version="1.0" encoding="UTF-8" standalone="no"?>
<!--

    Copyright (c) 2015-2018 Red Hat, Inc.
    This program and the accompanying materials are made
    available under the terms of the Eclipse Public License 2.0
    which is available at https://www.eclipse.org/legal/epl-2.0/

    SPDX-License-Identifier: EPL-2.0

    Contributors:
      Red Hat, Inc. - initial API and implementation

-->
<svg id="svg3077" xmlns:rdf="http://www.w3.org/1999/02/22-rdf-syntax-ns#" xmlns="http://www.w3.org/2000/svg" height="100%" width="100%" version="1.1" xmlns:cc="http://creativecommons.org/ns#" xmlns:dc="http://purl.org/dc/elements/1.1/" viewBox="0 0 225 57">
 <metadata id="metadata3093">
  <rdf:RDF>
   <cc:Work rdf:about="">
    <dc:format>image/svg+xml</dc:format>
    <dc:type rdf:resource="http://purl.org/dc/dcmitype/StillImage"/>
    <dc:title/>
   </cc:Work>
  </rdf:RDF>
 </metadata>
 <g fill-rule="evenodd" stroke="none" stroke-width="1" fill="none">
  <g>
   <path d="M0.032227,30.88l-0.032227-17.087,23.853-13.793,23.796,13.784-14.691,8.51-9.062-5.109-23.864,13.695z" fill="#fdb940"/>
   <path d="M0,43.355l23.876,13.622,23.974-13.937v-16.902l-23.974,13.506-23.876-13.506v17.217z" fill="#525c86"/>
   <path fill="#000" class="outer-fill" d="M62.448,16.724v24.276h16.932v-1.972h-14.62v-9.588h13.532v-1.972h-13.532v-8.772h14.45v-1.972h-16.762zm31.33,12.24h2.142c-0.249-2.017-1.026-3.525-2.329-4.522s-2.896-1.496-4.777-1.496c-1.337,0-2.522,0.249-3.553,0.748s-1.898,1.167-2.601,2.006-1.235,1.819-1.598,2.941-0.544,2.318-0.544,3.587,0.181,2.465,0.544,3.587,0.895,2.102,1.598,2.941,1.57,1.502,2.601,1.989,2.216,0.731,3.553,0.731c1.995,0,3.627-0.595,4.896-1.785s2.051-2.85,2.346-4.981h-2.142c-0.068,0.725-0.249,1.394-0.544,2.006s-0.669,1.139-1.122,1.581-0.975,0.788-1.564,1.037-1.213,0.374-1.87,0.374c-1.02,0-1.915-0.215-2.686-0.646s-1.411-0.997-1.921-1.7-0.895-1.502-1.156-2.397-0.391-1.808-0.391-2.737,0.13-1.842,0.391-2.737,0.646-1.694,1.156-2.397,1.15-1.269,1.921-1.7,1.666-0.646,2.686-0.646c1.428,0,2.539,0.374,3.332,1.122s1.337,1.779,1.632,3.094zm4.504-12.24v24.276h2.138v-24.276h-2.138zm5.488,0v3.434h2.14v-3.434h-2.14zm0,6.732v17.544h2.14v-17.544h-2.14zm5.46,0v24.004h2.14v-9.792h0.07c0.22,0.635,0.55,1.19,0.97,1.666s0.9,0.873,1.44,1.19c0.55,0.317,1.14,0.555,1.77,0.714s1.27,0.238,1.9,0.238c1.34,0,2.5-0.244,3.49-0.731s1.81-1.156,2.46-2.006c0.66-0.85,1.15-1.836,1.47-2.958,0.31-1.122,0.47-2.306,0.47-3.553s-0.16-2.431-0.47-3.553c-0.32-1.122-0.81-2.108-1.47-2.958-0.65-0.85-1.47-1.524-2.46-2.023s-2.15-0.748-3.49-0.748c-1.42,0-2.7,0.334-3.82,1.003s-1.93,1.615-2.43,2.839h-0.07v-3.332h-1.97zm14.04,8.772c0,0.907-0.11,1.808-0.32,2.703-0.22,0.895-0.56,1.694-1.02,2.397-0.47,0.703-1.06,1.275-1.79,1.717-0.72,0.442-1.6,0.663-2.62,0.663-1.13,0-2.09-0.221-2.87-0.663s-1.42-1.014-1.9-1.717c-0.49-0.703-0.84-1.502-1.06-2.397-0.21-0.895-0.32-1.796-0.32-2.703,0-0.997,0.1-1.949,0.29-2.856s0.53-1.7,1-2.38c0.48-0.68,1.11-1.224,1.91-1.632,0.79-0.408,1.78-0.612,2.95-0.612,1.02,0,1.9,0.221,2.62,0.663,0.73,0.442,1.32,1.014,1.79,1.717,0.46,0.703,0.8,1.502,1.02,2.397,0.21,0.895,0.32,1.796,0.32,2.703zm15.18-3.638h2.14c-0.04-0.952-0.24-1.779-0.58-2.482s-0.79-1.292-1.37-1.768-1.25-0.827-2.01-1.054-1.58-0.34-2.46-0.34c-0.77,0-1.55,0.091-2.33,0.272-0.79,0.181-1.49,0.465-2.13,0.85-0.63,0.385-1.15,0.895-1.55,1.53-0.39,0.635-0.59,1.394-0.59,2.278,0,0.748,0.12,1.377,0.37,1.887s0.6,0.941,1.04,1.292,0.96,0.646,1.55,0.884,1.23,0.448,1.94,0.629l2.75,0.612c0.48,0.113,0.95,0.249,1.41,0.408,0.47,0.159,0.88,0.357,1.24,0.595s0.65,0.533,0.87,0.884c0.21,0.351,0.32,0.788,0.32,1.309,0,0.612-0.15,1.128-0.46,1.547-0.3,0.419-0.69,0.765-1.17,1.037s-0.99,0.465-1.55,0.578c-0.55,0.113-1.09,0.17-1.61,0.17-1.43,0-2.63-0.368-3.59-1.105s-1.49-1.83-1.58-3.281h-2.14c0.18,2.153,0.91,3.717,2.19,4.692s2.95,1.462,5.02,1.462c0.81,0,1.64-0.091,2.48-0.272s1.59-0.482,2.26-0.901,1.22-0.963,1.65-1.632,0.64-1.479,0.64-2.431c0-0.771-0.14-1.439-0.44-2.006-0.29-0.567-0.67-1.043-1.14-1.428-0.46-0.385-0.99-0.697-1.6-0.935-0.6-0.238-1.2-0.402-1.81-0.493l-2.86-0.646c-0.36-0.091-0.76-0.21-1.19-0.357s-0.83-0.334-1.19-0.561-0.66-0.504-0.9-0.833-0.36-0.731-0.36-1.207c0-0.567,0.13-1.043,0.38-1.428s0.57-0.697,0.98-0.935,0.86-0.408,1.35-0.51c0.48-0.102,0.96-0.153,1.44-0.153,0.61,0,1.19,0.074,1.73,0.221,0.55,0.147,1.03,0.38,1.45,0.697s0.75,0.72,1,1.207,0.39,1.06,0.41,1.717zm17.66,2.414h-11.35c0.09-0.793,0.27-1.57,0.56-2.329,0.28-0.759,0.66-1.428,1.14-2.006,0.47-0.578,1.05-1.043,1.73-1.394s1.46-0.527,2.35-0.527c0.86,0,1.63,0.176,2.31,0.527s1.26,0.816,1.73,1.394c0.48,0.578,0.85,1.241,1.11,1.989s0.4,1.53,0.42,2.346zm-11.35,1.802h13.49c0.05-1.224-0.06-2.431-0.34-3.621-0.27-1.19-0.72-2.244-1.34-3.162s-1.43-1.66-2.43-2.227-2.2-0.85-3.6-0.85c-1.39,0-2.58,0.266-3.59,0.799s-1.83,1.235-2.47,2.108c-0.63,0.873-1.1,1.864-1.41,2.975-0.3,1.111-0.46,2.244-0.46,3.4,0,1.247,0.16,2.431,0.46,3.553,0.31,1.122,0.78,2.108,1.41,2.958,0.64,0.85,1.46,1.519,2.47,2.006s2.2,0.731,3.59,0.731c2.22,0,3.93-0.544,5.15-1.632,1.21-1.088,2.04-2.629,2.5-4.624h-2.15c-0.34,1.36-0.95,2.448-1.83,3.264-0.89,0.816-2.11,1.224-3.67,1.224-1.02,0-1.9-0.215-2.62-0.646-0.73-0.431-1.33-0.975-1.8-1.632-0.48-0.657-0.83-1.4-1.04-2.227-0.22-0.827-0.32-1.626-0.32-2.397zm42.39-8.738h2.31c-0.15-1.269-0.53-2.391-1.14-3.366-0.6-0.975-1.34-1.796-2.24-2.465-0.89-0.669-1.89-1.173-2.99-1.513s-2.23-0.51-3.38-0.51c-1.91,0-3.58,0.346-5.02,1.037s-2.63,1.621-3.59,2.788c-0.95,1.167-1.66,2.51-2.14,4.029-0.47,1.519-0.71,3.117-0.71,4.794s0.24,3.275,0.71,4.794c0.48,1.519,1.19,2.856,2.14,4.012,0.96,1.156,2.15,2.08,3.59,2.771s3.11,1.037,5.02,1.037c1.42,0,2.72-0.227,3.89-0.68s2.18-1.099,3.04-1.938,1.57-1.859,2.11-3.06,0.9-2.55,1.05-4.046h-2.31c-0.11,1.088-0.37,2.102-0.78,3.043s-0.94,1.762-1.6,2.465-1.44,1.258-2.34,1.666c-0.91,0.408-1.93,0.612-3.06,0.612-1.61,0-3-0.306-4.15-0.918-1.16-0.612-2.1-1.422-2.84-2.431s-1.28-2.153-1.63-3.434-0.53-2.578-0.53-3.893c0-1.337,0.18-2.641,0.53-3.91s0.89-2.408,1.63-3.417,1.68-1.819,2.84-2.431c1.15-0.612,2.54-0.918,4.15-0.918,0.88,0,1.72,0.13,2.53,0.391,0.8,0.261,1.54,0.64,2.21,1.139s1.23,1.116,1.7,1.853c0.46,0.737,0.8,1.57,1,2.499zm4.95-7.344v24.276h2.14v-10.234c0.02-0.861,0.16-1.66,0.42-2.397,0.27-0.737,0.63-1.371,1.09-1.904,0.47-0.533,1.03-0.952,1.7-1.258s1.44-0.459,2.3-0.459,1.58,0.136,2.16,0.408,1.03,0.646,1.37,1.122,0.58,1.037,0.72,1.683c0.13,0.646,0.2,1.343,0.2,2.091v10.948h2.14v-11.288c0-1.043-0.1-1.983-0.3-2.822-0.21-0.839-0.56-1.547-1.06-2.125-0.49-0.578-1.16-1.026-1.98-1.343-0.83-0.317-1.86-0.476-3.08-0.476-1.25,0-2.39,0.323-3.44,0.969-1.04,0.646-1.76,1.502-2.17,2.567h-0.07v-9.758h-2.14zm30.1,14.28h-11.35c0.09-0.793,0.28-1.57,0.56-2.329s0.66-1.428,1.14-2.006c0.47-0.578,1.05-1.043,1.73-1.394s1.46-0.527,2.35-0.527c0.86,0,1.63,0.176,2.31,0.527s1.26,0.816,1.73,1.394c0.48,0.578,0.85,1.241,1.11,1.989s0.4,1.53,0.42,2.346zm-11.35,1.802h13.5c0.04-1.224-0.07-2.431-0.34-3.621-0.28-1.19-0.72-2.244-1.35-3.162-0.62-0.918-1.43-1.66-2.43-2.227s-2.2-0.85-3.6-0.85c-1.38,0-2.58,0.266-3.59,0.799s-1.83,1.235-2.46,2.108c-0.64,0.873-1.11,1.864-1.42,2.975-0.3,1.111-0.45,2.244-0.45,3.4,0,1.247,0.15,2.431,0.45,3.553,0.31,1.122,0.78,2.108,1.42,2.958,0.63,0.85,1.45,1.519,2.46,2.006s2.21,0.731,3.59,0.731c2.22,0,3.94-0.544,5.15-1.632s2.04-2.629,2.5-4.624h-2.14c-0.34,1.36-0.96,2.448-1.84,3.264s-2.11,1.224-3.67,1.224c-1.02,0-1.89-0.215-2.62-0.646s-1.33-0.975-1.8-1.632c-0.48-0.657-0.82-1.4-1.04-2.227-0.21-0.827-0.32-1.626-0.32-2.397z"/>
  </g>
 </g>
</svg>
