<?xml version="1.0" encoding="UTF-8" standalone="no"?>
<!--

    Copyright (c) 2015-2017 Codenvy, S.A.
    All rights reserved. This program and the accompanying materials
    are made available under the terms of the Eclipse Public License v1.0
    which accompanies this distribution, and is available at
    http://www.eclipse.org/legal/epl-v10.html

    Contributors:
      Codenvy, S.A. - initial API and implementation

-->
<svg
   xmlns:dc="http://purl.org/dc/elements/1.1/"
   xmlns:cc="http://creativecommons.org/ns#"
   xmlns:rdf="http://www.w3.org/1999/02/22-rdf-syntax-ns#"
   xmlns:svg="http://www.w3.org/2000/svg"
   xmlns="http://www.w3.org/2000/svg"
   version="1.1"
   width="100%"
   height="100%"
   viewBox="0 0 162 32"
   id="svg3077">
  <path fill="#000" class="outer-fill" d="M 0,1.264 V 25.54 H 16.932 V 23.568 H 2.312 V 13.98 H 15.844 V 12.008 H 2.312 V 3.236 h 14.45 V 1.264 H 0 z m 31.33,12.24 h 2.142 C 33.223,11.487 32.446,9.979 31.143,8.982 29.84,7.985 28.247,7.486 26.366,7.486 c -1.337,0 -2.522,0.249 -3.553,0.748 -1.031,0.499 -1.898,1.167 -2.601,2.006 -0.703,0.839 -1.235,1.819 -1.598,2.941 -0.363,1.122 -0.544,2.318 -0.544,3.587 0,1.269 0.181,2.465 0.544,3.587 0.363,1.122 0.895,2.102 1.598,2.941 0.703,0.839 1.57,1.502 2.601,1.989 1.031,0.487 2.216,0.731 3.553,0.731 1.995,0 3.627,-0.595 4.896,-1.785 1.269,-1.19 2.051,-2.85 2.346,-4.981 h -2.142 c -0.068,0.725 -0.249,1.394 -0.544,2.006 -0.295,0.612 -0.669,1.139 -1.122,1.581 -0.453,0.442 -0.975,0.788 -1.564,1.037 -0.589,0.249 -1.213,0.374 -1.87,0.374 -1.02,0 -1.915,-0.215 -2.686,-0.646 -0.771,-0.431 -1.411,-0.997 -1.921,-1.7 -0.51,-0.703 -0.895,-1.502 -1.156,-2.397 -0.261,-0.895 -0.391,-1.808 -0.391,-2.737 0,-0.929 0.13,-1.842 0.391,-2.737 0.261,-0.895 0.646,-1.694 1.156,-2.397 0.51,-0.703 1.15,-1.269 1.921,-1.7 0.771,-0.431 1.666,-0.646 2.686,-0.646 1.428,0 2.539,0.374 3.332,1.122 0.793,0.748 1.337,1.779 1.632,3.094 z M 35.834,1.264 V 25.54 h 2.138 V 1.264 h -2.138 z m 5.488,0 v 3.434 h 2.14 V 1.264 h -2.14 z m 0,6.732 V 25.54 h 2.14 V 7.996 h -2.14 z m 5.46,0 V 32 h 2.14 v -9.792 h 0.07 c 0.22,0.635 0.55,1.19 0.97,1.666 0.42,0.476 0.9,0.873 1.44,1.19 0.55,0.317 1.14,0.555 1.77,0.714 0.63,0.159 1.27,0.238 1.9,0.238 1.34,0 2.5,-0.244 3.49,-0.731 0.99,-0.487 1.81,-1.156 2.46,-2.006 0.66,-0.85 1.15,-1.836 1.47,-2.958 0.31,-1.122 0.47,-2.306 0.47,-3.553 0,-1.247 -0.16,-2.431 -0.47,-3.553 -0.32,-1.122 -0.81,-2.108 -1.47,-2.958 -0.65,-0.85 -1.47,-1.524 -2.46,-2.023 -0.99,-0.499 -2.15,-0.748 -3.49,-0.748 -1.42,0 -2.7,0.334 -3.82,1.003 -1.12,0.669 -1.93,1.615 -2.43,2.839 h -0.07 V 7.996 h -1.97 z m 14.04,8.772 c 0,0.907 -0.11,1.808 -0.32,2.703 -0.22,0.895 -0.56,1.694 -1.02,2.397 -0.47,0.703 -1.06,1.275 -1.79,1.717 -0.72,0.442 -1.6,0.663 -2.62,0.663 -1.13,0 -2.09,-0.221 -2.87,-0.663 -0.78,-0.442 -1.42,-1.014 -1.9,-1.717 -0.49,-0.703 -0.84,-1.502 -1.06,-2.397 -0.21,-0.895 -0.32,-1.796 -0.32,-2.703 0,-0.997 0.1,-1.949 0.29,-2.856 0.19,-0.907 0.53,-1.7 1,-2.38 0.48,-0.68 1.11,-1.224 1.91,-1.632 0.79,-0.408 1.78,-0.612 2.95,-0.612 1.02,0 1.9,0.221 2.62,0.663 0.73,0.442 1.32,1.014 1.79,1.717 0.46,0.703 0.8,1.502 1.02,2.397 0.21,0.895 0.32,1.796 0.32,2.703 z m 15.18,-3.638 h 2.14 c -0.04,-0.952 -0.24,-1.779 -0.58,-2.482 -0.34,-0.703 -0.79,-1.292 -1.37,-1.768 -0.58,-0.476 -1.25,-0.827 -2.01,-1.054 -0.76,-0.227 -1.58,-0.34 -2.46,-0.34 -0.77,0 -1.55,0.091 -2.33,0.272 -0.79,0.181 -1.49,0.465 -2.13,0.85 -0.63,0.385 -1.15,0.895 -1.55,1.53 -0.39,0.635 -0.59,1.394 -0.59,2.278 0,0.748 0.12,1.377 0.37,1.887 0.25,0.51 0.6,0.941 1.04,1.292 0.44,0.351 0.96,0.646 1.55,0.884 0.59,0.238 1.23,0.448 1.94,0.629 l 2.75,0.612 c 0.48,0.113 0.95,0.249 1.41,0.408 0.47,0.159 0.88,0.357 1.24,0.595 0.36,0.238 0.65,0.533 0.87,0.884 0.21,0.351 0.32,0.788 0.32,1.309 0,0.612 -0.15,1.128 -0.46,1.547 -0.3,0.419 -0.69,0.765 -1.17,1.037 -0.48,0.272 -0.99,0.465 -1.55,0.578 -0.55,0.113 -1.09,0.17 -1.61,0.17 -1.43,0 -2.63,-0.368 -3.59,-1.105 -0.96,-0.737 -1.49,-1.83 -1.58,-3.281 h -2.14 c 0.18,2.153 0.91,3.717 2.19,4.692 1.28,0.975 2.95,1.462 5.02,1.462 0.81,0 1.64,-0.091 2.48,-0.272 0.84,-0.181 1.59,-0.482 2.26,-0.901 0.67,-0.419 1.22,-0.963 1.65,-1.632 0.43,-0.669 0.64,-1.479 0.64,-2.431 0,-0.771 -0.14,-1.439 -0.44,-2.006 -0.29,-0.567 -0.67,-1.043 -1.14,-1.428 -0.46,-0.385 -0.99,-0.697 -1.6,-0.935 -0.6,-0.238 -1.2,-0.402 -1.81,-0.493 l -2.86,-0.646 c -0.36,-0.091 -0.76,-0.21 -1.19,-0.357 -0.43,-0.147 -0.83,-0.334 -1.19,-0.561 -0.36,-0.227 -0.66,-0.504 -0.9,-0.833 -0.24,-0.329 -0.36,-0.731 -0.36,-1.207 0,-0.567 0.13,-1.043 0.38,-1.428 0.25,-0.385 0.57,-0.697 0.98,-0.935 0.41,-0.238 0.86,-0.408 1.35,-0.51 0.48,-0.102 0.96,-0.153 1.44,-0.153 0.61,0 1.19,0.074 1.73,0.221 0.55,0.147 1.03,0.38 1.45,0.697 0.42,0.317 0.75,0.72 1,1.207 0.25,0.487 0.39,1.06 0.41,1.717 z m 17.66,2.414 h -11.35 c 0.09,-0.793 0.27,-1.57 0.56,-2.329 0.28,-0.759 0.66,-1.428 1.14,-2.006 0.47,-0.578 1.05,-1.043 1.73,-1.394 0.68,-0.351 1.46,-0.527 2.35,-0.527 0.86,0 1.63,0.176 2.31,0.527 0.68,0.351 1.26,0.816 1.73,1.394 0.48,0.578 0.85,1.241 1.11,1.989 0.26,0.748 0.4,1.53 0.42,2.346 z m -11.35,1.802 h 13.49 c 0.05,-1.224 -0.06,-2.431 -0.34,-3.621 -0.27,-1.19 -0.72,-2.244 -1.34,-3.162 -0.62,-0.918 -1.43,-1.66 -2.43,-2.227 -1,-0.567 -2.2,-0.85 -3.6,-0.85 -1.39,0 -2.58,0.266 -3.59,0.799 -1.01,0.533 -1.83,1.235 -2.47,2.108 -0.63,0.873 -1.1,1.864 -1.41,2.975 -0.3,1.111 -0.46,2.244 -0.46,3.4 0,1.247 0.16,2.431 0.46,3.553 0.31,1.122 0.78,2.108 1.41,2.958 0.64,0.85 1.46,1.519 2.47,2.006 1.01,0.487 2.2,0.731 3.59,0.731 2.22,0 3.93,-0.544 5.15,-1.632 1.21,-1.088 2.04,-2.629 2.5,-4.624 h -2.15 c -0.34,1.36 -0.95,2.448 -1.83,3.264 -0.89,0.816 -2.11,1.224 -3.67,1.224 -1.02,0 -1.9,-0.215 -2.62,-0.646 -0.73,-0.431 -1.33,-0.975 -1.8,-1.632 -0.48,-0.657 -0.83,-1.4 -1.04,-2.227 -0.22,-0.827 -0.32,-1.626 -0.32,-2.397 z m 42.39,-8.738 h 2.31 c -0.15,-1.269 -0.53,-2.391 -1.14,-3.366 -0.6,-0.975 -1.34,-1.796 -2.24,-2.465 -0.89,-0.669 -1.89,-1.173 -2.99,-1.513 -1.1,-0.34 -2.23,-0.51 -3.38,-0.51 -1.91,0 -3.58,0.346 -5.02,1.037 -1.44,0.691 -2.63,1.621 -3.59,2.788 -0.95,1.167 -1.66,2.51 -2.14,4.029 -0.47,1.519 -0.71,3.117 -0.71,4.794 0,1.677 0.24,3.275 0.71,4.794 0.48,1.519 1.19,2.856 2.14,4.012 0.96,1.156 2.15,2.08 3.59,2.771 1.44,0.691 3.11,1.037 5.02,1.037 1.42,0 2.72,-0.227 3.89,-0.68 1.17,-0.453 2.18,-1.099 3.04,-1.938 0.86,-0.839 1.57,-1.859 2.11,-3.06 0.54,-1.201 0.9,-2.55 1.05,-4.046 h -2.31 c -0.11,1.088 -0.37,2.102 -0.78,3.043 -0.41,0.941 -0.94,1.762 -1.6,2.465 -0.66,0.703 -1.44,1.258 -2.34,1.666 -0.91,0.408 -1.93,0.612 -3.06,0.612 -1.61,0 -3,-0.306 -4.15,-0.918 -1.16,-0.612 -2.1,-1.422 -2.84,-2.431 -0.74,-1.009 -1.28,-2.153 -1.63,-3.434 -0.35,-1.281 -0.53,-2.578 -0.53,-3.893 0,-1.337 0.18,-2.641 0.53,-3.91 0.35,-1.269 0.89,-2.408 1.63,-3.417 0.74,-1.009 1.68,-1.819 2.84,-2.431 1.15,-0.612 2.54,-0.918 4.15,-0.918 0.88,0 1.72,0.13 2.53,0.391 0.8,0.261 1.54,0.64 2.21,1.139 0.67,0.499 1.23,1.116 1.7,1.853 0.46,0.737 0.8,1.57 1,2.499 z m 4.95,-7.344 V 25.54 h 2.14 V 15.306 c 0.02,-0.861 0.16,-1.66 0.42,-2.397 0.27,-0.737 0.63,-1.371 1.09,-1.904 0.47,-0.533 1.03,-0.952 1.7,-1.258 0.67,-0.306 1.44,-0.459 2.3,-0.459 0.86,0 1.58,0.136 2.16,0.408 0.58,0.272 1.03,0.646 1.37,1.122 0.34,0.476 0.58,1.037 0.72,1.683 0.13,0.646 0.2,1.343 0.2,2.091 V 25.54 h 2.14 V 14.252 c 0,-1.043 -0.1,-1.983 -0.3,-2.822 -0.21,-0.839 -0.56,-1.547 -1.06,-2.125 -0.49,-0.578 -1.16,-1.026 -1.98,-1.343 -0.83,-0.317 -1.86,-0.476 -3.08,-0.476 -1.25,0 -2.39,0.323 -3.44,0.969 -1.04,0.646 -1.76,1.502 -2.17,2.567 h -0.07 V 1.264 h -2.14 z m 30.1,14.28 h -11.35 c 0.09,-0.793 0.28,-1.57 0.56,-2.329 0.28,-0.759 0.66,-1.428 1.14,-2.006 0.47,-0.578 1.05,-1.043 1.73,-1.394 0.68,-0.351 1.46,-0.527 2.35,-0.527 0.86,0 1.63,0.176 2.31,0.527 0.68,0.351 1.26,0.816 1.73,1.394 0.48,0.578 0.85,1.241 1.11,1.989 0.26,0.748 0.4,1.53 0.42,2.346 z m -11.35,1.802 h 13.5 c 0.04,-1.224 -0.07,-2.431 -0.34,-3.621 -0.28,-1.19 -0.72,-2.244 -1.35,-3.162 -0.62,-0.918 -1.43,-1.66 -2.43,-2.227 -1,-0.567 -2.2,-0.85 -3.6,-0.85 -1.38,0 -2.58,0.266 -3.59,0.799 -1.01,0.533 -1.83,1.235 -2.46,2.108 -0.64,0.873 -1.11,1.864 -1.42,2.975 -0.3,1.111 -0.45,2.244 -0.45,3.4 0,1.247 0.15,2.431 0.45,3.553 0.31,1.122 0.78,2.108 1.42,2.958 0.63,0.85 1.45,1.519 2.46,2.006 1.01,0.487 2.21,0.731 3.59,0.731 2.22,0 3.94,-0.544 5.15,-1.632 1.21,-1.088 2.04,-2.629 2.5,-4.624 h -2.14 c -0.34,1.36 -0.96,2.448 -1.84,3.264 -0.88,0.816 -2.11,1.224 -3.67,1.224 -1.02,0 -1.89,-0.215 -2.62,-0.646 -0.73,-0.431 -1.33,-0.975 -1.8,-1.632 -0.48,-0.657 -0.82,-1.4 -1.04,-2.227 -0.21,-0.827 -0.32,-1.626 -0.32,-2.397 z"/>
</svg>
