<svg width="297" height="72" viewBox="0 0 297 72" fill="none" xmlns="http://www.w3.org/2000/svg">
<path fill-rule="evenodd" clip-rule="evenodd" d="M35.9075 5.07515C27.6471 5.07515 20.1384 8.2948 14.5782 13.545C13.5578 14.5085 11.9474 14.4646 10.9812 13.4469C10.0151 12.4292 10.0591 10.8231 11.0796 9.85955C17.5472 3.75257 26.2946 0 35.9075 0C55.8429 0 72 16.1138 72 35.9958C72 37.3973 70.8608 38.5334 69.4556 38.5334C68.0504 38.5334 66.9112 37.3973 66.9112 35.9958C66.9112 18.9167 53.0325 5.07515 35.9075 5.07515Z" fill="#0088CC"/>
<path fill-rule="evenodd" clip-rule="evenodd" d="M2.27502 37.0678C3.67234 36.9193 4.92579 37.9287 5.07468 39.3223C6.73235 54.8377 19.9045 66.9249 35.9075 66.9249C43.0871 66.9249 49.684 64.4964 54.9392 60.42C56.0484 59.5596 57.647 59.7589 58.5097 60.8651C59.3724 61.9714 59.1726 63.5657 58.0634 64.4261C51.9477 69.17 44.2595 72 35.9075 72C17.2758 72 1.945 57.9288 0.0145325 39.86C-0.134357 38.4664 0.877698 37.2163 2.27502 37.0678Z" fill="#0088CC"/>
<path fill-rule="evenodd" clip-rule="evenodd" d="M20.7665 3.85969C21.7602 2.86871 23.3712 2.86871 24.3648 3.85969L54.8471 34.2602C55.3243 34.7361 55.5923 35.3816 55.5923 36.0546C55.5923 36.7276 55.3243 37.373 54.8471 37.8489L35.3988 57.2451C34.4051 58.2361 32.7941 58.2361 31.8004 57.2451C30.8068 56.2541 30.8068 54.6474 31.8004 53.6564L49.4496 36.0546L20.7665 7.44837C19.7729 6.45739 19.7729 4.85068 20.7665 3.85969Z" fill="#0088CC"/>
<path fill-rule="evenodd" clip-rule="evenodd" d="M22.1984 21.2567C23.1921 20.2657 24.8031 20.2657 25.7967 21.2567L39.3406 34.7643C39.8179 35.2402 40.0859 35.8858 40.0859 36.5588C40.0858 37.2319 39.8176 37.8774 39.3403 38.3533L15.0994 62.5208C14.1056 63.5116 12.4946 63.5113 11.5011 62.5202C10.5076 61.529 10.5079 59.9223 11.5017 58.9315L33.9428 36.5583L22.1984 24.8453C21.2048 23.8544 21.2048 22.2477 22.1984 21.2567Z" fill="#0088CC"/>
<path d="M115.921 12.4656H96.1875V18.2672H102.992V37.5344H109.08V18.2672H115.921V12.4656Z" fill="#0088CC"/>
<path d="M134.206 12C126.793 12 121.099 17.6226 121.099 25C121.099 32.3774 126.793 38 134.206 38C141.62 38 147.314 32.3774 147.314 25C147.314 17.6226 141.62 12 134.206 12ZM134.206 17.8017C138.217 17.8017 141.154 20.8099 141.154 25C141.154 29.1901 138.217 32.1983 134.206 32.1983C130.195 32.1983 127.258 29.1901 127.258 25C127.258 20.8099 130.195 17.8017 134.206 17.8017Z" fill="#0088CC"/>
<path d="M169.752 12.4656V22.9587L170.217 28.259L160.834 12.4656H153.922V37.5344H160.01V27.0413L159.509 21.741L168.928 37.5344H175.84V12.4656H169.752Z" fill="#0088CC"/>
<path d="M203.237 31.7328V12.4656H197.148V37.5344H213.407V31.7328H203.237Z" fill="#0088CC"/>
<path d="M237.468 37.5344H243.914L234.818 12.4656H227.154L218.057 37.5344H224.503L226.294 32.3416H235.677L237.468 37.5344ZM228.3 26.5399L230.986 18.7328L233.672 26.5399H228.3Z" fill="#0088CC"/>
<path d="M266.278 23.9614C268.176 22.9587 269.215 21.4904 269.215 19.0551C269.215 14.6143 265.884 12.4656 261.515 12.4656H250.198V37.5344H261.515C266.529 37.5344 270.074 34.9201 270.074 30.1928C270.074 27.3636 268.857 24.8926 266.278 23.9614ZM263.055 20.1295C263.055 21.4545 262.303 22.0275 260.942 22.0275H256.286V18.2672H260.691C262.159 18.2672 263.055 18.5895 263.055 20.1295ZM261.372 31.7328H256.286V27.5785H261.372C263.413 27.5785 263.914 28.259 263.914 29.6556C263.914 30.9449 263.413 31.7328 261.372 31.7328Z" fill="#0088CC"/>
<path d="M285.838 21.741C283.366 21.2039 282.22 21.0606 282.22 19.8788C282.22 18.8044 283.044 17.6942 285.766 17.6942C288.631 17.6942 289.455 18.8402 289.813 20.3085H295.973C295.543 15.9752 292.857 12 285.766 12C281.003 12 276.096 14.6501 276.096 20.1653C276.096 25.3581 280.286 26.8623 284.369 27.7218C288.559 28.6171 290.063 28.7245 290.063 30.1928C290.063 31.5179 288.953 32.3058 286.482 32.3058C283.295 32.3058 282.185 31.3388 281.612 29.2617H275.452C275.953 33.5234 278.854 38 286.518 38C290.529 38 296.188 36.0661 296.188 29.9422C296.188 24.8209 292.857 23.2452 285.838 21.741Z" fill="#0088CC"/>
<path d="M106.516 47.1492H103V55.8508H104.71V53.0414H106.516C108.309 53.0414 109.493 51.8978 109.493 50.0704C109.493 48.2431 108.309 47.1492 106.516 47.1492ZM106.444 51.3508H104.71V48.8398H106.444C107.329 48.8398 107.759 49.3246 107.759 50.0953C107.759 50.8536 107.329 51.3508 106.444 51.3508Z" fill="#0088CC"/>
<path d="M115.868 47C113.404 47 111.515 48.9392 111.515 51.5C111.515 54.0608 113.404 56 115.868 56C118.331 56 120.232 54.0608 120.232 51.5C120.232 48.9392 118.331 47 115.868 47ZM115.868 48.6906C117.374 48.6906 118.498 49.8715 118.498 51.5C118.498 53.1285 117.374 54.3094 115.868 54.3094C114.361 54.3094 113.237 53.1285 113.237 51.5C113.237 49.8715 114.361 48.6906 115.868 48.6906Z" fill="#0088CC"/>
<path d="M131.365 47.1492L130.361 51.3135L129.93 53.9365L129.488 51.3135L128.495 47.1492H126.331L125.326 51.3135L124.896 53.9116L124.465 51.3135L123.461 47.1492H121.703L123.82 55.8508H125.936L126.702 52.7058L127.299 49.25H127.527L128.124 52.7058L128.89 55.8508H131.006L133.123 47.1492H131.365Z" fill="#0088CC"/>
<path d="M140.94 48.8398V47.1492H135.32V55.8508H140.94V54.1602H137.03V52.2831H140.617V50.5925H137.03V48.8398H140.94Z" fill="#0088CC"/>
<path d="M148.172 55.8508H150.276L147.933 52.5815C149.104 52.2707 149.81 51.4006 149.81 49.9834C149.81 48.2555 148.746 47.1492 146.952 47.1492H143.353V55.8508H145.063V52.7182H146.007L148.172 55.8508ZM145.063 48.8398H146.761C147.646 48.8398 148.076 49.2873 148.076 50.0083C148.076 50.7169 147.658 51.1644 146.761 51.1644H145.063V48.8398Z" fill="#0088CC"/>
<path d="M158.08 48.8398V47.1492H152.46V55.8508H158.08V54.1602H154.17V52.2831H157.757V50.5925H154.17V48.8398H158.08Z" fill="#0088CC"/>
<path d="M163.425 47.1492H160.4V55.8508H163.425C165.864 55.8508 167.706 53.9862 167.706 51.5C167.706 49.0014 165.864 47.1492 163.425 47.1492ZM163.425 54.1602H162.11V48.8398H163.425C164.932 48.8398 165.996 49.9337 165.996 51.5C165.996 53.0663 164.932 54.1602 163.425 54.1602Z" fill="#0088CC"/>
<path d="M179.857 51.1644C180.539 50.8039 180.897 50.2818 180.897 49.4116C180.897 47.9199 179.881 47.1492 178.338 47.1492H174.667V55.8508H178.362C180.084 55.8508 181.184 54.9309 181.184 53.3398C181.184 52.3204 180.754 51.4751 179.857 51.1644ZM179.175 49.7099C179.175 50.2942 178.865 50.5925 178.159 50.5925H176.377V48.8398H178.111C178.829 48.8398 179.175 49.076 179.175 49.7099ZM178.326 54.1602H176.377V52.221H178.314C179.199 52.221 179.45 52.5566 179.45 53.1906C179.45 53.7749 179.199 54.1602 178.326 54.1602Z" fill="#0088CC"/>
<path d="M190.222 47.1492H188.297L186.408 50.9903L184.519 47.1492H182.594L185.559 52.9917L185.547 55.8508H187.269V52.9793L190.222 47.1492Z" fill="#0088CC"/>
<path d="M202.588 48.8398V47.1492H196.968V55.8508H202.588V54.1602H198.678V52.2831H202.265V50.5925H198.678V48.8398H202.588Z" fill="#0088CC"/>
<path d="M208.925 56C210.922 56 212.477 54.7196 212.967 52.8674H211.138C210.743 53.7624 209.942 54.3094 208.913 54.3094C207.371 54.3094 206.319 53.1285 206.319 51.5C206.319 49.8715 207.371 48.6906 208.913 48.6906C209.942 48.6906 210.743 49.2376 211.138 50.1326H212.967C212.477 48.2804 210.922 47 208.925 47C206.426 47 204.597 48.9392 204.597 51.5C204.597 54.0608 206.426 56 208.925 56Z" fill="#0088CC"/>
<path d="M216.998 54.1602V47.1492H215.288V55.8508H220.585V54.1602H216.998Z" fill="#0088CC"/>
<path d="M222.784 55.8508H224.494V47.1492H222.784V55.8508Z" fill="#0088CC"/>
<path d="M230.771 47.1492H227.255V55.8508H228.965V53.0414H230.771C232.564 53.0414 233.748 51.8978 233.748 50.0704C233.748 48.2431 232.564 47.1492 230.771 47.1492ZM230.699 51.3508H228.965V48.8398H230.699C231.584 48.8398 232.014 49.3246 232.014 50.0953C232.014 50.8536 231.584 51.3508 230.699 51.3508Z" fill="#0088CC"/>
<path d="M238.92 50.5428C237.82 50.2942 237.401 50.1699 237.401 49.6602C237.401 49.1008 237.832 48.6533 238.848 48.6533C239.877 48.6533 240.295 49.0884 240.475 49.6975H242.208C242.017 48.2555 241.084 47 238.836 47C237.246 47 235.68 47.9075 235.68 49.7348C235.68 51.4503 237.019 51.9599 238.514 52.2831C239.984 52.6188 240.57 52.7058 240.57 53.3522C240.57 53.9738 240.068 54.3467 239.099 54.3467C237.916 54.3467 237.413 53.9116 237.186 53.0539H235.464C235.656 54.558 236.66 56 239.111 56C240.522 56 242.292 55.3039 242.292 53.2776C242.292 51.5497 241.156 51.0401 238.92 50.5428Z" fill="#0088CC"/>
<path d="M250.226 48.8398V47.1492H244.606V55.8508H250.226V54.1602H246.316V52.2831H249.903V50.5925H246.316V48.8398H250.226Z" fill="#0088CC"/>
<path d="M261.105 56C263.101 56 264.656 54.7196 265.146 52.8674H263.317C262.922 53.7624 262.121 54.3094 261.093 54.3094C259.55 54.3094 258.498 53.1285 258.498 51.5C258.498 49.8715 259.55 48.6906 261.093 48.6906C262.121 48.6906 262.922 49.2376 263.317 50.1326H265.146C264.656 48.2804 263.101 47 261.105 47C258.605 47 256.776 48.9392 256.776 51.5C256.776 54.0608 258.605 56 261.105 56Z" fill="#0088CC"/>
<path d="M272.896 47.1492V50.5552H269.177V47.1492H267.467V55.8508H269.177V52.2459H272.896V55.8508H274.606V47.1492H272.896Z" fill="#0088CC"/>
<path d="M283 48.8398V47.1492H277.38V55.8508H283V54.1602H279.09V52.2831H282.677V50.5925H279.09V48.8398H283Z" fill="#0088CC"/>
</svg>
