<svg width="140" height="44" viewBox="0 0 200 44" fill="none" xmlns="http://www.w3.org/2000/svg">
<path d="M19.733 0.465565H0V6.26722H6.80449V25.5344H12.8927V6.26722H19.733V0.465565Z" fill="#2B3338"/>
<path d="M38.0187 0C30.6054 0 24.9111 5.62259 24.9111 13C24.9111 20.3774 30.6054 26 38.0187 26C45.432 26 51.1263 20.3774 51.1263 13C51.1263 5.62259 45.432 0 38.0187 0ZM38.0187 5.80165C42.0298 5.80165 44.9664 8.80992 44.9664 13C44.9664 17.1901 42.0298 20.1983 38.0187 20.1983C34.0076 20.1983 31.071 17.1901 31.071 13C31.071 8.80992 34.0076 5.80165 38.0187 5.80165Z" fill="#2B3338"/>
<path d="M73.564 0.465565V10.9587L74.0296 16.259L64.6466 0.465565H57.7347V25.5344H63.8229V15.0413L63.3215 9.74105L72.7403 25.5344H79.6523V0.465565H73.564Z" fill="#2B3338"/>
<path d="M107.049 19.7328V0.465565H100.961V25.5344H117.22V19.7328H107.049Z" fill="#2B3338"/>
<path d="M141.28 25.5344H147.727L138.63 0.465565H130.966L121.869 25.5344H128.316L130.107 20.3416H139.49L141.28 25.5344ZM132.112 14.5399L134.798 6.73278L137.484 14.5399H132.112Z" fill="#2B3338"/>
<path d="M170.09 11.9614C171.989 10.9587 173.027 9.49036 173.027 7.0551C173.027 2.61433 169.697 0.465565 165.327 0.465565H154.01V25.5344H165.327C170.341 25.5344 173.887 22.9201 173.887 18.1928C173.887 15.3636 172.669 12.8926 170.09 11.9614ZM166.867 8.12948C166.867 9.45455 166.115 10.0275 164.754 10.0275H160.099V6.26722H164.504C165.972 6.26722 166.867 6.58953 166.867 8.12948ZM165.184 19.7328H160.099V15.5785H165.184C167.225 15.5785 167.727 16.259 167.727 17.6556C167.727 18.9449 167.225 19.7328 165.184 19.7328Z" fill="#2B3338"/>
<path d="M189.65 9.74105C187.179 9.20386 186.033 9.06061 186.033 7.87879C186.033 6.80441 186.857 5.69422 189.578 5.69422C192.443 5.69422 193.267 6.84022 193.625 8.30854H199.785C199.355 3.97521 196.669 0 189.578 0C184.815 0 179.909 2.65014 179.909 8.16529C179.909 13.3581 184.099 14.8623 188.182 15.7218C192.372 16.6171 193.876 16.7245 193.876 18.1928C193.876 19.5179 192.766 20.3058 190.295 20.3058C187.107 20.3058 185.997 19.3388 185.424 17.2617H179.264C179.766 21.5234 182.666 26 190.33 26C194.342 26 200 24.0661 200 17.9422C200 12.8209 196.669 11.2452 189.65 9.74105Z" fill="#2B3338"/>
<path d="M10.328 35.1492H6.8125V43.8508H8.52242V41.0414H10.328C12.1216 41.0414 13.3054 39.8978 13.3054 38.0704C13.3054 36.2431 12.1216 35.1492 10.328 35.1492ZM10.2563 39.3508H8.52242V36.8398H10.2563C11.1411 36.8398 11.5716 37.3246 11.5716 38.0953C11.5716 38.8536 11.1411 39.3508 10.2563 39.3508Z" fill="#2B3338"/>
<path d="M19.6801 35C17.2168 35 15.3275 36.9392 15.3275 39.5C15.3275 42.0608 17.2168 44 19.6801 44C22.1433 44 24.0446 42.0608 24.0446 39.5C24.0446 36.9392 22.1433 35 19.6801 35ZM19.6801 36.6906C21.1867 36.6906 22.3107 37.8715 22.3107 39.5C22.3107 41.1285 21.1867 42.3094 19.6801 42.3094C18.1734 42.3094 17.0494 41.1285 17.0494 39.5C17.0494 37.8715 18.1734 36.6906 19.6801 36.6906Z" fill="#2B3338"/>
<path d="M35.1775 35.1492L34.173 39.3135L33.7426 41.9365L33.3001 39.3135L32.3077 35.1492H30.1433L29.1389 39.3135L28.7084 41.9116L28.278 39.3135L27.2735 35.1492H25.5158L27.6323 43.8508H29.7487L30.514 40.7058L31.1119 37.25H31.3391L31.937 40.7058L32.7022 43.8508H34.8187L36.9352 35.1492H35.1775Z" fill="#2B3338"/>
<path d="M44.7523 36.8398V35.1492H39.1323V43.8508H44.7523V42.1602H40.8422V40.2831H44.4295V38.5925H40.8422V36.8398H44.7523Z" fill="#2B3338"/>
<path d="M51.9842 43.8508H54.0887L51.745 40.5815C52.9169 40.2707 53.6224 39.4006 53.6224 37.9834C53.6224 36.2555 52.5581 35.1492 50.7645 35.1492H47.1653V43.8508H48.8752V40.7182H49.8199L51.9842 43.8508ZM48.8752 36.8398H50.5732C51.4581 36.8398 51.8885 37.2873 51.8885 38.0083C51.8885 38.7169 51.47 39.1644 50.5732 39.1644H48.8752V36.8398Z" fill="#2B3338"/>
<path d="M61.8926 36.8398V35.1492H56.2726V43.8508H61.8926V42.1602H57.9825V40.2831H61.5698V38.5925H57.9825V36.8398H61.8926Z" fill="#2B3338"/>
<path d="M67.2375 35.1492H64.2122V43.8508H67.2375C69.6768 43.8508 71.5182 41.9862 71.5182 39.5C71.5182 37.0014 69.6768 35.1492 67.2375 35.1492ZM67.2375 42.1602H65.9221V36.8398H67.2375C68.7441 36.8398 69.8083 37.9337 69.8083 39.5C69.8083 41.0663 68.7441 42.1602 67.2375 42.1602Z" fill="#2B3338"/>
<path d="M83.6695 39.1644C84.3511 38.8039 84.7098 38.2818 84.7098 37.4116C84.7098 35.9199 83.6934 35.1492 82.1509 35.1492H78.4799V43.8508H82.1748C83.8967 43.8508 84.9968 42.9309 84.9968 41.3398C84.9968 40.3204 84.5663 39.4751 83.6695 39.1644ZM82.9879 37.7099C82.9879 38.2942 82.677 38.5925 81.9715 38.5925H80.1898V36.8398H81.9237C82.6411 36.8398 82.9879 37.076 82.9879 37.7099ZM82.1389 42.1602H80.1898V40.221H82.127C83.0118 40.221 83.2629 40.5566 83.2629 41.1906C83.2629 41.7749 83.0118 42.1602 82.1389 42.1602Z" fill="#2B3338"/>
<path d="M94.0349 35.1492H92.1098L90.2205 38.9903L88.3312 35.1492H86.4061L89.3715 40.9917L89.3596 43.8508H91.0814V40.9793L94.0349 35.1492Z" fill="#2B3338"/>
<path d="M106.401 36.8398V35.1492H100.781V43.8508H106.401V42.1602H102.491V40.2831H106.078V38.5925H102.491V36.8398H106.401Z" fill="#2B3338"/>
<path d="M112.738 44C114.735 44 116.289 42.7196 116.78 40.8674H114.95C114.555 41.7624 113.754 42.3094 112.726 42.3094C111.183 42.3094 110.131 41.1285 110.131 39.5C110.131 37.8715 111.183 36.6906 112.726 36.6906C113.754 36.6906 114.555 37.2376 114.95 38.1326H116.78C116.289 36.2804 114.735 35 112.738 35C110.239 35 108.409 36.9392 108.409 39.5C108.409 42.0608 110.239 44 112.738 44Z" fill="#2B3338"/>
<path d="M120.81 42.1602V35.1492H119.1V43.8508H124.398V42.1602H120.81Z" fill="#2B3338"/>
<path d="M126.596 43.8508H128.306V35.1492H126.596V43.8508Z" fill="#2B3338"/>
<path d="M134.583 35.1492H131.068V43.8508H132.778V41.0414H134.583C136.377 41.0414 137.561 39.8978 137.561 38.0704C137.561 36.2431 136.377 35.1492 134.583 35.1492ZM134.511 39.3508H132.778V36.8398H134.511C135.396 36.8398 135.827 37.3246 135.827 38.0953C135.827 38.8536 135.396 39.3508 134.511 39.3508Z" fill="#2B3338"/>
<path d="M142.733 38.5428C141.633 38.2942 141.214 38.1699 141.214 37.6602C141.214 37.1008 141.644 36.6533 142.661 36.6533C143.689 36.6533 144.108 37.0884 144.287 37.6975H146.021C145.83 36.2555 144.897 35 142.649 35C141.059 35 139.492 35.9075 139.492 37.7348C139.492 39.4503 140.831 39.9599 142.326 40.2831C143.797 40.6188 144.383 40.7058 144.383 41.3522C144.383 41.9738 143.881 42.3467 142.912 42.3467C141.728 42.3467 141.226 41.9116 140.999 41.0539H139.277C139.468 42.558 140.473 44 142.924 44C144.335 44 146.105 43.3039 146.105 41.2776C146.105 39.5497 144.969 39.0401 142.733 38.5428Z" fill="#2B3338"/>
<path d="M154.038 36.8398V35.1492H148.418V43.8508H154.038V42.1602H150.128V40.2831H153.715V38.5925H150.128V36.8398H154.038Z" fill="#2B3338"/>
<path d="M164.917 44C166.914 44 168.468 42.7196 168.959 40.8674H167.129C166.735 41.7624 165.933 42.3094 164.905 42.3094C163.363 42.3094 162.31 41.1285 162.31 39.5C162.31 37.8715 163.363 36.6906 164.905 36.6906C165.933 36.6906 166.735 37.2376 167.129 38.1326H168.959C168.468 36.2804 166.914 35 164.917 35C162.418 35 160.588 36.9392 160.588 39.5C160.588 42.0608 162.418 44 164.917 44Z" fill="#2B3338"/>
<path d="M176.708 35.1492V38.5552H172.989V35.1492H171.279V43.8508H172.989V40.2459H176.708V43.8508H178.418V35.1492H176.708Z" fill="#2B3338"/>
<path d="M186.812 36.8398V35.1492H181.192V43.8508H186.812V42.1602H182.902V40.2831H186.49V38.5925H182.902V36.8398H186.812Z" fill="#2B3338"/>
</svg>
