<?xml version="1.0" encoding="UTF-8"?>
<!--

    Copyright (c) 2012-2016 Codenvy, S.A.
    All rights reserved. This program and the accompanying materials
    are made available under the terms of the Eclipse Public License v1.0
    which accompanies this distribution, and is available at
    http://www.eclipse.org/legal/epl-v10.html

    Contributors:
      Codenvy, S.A. - initial API and implementation

-->
<svg width="166px" height="101px" viewBox="0 0 166 101" version="1.1" xmlns="http://www.w3.org/2000/svg" xmlns:xlink="http://www.w3.org/1999/xlink">
    <g stroke="none" stroke-width="1" fill="none" fill-rule="evenodd">
        <g fill="#FFFFFF">
            <path d="M46.1517481,17.357363 C38.3027721,17.357363 32.2255133,20.3062912 27.9197893,26.204236 C23.6140653,32.1021808 21.4612356,40.3210567 21.4612356,50.8611101 C21.4612356,72.7933916 29.6913241,83.7593679 46.1517481,83.7593679 C53.058847,83.7593679 61.4234873,82.0326191 71.2459202,78.5790696 L71.2459202,96.0709858 C63.1726877,99.4348327 54.1577134,101.116731 44.2007267,101.116731 C29.8931647,101.116731 18.9496138,96.7774335 11.3697455,88.0987086 C3.78987727,79.4199838 0,66.9627244 0,50.7265569 C0,40.5004625 1.86130067,31.5415514 5.58395786,23.849555 C9.30661505,16.1575585 14.6550513,10.2597021 21.6294271,6.15580897 C28.6038029,2.0519158 36.7778282,0 46.1517481,0 C55.7050732,0 65.3031055,2.30980686 74.9461332,6.92948987 L68.2184731,23.8831933 C64.5406672,22.1339929 60.8404912,20.6090719 57.117834,19.3083844 C53.3951768,18.007697 49.7398514,17.357363 46.1517481,17.357363 L46.1517481,17.357363 Z M146.326607,41.2405562 L142.626394,60.3471108 L160.791076,60.3471108 L160.791076,71.6495798 L140.406266,71.6495798 L135.024138,99.7711989 L123.048903,99.7711989 L128.431031,71.6495798 L111.746434,71.6495798 L106.364306,99.7711989 L94.6581772,99.7711989 L99.7711989,71.6495798 L82.9520487,71.6495798 L82.9520487,60.3471108 L101.991327,60.3471108 L105.826093,41.2405562 L88.0650703,41.2405562 L88.0650703,29.9380873 L107.777114,29.9380873 L113.159242,1.54736182 L125.269031,1.54736182 L119.886902,29.9380873 L136.840606,29.9380873 L142.222734,1.54736182 L153.928862,1.54736182 L148.546734,29.9380873 L165.500438,29.9380873 L165.500438,41.2405562 L146.326607,41.2405562 Z M113.832008,60.3471108 L130.651159,60.3471108 L134.485925,41.2405562 L117.666775,41.2405562 L113.832008,60.3471108 Z"></path>
        </g>
    </g>
</svg>