<?xml version="1.0" encoding="utf-8"?>
<!--

    Copyright (c) 2012-2018 Red Hat, Inc.
    This program and the accompanying materials are made
    available under the terms of the Eclipse Public License 2.0
    which is available at https://www.eclipse.org/legal/epl-2.0/

    SPDX-License-Identifier: EPL-2.0

    Contributors:
      Red Hat, Inc. - initial API and implementation

-->
<svg width="22px" height="22px" viewBox="0 0 22 22" version="1.1" xmlns="http://www.w3.org/2000/svg" xmlns:xlink="http://www.w3.org/1999/xlink">
    <g stroke="none" stroke-width="1" fill="none" fill-rule="evenodd">
            <path d="M11,22 C17.0751322,22 22,17.0751322 22,11 C22,4.92486775 17.0751322,0 11,0 C4.92486775,0 0,4.92486775 0,11 C0,17.0751322 4.92486775,22 11,22 Z M10.0518804,6.55344774 C11.2784438,6.87373727 12.3717958,7.6955711 12.9978162,8.80056999 C12.306282,9.20602742 11.611836,9.60566141 10.9166622,10.0031116 C10.5628878,9.44333285 10.0052929,9.00730233 9.35306689,8.86535583 C8.45334448,8.6469766 7.45389554,9.02113301 6.90576368,9.76362239 C6.32341907,10.5090235 6.26227289,11.6045593 6.75071443,12.4140183 C7.11467981,13.0320315 7.76326612,13.4738855 8.47445447,13.5743399 C9.42585997,13.7279333 10.4304044,13.2322124 10.9071991,12.3987317 C11.6081964,12.7961819 12.3048261,13.1994556 13,13.6063689 C12.3761633,14.6989929 11.2995538,15.5193709 10.0846373,15.844028 C8.86462535,16.1781482 7.5143138,16.0085404 6.41950593,15.3730568 C5.69157517,14.9544966 5.07501782,14.3430348 4.65354591,13.6165599 C4.03189304,12.5661558 3.84845449,11.2733508 4.13234749,10.0875516 C4.41332876,8.88719375 5.18275157,7.81276795 6.22296463,7.15253475 C7.34033834,6.42751571 8.7663547,6.20986442 10.0518804,6.55344774 Z M15.2172366,8 L15.9117366,8 C15.9751116,8 16.0178616,8.05625 16.0066116,8.124875 L15.7823616,9.5 L16.7067366,9.5 L16.9309866,8.124875 C16.9418616,8.05625 17.0029866,8 17.0663616,8 L17.7604866,8 C17.8242366,8 17.8666116,8.05625 17.8557366,8.124875 L17.6314866,9.5 L18.8993616,9.5 C18.9649866,9.5 19.0092366,9.555875 18.9979866,9.624875 L18.8757366,10.37525 C18.8648616,10.443875 18.8022366,10.500125 18.7366116,10.500125 L17.4683616,10.500125 L17.3052366,11.499875 L18.5734866,11.499875 C18.6391116,11.499875 18.6833616,11.55575 18.6721116,11.62475 L18.5494866,12.375125 C18.5386116,12.44375 18.4759866,12.5 18.4103616,12.5 L17.1421116,12.5 L16.9174866,13.875125 C16.9066116,13.944125 16.8454866,14 16.7821116,14 L16.0879866,14 C16.0246116,14 15.9818616,13.944125 15.9927366,13.875125 L16.2173616,12.5 L15.2929866,12.5 L15.0687366,13.875125 C15.0574866,13.944125 14.9967366,14 14.9333616,14 L14.2388616,14 C14.1754866,14 14.1327366,13.944125 14.1439866,13.875125 L14.3682366,12.5 L13.1003616,12.5 C13.0351116,12.5 12.9904866,12.44375 13.0017366,12.375125 L13.1239866,11.62475 C13.1352366,11.55575 13.1978616,11.499875 13.2631116,11.499875 L14.5313616,11.499875 L14.6948616,10.500125 L13.4262366,10.500125 C13.3606116,10.500125 13.3163616,10.44425 13.3276116,10.37525 L13.4498616,9.624875 C13.4607366,9.555875 13.5233616,9.5 13.5889866,9.5 L14.8576116,9.5 L15.0818616,8.124875 C15.0931116,8.05625 15.1538616,8 15.2172366,8 Z"></path>
    </g>
</svg>