<?xml version="1.0" encoding="UTF-8" standalone="no"?>
<!--

    Copyright (c) 2012-2018 Red Hat, Inc.
    This program and the accompanying materials are made
    available under the terms of the Eclipse Public License 2.0
    which is available at https://www.eclipse.org/legal/epl-2.0/

    SPDX-License-Identifier: EPL-2.0

    Contributors:
      Red Hat, Inc. - initial API and implementation

-->
<svg width="15px" height="10px" viewBox="0 0 15 10" version="1.1" xmlns="http://www.w3.org/2000/svg" xmlns:xlink="http://www.w3.org/1999/xlink">
    <g stroke="none" stroke-width="1" fill="none" fill-rule="evenodd">
        <g>
            <path d="M6.05188042,0.553447736 C7.27844375,0.87373727 8.37179575,1.6955711 8.99781621,2.80056999 C8.30628199,3.20602742 7.61183604,3.60566141 6.91666217,4.00311161 C6.56288782,3.44333285 6.00529286,3.00730233 5.35306689,2.86535583 C4.45334448,2.6469766 3.45389554,3.02113301 2.90576368,3.76362239 C2.32341907,4.50902348 2.26227289,5.60455928 2.75071443,6.41401828 C3.11467981,7.0320315 3.76326612,7.47388547 4.47445447,7.57433991 C5.42585997,7.7279333 6.43040442,7.23221245 6.90719907,6.39873174 C7.60819639,6.79618193 8.30482612,7.19945557 9,7.60636887 C8.37616334,8.69899294 7.29955375,9.5193709 6.08463731,9.84402802 C4.86462535,10.1781482 3.5143138,10.0085404 2.41950593,9.37305682 C1.69157517,8.95449663 1.07501782,8.34303479 0.653545911,7.6165599 C0.0318930421,6.56615581 -0.151545509,5.27335078 0.132347487,4.08755157 C0.41332876,2.88719375 1.18275157,1.81276795 2.22296463,1.15253475 C3.34033834,0.427515714 4.7663547,0.209864417 6.05188042,0.553447736 Z" fill="#2B9F42"></path>
            <path d="M11.2172366,2 L11.9117366,2 C11.9751116,2 12.0178616,2.05625 12.0066116,2.124875 L11.7823616,3.5 L12.7067366,3.5 L12.9309866,2.124875 C12.9418616,2.05625 13.0029866,2 13.0663616,2 L13.7604866,2 C13.8242366,2 13.8666116,2.05625 13.8557366,2.124875 L13.6314866,3.5 L14.8993616,3.5 C14.9649866,3.5 15.0092366,3.555875 14.9979866,3.624875 L14.8757366,4.37525 C14.8648616,4.443875 14.8022366,4.500125 14.7366116,4.500125 L13.4683616,4.500125 L13.3052366,5.499875 L14.5734866,5.499875 C14.6391116,5.499875 14.6833616,5.55575 14.6721116,5.62475 L14.5494866,6.375125 C14.5386116,6.44375 14.4759866,6.5 14.4103616,6.5 L13.1421116,6.5 L12.9174866,7.875125 C12.9066116,7.944125 12.8454866,8 12.7821116,8 L12.0879866,8 C12.0246116,8 11.9818616,7.944125 11.9927366,7.875125 L12.2173616,6.5 L11.2929866,6.5 L11.0687366,7.875125 C11.0574866,7.944125 10.9967366,8 10.9333616,8 L10.2388616,8 C10.1754866,8 10.1327366,7.944125 10.1439866,7.875125 L10.3682366,6.5 L9.10036162,6.5 C9.03511162,6.5 8.99048662,6.44375 9.00173662,6.375125 L9.12398662,5.62475 C9.13523662,5.55575 9.19786162,5.499875 9.26311162,5.499875 L10.5313616,5.499875 L10.6948616,4.500125 L9.42623662,4.500125 C9.36061162,4.500125 9.31636162,4.44425 9.32761162,4.37525 L9.44986162,3.624875 C9.46073662,3.555875 9.52336162,3.5 9.58898662,3.5 L10.8576116,3.5 L11.0818616,2.124875 C11.0931116,2.05625 11.1538616,2 11.2172366,2 L11.2172366,2 L11.2172366,2 Z M11.6192366,4.500125 L11.4557366,5.499875 L12.3801116,5.499875 L12.5432366,4.500125 L11.6192366,4.500125 L11.6192366,4.500125 Z" fill="#2B9E43"></path>
        </g>
    </g>
</svg>