<?xml version="1.0" encoding="UTF-8" standalone="no"?>
<!--

    Copyright (c) 2012-2016 Codenvy, S.A.
    All rights reserved. This program and the accompanying materials
    are made available under the terms of the Eclipse Public License v1.0
    which accompanies this distribution, and is available at
    http://www.eclipse.org/legal/epl-v10.html

    Contributors:
      Codenvy, S.A. - initial API and implementation

-->
<svg width="20px" height="20px" viewBox="0 0 10 11" version="1.1" xmlns="http://www.w3.org/2000/svg" xmlns:xlink="http://www.w3.org/1999/xlink">
    <g stroke="none" stroke-width="1" fill-rule="evenodd">
        <g transform="translate(-329.000000, -412.000000)">
            <g transform="translate(325.000000, 97.292902)">
                <g transform="translate(0.000000, 0.168250)">
                    <path d="M9.71429253,323.101561 C9.71429253,323.202008 9.63616743,323.285713 9.53572088,323.285713 L8.46429104,323.285713 C8.36384449,323.285713 8.28571939,323.202008 8.28571939,323.101561 L8.28571939,322.041292 C8.28571939,321.940846 8.36384449,321.85714 8.46429104,321.85714 L9.53572088,321.85714 C9.63616743,321.85714 9.71429253,321.940846 9.71429253,322.041292 L9.71429253,323.101561 Z M9.7031318,321.014505 C9.69755143,321.08705 9.61384598,321.142854 9.51339943,321.142854 L8.48103213,321.142854 C8.37500522,321.142854 8.29129976,321.08705 8.29129976,321.014505 L8.19643357,318.464279 C8.19643357,318.430797 8.21317467,318.374993 8.25223721,318.347091 C8.28571939,318.31919 8.33594267,318.285707 8.38616594,318.285707 L9.61384598,318.285707 C9.66406925,318.285707 9.71429253,318.31919 9.74777471,318.347091 C9.78683726,318.374993 9.80357835,318.419636 9.80357835,318.453118 L9.7031318,321.014505 Z M9.62500671,315.802446 C9.5022387,315.573651 9.26228306,315.428561 9.00000596,315.428561 C8.73772886,315.428561 8.49777322,315.573651 8.37500522,315.802446 L4.08928582,323.659598 C3.96651782,323.877232 3.97209818,324.145089 4.10044655,324.362724 C4.22879492,324.580358 4.46317019,324.714287 4.71428657,324.714287 L13.2857254,324.714287 C13.5368417,324.714287 13.771217,324.580358 13.8995654,324.362724 C14.0279137,324.145089 14.0334941,323.877232 13.9107261,323.659598 L9.62500671,315.802446 Z"></path>
                </g>
            </g>
        </g>
    </g>
</svg>
