<?xml version="1.0" encoding="UTF-8" standalone="no"?>
<!--

    Copyright (c) 2012-2018 Red Hat, Inc.
    This program and the accompanying materials are made
    available under the terms of the Eclipse Public License 2.0
    which is available at https://www.eclipse.org/legal/epl-2.0/

    SPDX-License-Identifier: EPL-2.0

    Contributors:
      Red Hat, Inc. - initial API and implementation

-->
<svg width="16px" height="16px" viewBox="0 0 16 16" version="1.1" xmlns="http://www.w3.org/2000/svg" xmlns:xlink="http://www.w3.org/1999/xlink">
    <g fill-rule="evenodd">
        <path d="M10.6673334,7.998 C10.6673334,9.466 9.46918365,10.664 8.00100013,10.664 C6.5328166,10.664 5.33466683,9.466 5.33466683,7.998 C5.33466683,6.53 6.5328166,5.332 8.00100013,5.332 C9.46918365,5.332 10.6673334,6.53 10.6673334,7.998 L10.6673334,7.998 L10.6673334,7.998 Z M16,6.864 C16,6.686 15.8739842,6.522 15.6979622,6.49 L13.791724,6.198 C13.6897112,5.852 13.543693,5.51 13.3656707,5.178 C13.7217152,4.686 14.103763,4.228 14.4578072,3.748 C14.5098137,3.678 14.5418177,3.604 14.5418177,3.51 C14.5418177,3.426 14.519815,3.344 14.471809,3.28 C14.031754,2.666 13.303663,2.02 12.7495937,1.51 C12.6795849,1.448 12.5855732,1.406 12.4915614,1.406 C12.3995499,1.406 12.3015377,1.438 12.2395299,1.5 L10.7633454,2.614 C10.4613077,2.458 10.1492687,2.334 9.8272284,2.23 L9.5351919,0.314 C9.50918865,0.134 9.34516815,0 9.15714464,0 L6.84285536,0 C6.6568321,0 6.51081385,0.124 6.4688086,0.292 C6.3007876,0.914 6.23877985,1.592 6.1687711,2.228 C5.84473059,2.334 5.52069009,2.466 5.21865233,2.624 L3.78047256,1.508 C3.69846231,1.446 3.60245031,1.404 3.50843855,1.404 C3.15639455,1.404 1.75221903,2.926 1.49818727,3.268 C1.45018127,3.342 1.40617577,3.414 1.40617577,3.508 C1.40617577,3.602 1.44818102,3.686 1.51018877,3.756 C1.89623703,4.226 2.27028379,4.696 2.62632829,5.198 C2.45830729,5.508 2.32629079,5.82 2.21827728,6.156 L0.284035504,6.446 C0.128016002,6.478 7.10542736e-15,6.666 7.10542736e-15,6.822 L7.10542736e-15,9.134 C7.10542736e-15,9.312 0.126015752,9.478 0.300037505,9.51 L2.20827603,9.792 C2.31028879,10.146 2.45630704,10.49 2.63432929,10.826 C2.27828479,11.314 1.89623703,11.772 1.54019252,12.25 C1.49018627,12.324 1.45818227,12.396 1.45818227,12.49 C1.45818227,12.574 1.48018502,12.658 1.52819102,12.728 C1.96824603,13.332 2.69633704,13.98 3.24840605,14.48 C3.32041505,14.552 3.4144268,14.596 3.5064383,14.596 C3.60045006,14.596 3.69646206,14.564 3.76847106,14.5 L5.23665458,13.386 C5.53869234,13.54 5.84873109,13.668 6.1727716,13.77 L6.4648081,15.686 C6.4928116,15.864 6.6568321,16 6.84285536,16 L9.15714464,16 C9.34516815,16 9.4911864,15.874 9.53319165,15.708 C9.70121265,15.082 9.7632204,14.406 9.83322915,13.77 C10.1572697,13.666 10.4793099,13.53 10.7833479,13.376 L12.2215277,14.5 C12.3015377,14.552 12.3995499,14.596 12.4915614,14.596 C12.8436055,14.596 14.2497812,13.062 14.5018127,12.728 C14.5638205,12.658 14.5958245,12.582 14.5958245,12.49 C14.5958245,12.396 14.5538192,12.302 14.4898112,12.232 C14.1057632,11.762 13.7297162,11.304 13.375672,10.79 C13.543693,10.49 13.6677085,10.176 13.7817227,9.844 L15.7079635,9.552 C15.8739842,9.52 16,9.334 16,9.178 L16,6.864 L16,6.864 Z"></path>
    </g>
</svg>