<?xml version="1.0" encoding="utf-8"?>
<!--

    Copyright (c) 2012-2018 Red Hat, Inc.
    This program and the accompanying materials are made
    available under the terms of the Eclipse Public License 2.0
    which is available at https://www.eclipse.org/legal/epl-2.0/

    SPDX-License-Identifier: EPL-2.0

    Contributors:
      Red Hat, Inc. - initial API and implementation

-->
<!-- The icon can be used freely in both personal and commercial projects with no attribution required, but always appreciated. 
You may NOT sub-license, resell, rent, redistribute or otherwise transfer the icon without express written permission from iconmonstr.com -->


<!DOCTYPE svg PUBLIC "-//W3C//DTD SVG 1.1//EN" "http://www.w3.org/Graphics/SVG/1.1/DTD/svg11.dtd">

<svg version="1.1" xmlns="http://www.w3.org/2000/svg" xmlns:xlink="http://www.w3.org/1999/xlink" x="0px" y="0px"
	 width="512px" height="512px" viewBox="0 0 512 512" enable-background="new 0 0 512 512" xml:space="preserve">
<path d="M462,246.575c0,44.318-35.928,80.246-80.246,80.246H331.58v-38.119
	c-0.998-43.379,40.92-44.379,59.67-46.379c-27.168-33.334-70.918-48.244-104.611-48.244c-66.546,0-108.17,39.104-108.17,104.808
	v27.935h-48.223C85.928,326.821,50,290.894,50,246.575c0-40.982,30.729-74.766,70.396-79.623
	c2.891-42.287,49.035-66.355,85.217-45.898c19.236-30.605,53.297-50.953,92.115-50.953c57.107,0,103.932,44.033,108.375,100
	C438.516,180.413,462,210.747,462,246.575z M301.58,288.702c0-30.761,6.053-48.484,31.926-56.837
	c-20.066-8.452-125.037-28.815-125.037,67.021c0,32.187,0,58.909,0,58.909h-37.408l83.963,84.104l83.965-84.104H301.58
	C301.58,357.796,301.58,315.59,301.58,288.702z"/>
</svg>

