<?xml version="1.0" encoding="UTF-8" standalone="no"?>
<!--

    Copyright (c) 2012-2018 Red Hat, Inc.
    This program and the accompanying materials are made
    available under the terms of the Eclipse Public License 2.0
    which is available at https://www.eclipse.org/legal/epl-2.0/

    SPDX-License-Identifier: EPL-2.0

    Contributors:
      Red Hat, Inc. - initial API and implementation

-->
<svg xmlns:xlink="http://www.w3.org/1999/xlink" xmlns:sketch="http://www.bohemiancoding.com/sketch/ns" width="412px" height="344px"
     viewBox="0 0 412 344"
     version="1.1" xmlns="http://www.w3.org/2000/svg">
    <!-- Generator: Sketch 3.0.4 (8054) - http://www.bohemiancoding.com/sketch -->
    <title>import-config 2</title>
    <desc>Created with Sketch.</desc>
    <defs></defs>
    <g stroke="none" stroke-width="1" fill-rule="evenodd">
        <path d="M331.754,256.821 L265.58,256.821 L265.58,218.702 L315.036224,218.844439 L205,107.98353 L94.535141,218.914049
        L145.469,218.887 L145.469,256.822 L80.246,256.822 C35.928,256.821 0,220.894 0,176.575 C0,135.593 30.729,101.809
        70.396,96.952 C73.287,54.665 119.431,30.597 155.613,51.054 C174.849,20.449 208.91,0.101 247.728,0.101 C304.835,0.101
        351.66,44.134 356.103,100.101 C388.516,110.413 412,140.747 412,176.575 C412,220.893 376.072,256.821 331.754,256.821 Z
        M158.47,278.276016 C158.47,309.037016 152.417,326.760016 126.544,335.113016 C146.61,343.565016 251.581,363.928016
        251.581,268.092016 L251.581,209.183016 L288.989,209.183016 L205.026,125.079016 L121.061,209.183016 L158.47,209.183016
        C158.47,209.182016 158.47,251.388016 158.47,278.276016 L158.47,278.276016 Z"/>
    </g>
</svg>