<?xml version="1.0" encoding="utf-8"?>
<!--

    Copyright (c) 2012-2018 Red Hat, Inc.
    This program and the accompanying materials are made
    available under the terms of the Eclipse Public License 2.0
    which is available at https://www.eclipse.org/legal/epl-2.0/

    SPDX-License-Identifier: EPL-2.0

    Contributors:
      Red Hat, Inc. - initial API and implementation

-->
<!DOCTYPE svg PUBLIC "-//W3C//DTD SVG 1.1//EN" "http://www.w3.org/Graphics/SVG/1.1/DTD/svg11.dtd">
<svg version="1.1" xmlns="http://www.w3.org/2000/svg" xmlns:xlink="http://www.w3.org/1999/xlink" x="0px" y="0px" width="32px"
	 height="32px" viewBox="0 0 32 32" enable-background="new 0 0 32 32" xml:space="preserve">
<g id="_x30_9">
	<path id="_x3C_Path_x3E__20_" fill-rule="evenodd" clip-rule="evenodd" fill="#808080" d="M9.477,23c0.8,0,1.439-0.64,1.439-1.439
		v-1.405H8v1.369C8,22.325,8.658,23,9.477,23L9.477,23z M9.765,23.983l0.077-0.011c1.155-0.15,1.954-1.04,2.063-2.177
		c0.007-0.046,0.01-0.071,0.012-0.071c0-3.555,0-7.108,0-10.663c0.516-2.098,2.129-2.044,2.129-2.044
		c1.006,0.017,2.06,0.351,2.094,1.537v1.148h4.572v9.756c0,1.404-1.137,2.542-2.542,2.542H9.765V23.983L9.765,23.983z
		 M17.139,10.524v0.178H24v-0.231C24,9.103,22.898,8,21.529,8h-2.72h-1.671H14.01l0,0C16.818,8.054,17.12,9.92,17.139,10.524z"/>
</g>
</svg>
