<?xml version="1.0" encoding="utf-8"?>
<!--

    Copyright (c) 2012-2018 Red Hat, Inc.
    This program and the accompanying materials are made
    available under the terms of the Eclipse Public License 2.0
    which is available at https://www.eclipse.org/legal/epl-2.0/

    SPDX-License-Identifier: EPL-2.0

    Contributors:
      Red Hat, Inc. - initial API and implementation

-->
<!DOCTYPE svg PUBLIC "-//W3C//DTD SVG 1.1//EN" "http://www.w3.org/Graphics/SVG/1.1/DTD/svg11.dtd">
<svg version="1.1" xmlns="http://www.w3.org/2000/svg" xmlns:xlink="http://www.w3.org/1999/xlink" x="0px" y="0px" width="32px"
	 height="32px" viewBox="0 0 32 32" enable-background="new 0 0 32 32" xml:space="preserve">
<g id="Java_Script">
	<path fill-rule="evenodd" clip-rule="evenodd" fill="#E0B91D" d="M21.701,18.32c0-0.346-0.116-0.615-0.348-0.806
		c-0.23-0.19-0.646-0.391-1.245-0.604c-1.252-0.392-2.179-0.814-2.781-1.268c-0.604-0.45-0.906-1.103-0.906-1.955
		c0-0.828,0.36-1.5,1.08-2.011c0.718-0.512,1.63-0.768,2.737-0.768c1.097,0,1.997,0.284,2.696,0.847
		c0.7,0.565,1.04,1.292,1.017,2.181l-0.011,0.04h-2.232c0-0.393-0.135-0.711-0.401-0.957c-0.268-0.247-0.639-0.369-1.11-0.369
		c-0.462,0-0.823,0.102-1.089,0.304c-0.262,0.204-0.393,0.455-0.393,0.754c0,0.288,0.133,0.521,0.397,0.694
		c0.265,0.174,0.764,0.393,1.492,0.655c1.125,0.336,1.972,0.747,2.541,1.237C23.714,16.785,24,17.456,24,18.313
		c0,0.87-0.339,1.551-1.017,2.04c-0.679,0.493-1.577,0.739-2.698,0.739c-1.124,0-2.097-0.283-2.919-0.848
		c-0.82-0.564-1.219-1.377-1.196-2.438l0.014-0.041h2.239c0,0.568,0.153,0.975,0.462,1.219s0.775,0.366,1.4,0.366
		c0.476,0,0.831-0.095,1.065-0.285C21.582,18.877,21.701,18.629,21.701,18.32L21.701,18.32z M12.6,11.047h2.293v6.794
		c0,0.999-0.329,1.787-0.983,2.373c-0.655,0.585-1.475,0.878-2.46,0.878c-1.074,0-1.924-0.258-2.547-0.775
		c-0.624-0.519-0.925-1.282-0.9-2.293l0.014-0.041h2.243c0,0.48,0.111,0.824,0.335,1.031c0.222,0.207,0.508,0.309,0.855,0.309
		c0.314,0,0.584-0.131,0.811-0.388c0.226-0.258,0.34-0.622,0.34-1.094V11.047z"/>
</g>
</svg>
