<?xml version="1.0" encoding="utf-8"?>
<!--

    Copyright (c) 2012-2018 Red Hat, Inc.
    This program and the accompanying materials are made
    available under the terms of the Eclipse Public License 2.0
    which is available at https://www.eclipse.org/legal/epl-2.0/

    SPDX-License-Identifier: EPL-2.0

    Contributors:
      Red Hat, Inc. - initial API and implementation

-->
<!DOCTYPE svg PUBLIC "-//W3C//DTD SVG 1.1//EN" "http://www.w3.org/Graphics/SVG/1.1/DTD/svg11.dtd">
<svg version="1.1" xmlns="http://www.w3.org/2000/svg" xmlns:xlink="http://www.w3.org/1999/xlink" x="0px" y="0px" width="32px"
	 height="32px" viewBox="0 0 32 32" enable-background="new 0 0 32 32" xml:space="preserve">
<g id="C_x2B__x2B__file">
	<path fill-rule="evenodd" clip-rule="evenodd" fill="#9A5CFF" d="M11.053,10.436c1.535-0.996,3.494-1.295,5.26-0.823
		c1.685,0.44,3.187,1.569,4.047,3.087c-0.95,0.557-1.904,1.106-2.859,1.652c-0.486-0.769-1.252-1.368-2.148-1.563
		c-1.236-0.3-2.609,0.214-3.362,1.234c-0.8,1.024-0.884,2.529-0.213,3.641c0.5,0.849,1.391,1.456,2.368,1.594
		c1.307,0.211,2.687-0.47,3.342-1.615c0.963,0.546,1.92,1.1,2.875,1.659c-0.857,1.501-2.336,2.628-4.005,3.074
		c-1.676,0.459-3.531,0.226-5.035-0.647c-1-0.575-1.847-1.415-2.426-2.413c-0.854-1.443-1.106-3.219-0.716-4.848
		C8.567,12.819,9.624,11.343,11.053,10.436L11.053,10.436z M22.516,14.894c0.252,0,0.504,0,0.755,0c0.001,0.243,0.001,0.486,0,0.729
		c0.243,0,0.487,0,0.73,0c-0.001,0.252-0.001,0.504,0,0.756c-0.243,0-0.487,0-0.73,0c0.001,0.243,0.001,0.486,0,0.728
		c-0.251,0.001-0.503,0.001-0.755,0c0-0.242,0-0.485,0-0.728c-0.243,0-0.486,0-0.729,0c-0.001-0.252-0.001-0.504,0-0.756
		c0.242,0,0.485,0,0.729,0C22.516,15.38,22.516,15.137,22.516,14.894L22.516,14.894z M19.762,14.894c0,0.243,0,0.486,0,0.729
		c-0.243,0-0.486,0-0.729,0c-0.001,0.252-0.001,0.504,0,0.756c0.242,0,0.485,0,0.729,0c0,0.243,0,0.486,0,0.728
		c0.247,0.001,0.494,0.001,0.742,0c0-0.242,0-0.485,0-0.728c0.248,0,0.495,0,0.743,0c-0.001-0.252-0.001-0.504,0-0.756
		c-0.248,0-0.495,0-0.743,0c0-0.243,0-0.486,0-0.729C20.256,14.894,20.009,14.893,19.762,14.894z"/>
</g>
</svg>
