<?xml version="1.0" encoding="UTF-8" standalone="no"?>
<!--

    Copyright (c) 2012-2018 Red Hat, Inc.
    This program and the accompanying materials are made
    available under the terms of the Eclipse Public License 2.0
    which is available at https://www.eclipse.org/legal/epl-2.0/

    SPDX-License-Identifier: EPL-2.0

    Contributors:
      Red Hat, Inc. - initial API and implementation

-->
<svg width="12px" height="12px" viewBox="0 0 10 10" version="1.1" xmlns="http://www.w3.org/2000/svg" xmlns:xlink="http://www.w3.org/1999/xlink">
    <g stroke="none" stroke-width="1" fill="none" fill-rule="evenodd">
        <g transform="translate(-520.000000, -357.000000)" fill="#E4E4E4">
            <g transform="translate(506.000000, 347.000000)">
                <g transform="translate(14.000000, 10.000000)">
                    <path d="M7.034606,4.46539698 L5.96317616,3.39396713 L4.42857611,4.92856717 L3.41271972,3.98394773 L2.42218017,5.08709714 L4.42857609,7.04577642 L7.034606,4.46539698 Z M7.8214373,4.92856717 C7.8214373,6.60267631 6.45982853,7.96428508 4.78571939,7.96428508 C3.11161026,7.96428508 1.75000149,6.60267631 1.75000149,4.92856717 C1.75000149,3.25445803 3.11161026,1.89284927 4.78571939,1.89284927 C6.45982853,1.89284927 7.8214373,3.25445803 7.8214373,4.92856717 L7.8214373,4.92856717 Z M4.78571939,0.642847776 C2.41964515,0.642847776 0.5,2.56249292 0.5,4.92856717 C0.5,7.29464142 2.41964515,9.21428657 4.78571939,9.21428657 C7.15179364,9.21428657 9.07143879,7.29464142 9.07143879,4.92856717 C9.07143879,2.56249292 7.15179364,0.642847776 4.78571939,0.642847776 Z"></path>
                </g>
            </g>
        </g>
    </g>
</svg>
