<!--

    Copyright (c) 2012-2018 Red Hat, Inc.
    This program and the accompanying materials are made
    available under the terms of the Eclipse Public License 2.0
    which is available at https://www.eclipse.org/legal/epl-2.0/

    SPDX-License-Identifier: EPL-2.0

    Contributors:
      Red Hat, Inc. - initial API and implementation

-->
<svg width="32" height="32" viewBox="0 0 32 32" fill="none" xmlns="http://www.w3.org/2000/svg">
<g clip-path="url(#clip0)">
<path fill-rule="evenodd" clip-rule="evenodd" d="M13.36 1.41098C8.42518 0.847533 3.65335 3.38278 1.35813 7.7875C-0.937084 12.1922 -0.28118 17.5558 3.00783 21.2776C3.4954 21.8293 4.33792 21.8813 4.88965 21.3938C5.44138 20.9062 5.49339 20.0637 5.00582 19.5119C2.44771 16.6172 1.93756 12.4455 3.72273 9.01964C5.5079 5.59376 9.21932 3.6219 13.0575 4.06013C16.8956 4.49837 20.067 7.2561 21.034 10.9962C21.1861 11.5847 21.717 11.9957 22.3247 11.9957H24.0046C26.4409 11.9973 28.5669 13.6511 29.1681 16.0131C29.7693 18.375 28.6926 20.844 26.5527 22.0106C25.9063 22.363 25.6679 23.1728 26.0203 23.8192C26.3728 24.4657 27.1825 24.7041 27.829 24.3516C31.0389 22.6017 32.6539 18.8983 31.7521 15.3554C30.8503 11.8125 27.6613 9.33176 24.0054 9.32934H23.3103C21.7919 5.03407 17.9462 1.93463 13.36 1.41098ZM20.3954 22.2707C20.9161 22.7913 21.7602 22.7913 22.2808 22.2707C22.8015 21.7501 22.8015 20.9059 22.2808 20.3853L16.9481 15.0526C16.4275 14.5319 15.5833 14.5319 15.0627 15.0526L9.72998 20.3853C9.20934 20.9059 9.20934 21.7501 9.72998 22.2707C10.2506 22.7913 11.0947 22.7913 11.6154 22.2707L14.665 19.2211V29.33C14.665 30.0663 15.2619 30.6632 15.9982 30.6632C16.7345 30.6632 17.3314 30.0663 17.3314 29.33V19.2067L20.3954 22.2707Z" fill="black"/>
</g>
<defs>
<clipPath id="clip0">
<rect width="32" height="31.9964" fill="white"/>
</clipPath>
</defs>
</svg>
