<svg width="32" height="32" viewBox="0 0 32 32" fill="none" xmlns="http://www.w3.org/2000/svg">
<path fill-rule="evenodd" clip-rule="evenodd" d="M15.9994 29.3333C14.5948 29.3333 13.2921 28.607 12.5598 27.4114L1.21473 8.65438C0.489877 7.41155 0.485614 5.9038 1.19265 4.67535C1.89969 3.4469 3.21184 2.68226 4.63953 2.66672L27.3445 2.66665C28.7869 2.68226 30.099 3.4469 30.8061 4.67535C31.5131 5.9038 31.5088 7.41155 30.7949 8.63606L19.4389 27.4114C18.7066 28.607 17.4039 29.3333 15.9994 29.3333ZM3.51999 5.98916C3.28431 6.39864 3.28573 6.90122 3.52373 7.30939L14.8557 26.0443C15.0988 26.4392 15.5322 26.6803 15.9993 26.6803C16.4675 26.6803 16.9017 26.4382 17.1446 26.0417L28.4858 7.29107C28.7129 6.90122 28.7144 6.39864 28.4787 5.98916C28.243 5.57967 27.8056 5.32479 27.3297 5.31961L4.65423 5.31969C4.19306 5.32479 3.75567 5.57967 3.51999 5.98916Z" fill="black"/>
</svg>
