<?xml version="1.0" encoding="utf-8"?>
<!--

    Copyright (c) 2012-2016 Codenvy, S.A.
    All rights reserved. This program and the accompanying materials
    are made available under the terms of the Eclipse Public License v1.0
    which accompanies this distribution, and is available at
    http://www.eclipse.org/legal/epl-v10.html

    Contributors:
      Codenvy, S.A. - initial API and implementation

-->
<!DOCTYPE svg PUBLIC "-//W3C//DTD SVG 1.1//EN" "http://www.w3.org/Graphics/SVG/1.1/DTD/svg11.dtd">
<svg version="1.1" xmlns="http://www.w3.org/2000/svg" xmlns:xlink="http://www.w3.org/1999/xlink" x="0px" y="0px" width="32px"
	 height="32px" viewBox="0 0 32 32" enable-background="new 0 0 32 32" xml:space="preserve">
<g id="_x31_0">
	<g>
		<path id="_x3C_Path_x3E__22_" fill-rule="evenodd" clip-rule="evenodd" fill="#808080" d="M9,21.5h14.001
			c0.55,0,0.999-0.449,0.999-1v-9c0-0.55-0.449-1-0.999-1H9c-0.55,0-1,0.45-1,1v9C8,21.051,8.45,21.5,9,21.5L9,21.5z M10,12.5h12v7
			H10V12.5z"/>
		<path id="_x3C_Path_x3E__21_" fill-rule="evenodd" clip-rule="evenodd" fill="#3193D4" d="M17.871,16l-0.884-0.884
			c-0.097-0.097-0.097-0.256,0-0.353l0.354-0.354c0.097-0.097,0.256-0.097,0.354,0l1.414,1.415l0,0l0.004,0.004h0.001l0.004,0.005
			l0,0l0.004,0.005l0,0l0.004,0.005h0.001l0.003,0.004h0.001l0.003,0.005l0,0l0.004,0.005l0,0l0.004,0.005l0,0l0.003,0.005l0,0
			l0.003,0.005h0.001l0.002,0.005l0.003,0.005h0.001l0.002,0.005l0.003,0.006l0,0l0.002,0.005h0.001l0.002,0.005l0,0l0.002,0.006
			l0,0l0.002,0.006l0,0l0.002,0.006l0,0l0.002,0.006l0,0l0.002,0.005l0,0l0.001,0.006l0,0l0.002,0.006l0,0l0.001,0.006l0,0
			l0.001,0.005l0,0l0.001,0.006l0.001,0.006l0,0l0.001,0.006v0.006l0,0v0.006v0.006h0.001V16v0.006h-0.001v0.006v0.006l0,0v0.006
			l-0.001,0.006l0,0l-0.001,0.006l-0.001,0.006l0,0l-0.001,0.006l0,0l-0.001,0.006l0,0l-0.002,0.006l0,0l-0.001,0.006l0,0
			l-0.002,0.006l0,0l-0.002,0.006l0,0l-0.002,0.006l0,0l-0.002,0.005l0,0l-0.002,0.006l0,0L19.162,16.1h-0.001l-0.002,0.005l0,0
			l-0.003,0.005l-0.002,0.005h-0.001l-0.003,0.005l-0.002,0.005h-0.001l-0.003,0.005l0,0l-0.003,0.005l0,0l-0.004,0.005l0,0
			l-0.004,0.005l0,0l-0.003,0.005H19.13l-0.003,0.005h-0.001l-0.004,0.005l0,0l-0.004,0.005l0,0l-0.004,0.005h-0.001l-0.004,0.004
			l0,0l-1.414,1.414c-0.098,0.098-0.257,0.098-0.354,0l-0.354-0.354c-0.097-0.097-0.097-0.256,0-0.354L17.871,16L17.871,16z
			 M14.13,16l0.884-0.884c0.097-0.097,0.097-0.256,0-0.353l-0.354-0.354c-0.097-0.097-0.256-0.097-0.353,0l-1.415,1.415l0,0
			l-0.004,0.004h-0.001l-0.004,0.005l0,0l-0.004,0.005l0,0l-0.004,0.005l0,0l-0.004,0.004l0,0l-0.004,0.005l0,0l-0.004,0.005l0,0
			l-0.004,0.005l0,0l-0.003,0.005l0,0l-0.003,0.005l0,0l-0.003,0.005l-0.003,0.005l0,0l-0.003,0.005l-0.003,0.006l0,0L12.84,15.9
			h-0.001l-0.002,0.005l0,0l-0.002,0.006l0,0l-0.002,0.006l0,0l-0.002,0.006l0,0l-0.002,0.006l0,0l-0.002,0.005l0,0l-0.001,0.006
			l0,0l-0.001,0.006h-0.001l-0.001,0.006l0,0l-0.001,0.005l0,0l-0.001,0.006L12.82,15.97l0,0v0.006l-0.001,0.006l0,0v0.006v0.006
			h-0.001V16v0.006h0.001v0.006v0.006l0,0l0.001,0.006v0.006l0,0l0.001,0.006l0.001,0.006l0,0l0.001,0.006l0,0l0.001,0.006h0.001
			l0.001,0.006l0,0l0.001,0.006l0,0l0.002,0.006l0,0l0.002,0.006l0,0l0.002,0.006l0,0l0.002,0.005l0,0l0.002,0.006l0,0l0.002,0.006
			h0.001l0.002,0.005l0,0l0.003,0.005l0.003,0.005l0,0l0.003,0.005l0.003,0.005l0,0l0.003,0.005l0,0l0.003,0.005l0,0l0.004,0.005
			l0,0l0.004,0.005l0,0l0.004,0.005l0,0l0.004,0.005l0,0l0.004,0.005l0,0l0.004,0.005l0,0l0.004,0.005h0.001l0.004,0.004l0,0
			l1.415,1.414c0.097,0.098,0.256,0.098,0.353,0l0.354-0.354c0.097-0.097,0.097-0.256,0-0.354L14.13,16z"/>
	</g>
</g>
</svg>
