<svg xmlns="http://www.w3.org/2000/svg" viewBox="0 0 225 55.37"><defs><style>.a{fill:#fff;}.b{fill:#525c86;}.c{fill:#fdb940;}</style></defs><title>logo-eclipseche</title><path class="a" d="M608,388.12v2H593.48v8.81h13.59v2H593.48v9.63h14.69v2h-17V388.12H608Z" transform="translate(-528.72 -372.69)"/><path class="a" d="M620.95,397.31a4.69,4.69,0,0,0-3.35-1.13,5.44,5.44,0,0,0-2.7.65,5.92,5.92,0,0,0-1.93,1.71,7.76,7.76,0,0,0-1.16,2.41,9.83,9.83,0,0,0,0,5.5,7.75,7.75,0,0,0,1.16,2.41,5.91,5.91,0,0,0,1.93,1.71,5.44,5.44,0,0,0,2.7.65,4.77,4.77,0,0,0,1.88-.38,5.05,5.05,0,0,0,1.57-1,5.57,5.57,0,0,0,1.13-1.59,5.87,5.87,0,0,0,.55-2h2.15a8.13,8.13,0,0,1-2.36,5A6.9,6.9,0,0,1,617.6,413a8.26,8.26,0,0,1-3.57-.73,7.57,7.57,0,0,1-2.61-2,8.72,8.72,0,0,1-1.61-3,12.16,12.16,0,0,1,0-7.21,8.72,8.72,0,0,1,1.61-3,7.78,7.78,0,0,1,2.61-2,8.1,8.1,0,0,1,3.57-.75,7.66,7.66,0,0,1,4.8,1.5,6.42,6.42,0,0,1,2.34,4.54h-2.15A5.92,5.92,0,0,0,620.95,397.31Z" transform="translate(-528.72 -372.69)"/><path class="a" d="M629,388.12v24.39h-2.15V388.12H629Z" transform="translate(-528.72 -372.69)"/><path class="a" d="M634.61,388.12v3.45h-2.15v-3.45h2.15Zm0,6.76v17.62h-2.15V394.88h2.15Z" transform="translate(-528.72 -372.69)"/><path class="a" d="M640,394.88v3.35h0.07a5.76,5.76,0,0,1,2.44-2.85,7.36,7.36,0,0,1,3.84-1,7.67,7.67,0,0,1,3.5.75,7.19,7.19,0,0,1,2.48,2,8.66,8.66,0,0,1,1.47,3,13.54,13.54,0,0,1,0,7.14,8.66,8.66,0,0,1-1.47,3,7,7,0,0,1-2.48,2,8.35,8.35,0,0,1-5.41.5,6.74,6.74,0,0,1-1.78-.72,5.84,5.84,0,0,1-1.45-1.2,5.07,5.07,0,0,1-1-1.67h-0.07V419H638V394.88h2Zm11.8,6.1a7.54,7.54,0,0,0-1-2.41,5.64,5.64,0,0,0-1.79-1.72,5,5,0,0,0-2.63-.67,6.44,6.44,0,0,0-3,.61,5.16,5.16,0,0,0-1.91,1.64,6.45,6.45,0,0,0-1,2.39,13.76,13.76,0,0,0-.29,2.87,11.51,11.51,0,0,0,.32,2.72,7,7,0,0,0,1.06,2.41,5.69,5.69,0,0,0,1.91,1.72,5.78,5.78,0,0,0,2.89.67,5,5,0,0,0,2.63-.67,5.64,5.64,0,0,0,1.79-1.72,7.53,7.53,0,0,0,1-2.41A11.55,11.55,0,0,0,651.81,401Z" transform="translate(-528.72 -372.69)"/><path class="a" d="M666.61,398.32a3.49,3.49,0,0,0-1-1.21,4.21,4.21,0,0,0-1.45-.7,6.64,6.64,0,0,0-1.74-.22,7.07,7.07,0,0,0-1.45.15,4.46,4.46,0,0,0-1.35.51,2.9,2.9,0,0,0-1,.94,2.58,2.58,0,0,0-.38,1.43,2,2,0,0,0,.36,1.21,3.17,3.17,0,0,0,.9.84,5.75,5.75,0,0,0,1.2.56q0.65,0.22,1.19.36l2.87,0.65a8.2,8.2,0,0,1,1.83.5,5.9,5.9,0,0,1,1.6.94,4.59,4.59,0,0,1,1.14,1.43,4.32,4.32,0,0,1,.44,2,4.42,4.42,0,0,1-.65,2.44,5.3,5.3,0,0,1-1.66,1.64,7,7,0,0,1-2.27.91,11.8,11.8,0,0,1-2.49.27,8.09,8.09,0,0,1-5-1.47,6.25,6.25,0,0,1-2.2-4.71h2.15a4.24,4.24,0,0,0,1.59,3.3,5.75,5.75,0,0,0,3.6,1.11,8.08,8.08,0,0,0,1.62-.17,5.19,5.19,0,0,0,1.55-.58,3.7,3.7,0,0,0,1.18-1,2.56,2.56,0,0,0,.46-1.55,2.47,2.47,0,0,0-.32-1.31,2.82,2.82,0,0,0-.87-0.89,5.49,5.49,0,0,0-1.25-.6q-0.7-.24-1.42-0.41L661,404a15.58,15.58,0,0,1-1.95-.63,6.2,6.2,0,0,1-1.55-.89,3.73,3.73,0,0,1-1-1.3,4.3,4.3,0,0,1-.38-1.9,4.23,4.23,0,0,1,.6-2.29,4.67,4.67,0,0,1,1.55-1.54,7.22,7.22,0,0,1,2.13-.85,10.32,10.32,0,0,1,2.34-.27,8.63,8.63,0,0,1,2.48.34,5.7,5.7,0,0,1,2,1.06,5.2,5.2,0,0,1,1.38,1.78,6.38,6.38,0,0,1,.58,2.49H667A4.06,4.06,0,0,0,666.61,398.32Z" transform="translate(-528.72 -372.69)"/><path class="a" d="M673.47,406.68a6.62,6.62,0,0,0,1,2.24,6,6,0,0,0,1.81,1.64,5.06,5.06,0,0,0,2.63.65,5.23,5.23,0,0,0,3.69-1.23,6.47,6.47,0,0,0,1.84-3.28h2.15a8.6,8.6,0,0,1-2.51,4.64,7.49,7.49,0,0,1-5.17,1.64,8.2,8.2,0,0,1-3.6-.73,6.62,6.62,0,0,1-2.48-2,8.75,8.75,0,0,1-1.42-3,13.48,13.48,0,0,1-.46-3.57,12.78,12.78,0,0,1,.46-3.42,9.17,9.17,0,0,1,1.42-3,7.11,7.11,0,0,1,2.48-2.12,7.62,7.62,0,0,1,3.6-.8,7,7,0,0,1,6.06,3.09,9.3,9.3,0,0,1,1.35,3.18,13.94,13.94,0,0,1,.34,3.64H673.14A9.53,9.53,0,0,0,673.47,406.68Zm10.66-6.57a6.45,6.45,0,0,0-1.11-2,5.49,5.49,0,0,0-1.74-1.4,5,5,0,0,0-2.32-.53,5.06,5.06,0,0,0-2.36.53,5.5,5.5,0,0,0-1.74,1.4,7,7,0,0,0-1.14,2,9.82,9.82,0,0,0-.56,2.34h11.41A7.8,7.8,0,0,0,684.12,400.11Z" transform="translate(-528.72 -372.69)"/><path class="a" d="M715.24,393a6.87,6.87,0,0,0-1.71-1.86,7.62,7.62,0,0,0-2.22-1.14,8.22,8.22,0,0,0-2.54-.39,8.79,8.79,0,0,0-4.17.92,8.25,8.25,0,0,0-2.85,2.44,10.54,10.54,0,0,0-1.64,3.43,14.77,14.77,0,0,0,0,7.84,10.51,10.51,0,0,0,1.64,3.45,8.25,8.25,0,0,0,2.85,2.44,8.79,8.79,0,0,0,4.17.92,7.41,7.41,0,0,0,3.07-.61,7.28,7.28,0,0,0,2.36-1.67,8.56,8.56,0,0,0,1.6-2.48,10.32,10.32,0,0,0,.79-3.06h2.32a13.18,13.18,0,0,1-1.06,4.06,10,10,0,0,1-2.12,3.07,9,9,0,0,1-3.06,1.95,10.73,10.73,0,0,1-3.91.68,11.51,11.51,0,0,1-5-1,10.44,10.44,0,0,1-3.6-2.78,11.83,11.83,0,0,1-2.15-4,16.53,16.53,0,0,1,0-9.63,12,12,0,0,1,2.15-4,10.35,10.35,0,0,1,3.6-2.8,12.2,12.2,0,0,1,8.44-.53,9.85,9.85,0,0,1,3,1.52,8.87,8.87,0,0,1,2.25,2.48,8.35,8.35,0,0,1,1.14,3.38h-2.32A7.78,7.78,0,0,0,715.24,393Z" transform="translate(-528.72 -372.69)"/><path class="a" d="M723.42,388.12v9.8h0.07a5.16,5.16,0,0,1,2.19-2.58,6.42,6.42,0,0,1,3.45-1,8.7,8.7,0,0,1,3.09.48,4.91,4.91,0,0,1,2,1.35,5,5,0,0,1,1.06,2.13,12,12,0,0,1,.31,2.83v11.34h-2.15v-11a10.16,10.16,0,0,0-.21-2.1,4.43,4.43,0,0,0-.72-1.69,3.48,3.48,0,0,0-1.38-1.13,5.08,5.08,0,0,0-2.17-.41,5.48,5.48,0,0,0-2.31.46,5,5,0,0,0-1.71,1.26,5.85,5.85,0,0,0-1.09,1.91,7.78,7.78,0,0,0-.43,2.41v10.28h-2.15V388.12h2.15Z" transform="translate(-528.72 -372.69)"/><path class="a" d="M740.48,406.68a6.62,6.62,0,0,0,1,2.24,6,6,0,0,0,1.81,1.64,5.06,5.06,0,0,0,2.63.65,5.23,5.23,0,0,0,3.69-1.23,6.47,6.47,0,0,0,1.84-3.28h2.15a8.6,8.6,0,0,1-2.51,4.64A7.49,7.49,0,0,1,746,413a8.2,8.2,0,0,1-3.6-.73,6.62,6.62,0,0,1-2.48-2,8.75,8.75,0,0,1-1.42-3,13.48,13.48,0,0,1-.46-3.57,12.78,12.78,0,0,1,.46-3.42,9.17,9.17,0,0,1,1.42-3,7.11,7.11,0,0,1,2.48-2.12,7.62,7.62,0,0,1,3.6-.8,7,7,0,0,1,6.06,3.09,9.3,9.3,0,0,1,1.35,3.18,13.94,13.94,0,0,1,.34,3.64H740.15A9.53,9.53,0,0,0,740.48,406.68Zm10.66-6.57a6.45,6.45,0,0,0-1.11-2,5.49,5.49,0,0,0-1.74-1.4,5,5,0,0,0-2.32-.53,5.06,5.06,0,0,0-2.36.53,5.5,5.5,0,0,0-1.74,1.4,7,7,0,0,0-1.14,2,9.82,9.82,0,0,0-.56,2.34h11.41A7.8,7.8,0,0,0,751.13,400.11Z" transform="translate(-528.72 -372.69)"/><polygon class="b" points="0 24.29 0 41.53 23.98 55.37 47.95 41.53 47.95 24.29 23.98 38.13 0 24.29"/><polygon class="c" points="23.98 0 0 13.84 0 31.08 23.98 17.24 33.02 22.46 47.95 13.84 23.98 0"/></svg>