<?xml version="1.0" encoding="utf-8"?>
<!--

    Copyright (c) 2012-2017 Codenvy, S.A.
    All rights reserved. This program and the accompanying materials
    are made available under the terms of the Eclipse Public License v1.0
    which accompanies this distribution, and is available at
    http://www.eclipse.org/legal/epl-v10.html

    Contributors:
      Codenvy, S.A. - initial API and implementation

-->
<!DOCTYPE svg PUBLIC "-//W3C//DTD SVG 1.1//EN" "http://www.w3.org/Graphics/SVG/1.1/DTD/svg11.dtd">
<svg version="1.1" xmlns="http://www.w3.org/2000/svg" xmlns:xlink="http://www.w3.org/1999/xlink" x="0px" y="0px" width="16px"
	 height="16px" viewBox="0 0 32 32" enable-background="new 0 0 32 32" xml:space="preserve">
<g id="_x30_1">
	<g>
		<path id="_x3C_Path_x3E__3_" fill-rule="evenodd" clip-rule="evenodd" fill="#808080" d="M22,8h-1v6h0.448
			c0.043,0,0.081,0.017,0.11,0.046L22,14.49V8L22,8z M21,21.001V24h1v-2.999H21z"/>
		<path id="_x3C_Path_x3E__2_" fill-rule="evenodd" clip-rule="evenodd" fill="#E0B91D" d="M13.751,20.001H10.25
			c-0.137,0-0.25,0.112-0.25,0.249v0.501c0,0.137,0.112,0.25,0.25,0.25h3.501c0.137,0,0.25-0.112,0.25-0.25V20.25
			C14,20.112,13.887,20.001,13.751,20.001L13.751,20.001z M13.751,18.501H10.25c-0.137,0-0.25,0.112-0.25,0.249v0.501
			c0,0.137,0.112,0.25,0.25,0.25h3.501c0.137,0,0.25-0.112,0.25-0.25V18.75C14,18.612,13.887,18.501,13.751,18.501z"/>
		<path id="_x3C_Path_x3E__1_" fill-rule="evenodd" clip-rule="evenodd" fill="#E0B91D" d="M8.156,14H10v-2.843
			C10,11.071,10.07,11,10.156,11h5.292c0.043,0,0.08,0.016,0.111,0.046l2.396,2.408c0.03,0.03,0.045,0.067,0.045,0.11v7.28
			c0,0.086-0.07,0.156-0.156,0.156H16v2.843C16,23.93,15.93,24,15.844,24H8.156C8.071,24,8,23.93,8,23.844v-9.688
			C8,14.07,8.07,14,8.156,14L8.156,14z M11,14h2.448c0.043,0,0.08,0.016,0.111,0.046l2.396,2.408c0.03,0.03,0.045,0.067,0.045,0.11
			v3.437h1.001v-5.675h-1.444c-0.275,0-0.5-0.225-0.5-0.5V12H11V14L11,14z M13.057,15H9v8h6v-5.675h-1.444
			c-0.275,0-0.5-0.225-0.5-0.5V15z"/>
		<path id="_x3C_Path_x3E_" fill-rule="evenodd" clip-rule="evenodd" fill="#3193D4" d="M19.155,14h2.293
			c0.043,0,0.081,0.017,0.11,0.046l2.396,2.408C23.984,16.483,24,16.523,24,16.564v4.28c0,0.083-0.072,0.156-0.156,0.156h-4.688
			c-0.083,0-0.156-0.07-0.156-0.156v-6.688C18.999,14.071,19.069,14,19.155,14L19.155,14z M21.057,15H20v5.001h3v-2.676h-1.443
			c-0.275,0-0.5-0.224-0.5-0.499V15z"/>
		<path fill-rule="evenodd" clip-rule="evenodd" fill="#808080" d="M15.689,19.001l0.384,0.384c0.097,0.098,0.097,0.256,0,0.354
			l-0.354,0.354c-0.097,0.098-0.256,0.098-0.354,0l-1.414-1.414h0l-0.004-0.005l0,0l-0.004-0.005h0l-0.004-0.005h0l-0.003-0.005h0
			l-0.003-0.005h0l-0.003-0.005l0,0l-0.003-0.005h0l-0.003-0.005l0,0l-0.003-0.006h0l-0.003-0.005h0l-0.003-0.006l-0.002-0.005h0
			l-0.002-0.006l-0.002-0.005h0l-0.002-0.006l0,0l-0.002-0.006h0l-0.002-0.006l0,0l-0.002-0.005h0l-0.001-0.006h0l-0.001-0.006l0,0
			l-0.001-0.006h0l-0.001-0.006l0,0l-0.001-0.006l0,0l-0.001-0.006h0l0-0.006h0l-0.001-0.006l0-0.006h0l0-0.006v-0.007h0v-0.006
			v-0.006h0v-0.006v-0.006h0v-0.006v-0.006h0v-0.007l0-0.006h0l0-0.006l0.001-0.006h0l0-0.006h0l0.001-0.006l0,0l0.001-0.006l0,0
			l0.001-0.006h0l0.001-0.006l0,0l0.001-0.006h0l0.001-0.006h0l0.002-0.006l0,0l0.002-0.005h0l0.002-0.006l0,0l0.002-0.006h0
			l0.002-0.006l0.002-0.005h0l0.002-0.006l0.003-0.005h0l0.003-0.006h0l0.003-0.005l0,0l0.003-0.005h0l0.003-0.005l0,0l0.003-0.006
			h0l0.003-0.004h0l0.003-0.005h0l0.004-0.005h0l0.004-0.005l0,0l0.004-0.005h0l1.414-1.414c0.098-0.098,0.256-0.098,0.354,0
			l0.354,0.354c0.097,0.097,0.097,0.256,0,0.354l-0.384,0.384c1.208,0,2.414,0,3.621,0l-0.384-0.384
			c-0.097-0.098-0.097-0.257,0-0.354l0.354-0.354c0.097-0.098,0.256-0.098,0.353,0l1.415,1.414l0,0l0.004,0.005h0.001l0.004,0.005
			l0,0l0.004,0.005l0,0l0.004,0.005l0,0l0.004,0.004l0,0l0.004,0.006l0,0l0.004,0.005l0,0l0.004,0.005l0,0l0.003,0.005l0,0
			l0.003,0.006l0,0l0.003,0.005l0.003,0.006h0.001l0.002,0.005l0.003,0.006l0,0l0.002,0.006h0.001l0.002,0.006l0,0l0.002,0.005l0,0
			l0.002,0.006l0,0l0.002,0.006l0,0l0.002,0.006l0,0l0.002,0.006l0,0l0.001,0.006l0,0l0.001,0.006h0.001l0.001,0.006l0,0
			l0.001,0.006l0,0l0.001,0.006l0.001,0.006l0,0v0.006l0.001,0.007l0,0v0.006v0.006h0.001v0.006v0.006H21.12v0.006v0.006l0,0
			l-0.001,0.007v0.006l0,0l-0.001,0.006l-0.001,0.006l0,0l-0.001,0.006l0,0l-0.001,0.006h-0.001l-0.001,0.006l0,0l-0.001,0.006l0,0
			l-0.002,0.006l0,0l-0.002,0.006l0,0l-0.002,0.006l0,0l-0.002,0.005l0,0l-0.002,0.006l0,0l-0.002,0.006H21.1l-0.002,0.006l0,0
			l-0.003,0.005l-0.002,0.006h-0.001l-0.003,0.005l-0.003,0.006l0,0l-0.003,0.005l0,0l-0.003,0.006l0,0l-0.004,0.005l0,0
			l-0.004,0.005l0,0l-0.004,0.005l0,0l-0.004,0.005l0,0l-0.004,0.005l0,0l-0.004,0.005l0,0l-0.004,0.005h-0.001l-0.004,0.005l0,0
			l-1.415,1.414c-0.097,0.098-0.256,0.098-0.353,0l-0.354-0.354c-0.097-0.098-0.097-0.256,0-0.354l0.384-0.384
			C18.103,19.001,16.896,19.001,15.689,19.001z"/>
	</g>
</g>
</svg>
