<?xml version="1.0" encoding="utf-8"?>
<!--

    Copyright (c) 2012-2017 Codenvy, S.A.
    All rights reserved. This program and the accompanying materials
    are made available under the terms of the Eclipse Public License v1.0
    which accompanies this distribution, and is available at
    http://www.eclipse.org/legal/epl-v10.html

    Contributors:
      Codenvy, S.A. - initial API and implementation

-->
<!DOCTYPE svg PUBLIC "-//W3C//DTD SVG 1.1//EN" "http://www.w3.org/Graphics/SVG/1.1/DTD/svg11.dtd">
<svg version="1.1" xmlns="http://www.w3.org/2000/svg" xmlns:xlink="http://www.w3.org/1999/xlink" x="0px" y="0px" width="16px"
	 height="16px" viewBox="0 0 32 32" enable-background="new 0 0 32 32" xml:space="preserve">
<g id="_x30_5">
	<g>
		<path id="_x3C_Path_x3E__15_" fill-rule="evenodd" clip-rule="evenodd" fill="#808080" d="M19.5,24v-5.106h1V24H19.5L19.5,24z
			 M19.5,13.957V8h1v5.957H19.5z"/>
		<path id="_x3C_Path_x3E__14_" fill-rule="evenodd" clip-rule="evenodd" fill="#E0B91D" d="M16.213,13.957h4.412l0.863-0.785
			c0.047-0.042,0.108-0.066,0.172-0.066h2.042c0.141,0,0.298,0.072,0.298,0.212v5.277c0,0.141-0.157,0.298-0.298,0.298h-7.489
			c-0.141,0-0.213-0.157-0.213-0.298V14.17C16,14.029,16.072,13.957,16.213,13.957L16.213,13.957z M17,14.957v2.937h6v-3.788h-1.053
			l-0.936,0.851H17z"/>
		<path id="_x3C_Path_x3E__13_" fill-rule="evenodd" clip-rule="evenodd" fill="#808080" d="M12.068,18.5l-0.384-0.384
			c-0.098-0.098-0.098-0.256,0-0.353l0.354-0.354c0.097-0.098,0.256-0.098,0.354,0l1.414,1.414l0,0l0.005,0.005l0,0l0.004,0.005l0,0
			l0.004,0.005h0.001l0.003,0.005h0.001l0.004,0.005l0,0l0.003,0.005h0.001l0.003,0.005l0,0l0.004,0.006l0,0l0.003,0.005l0,0
			l0.004,0.005l0,0l0.003,0.006l0.003,0.005l0,0l0.002,0.006l0.003,0.006l0,0l0.003,0.005l0,0l0.002,0.006l0,0l0.002,0.006h0.001
			l0.001,0.006h0.001l0.001,0.006h0.001l0.001,0.006l0,0l0.002,0.005l0,0l0.001,0.006h0.001l0.001,0.007l0,0l0.001,0.006l0,0
			l0.001,0.005l0,0l0.001,0.006l0.001,0.007l0,0l0.001,0.006v0.006l0,0l0.001,0.006v0.006l0,0V19v0.006l0,0v0.007l-0.001,0.006l0,0
			v0.006l-0.001,0.006l0,0l-0.001,0.006l-0.001,0.006l0,0l-0.001,0.006l0,0l-0.001,0.006l0,0l-0.001,0.006h-0.001l-0.001,0.006l0,0
			l-0.002,0.006l0,0l-0.001,0.006h-0.001l-0.001,0.006h-0.001l-0.001,0.006h-0.001l-0.002,0.006l0,0l-0.002,0.006l0,0l-0.003,0.005
			l0,0l-0.003,0.006l-0.002,0.005l0,0l-0.003,0.006l-0.003,0.005l0,0l-0.004,0.006l0,0l-0.003,0.005l0,0l-0.004,0.005l0,0
			l-0.003,0.006H13.83l-0.003,0.005l0,0l-0.004,0.005h-0.001l-0.003,0.005h-0.001l-0.004,0.005l0,0l-0.004,0.005l0,0l-0.005,0.004
			l0,0l-1.414,1.415c-0.098,0.097-0.257,0.097-0.354,0l-0.354-0.354c-0.098-0.097-0.098-0.256,0-0.354l0.384-0.384H8.25
			C8.113,19.5,8,19.388,8,19.251V18.75c0-0.138,0.112-0.25,0.25-0.25H12.068L12.068,18.5z M12.068,12.5l-0.384-0.384
			c-0.098-0.098-0.098-0.256,0-0.354l0.354-0.354c0.097-0.097,0.256-0.097,0.354,0l1.414,1.415l0,0l0.005,0.005l0,0l0.004,0.004l0,0
			l0.004,0.005h0.001l0.003,0.005h0.001l0.004,0.005l0,0l0.003,0.005h0.001l0.003,0.005l0,0l0.004,0.005l0,0l0.003,0.005l0,0
			l0.004,0.005l0,0l0.003,0.005l0.003,0.005l0,0l0.002,0.005l0.003,0.006l0,0l0.003,0.005l0,0l0.002,0.005l0,0l0.002,0.006h0.001
			l0.001,0.005h0.001l0.001,0.006h0.001l0.001,0.005l0,0l0.002,0.006l0,0l0.001,0.006h0.001l0.001,0.006l0,0l0.001,0.006l0,0
			l0.001,0.006l0,0l0.001,0.006l0.001,0.006l0,0l0.001,0.006v0.006l0,0l0.001,0.006v0.006l0,0V13v0.006l0,0v0.006l-0.001,0.006l0,0
			v0.006l-0.001,0.006l0,0l-0.001,0.006l-0.001,0.006l0,0l-0.001,0.005l0,0l-0.001,0.006l0,0l-0.001,0.006h-0.001l-0.001,0.006l0,0
			l-0.002,0.006l0,0l-0.001,0.005h-0.001l-0.001,0.006h-0.001l-0.001,0.006h-0.001l-0.002,0.006l0,0L13.858,13.1l0,0l-0.003,0.005
			l0,0l-0.003,0.006l-0.002,0.005l0,0l-0.003,0.005l-0.003,0.005l0,0l-0.004,0.005l0,0l-0.003,0.005l0,0l-0.004,0.005l0,0
			l-0.003,0.005H13.83l-0.003,0.005l0,0l-0.004,0.005h-0.001l-0.003,0.005h-0.001l-0.004,0.004l0,0l-0.004,0.005l0,0l-0.005,0.005
			l0,0l-1.414,1.415c-0.098,0.097-0.257,0.097-0.354,0l-0.354-0.354c-0.098-0.097-0.098-0.255,0-0.353l0.384-0.384H8.25
			C8.113,13.5,8,13.388,8,13.25V12.75c0-0.137,0.112-0.25,0.25-0.25H12.068z"/>
	</g>
</g>
</svg>
