<?xml version="1.0" encoding="utf-8"?>
<!--

    Copyright (c) 2012-2017 Codenvy, S.A.
    All rights reserved. This program and the accompanying materials
    are made available under the terms of the Eclipse Public License v1.0
    which accompanies this distribution, and is available at
    http://www.eclipse.org/legal/epl-v10.html

    Contributors:
      Codenvy, S.A. - initial API and implementation

-->
<!DOCTYPE svg PUBLIC "-//W3C//DTD SVG 1.1//EN" "http://www.w3.org/Graphics/SVG/1.1/DTD/svg11.dtd">
<svg version="1.1" xmlns="http://www.w3.org/2000/svg" xmlns:xlink="http://www.w3.org/1999/xlink" x="0px" y="0px" width="16px"
	 height="16px" viewBox="0 0 32 32" enable-background="new 0 0 32 32" xml:space="preserve">
<g id="_x30_6">
	<g>
		<path id="_x3C_Path_x3E__18_" fill-rule="evenodd" clip-rule="evenodd" fill="#3193D4" d="M19.155,12.5h2.293
			c0.043,0,0.081,0.017,0.11,0.046l2.396,2.408C23.984,14.983,24,15.023,24,15.064v4.28c0,0.084-0.072,0.156-0.156,0.156h-4.688
			C19.072,19.5,19,19.43,19,19.344v-6.688C19,12.57,19.069,12.5,19.155,12.5L19.155,12.5z M21.057,13.5H20v5h3v-2.675h-1.443
			c-0.275,0-0.5-0.225-0.5-0.5V13.5z"/>
		<path id="_x3C_Path_x3E__17_" fill-rule="evenodd" clip-rule="evenodd" fill="#808080" d="M21,24v-4.5h1V24H21L21,24z M21,12.5V8
			h1v4.989l-0.441-0.443c-0.029-0.029-0.067-0.046-0.11-0.046H21z"/>
		<path id="_x3C_Path_x3E__16_" fill-rule="evenodd" clip-rule="evenodd" fill="#808080" d="M12.068,18.5l-0.384-0.384
			c-0.098-0.098-0.098-0.256,0-0.353l0.354-0.354c0.098-0.098,0.256-0.098,0.354,0l1.414,1.414l0,0l0.005,0.005l0,0l0.004,0.005l0,0
			l0.004,0.005h0.001l0.003,0.005h0.001l0.003,0.005h0.001l0.003,0.005h0.001l0.003,0.005l0,0l0.004,0.006l0,0l0.003,0.005l0,0
			l0.004,0.005l0,0l0.003,0.006l0.003,0.005l0,0l0.003,0.006l0.002,0.006l0,0l0.003,0.005l0,0l0.002,0.006l0,0l0.002,0.006h0.001
			l0.001,0.006h0.001l0.002,0.006l0,0l0.001,0.006h0.001l0.001,0.005l0,0l0.001,0.006h0.001l0.001,0.007l0,0l0.001,0.006l0,0
			l0.001,0.005l0,0l0.001,0.006l0.001,0.007l0,0l0.001,0.006v0.006l0,0l0.001,0.006v0.006l0,0V19v0.006l0,0v0.007l-0.001,0.006l0,0
			v0.006l-0.001,0.006l0,0l-0.001,0.006l-0.001,0.006l0,0l-0.001,0.006l0,0l-0.001,0.006l0,0l-0.001,0.006h-0.001l-0.001,0.006l0,0
			l-0.001,0.006h-0.001l-0.001,0.006l0,0l-0.002,0.006h-0.001l-0.001,0.006h-0.001l-0.002,0.006l0,0l-0.002,0.006l0,0l-0.003,0.005
			l0,0l-0.002,0.006l-0.003,0.005l0,0l-0.003,0.006l-0.003,0.005l0,0l-0.004,0.006l0,0l-0.003,0.005l0,0l-0.004,0.005l0,0
			l-0.003,0.006H13.83l-0.003,0.005h-0.001l-0.003,0.005h-0.001l-0.003,0.005h-0.001l-0.004,0.005l0,0l-0.004,0.005l0,0
			l-0.005,0.004l0,0l-1.414,1.415c-0.098,0.097-0.256,0.097-0.354,0l-0.354-0.354c-0.098-0.097-0.098-0.256,0-0.354l0.384-0.384
			H8.25C8.113,19.5,8,19.388,8,19.251V18.75c0-0.138,0.112-0.25,0.25-0.25H12.068L12.068,18.5z M12.068,12.5l-0.384-0.384
			c-0.098-0.098-0.098-0.256,0-0.354l0.354-0.354c0.098-0.097,0.256-0.097,0.354,0l1.414,1.415l0,0l0.005,0.005l0,0l0.004,0.004l0,0
			l0.004,0.005h0.001l0.003,0.005h0.001l0.003,0.005h0.001l0.003,0.005h0.001l0.003,0.005l0,0l0.004,0.005l0,0l0.003,0.005l0,0
			l0.004,0.005l0,0l0.003,0.005l0.003,0.005l0,0l0.003,0.005l0.002,0.006l0,0l0.003,0.005l0,0l0.002,0.005l0,0l0.002,0.006h0.001
			l0.001,0.005h0.001l0.002,0.006l0,0l0.001,0.005h0.001l0.001,0.006l0,0l0.001,0.006h0.001l0.001,0.006l0,0l0.001,0.006l0,0
			l0.001,0.006l0,0l0.001,0.006l0.001,0.006l0,0l0.001,0.006v0.006l0,0l0.001,0.006v0.006l0,0V13v0.006l0,0v0.006l-0.001,0.006l0,0
			v0.006l-0.001,0.006l0,0l-0.001,0.006l-0.001,0.006l0,0l-0.001,0.005l0,0l-0.001,0.006l0,0l-0.001,0.006h-0.001l-0.001,0.006l0,0
			l-0.001,0.006h-0.001l-0.001,0.005l0,0l-0.002,0.006h-0.001l-0.001,0.006h-0.001l-0.002,0.006l0,0L13.858,13.1l0,0l-0.003,0.005
			l0,0l-0.002,0.006l-0.003,0.005l0,0l-0.003,0.005l-0.003,0.005l0,0l-0.004,0.005l0,0l-0.003,0.005l0,0l-0.004,0.005l0,0
			l-0.003,0.005H13.83l-0.003,0.005h-0.001l-0.003,0.005h-0.001l-0.003,0.005h-0.001l-0.004,0.004l0,0l-0.004,0.005l0,0
			l-0.005,0.005l0,0l-1.414,1.415c-0.098,0.097-0.256,0.097-0.354,0l-0.354-0.354c-0.098-0.097-0.098-0.255,0-0.353l0.384-0.384
			H8.25C8.113,13.5,8,13.388,8,13.25V12.75c0-0.137,0.112-0.25,0.25-0.25H12.068z"/>
	</g>
</g>
</svg>
