<?xml version="1.0" encoding="utf-8"?>
<!--

    Copyright (c) 2012-2018 Red Hat, Inc.
    This program and the accompanying materials are made
    available under the terms of the Eclipse Public License 2.0
    which is available at https://www.eclipse.org/legal/epl-2.0/

    SPDX-License-Identifier: EPL-2.0

    Contributors:
      Red Hat, Inc. - initial API and implementation

-->
<svg version="1.1" id="annotation_type" xmlns="http://www.w3.org/2000/svg" xmlns:xlink="http://www.w3.org/1999/xlink" x="0px"
	  width="16px" height="16px" viewBox="7 7 18 18" enable-background="new 0 0 32 32" xml:space="preserve">
<g>
	<path fill-rule="evenodd" clip-rule="evenodd" fill="#3193D4" d="M16,24c4.406,0,8-3.594,8-8c0-4.406-3.594-8-8-8
		c-4.406,0-8,3.594-8,8C8,20.406,11.594,24,16,24z"/>
	<path fill-rule="evenodd" clip-rule="evenodd" fill="#FFFFFF" d="M16.701,17.732c-0.389,0.407-0.926,0.667-1.495,0.667
		c-1.208,0-1.813-0.786-1.813-1.952c0-1.473,1.001-3.035,2.591-3.035c0.49,0,0.958,0.168,1.269,0.532l0.028-0.147
		c0.013-0.084,0.083-0.172,0.174-0.172h0.6c0.066,0,0.105,0.044,0.138,0.087c0.041,0.041,0.05,0.111,0.04,0.167l-0.611,3.122
		c-0.016,0.075-0.023,0.146-0.023,0.224c0,0.182,0.01,0.233,0.189,0.233c0.875-0.027,1.371-0.579,1.371-1.458
		c0-1.923-1.234-3.155-3.157-3.155c-1.741,0-3.16,1.413-3.16,3.155s1.419,3.156,3.16,3.156c0.727,0,1.432-0.252,1.993-0.708
		c0.111-0.095,0.278-0.083,0.367,0.03l0.215,0.256c0.04,0.057,0.061,0.122,0.052,0.191c-0.009,0.068-0.043,0.131-0.096,0.174
		c-0.713,0.581-1.611,0.902-2.531,0.902C13.798,20.001,12,18.203,12,16c0-2.204,1.798-4,4.002-4C18.389,12,20,13.614,20,16
		c0,1.334-0.847,2.261-2.188,2.303c-0.055,0-0.108,0.006-0.163,0.006c-0.292,0-0.595-0.076-0.795-0.303
		C16.781,17.925,16.732,17.832,16.701,17.732L16.701,17.732z M16.941,15.385c0-0.604-0.276-1.071-0.924-1.071
		c-1.07,0-1.654,1.162-1.654,2.098c0,0.625,0.27,1.093,0.94,1.093C16.33,17.504,16.941,16.292,16.941,15.385z"/>
</g>
</svg>
