<?xml version="1.0" encoding="utf-8"?>
<!--

    Copyright (c) 2012-2018 Red Hat, Inc.
    This program and the accompanying materials are made
    available under the terms of the Eclipse Public License 2.0
    which is available at https://www.eclipse.org/legal/epl-2.0/

    SPDX-License-Identifier: EPL-2.0

    Contributors:
      Red Hat, Inc. - initial API and implementation

-->
<svg version="1.1" id="externalLibraries" xmlns="http://www.w3.org/2000/svg" xmlns:xlink="http://www.w3.org/1999/xlink" x="0px" y="0px"
     width="16px" height="16px" viewBox="7 7 18 18" enable-background="new 0 0 32 32" xml:space="preserve">
    <g>
            <path fill-rule="evenodd" clip-rule="evenodd" fill="#72AD42" d="M22.737,11.292c-0.109-0.085-0.249-0.104-0.372-0.051
                l-5.948,2.575c-0.258,0.113-0.582,0.167-0.914,0.167c-0.464,0.001-0.943-0.107-1.277-0.254c-0.12-0.051-0.22-0.108-0.291-0.16
                c0.026-0.012,0.056-0.026,0.091-0.04l5.41-2.342l0.808,0.346v-1.009c0-0.15-0.063-0.292-0.173-0.377
                c-0.109-0.085-0.249-0.104-0.371-0.051l-5.954,2.575c-0.183,0.074-0.341,0.165-0.475,0.297c-0.131,0.128-0.244,0.34-0.242,0.575
                c0,0.006,0.002,0.017,0.002,0.017v9.069c0,0.004-0.001,0.008-0.001,0.012c0,0.003,0.001,0.005,0.001,0.008v0.01h0.001
                c0.013,0.32,0.173,0.525,0.325,0.661c0.48,0.424,1.287,0.66,2.145,0.68c0.407,0,0.82-0.064,1.201-0.226l5.949-2.578
                c0.157-0.064,0.26-0.235,0.26-0.424v-9.104C22.911,11.519,22.846,11.376,22.737,11.292z"/>
            <path fill-rule="evenodd" clip-rule="evenodd" fill="#CF405F" d="M18.965,9.567c-0.011-0.136-0.066-0.264-0.167-0.342
                c-0.109-0.085-0.249-0.105-0.373-0.051l-5.947,2.575c-0.259,0.112-0.583,0.167-0.914,0.167c-0.464,0-0.944-0.107-1.278-0.254
                c-0.118-0.05-0.22-0.108-0.29-0.159c0.025-0.013,0.057-0.026,0.09-0.04l5.41-2.342l0.807,0.345V8.458
                c0-0.15-0.065-0.292-0.174-0.376c-0.109-0.085-0.252-0.105-0.374-0.051l-5.948,2.575c-0.184,0.074-0.34,0.165-0.474,0.298
                c-0.132,0.128-0.244,0.339-0.243,0.575c0,0.006,0.002,0.016,0.002,0.016v9.069c0,0.004,0,0.009,0,0.013c0,0.002,0,0.003,0,0.013
                v0.013h0.001c0.014,0.32,0.173,0.525,0.325,0.659c0.481,0.424,1.288,0.653,2.146,0.675c0.231,0,0.464-0.03,0.693-0.073v-8.299
                c-0.006-0.431,0.166-0.845,0.469-1.143c0.196-0.194,0.436-0.347,0.732-0.465L18.965,9.567z"/>
        </g>
</svg>
