<?xml version="1.0" encoding="utf-8"?>
<!--

    Copyright (c) 2012-2018 Red Hat, Inc.
    This program and the accompanying materials are made
    available under the terms of the Eclipse Public License 2.0
    which is available at https://www.eclipse.org/legal/epl-2.0/

    SPDX-License-Identifier: EPL-2.0

    Contributors:
      Red Hat, Inc. - initial API and implementation

-->
<svg version="1.1" id="jarFile" xmlns="http://www.w3.org/2000/svg" xmlns:xlink="http://www.w3.org/1999/xlink" x="0px" y="0px"
     width="16px" height="16px" viewBox="7 7 18 18" enable-background="new 0 0 32 32" xml:space="preserve">
    <g>
            <rect x="12.166" y="8" fill-rule="evenodd" clip-rule="evenodd" fill="#E0B91D" width="7.669" height="1.298"/>
            <path fill-rule="evenodd" clip-rule="evenodd" fill="#3193D4" d="M16,23.856l-3.767,0.143c0,0-1.426,0.058-1.426-1.222
                s0-12.082,0-12.082s0.067-1.137,1.358-1.137h7.669c1.289,0,1.358,1.137,1.358,1.137c0,10.935,0,10.508,0,12.082
                c0,1.279-1.426,1.222-1.426,1.222L16,23.856L16,23.856z M14.674,14.877v-0.598c0-0.382-0.09-0.672-0.269-0.869
                c-0.179-0.196-0.421-0.294-0.724-0.294c-0.305,0-0.546,0.098-0.723,0.294c-0.177,0.195-0.266,0.485-0.266,0.869v0.598
                c0,0.384,0.09,0.674,0.268,0.869c0.179,0.196,0.42,0.294,0.725,0.294c0.302,0,0.543-0.098,0.721-0.294
                C14.585,15.551,14.674,15.261,14.674,14.877L14.674,14.877z M19.308,14.877v-0.598c0-0.382-0.09-0.672-0.269-0.869
                c-0.18-0.196-0.421-0.294-0.725-0.294c-0.305,0-0.545,0.098-0.722,0.294c-0.177,0.195-0.266,0.485-0.266,0.869v0.598
                c0,0.384,0.089,0.674,0.268,0.869c0.179,0.196,0.419,0.294,0.725,0.294c0.302,0,0.542-0.098,0.721-0.294
                C19.219,15.551,19.308,15.261,19.308,14.877L19.308,14.877z M18.648,14.235c0-0.217-0.028-0.374-0.086-0.468
                c-0.057-0.095-0.139-0.143-0.248-0.143s-0.19,0.047-0.246,0.143c-0.056,0.095-0.083,0.251-0.083,0.468v0.683
                c0,0.221,0.027,0.378,0.083,0.473c0.057,0.094,0.14,0.142,0.251,0.142c0.107,0,0.189-0.047,0.245-0.142
                c0.057-0.095,0.084-0.252,0.084-0.473V14.235L18.648,14.235z M16.416,16v-2.844l-1.293,0.2v0.464h0.635V16H16.416L16.416,16z
                M14.016,14.235c0-0.217-0.029-0.374-0.086-0.468c-0.057-0.095-0.14-0.143-0.248-0.143c-0.109,0-0.191,0.047-0.247,0.143
                c-0.055,0.095-0.083,0.251-0.083,0.468v0.683c0,0.221,0.028,0.378,0.084,0.473c0.056,0.094,0.14,0.142,0.25,0.142
                c0.107,0,0.189-0.047,0.246-0.142c0.056-0.095,0.084-0.252,0.084-0.473V14.235z"/>
    </g>
</svg>
