<?xml version="1.0" encoding="utf-8"?>
<!--

    Copyright (c) 2012-2018 Red Hat, Inc.
    This program and the accompanying materials are made
    available under the terms of the Eclipse Public License 2.0
    which is available at https://www.eclipse.org/legal/epl-2.0/

    SPDX-License-Identifier: EPL-2.0

    Contributors:
      Red Hat, Inc. - initial API and implementation

-->
<svg version="1.1" id="jsfFile" xmlns="http://www.w3.org/2000/svg" xmlns:xlink="http://www.w3.org/1999/xlink" x="0px" y="0px"
     width="16px" height="16px" viewBox="7 7 18 18" enable-background="new 0 0 32 32" xml:space="preserve">
    <g>
        <path fill-rule="evenodd" clip-rule="evenodd" fill="#4D4D4D" d="M21.641,22.313 M16,16"/>
            <g>
                <g>
                    <path fill-rule="evenodd" clip-rule="evenodd" fill="#E0B91D" d="M23.751,16H8.25C8.113,16,8,16.112,8,16.25v7.5
                        C8,23.888,8.112,24,8.25,24h15.501C23.888,24,24,23.888,24,23.75v-7.5C24,16.112,23.888,16,23.751,16z"/>
                    <path fill-rule="evenodd" clip-rule="evenodd" fill="#4D4D4D" d="M19.921,20.333h-1.362v1.369h-0.793v-3.404h2.395v0.608h-1.602
                        v0.818h1.362V20.333L19.921,20.333z M13.422,18.298h0.789v2.335c0,0.344-0.113,0.614-0.339,0.815
                        c-0.225,0.201-0.507,0.302-0.845,0.302c-0.369,0-0.662-0.089-0.876-0.267s-0.317-0.44-0.31-0.788l0.005-0.014h0.771
                        c0,0.165,0.038,0.283,0.114,0.354c0.077,0.072,0.175,0.106,0.295,0.106c0.107,0,0.2-0.045,0.278-0.133
                        c0.077-0.089,0.116-0.214,0.116-0.376V18.298L13.422,18.298z M16.55,20.797c0-0.118-0.039-0.211-0.119-0.276
                        c-0.079-0.065-0.222-0.135-0.428-0.208c-0.431-0.135-0.749-0.28-0.956-0.436c-0.208-0.154-0.312-0.379-0.312-0.672
                        c0-0.285,0.124-0.516,0.371-0.691s0.561-0.264,0.941-0.264c0.376,0,0.686,0.098,0.926,0.291c0.241,0.194,0.358,0.444,0.35,0.75
                        l-0.004,0.014h-0.767c0-0.136-0.046-0.245-0.138-0.329c-0.093-0.085-0.22-0.127-0.382-0.127c-0.159,0-0.283,0.035-0.374,0.104
                        c-0.091,0.07-0.136,0.156-0.136,0.259c0,0.1,0.046,0.18,0.137,0.239s0.263,0.135,0.513,0.225
                        c0.387,0.116,0.679,0.257,0.874,0.426c0.195,0.168,0.293,0.398,0.293,0.693c0,0.299-0.116,0.533-0.349,0.701
                        c-0.233,0.169-0.542,0.254-0.928,0.254s-0.721-0.098-1.003-0.291c-0.282-0.194-0.419-0.474-0.411-0.838l0.005-0.015h0.77
                        c0,0.195,0.053,0.335,0.158,0.419c0.106,0.084,0.267,0.126,0.481,0.126c0.164,0,0.286-0.032,0.366-0.098
                        S16.55,20.903,16.55,20.797z"/>
                </g>
                <path fill-rule="evenodd" clip-rule="evenodd" fill="#4D4D4D" d="M9.25,8h9.668c0.068,0,0.128,0.025,0.177,0.074l3.833,3.853
                    c0.049,0.048,0.073,0.108,0.073,0.176V15h-2v-2.172h-2.578c-0.138,0-0.25-0.112-0.25-0.25V10L11,10v5H9V8.25
                    C9,8.112,9.113,8,9.25,8z"/>
            </g>

    </g>
</svg>