<?xml version="1.0" encoding="utf-8"?>
<!--

    Copyright (c) 2012-2018 Red Hat, Inc.
    This program and the accompanying materials are made
    available under the terms of the Eclipse Public License 2.0
    which is available at https://www.eclipse.org/legal/epl-2.0/

    SPDX-License-Identifier: EPL-2.0

    Contributors:
      Red Hat, Inc. - initial API and implementation

-->
<svg version="1.1" id="jspFile" xmlns="http://www.w3.org/2000/svg" xmlns:xlink="http://www.w3.org/1999/xlink" x="0px" y="0px"
     width="16px" height="16px" viewBox="7 7 18 18" enable-background="new 0 0 32 32" xml:space="preserve">
    <g>
        <path fill-rule="evenodd" clip-rule="evenodd" fill="#72AD42" d="M9.25,8h9.668c0.068,0,0.128,0.025,0.177,0.074l3.833,3.853
                C22.977,11.975,23,12.035,23,12.103V15h-1.999v-2.172h-2.578c-0.138,0-0.25-0.112-0.25-0.25V10L11,10v5H9V8.25
                C9,8.112,9.113,8,9.25,8L9.25,8z M23.751,16H8.25C8.113,16,8,16.112,8,16.25v7.5C8,23.888,8.112,24,8.25,24h15.501
                C23.888,24,24,23.888,24,23.75v-7.5C24,16.112,23.888,16,23.751,16L23.751,16z M18.406,20.534v1.168h-0.792v-3.404h1.381
                c0.403,0,0.725,0.103,0.961,0.31s0.355,0.477,0.355,0.809c0,0.336-0.119,0.605-0.355,0.811s-0.558,0.308-0.961,0.308H18.406
                L18.406,20.534z M13.271,18.298h0.788v2.335c0,0.344-0.113,0.614-0.339,0.815c-0.225,0.201-0.506,0.302-0.845,0.302
                c-0.369,0-0.661-0.089-0.875-0.267c-0.215-0.178-0.318-0.44-0.31-0.788l0.004-0.014h0.771c0,0.165,0.038,0.283,0.115,0.354
                c0.076,0.072,0.175,0.106,0.294,0.106c0.107,0,0.2-0.045,0.278-0.133c0.077-0.089,0.117-0.214,0.117-0.376V18.298L13.271,18.298z
                 M16.398,20.797c0-0.118-0.04-0.211-0.12-0.276c-0.079-0.065-0.222-0.135-0.428-0.208c-0.431-0.135-0.748-0.28-0.956-0.436
                c-0.207-0.154-0.312-0.379-0.312-0.672c0-0.285,0.124-0.516,0.372-0.691c0.246-0.176,0.56-0.264,0.94-0.264
                c0.377,0,0.686,0.098,0.927,0.291c0.24,0.194,0.357,0.444,0.35,0.75l-0.004,0.014H16.4c0-0.136-0.046-0.245-0.138-0.329
                c-0.092-0.085-0.22-0.127-0.382-0.127c-0.159,0-0.283,0.035-0.374,0.104c-0.09,0.07-0.135,0.156-0.135,0.259
                c0,0.1,0.046,0.18,0.136,0.239c0.092,0.06,0.264,0.135,0.514,0.225c0.387,0.116,0.678,0.257,0.873,0.426
                c0.195,0.168,0.294,0.398,0.294,0.693c0,0.299-0.117,0.533-0.35,0.701c-0.233,0.169-0.542,0.254-0.928,0.254
                s-0.721-0.098-1.003-0.291c-0.282-0.194-0.419-0.474-0.411-0.838l0.005-0.015h0.77c0,0.195,0.053,0.335,0.159,0.419
                c0.105,0.084,0.267,0.126,0.48,0.126c0.164,0,0.286-0.032,0.366-0.098S16.398,20.903,16.398,20.797L16.398,20.797z M18.406,19.926
                v-1.02h0.589c0.171,0,0.302,0.048,0.392,0.145c0.09,0.096,0.135,0.22,0.135,0.37c0,0.148-0.045,0.27-0.135,0.364
                c-0.09,0.094-0.221,0.141-0.392,0.141H18.406z"/>
    </g>
</svg>
