<?xml version="1.0" encoding="utf-8"?>
<!--

    Copyright (c) 2012-2018 Red Hat, Inc.
    This program and the accompanying materials are made
    available under the terms of the Eclipse Public License 2.0
    which is available at https://www.eclipse.org/legal/epl-2.0/

    SPDX-License-Identifier: EPL-2.0

    Contributors:
      Red Hat, Inc. - initial API and implementation

-->
<svg width="352px" height="246px" viewBox="0 0 352 246" version="1.1" xmlns="http://www.w3.org/2000/svg" xmlns:xlink="http://www.w3.org/1999/xlink">
    <g stroke="none" stroke-width="1" fill="none" fill-rule="evenodd">
        <g fill="#D8D8D8">
            <path d="M0,7.99283665 C0,3.57851486 3.5840954,0 7.99230925,0 L344.007691,0 C348.421721,0 352,3.5723605 352,7.99283665 L352,238.007163 C352,242.421485 348.415905,246 344.007691,246 L7.99230925,246 C3.57827873,246 0,242.427639 0,238.007163 L0,7.99283665 Z M151.960111,68.9457064 L128.310249,45.2958449 C127.388366,44.3739613 125.828255,44.3739613 124.906371,45.2958449 L48.8864267,121.280332 C47.964543,122.202216 47.964543,123.762327 48.8864267,124.684211 L124.906371,200.704156 C125.828255,201.626039 127.388366,201.626039 128.310249,200.704156 L151.960111,177.054294 C152.881995,176.13241 152.881995,174.5723 151.960111,173.650416 L103.029363,124.719668 C102.107479,123.797784 102.107479,122.237673 103.029363,121.315789 L151.960111,72.3495846 C152.881995,71.4277009 152.881995,69.8675901 151.960111,68.9457064 Z M227.129086,45.2958449 C226.207202,44.3739613 224.647091,44.3739613 223.725208,45.2958449 L147.811634,121.173961 C146.889751,122.095845 146.889751,123.655956 147.811634,124.577839 L171.461496,148.263158 C172.38338,149.185042 173.94349,149.185042 174.865374,148.263158 L223.725208,99.4033242 C224.647091,98.4814405 226.207202,98.4814405 227.129086,99.4033242 L249.006094,121.280332 C249.927978,122.202216 249.927978,123.762327 249.006094,124.684211 L200.075346,173.614959 C199.153463,174.536843 199.153463,176.096953 200.075346,177.018837 L223.725208,200.668699 C224.647091,201.590582 226.207202,201.590582 227.129086,200.668699 L303.113573,124.684211 C304.035457,123.762327 304.035457,122.202216 303.113573,121.280332 L227.129086,45.2958449 Z"></path>
        </g>
    </g>
</svg>
