<?xml version="1.0" encoding="utf-8"?>
<!--

    Copyright (c) 2012-2018 Red Hat, Inc.
    This program and the accompanying materials are made
    available under the terms of the Eclipse Public License 2.0
    which is available at https://www.eclipse.org/legal/epl-2.0/

    SPDX-License-Identifier: EPL-2.0

    Contributors:
      Red Hat, Inc. - initial API and implementation

-->
<svg version="1.1" id="pomFile" xmlns="http://www.w3.org/2000/svg" xmlns:xlink="http://www.w3.org/1999/xlink" x="0px" y="0px"
     width="16px" height="16px" viewBox="7 5 18 18" enable-background="new 0 0 32 32" xml:space="preserve">
        <g>
            <path fill-rule="evenodd" clip-rule="evenodd" fill="#3193D4" d="M12.52,12.441c0.83-0.934,1.95-1.802,3.272-1.691
                    c1.108,0.005,1.985,0.879,2.267,1.904c1.015-1.361,2.828-2.389,4.525-1.7c1.342,0.535,1.539,2.203,1.358,3.454
                    c-0.357,2.29-0.807,4.565-1.2,6.85c-0.982,0.01-1.964,0.006-2.946,0.006c0.372-2.121,0.765-4.239,1.139-6.358
                    c0.068-0.556,0.136-1.38-0.507-1.623c-1.095-0.324-1.991,0.669-2.313,1.609c-0.655,2.068-0.825,4.253-1.276,6.37
                    c-0.979,0.003-1.957,0.005-2.937-0.004c0.354-2.39,0.994-4.747,1.144-7.16c0.073-0.745-0.777-1.042-1.372-0.812
                    c-1.044,0.339-1.484,1.488-1.726,2.461c-0.373,1.832-0.655,3.681-1.01,5.517C9.958,21.265,8.979,21.265,8,21.262
                    c0.609-3.423,1.218-6.847,1.836-10.269c0.98-0.007,1.959-0.003,2.938-0.001C12.691,11.474,12.603,11.957,12.52,12.441z"/>
        </g>
</svg>
