<?xml version="1.0" encoding="utf-8"?>
<!--

    Copyright (c) 2012-2018 Red Hat, Inc.
    This program and the accompanying materials are made
    available under the terms of the Eclipse Public License 2.0
    which is available at https://www.eclipse.org/legal/epl-2.0/

    SPDX-License-Identifier: EPL-2.0

    Contributors:
      Red Hat, Inc. - initial API and implementation

-->
<svg version="1.1" id="quickDoc" xmlns="http://www.w3.org/2000/svg" xmlns:xlink="http://www.w3.org/1999/xlink" x="0px" y="0px"
     width="16px" height="16px" viewBox="7 7 18 18" enable-background="new 0 0 32 32" xml:space="preserve">
    <g>
        <path fill-rule="evenodd" clip-rule="evenodd" fill="#4D4D4D" d="M8.25,8h9.667c0.069,0,0.129,0.025,0.178,0.074l3.833,3.853
        		C21.977,11.975,22,12.035,22,12.103v2.868l-1.999,2.78v-4.923h-2.578c-0.138,0-0.25-0.112-0.25-0.25V10L10,10v12h10.175l-0.601,2
        		H8.25C8.113,24,8,23.888,8,23.75V8.25C8,8.112,8.112,8,8.25,8L8.25,8z M22.492,16l-3.297,4.583h2.449L20.618,24L24,19.396h-2.425
        		L22.492,16z"/>
    </g>
</svg>