<?xml version="1.0" encoding="UTF-8" standalone="no"?>
<!--

    Copyright (c) 2012-2017 Codenvy, S.A.
    All rights reserved. This program and the accompanying materials
    are made available under the terms of the Eclipse Public License v1.0
    which accompanies this distribution, and is available at
    http://www.eclipse.org/legal/epl-v10.html

    Contributors:
      Codenvy, S.A. - initial API and implementation

-->
<svg width="7px" height="7px" viewBox="0 0 7 7" version="1.1" xmlns="http://www.w3.org/2000/svg" xmlns:xlink="http://www.w3.org/1999/xlink">
    <g stroke="none" stroke-width="1" fill="none" fill-rule="evenodd">
        <g fill="#5D5D5D">
            <path d="M4.66666667,2.04166667 C4.66666667,1.88216146 4.53450521,1.75 4.375,1.75 C4.31575521,1.75 4.25651042,1.76822917 4.20638021,1.8046875 L2.16471354,3.26302083 C2.08723958,3.31770833 2.04166667,3.40885417 2.04166667,3.5 C2.04166667,3.59570312 2.08723958,3.68229167 2.16471354,3.73697917 L4.20638021,5.1953125 C4.25651042,5.23177083 4.31575521,5.25 4.375,5.25 C4.53450521,5.25 4.66666667,5.11783854 4.66666667,4.95833333 L4.66666667,2.04166667 Z M5.83333333,5.6875 C5.83333333,5.76497396 5.76497396,5.83333333 5.6875,5.83333333 L1.3125,5.83333333 C1.23502604,5.83333333 1.16666667,5.76497396 1.16666667,5.6875 L1.16666667,1.3125 C1.16666667,1.23502604 1.23502604,1.16666667 1.3125,1.16666667 L5.6875,1.16666667 C5.76497396,1.16666667 5.83333333,1.23502604 5.83333333,1.3125 L5.83333333,5.6875 Z M7,1.3125 C7,0.587890625 6.41210938,0 5.6875,0 L1.3125,0 C0.587890625,0 0,0.587890625 0,1.3125 L0,5.6875 C0,6.41210938 0.587890625,7 1.3125,7 L5.6875,7 C6.41210938,7 7,6.41210938 7,5.6875 L7,1.3125 Z" id="collapse-expand"></path>
        </g>
    </g>
</svg>
