<?xml version="1.0" encoding="utf-8"?>
<!--

    Copyright (c) 2012-2018 Red Hat, Inc.
    This program and the accompanying materials are made
    available under the terms of the Eclipse Public License 2.0
    which is available at https://www.eclipse.org/legal/epl-2.0/

    SPDX-License-Identifier: EPL-2.0

    Contributors:
      Red Hat, Inc. - initial API and implementation

-->
<!DOCTYPE svg PUBLIC "-//W3C//DTD SVG 1.1//EN" "http://www.w3.org/Graphics/SVG/1.1/DTD/svg11.dtd">
<svg version="1.1" xmlns="http://www.w3.org/2000/svg" xmlns:xlink="http://www.w3.org/1999/xlink" x="0px" y="0px" width="32px"
	 height="32px" viewBox="0 0 32 32" enable-background="new 0 0 32 32" xml:space="preserve">
<g id="_x30_7">
	<path fill-rule="evenodd" clip-rule="evenodd" fill="#808080" d="M18.538,14.845l5.106-5.202c0.098-0.099,0.146-0.22,0.144-0.359
		c-0.003-0.139-0.055-0.258-0.156-0.354l-0.609-0.579c-0.197-0.188-0.51-0.182-0.7,0.012l-5.082,5.177
		c-0.023-0.011-0.046-0.025-0.069-0.036c-0.976-0.446-2.073-0.291-2.874,0.312l3.974,3.929c0.112-0.153,0.211-0.319,0.293-0.499
		C18.928,16.453,18.891,15.576,18.538,14.845z"/>
	<path fill-rule="evenodd" clip-rule="evenodd" fill="#3193D4" d="M13.394,14.563c-1.709,1.062-3.488,1.93-5.394,2.461
		c0.236,0.457,0.492,0.896,0.766,1.316l1.939-0.689l-1.53,1.291c1.493,2.085,3.554,3.797,5.788,5.045
		c0.477-1.899,1.387-3.667,2.47-5.383L13.394,14.563z"/>
</g>
</svg>
