<?xml version="1.0" encoding="utf-8"?>
<!--

    Copyright (c) 2012-2018 Red Hat, Inc.
    This program and the accompanying materials are made
    available under the terms of the Eclipse Public License 2.0
    which is available at https://www.eclipse.org/legal/epl-2.0/

    SPDX-License-Identifier: EPL-2.0

    Contributors:
      Red Hat, Inc. - initial API and implementation

-->
<!DOCTYPE svg PUBLIC "-//W3C//DTD SVG 1.1//EN" "http://www.w3.org/Graphics/SVG/1.1/DTD/svg11.dtd">
<svg version="1.1" id="Layer_1" xmlns="http://www.w3.org/2000/svg" xmlns:xlink="http://www.w3.org/1999/xlink" x="0px" y="0px"
	 viewBox="0 0 137 22.6" enable-background="new 0 0 137 22.6" xml:space="preserve">
<g>
	<path fill="#FF0000" d="M137,0c-10,0-15.3,4.5-19.6,8.2c-4.1,3.5-7.3,6.3-14.3,6.3c-7,0-10.2-2.8-14.3-6.3C84.5,4.5,79.2,0,69.2,0
		S54,4.5,49.7,8.2c-4.1,3.5-7.3,6.3-14.3,6.3c-7,0-10.2-2.8-14.3-6.3C16.8,4.5,11.5,0,1.5,0H0v8.1h1.5c7,0,10.2,2.8,14.3,6.3
		c4.3,3.6,9.6,8.2,19.6,8.2c10,0,15.3-4.5,19.6-8.2c4.1-3.5,7.3-6.3,14.3-6.3c7,0,10.2,2.8,14.3,6.3c4.3,3.6,9.6,8.2,19.6,8.2
		s15.3-4.5,19.6-8.2c4.1-3.5,7.3-6.3,14.3-6.3h1.5V0H137z"/>
</g>
</svg>
