<?xml version="1.0" encoding="utf-8"?> <!-- Generator: IcoMoon.io --> <!DOCTYPE svg PUBLIC "-//W3C//DTD SVG 1.1//EN" "http://www.w3.org/Graphics/SVG/1.1/DTD/svg11.dtd"> <svg version="1.1" id="Layer_1" xmlns="http://www.w3.org/2000/svg" xmlns:xlink="http://www.w3.org/1999/xlink" x="0px" y="0px" width="48px" height="48px" viewBox="0 0 48 48" enable-background="new 0 0 16 16" xml:space="preserve" fill="#000000"> <path d="M 15.00,36.00 C 16.212,36.00 17.31,36.732 17.772,37.851 C 18.234,38.973 17.979,40.263 17.121,41.121 L 11.121,47.121 C 10.536,47.706 9.768,48.00 9.00,48.00 C 8.232,48.00 7.464,47.706 6.879,47.121 L 0.879,41.121 C 0.024,40.263 -0.234,38.973 0.228,37.851 C 0.69,36.732 1.788,36.00 3.00,36.00 L 6.00,36.00 L 6.00,30.00 C 6.00,25.029 9.975,21.00 14.943,21.00 L 32.943,21.00 C 34.602,21.00 36.00,19.656 36.00,18.00 L 36.00,3.00 C 36.00,1.344 37.341,0.00 39.00,0.00 C 40.659,0.00 42.00,1.344 42.00,3.00 L 42.00,18.00 C 42.00,22.971 37.917,27.00 32.943,27.00 L 14.943,27.00 C 13.287,27.00 12.00,28.344 12.00,30.00 L 12.00,36.00 L 15.00,36.00 ZM 47.772,37.851 C 48.234,38.973 47.979,40.263 47.121,41.121 L 41.121,47.121 C 40.536,47.706 39.768,48.00 39.00,48.00 C 38.232,48.00 37.464,47.706 36.879,47.121 L 30.879,41.121 C 30.024,40.263 29.766,38.973 30.228,37.851 C 30.69,36.732 31.788,36.00 33.00,36.00 L 36.00,36.00 L 36.00,29.574 C 39.00,28.962 39.00,27.651 42.00,25.86 L 42.00,36.00 L 45.00,36.00 C 46.212,36.00 47.31,36.732 47.772,37.851 Z" ></path></svg>