<?xml version="1.0" encoding="utf-8"?>
<!-- Generator: Adobe Illustrator 16.0.0, SVG Export Plug-In . SVG Version: 6.00 Build 0)  -->
<!DOCTYPE svg PUBLIC "-//W3C//DTD SVG 1.1//EN" "http://www.w3.org/Graphics/SVG/1.1/DTD/svg11.dtd">
<svg version="1.1" id="Layer_3" xmlns="http://www.w3.org/2000/svg" xmlns:xlink="http://www.w3.org/1999/xlink" x="0px" y="0px"
	 width="100px" height="100px" viewBox="0 0 100 100" enable-background="new 0 0 100 100" xml:space="preserve">
<path d="M69.224,40.644c0,0.205-0.064,0.41-0.195,0.583c-0.262,0.348-0.725,0.478-1.13,0.317L55.813,36.77v27.981
	c0,0.535-0.434,0.969-0.97,0.969h-9.686c-0.534,0-0.968-0.434-0.968-0.969V36.77l-12.088,4.774c-0.404,0.16-0.867,0.03-1.129-0.317
	c-0.263-0.348-0.262-0.828,0.006-1.173L49.232,16.31c0.184-0.239,0.467-0.378,0.768-0.378s0.585,0.14,0.768,0.378l18.255,23.744
	C69.156,40.227,69.224,40.435,69.224,40.644z M50,70.949c-4.524,0-8.192,3.667-8.192,8.192c0,4.525,3.668,8.192,8.192,8.192
	s8.193-3.667,8.193-8.192C58.193,74.617,54.524,70.949,50,70.949z"/>
</svg>
