<?xml version="1.0" ?>
<!--

    Copyright (c) 2012-2017 Codenvy, S.A.
    All rights reserved. This program and the accompanying materials
    are made available under the terms of the Eclipse Public License v1.0
    which accompanies this distribution, and is available at
    http://www.eclipse.org/legal/epl-v10.html

    Contributors:
      Codenvy, S.A. - initial API and implementation

-->
<!DOCTYPE svg  PUBLIC '-//W3C//DTD SVG 1.1//EN'  'http://www.w3.org/Graphics/SVG/1.1/DTD/svg11.dtd'>
<svg height="40px" id="co_x5F_medicine" style="enable-background:new 0 0 40 40;" version="1.1" viewBox="0 0 40 40" width="40px" xml:space="preserve" xmlns="http://www.w3.org/2000/svg" xmlns:xlink="http://www.w3.org/1999/xlink"><path d="M35.922,4.021L35.922,4.021c2.687,2.686,2.687,7.08,0.001,9.767l-3.996,3.996  l-9.766-9.767l3.995-3.996C28.842,1.334,33.236,1.334,35.922,4.021L35.922,4.021z M3.96,4.021L3.96,4.021  c-2.687,2.686-2.687,7.08-0.001,9.767l3.996,3.996l9.767-9.767l-3.995-3.996C11.04,1.334,6.646,1.334,3.96,4.021L3.96,4.021z   M9.731,19.832v0.341c0,0.182,0.064,0.338,0.192,0.467l9.38,9.381c0.128,0.127,0.285,0.192,0.467,0.192h0.341  c0.183,0,0.338-0.065,0.467-0.192l9.38-9.381c0.129-0.129,0.193-0.285,0.193-0.467v-0.341c0-0.182-0.064-0.338-0.193-0.467  l-9.38-9.381c-0.129-0.128-0.284-0.192-0.467-0.192h-0.341c-0.182,0-0.338,0.064-0.467,0.192l-9.38,9.381  C9.796,19.494,9.731,19.649,9.731,19.832L9.731,19.832z M22.161,31.988l9.767-9.767l3.995,3.996c2.686,2.686,2.686,7.08,0,9.766  v0.001c-2.686,2.686-7.08,2.686-9.766,0L22.161,31.988L22.161,31.988z M21.283,13.339c0.49,0.49,0.49,1.285,0,1.775  s-1.285,0.49-1.776,0c-0.49-0.49-0.49-1.285,0-1.775C19.998,12.849,20.793,12.849,21.283,13.339L21.283,13.339z M20.449,24.815  c1.158,1.158-0.617,2.934-1.775,1.775c-0.491-0.49-0.491-1.285,0-1.775C19.164,24.325,19.959,24.325,20.449,24.815L20.449,24.815z   M17.788,22.154c0.49,0.49,0.49,1.286,0,1.775c-0.49,0.491-1.285,0.491-1.775,0c-0.49-0.489-0.49-1.285,0-1.775  S17.298,21.664,17.788,22.154L17.788,22.154z M23.526,21.737c1.159,1.159-0.616,2.936-1.775,1.776c-0.49-0.49-0.49-1.286,0-1.776  S23.036,21.247,23.526,21.737L23.526,21.737z M20.866,19.077c0.49,0.49,0.49,1.285,0,1.775s-1.286,0.49-1.776,0s-0.49-1.285,0-1.775  S20.376,18.587,20.866,19.077L20.866,19.077z M26.604,18.66c0.49,0.49,0.49,1.286,0,1.775c-0.49,0.491-1.286,0.491-1.776,0  c-0.49-0.489-0.49-1.285,0-1.775S26.114,18.17,26.604,18.66L26.604,18.66z M23.943,15.999c-0.49-0.49-1.285-0.49-1.775,0  s-0.49,1.286,0,1.776s1.285,0.49,1.775,0S24.434,16.489,23.943,15.999L23.943,15.999z M15.128,19.494c0.49,0.49,0.49,1.285,0,1.775  s-1.286,0.49-1.776,0s-0.49-1.285,0-1.775S14.638,19.004,15.128,19.494L15.128,19.494z M18.206,16.416  c0.489,0.491,0.489,1.285,0,1.776c-0.49,0.49-1.285,0.49-1.776,0c-0.49-0.491-0.49-1.285,0-1.776  C16.921,15.927,17.716,15.927,18.206,16.416L18.206,16.416z M17.722,31.988l-3.996,3.996c-2.686,2.686-7.08,2.686-9.767,0v-0.001  c-2.686-2.686-2.686-7.08,0-9.766l3.996-3.996L17.722,31.988z" style="fill-rule:evenodd;clip-rule:evenodd;fill:#6f7b66;"/></svg>


