<?xml version="1.0" encoding="utf-8"?>
<!--

    Copyright (c) 2012-2017 Codenvy, S.A.
    All rights reserved. This program and the accompanying materials
    are made available under the terms of the Eclipse Public License v1.0
    which accompanies this distribution, and is available at
    http://www.eclipse.org/legal/epl-v10.html

    Contributors:
      Codenvy, S.A. - initial API and implementation

-->
<!-- License Agreement at http://iconmonstr.com/license/ -->

<!DOCTYPE svg PUBLIC "-//W3C//DTD SVG 1.1//EN" "http://www.w3.org/Graphics/SVG/1.1/DTD/svg11.dtd">
<svg version="1.1" xmlns="http://www.w3.org/2000/svg" xmlns:xlink="http://www.w3.org/1999/xlink" x="0px" y="0px"
	 width="512px" height="512px" viewBox="0 0 512 512" enable-background="new 0 0 512 512" xml:space="preserve">
<path id="note-31-icon" d="M218.353,212.218c24.18-105.296,144.596-126.802,144.596-126.802V50l71.812,71.694l-71.812,71.697
	v-35.417C362.948,157.975,269.831,157.099,218.353,212.218z M364.815,233.921c0,39.282,0,77.192,0,89.464
	c0,56.843-70.178,34.068-70.178,34.068s21.484,68.525-31.521,68.525c-28.873,0-43.283,0-149.855,0V126.997h116.025
	c11.57-13.304,25.258-25.368,40.936-36.022H77.239V462h186.426c61.387,0,137.172-80.211,137.172-135.506V197.957
	C384.229,214.537,394.101,204.683,364.815,233.921z M326.401,318.557H151.673v-27.018h174.729V318.557z M326.372,259.645H151.673
	v-27.016h174.699V259.645z"/>
</svg>
