<?xml version="1.0" encoding="utf-8"?>
<!--

    Copyright (c) 2012-2017 Codenvy, S.A.
    All rights reserved. This program and the accompanying materials
    are made available under the terms of the Eclipse Public License v1.0
    which accompanies this distribution, and is available at
    http://www.eclipse.org/legal/epl-v10.html

    Contributors:
      Codenvy, S.A. - initial API and implementation

-->
<!DOCTYPE svg PUBLIC "-//W3C//DTD SVG 1.1//EN" "http://www.w3.org/Graphics/SVG/1.1/DTD/svg11.dtd">
<svg version="1.1" xmlns="http://www.w3.org/2000/svg" xmlns:xlink="http://www.w3.org/1999/xlink" x="0px" y="0px"
	 width="512px" height="512px" viewBox="0 0 512 512" enable-background="new 0 0 512 512" xml:space="preserve">
<path id="svg_2" d="m44.37512,109.25294l0,106.24285c54.74424,-22.79544 127.89081,-45.70415 219.94144,-68.82127c58.98297,-14.79024 115.98846,-27.22665 171.04959,-37.42158l-390.99103,0zm405.04199,22.65366c-53.37833,7.93303 -101.24841,17.26833 -143.37766,27.81528c-48.23007,12.11415 -87.05719,24.36119 -116.42274,36.84804c-29.40315,12.26321 -43.06209,22.18135 -41.1494,29.82257c1.72523,6.7467 14.03903,9.80981 36.99144,9.17618c11.81381,-0.2236 30.94171,-1.52298 57.49452,-3.87119c26.55276,-2.34831 60.83496,-5.7442 102.80167,-10.17981c41.59802,-4.29489 76.05215,-7.19965 103.66217,-8.88943l0,-80.72163zm-118.5733,134.77504c-11.81384,0.14914 -28.07712,1.05252 -48.89197,2.58081c-20.8895,1.56555 -46.73242,3.81995 -77.7106,7.02548c-48.07997,5.14383 -88.09787,9.14777 -119.86374,11.75699c-15.23759,1.28586 -28.47565,2.08533 -40.00238,2.72418l0,86.17001c63.09018,-9.22226 120.16269,-20.21783 171.04964,-32.9769c49.99275,-12.52423 88.41603,-24.74542 115.41905,-36.56131c27.04025,-11.81595 39.66519,-21.84021 37.56491,-29.96594c-1.76279,-7.00757 -14.42499,-10.56696 -37.56491,-10.75333zm118.5733,30.25272c-55.43967,21.71786 -124.25,43.0177 -206.46384,63.65967c-76.54337,19.19202 -142.66183,32.92392 -198.57816,41.43616l0,0.71689l405.04199,0l0,-105.81271zm-388.12342,18.06558c0.20659,-0.0303 0.36476,-0.00183 0.57352,0c1.04713,0.03534 2.16355,0.36334 2.86755,1.147c1.07533,1.10699 1.35452,2.88162 0.71689,4.30133c-0.69337,1.63388 -2.53361,2.61914 -4.30133,2.29407c-1.95121,-0.28329 -3.4641,-2.20129 -3.29769,-4.15796c0.05656,-1.84216 1.62021,-3.35635 3.44106,-3.58444zm402.46122,-18.06558c0.91431,0.03668 1.76477,0.22205 2.43744,0.86026c1.27045,1.04388 1.77121,2.92123 1.14697,4.44467c-0.58456,1.56537 -2.18594,2.72824 -3.87119,2.58081c-1.44745,-0.05936 -2.87146,-0.96127 -3.44122,-2.29407c-0.78772,-1.73233 -0.14587,-4.07538 1.57736,-5.01819c0.64236,-0.39328 1.39554,-0.58112 2.15063,-0.57349zm-13.76425,25.37784c1.70804,-0.05484 3.23422,1.14771 3.72781,2.72418c0.52267,1.7533 -0.30899,3.95947 -2.00745,4.73135c-1.70581,0.85602 -3.94635,0.31345 -5.01822,-1.29028c-1.09073,-1.56601 -0.93994,-3.9285 0.57364,-5.16159c0.74167,-0.66217 1.72784,-1.02469 2.72421,-1.00366zm13.76425,0c1.35843,-0.07428 2.56583,0.78552 3.2977,1.86392c1.05417,1.64441 0.61313,4.0162 -1.00369,5.16159c-1.62177,1.2334 -4.15695,1.02661 -5.44843,-0.57352c-1.33496,-1.58978 -1.24677,-4.29684 0.43021,-5.59174c0.72769,-0.60123 1.7742,-0.89044 2.72421,-0.86026z"/>
</svg>
