<?xml version="1.0" encoding="utf-8"?>
<!--

    Copyright (c) 2012-2016 Codenvy, S.A.
    All rights reserved. This program and the accompanying materials
    are made available under the terms of the Eclipse Public License v1.0
    which accompanies this distribution, and is available at
    http://www.eclipse.org/legal/epl-v10.html

    Contributors:
      Codenvy, S.A. - initial API and implementation

-->

<!-- License Agreement at http://iconmonstr.com/license/ -->

<!DOCTYPE svg PUBLIC "-//W3C//DTD SVG 1.1//EN" "http://www.w3.org/Graphics/SVG/1.1/DTD/svg11.dtd">
<svg version="1.1" xmlns="http://www.w3.org/2000/svg" xmlns:xlink="http://www.w3.org/1999/xlink" x="0px" y="0px"
	 width="512px" height="512px" viewBox="0 0 512 512" enable-background="new 0 0 512 512" xml:space="preserve">
<path id="shuffle-3-icon" d="M90,256c0,91.755,74.258,166,166,166c91.755,0,166-74.259,166-166c0-91.755-74.258-166-166-166
	C164.245,90,90,164.259,90,256z M462,256c0,113.771-92.229,206-206,206S50,369.771,50,256S142.229,50,256,50S462,142.229,462,256z
	 M149.213,190.997h18.008c23.021,0,45.347,9.469,61.455,26.764c-0.699,1.034-13.453,21.383-13.453,21.383
	c-11.271-15.161-28.871-24.079-48.002-24.079h-18.008V190.997z M319.664,340.854l-0.053-19.903h-6.479
	c-22.993,0-45.332-9.45-61.454-26.763c0.698-1.034,13.45-21.379,13.45-21.379c11.273,15.158,28.874,24.077,48.004,24.077h6.416
	v-21.777l53.238,33.226L319.664,340.854z M319.493,236.89l0.056-21.777h-6.416c-20.787,0-39.774,10.523-50.791,28.151
	l-23.922,38.274c-15.547,24.873-42.654,39.463-71.199,39.463h-18.008v-24.066h18.008c20.787,0,39.774-10.523,50.792-28.151
	l23.921-38.272c15.547-24.873,42.652-39.463,71.199-39.463h6.479l0.053-19.902l53.123,32.52L319.493,236.89z"/>
</svg>
