<?xml version="1.0" encoding="utf-8"?>
<!--

    Copyright (c) 2012-2017 Codenvy, S.A.
    All rights reserved. This program and the accompanying materials
    are made available under the terms of the Eclipse Public License v1.0
    which accompanies this distribution, and is available at
    http://www.eclipse.org/legal/epl-v10.html

    Contributors:
      Codenvy, S.A. - initial API and implementation

-->
<!DOCTYPE svg PUBLIC "-//W3C//DTD SVG 1.1//EN" "http://www.w3.org/Graphics/SVG/1.1/DTD/svg11.dtd">
<svg version="1.1" xmlns="http://www.w3.org/2000/svg" xmlns:xlink="http://www.w3.org/1999/xlink" x="0px" y="0px" width="12px"
	 height="12px" viewBox="8 8 16 16" enable-background="new 8 8 16 16" xml:space="preserve">
<g id="_x31_3_1_">
	<path id="_x3C_Path_x3E__25_" fill-rule="evenodd" clip-rule="evenodd" fill="#808080" d="M20.001,10c1.104,0,2,1.078,2,2
		s-0.402,1.386-1,1.732V16c0,2.199-1.801,4-4,4H13v0.268c0.598,0.347,1,0.992,1,1.732c0,1.104-0.896,2-2,2s-2-0.896-2-2
		c0-0.74,0.402-1.386,1-1.732v-8.535c-0.598-0.346-1-0.992-1-1.732c0-1.104,0.896-2,2-2s2,0.896,2,2c0,0.741-0.402,1.387-1,1.732V18
		h4.001c1.097,0,2-0.903,2-2v-2.268c-0.598-0.346-1-0.81-1-1.732S18.896,10,20.001,10L20.001,10z M12,21c-0.552,0-1,0.448-1,1
		c0,0.553,0.448,1,1,1c0.553,0,1-0.447,1-1C13,21.448,12.553,21,12,21L12,21z M20.001,11c-0.553,0-1,0.448-1,1s0.447,1,1,1
		c0.552,0,1-0.448,1-1S20.553,11,20.001,11L20.001,11z M12,9c-0.552,0-1,0.448-1,1s0.448,1,1,1c0.553,0,1-0.448,1-1S12.553,9,12,9z"
		/>
</g>
</svg>
