<?xml version="1.0" encoding="UTF-8" standalone="no"?>
<!--

    Copyright (c) 2012-2016 Codenvy, S.A.
    All rights reserved. This program and the accompanying materials
    are made available under the terms of the Eclipse Public License v1.0
    which accompanies this distribution, and is available at
    http://www.eclipse.org/legal/epl-v10.html

    Contributors:
      Codenvy, S.A. - initial API and implementation

-->
<svg width="188px" height="188px" viewBox="0 0 188 188" version="1.1" xmlns="http://www.w3.org/2000/svg" xmlns:xlink="http://www.w3.org/1999/xlink">
    <g stroke="none" stroke-width="1" fill="none" fill-rule="evenodd">
        <g transform="translate(-26.000000, -26.000000)">
            <g transform="translate(27.000000, 27.000000)">
                <path d="M139.5,77.74025 L139.5,27.962 L92.721,-1.42108547e-14 L46.5,27.65975 L46.5,78.027 L0,103.013 L0,158.937 L47.554,186 L93,159.70425 L138.446,186 L186,158.937 L186,103.31525 L139.5,77.74025 L139.5,77.74025 Z M130.64175,78.01925 L97.154,96.49525 L97.154,58.08625 L130.64175,38.409 L130.64175,78.01925 L130.64175,78.01925 Z M92.7055,10.51675 L125.8135,30.63575 L92.7365,50.0805 L60.3725,30.287 L92.7055,10.51675 L92.7055,10.51675 Z M88.29575,58.05525 L88.29575,96.49525 L55.35825,77.7325 L55.35825,37.944 L88.29575,58.05525 L88.29575,58.05525 Z M13.8725,105.64025 L50.902,86.03275 L83.73875,104.7645 L47.56175,125.43375 L13.8725,105.64025 L13.8725,105.64025 Z M51.97925,133.4395 L88.57475,112.53775 L88.57475,151.72175 L51.97925,173.0885 L51.97925,133.4395 L51.97925,133.4395 Z M134.02075,173.08075 L97.42525,151.714 L97.42525,112.065 L134.02075,133.4085 L134.02075,173.08075 L134.02075,173.08075 Z M102.455,104.415259 L135.365599,85.8855 L172.32125,105.996879 L138.480754,125.44925 L102.455,104.415259 L102.455,104.415259 Z" stroke="#979797" fill="#000000"></path>
                <g transform="translate(9.000000, 119.000000)" fill="#FFFFFF">
                    <g transform="translate(0.050576, 0.085868)">
                        <g transform="translate(0.000000, 0.000000)">
                            <path d="M27.0616421,37.9217583 C22.8368174,39.4883705 8.90129556,40.1829187 4.57435721,38.2830373 C3.01891945,37.6006533 4.7858363,36.3521337 5.70350279,36.153297 C6.66035808,35.9440272 7.20721841,35.982952 7.20721841,35.982952 C6.50849438,34.4199726 -4.64890069,36.7119978 2.4064281,39.4396167 C10.4320074,42.5423385 28.6495841,39.9517059 29.6992626,37.9217582 C30.7489412,35.8918105 32.2901962,35.982952 27.0616421,37.9217583 Z"></path>
                            <path d="M9.07173902,24.4433905 C11.6301196,24.5821555 14.7842757,24.7822753 18.7965057,24.4433905 C22.0754768,24.164297 25.3677774,22.9700552 25.3677774,22.9700552 C25.3677774,22.9700552 25.0187849,24.0106795 23.3750907,24.6466412 C15.3293446,26.7810731 2.6905257,26.3585517 4.26085056,23.6049068 C5.37198602,21.656474 8.73790623,22.0551483 8.73790623,22.0551483 C8.73790623,22.0551483 5.22525023,24.2347593 9.07173902,24.4433905 Z"></path>
                            <path d="M27.6507944,29.1967043 C34.3029084,25.7855873 28.8901885,23.4100327 27.1778488,23.7628631 C26.530598,23.8962302 26.4284851,23.4309338 26.412768,23.1574984 C26.3970508,22.8840631 26.6530759,22.7780836 27.1118095,22.6139587 C32.3335368,20.7622315 37.5415753,28.0750393 26.6181009,30.97131 C26.6181009,30.97131 26.9543677,29.9179617 27.1118095,29.5584971"></path>
                            <path d="M13.2979774,11.2542316 C6.22062625,16.8914754 11.7691993,18.7317234 13.3801422,22.4040791 C9.24894864,18.6446453 6.81326134,15.335252 8.84712759,12.2551922 C11.8326766,7.73392049 15.8455689,7.25945493 14.0181936,1.83046951e-05 C14.0181936,1.83046951e-05 22.1237293,4.22653587 13.2979774,11.2542316 Z"></path>
                            <path d="M19.8459659,15.2682534 C16.0079782,18.325283 17.4932012,20.0683648 18.3668019,22.0598523 C16.1264905,20.0211431 15.9599722,17.2950735 17.0629207,15.6247831 C18.6819587,13.1729357 20.8581163,12.915637 19.8671461,8.97890591 C19.8671461,8.97890591 24.6320966,11.4571934 19.8459659,15.2682534 Z"></path>
                        </g>
                    </g>
                    <path d="M4.34106091,25.9900398 C4.0127873,29.0368483 8.75595845,37.2232278 8.75595845,37.2232278 C8.75595845,37.2232278 9.5290556,38.2069307 10.4242291,38.3732048 C12.2050807,38.7039893 14.9727353,38.5972688 16.6235493,38.5972688 C18.4098441,38.5972688 21.2474263,38.4670532 22.7523023,38.1402364 C23.3729799,38.0054426 23.7669505,37.2232278 23.7669505,37.2232278 C23.7669505,37.2232278 28.1631815,26.943415 26.7474808,24.688458 C25.1744615,26.943415 19.7257201,27.2730037 16.1576155,27.4759565 C12.5895108,27.6789093 5.74744891,27.1181892 4.34106091,25.9900398 Z"></path>
                    <polygon points="13.2792029 32.3868342 13.8493333 30.7668398 13.8615942 30.7668398 14.4133333 32.3868342"></polygon>
                    <polygon points="20.7767246 32.3868342 21.3468551 30.7668398 21.3591159 30.7668398 21.9108551 32.3868342"></polygon>
                </g>
                <path d="M162.39,142.101428 C157.142097,142.101428 151.876758,141.180234 149,139.201373 L149,142.101428 C149,144.506769 154.997604,146.468571 162.39,146.468571 C169.782396,146.468571 175.780001,144.506769 175.780001,142.101428 L175.780001,139.201373 C172.903243,141.180234 167.637904,142.101428 162.39,142.101428 L162.39,142.101428 Z M162.39,155.202857 C157.142097,155.202857 151.876758,154.281663 149,152.302801 L149,155.202857 C149,157.608197 154.997604,159.57 162.39,159.57 C169.782396,159.57 175.780001,157.608197 175.780001,155.202857 L175.780001,152.302801 C172.903243,154.281663 167.637904,155.202857 162.39,155.202857 L162.39,155.202857 Z M162.39,148.652143 C157.142097,148.652143 151.876758,147.730948 149,145.752087 L149,148.652143 C149,151.057483 154.997604,153.019285 162.39,153.019285 C169.782396,153.019285 175.780001,151.057483 175.780001,148.652143 L175.780001,145.752087 C172.903243,147.730948 167.637904,148.652143 162.39,148.652143 L162.39,148.652143 Z M162.39,129 C154.997604,129 149,130.961802 149,133.367143 L149,135.550714 C149,137.956055 154.997604,139.917857 162.39,139.917857 C169.782396,139.917857 175.780001,137.956055 175.780001,135.550714 L175.780001,133.367143 C175.780001,130.961802 169.782396,129 162.39,129 L162.39,129 Z" fill="#FFFFFF"></path>
            </g>
        </g>
    </g>
</svg>