<?xml version="1.0" encoding="UTF-8" standalone="no"?>
<!--

    Copyright (c) 2016 Bitrock Inc. All rights reserved.
    This program and the accompanying materials are made
    available under the terms of the Eclipse Public License v1.0
    which accompanies this distribution, and is available at
    http://www.eclipse.org/legal/epl-v10.html

-->
<svg
   xmlns:dc="http://purl.org/dc/elements/1.1/"
   xmlns:cc="http://creativecommons.org/ns#"
   xmlns:rdf="http://www.w3.org/1999/02/22-rdf-syntax-ns#"
   xmlns:svg="http://www.w3.org/2000/svg"
   xmlns="http://www.w3.org/2000/svg"
   enable-background="new"
   viewBox="0 0 512 512"
   height="512"
   width="512"
   xml:space="preserve"
   id="svg2"
   version="1.1"><title
     id="title1">Bitnami</title><metadata
     id="metadata1"><rdf:RDF><cc:Work
         rdf:about=""><dc:format>image/svg+xml</dc:format><dc:type
           rdf:resource="http://purl.org/dc/dcmitype/StillImage" /><dc:title>Bitnami</dc:title><dc:creator><cc:Agent><dc:title>Bitnami</dc:title></cc:Agent></dc:creator><dc:contributor><cc:Agent><dc:title>Alvaro Manuel Recio Perez</dc:title></cc:Agent></dc:contributor><cc:license
           rdf:resource="http://www.eclipse.org/legal/epl-v10.html" /></cc:Work></rdf:RDF></metadata><defs
     id="defs1" /><path
     id="bitnami"
     style="fill:#000000;fill-opacity:1;fill-rule:evenodd;stroke:none;stroke-width:0.46938807;image-rendering:auto"
     d="m 311.70134,223.54007 0,64.31696 -27.84598,16.0803 -27.84973,16.07654 -27.85536,-16.07654 -27.83894,-16.0803 0,-64.31696 27.83894,-16.07466 27.85536,-16.0803 27.84973,16.0803 27.84598,16.07466 M 281.7065,6.9611347 C 340.76866,41.062177 399.8327,75.16228 458.89674,109.26238 c 16.72899,9.6572 25.61826,25.53049 25.61826,45.80571 0,67.84113 0,135.67333 0,203.50929 0,19.23553 -8.70762,34.36578 -25.22069,43.89483 -58.95561,34.04002 -117.92248,68.08516 -176.88232,102.12499 -17.16552,9.90847 -35.74108,9.86631 -53.00376,-0.1027 C 170.58405,470.53906 111.76972,436.57278 52.95296,402.61725 38.977682,394.54565 27.484997,378.30811 27.484997,357.79961 c 0,-119.43532 0,-92.32253 0,-211.75785 0,-18.60326 8.77352,-27.99477 25.205763,-37.48158 l 70.66862,-40.80766 c 0,87.95347 0,176.86073 0,264.81748 l 132.64437,76.57456 132.63311,-76.57456 0,-153.1632 -132.63311,-76.57456 -55.75109,32.18782 0,-110.710343 c 10.03692,-5.792249 20.07197,-11.589191 30.10326,-17.3814403 15.65503,-9.040414 34.92529,-9.444087 51.35058,0.03286"><title
       id="title2">Bitnami</title></path></svg>
