<?xml version="1.0" encoding="UTF-8" standalone="no"?>
<!--

    Copyright (c) 2012-2017 Codenvy, S.A.
    All rights reserved. This program and the accompanying materials
    are made available under the terms of the Eclipse Public License v1.0
    which accompanies this distribution, and is available at
    http://www.eclipse.org/legal/epl-v10.html

    Contributors:
      Codenvy, S.A. - initial API and implementation

-->
<svg width="146px" height="78px" viewBox="0 0 146 78" version="1.1" xmlns="http://www.w3.org/2000/svg" xmlns:xlink="http://www.w3.org/1999/xlink">
    <g stroke="none" stroke-width="1" fill="none" fill-rule="evenodd">
        <g fill="#000000">
            <path d="M24.4882812,56.1884766 L19.4492188,78 L13.7949219,78 L16.0214844,68.3613281 L7.74511719,68.3613281 L5.51855469,78 L-0.135742188,78 L4.90332031,56.1884766 L10.5576172,56.1884766 L8.69726562,64.2158203 L16.9736328,64.2158203 L18.8339844,56.1884766 L24.4882812,56.1884766 Z M45.3769531,78 L39.7080078,78 L39.2099609,73.546875 L31.1826172,73.546875 L28.6337891,78 L22.7597656,78 L35.8408203,56.1884766 L42.3447266,56.1884766 L45.3769531,78 Z M38.7851562,69.6357422 L37.90625,61.7988281 L33.4091797,69.6357422 L38.7851562,69.6357422 Z M71.7734375,64.6992188 C71.7734375,67.1699342 71.1240299,69.4501849 69.8251953,71.5400391 C68.5263607,73.6298933 66.8613383,75.2314397 64.8300781,76.3447266 C63.5996032,77.0087924 62.3154364,77.4506825 60.9775391,77.6704102 C59.6396417,77.8901378 58.0380953,78 56.1728516,78 L48.2773438,78 L53.3164062,56.1884766 L60.3769531,56.1884766 C62.4570417,56.1884766 64.1318296,56.3496078 65.4013672,56.671875 C66.6709048,56.9941422 67.6962852,57.4287082 68.4775391,57.9755859 C69.5517632,58.7177771 70.3696261,59.6430609 70.9311523,60.7514648 C71.4926786,61.8598688 71.7734375,63.1757736 71.7734375,64.6992188 L71.7734375,64.6992188 Z M65.8847656,65.2119141 C65.8847656,64.2158153 65.6992206,63.3588903 65.328125,62.6411133 C64.9570294,61.9233363 64.3906288,61.3447288 63.6289062,60.9052734 C63.277342,60.70996 62.9184589,60.5610357 62.5522461,60.4584961 C62.1860333,60.3559565 61.768557,60.2802737 61.2998047,60.2314453 C60.8505837,60.1923826 60.3378935,60.1728516 59.7617188,60.1728516 L58.2529297,60.1728516 L58.0625,60.1728516 L54.8398438,74.0009766 L55.3525391,74.0009766 L57.1689453,74.0009766 C57.8134798,74.0009766 58.3359355,73.9765627 58.7363281,73.9277344 C59.2539088,73.878906 59.7202128,73.8007818 60.1352539,73.6933594 C60.550295,73.585937 61.0068334,73.4052747 61.5048828,73.1513672 C62.9111398,72.4287073 63.992672,71.3496166 64.7495117,69.9140625 C65.5063514,68.4785084 65.8847656,66.9111413 65.8847656,65.2119141 L65.8847656,65.2119141 Z M97.3203125,64.3037109 C97.3203125,66.0908292 97.0175812,67.8486242 96.4121094,69.5771484 C95.8066376,71.3056727 94.9277401,72.8144467 93.7753906,74.1035156 C92.5156187,75.5097727 91.0459068,76.586422 89.3662109,77.3334961 C87.686515,78.0805701 85.7529406,78.4541016 83.5654297,78.4541016 C80.5868992,78.4541016 78.2553795,77.6850663 76.5708008,76.1469727 C74.886222,74.608879 74.0439453,72.492201 74.0439453,69.796875 C74.0439453,67.9023343 74.3662077,66.1005945 75.0107422,64.3916016 C75.6552767,62.6826086 76.578119,61.1787174 77.7792969,59.8798828 C78.9511777,58.6201109 80.4013585,57.6142616 82.1298828,56.8623047 C83.8584071,56.1103478 85.7431539,55.734375 87.7841797,55.734375 C90.7724759,55.734375 93.1088783,56.5058517 94.793457,58.0488281 C96.4780358,59.5918046 97.3203125,61.6767447 97.3203125,64.3037109 L97.3203125,64.3037109 Z M89.2783203,71.7451172 C89.9423861,70.8759722 90.4624005,69.8676815 90.8383789,68.7202148 C91.2143573,67.5727482 91.4023438,66.2519606 91.4023438,64.7578125 C91.4023438,63.1953047 91.0288123,61.9721724 90.2817383,61.0883789 C89.5346642,60.2045854 88.4677804,59.7626953 87.0810547,59.7626953 C86.172847,59.7626953 85.3061565,59.9702128 84.480957,60.3852539 C83.6557576,60.800295 82.8964878,61.4326129 82.203125,62.2822266 C81.5292935,63.0927775 80.9873067,64.1010682 80.5771484,65.3071289 C80.1669901,66.5131896 79.9619141,67.8681565 79.9619141,69.3720703 C79.9619141,71.0420005 80.345211,72.3017536 81.1118164,73.1513672 C81.8784218,74.0009808 82.9404229,74.4257812 84.2978516,74.4257812 C85.2353562,74.4257812 86.1386675,74.19385 87.0078125,73.7299805 C87.8769575,73.266111 88.6337858,72.6044965 89.2783203,71.7451172 L89.2783203,71.7451172 Z M122.823242,64.3037109 C122.823242,66.0908292 122.520511,67.8486242 121.915039,69.5771484 C121.309567,71.3056727 120.43067,72.8144467 119.27832,74.1035156 C118.018548,75.5097727 116.548837,76.586422 114.869141,77.3334961 C113.189445,78.0805701 111.25587,78.4541016 109.068359,78.4541016 C106.089829,78.4541016 103.758309,77.6850663 102.07373,76.1469727 C100.389152,74.608879 99.546875,72.492201 99.546875,69.796875 C99.546875,67.9023343 99.8691374,66.1005945 100.513672,64.3916016 C101.158206,62.6826086 102.081049,61.1787174 103.282227,59.8798828 C104.454107,58.6201109 105.904288,57.6142616 107.632812,56.8623047 C109.361337,56.1103478 111.246084,55.734375 113.287109,55.734375 C116.275406,55.734375 118.611808,56.5058517 120.296387,58.0488281 C121.980965,59.5918046 122.823242,61.6767447 122.823242,64.3037109 L122.823242,64.3037109 Z M114.78125,71.7451172 C115.445316,70.8759722 115.96533,69.8676815 116.341309,68.7202148 C116.717287,67.5727482 116.905273,66.2519606 116.905273,64.7578125 C116.905273,63.1953047 116.531742,61.9721724 115.784668,61.0883789 C115.037594,60.2045854 113.97071,59.7626953 112.583984,59.7626953 C111.675777,59.7626953 110.809086,59.9702128 109.983887,60.3852539 C109.158687,60.800295 108.399418,61.4326129 107.706055,62.2822266 C107.032223,63.0927775 106.490236,64.1010682 106.080078,65.3071289 C105.66992,66.5131896 105.464844,67.8681565 105.464844,69.3720703 C105.464844,71.0420005 105.848141,72.3017536 106.614746,73.1513672 C107.381351,74.0009808 108.443353,74.4257812 109.800781,74.4257812 C110.738286,74.4257812 111.641597,74.19385 112.510742,73.7299805 C113.379887,73.266111 114.136716,72.6044965 114.78125,71.7451172 L114.78125,71.7451172 Z M145.879883,62.2236328 C145.879883,64.8213021 144.803233,66.9160077 142.649902,68.5078125 C140.496571,70.0996173 137.486347,70.8955078 133.619141,70.8955078 L131.480469,70.8955078 L129.839844,78 L124.185547,78 L129.224609,56.1884766 L137.061523,56.1884766 C138.487312,56.1884766 139.729975,56.2861318 140.789551,56.4814453 C141.849126,56.6767588 142.764645,57.0136695 143.536133,57.4921875 C144.297855,57.9707055 144.878904,58.5932579 145.279297,59.3598633 C145.67969,60.1264687 145.879883,61.081049 145.879883,62.2236328 L145.879883,62.2236328 Z M139.874023,62.765625 C139.874023,61.9160114 139.566409,61.2861349 138.951172,60.8759766 C138.335934,60.4658183 137.422858,60.2607422 136.211914,60.2607422 L133.941406,60.2607422 L132.432617,66.7939453 L134.454102,66.7939453 C136.163094,66.7939453 137.493648,66.4448277 138.445801,65.746582 C139.397954,65.0483364 139.874023,64.0546939 139.874023,62.765625 L139.874023,62.765625 Z"></path>
            <path d="M64.54225,37.2592893 C64.54225,38.2177893 65.37925,38.7004143 66.28375,38.7004143 C70.219,38.7004143 72.409375,38.6902893 76.34125,38.7004143 L76.34125,33.6817893 C76.34125,30.8974143 78.619375,28.6192893 81.400375,28.6192893 C84.188125,28.6192893 86.462875,30.8974143 86.462875,33.6817893 L86.462875,38.7274143 C90.415,38.7375393 92.68975,38.7004143 96.641875,38.7004143 C97.543,38.7004143 98.322625,38.1604143 98.322625,37.2592893 L100,21.4642893 C100,15.0416643 96.0985,9.46278927 90.51625,7.36353927 C90.641125,8.02503927 90.755875,8.62578927 90.816625,9.34466427 C91.05625,13.0031643 89.67925,16.6616643 87.097375,19.1861643 C84.815875,21.4676643 81.818875,22.7231643 78.578875,22.7231643 L78.09625,22.7231643 C74.738125,22.6050393 73.821055,22.496109 74.47918,21.837984 C75.137305,21.179859 75.757375,19.3076643 78.275125,19.3684143 C80.799625,19.4899143 83.07775,18.5887893 84.815875,16.8472893 C86.678875,14.9876643 87.698125,12.2876643 87.515875,9.58428927 C87.39775,7.30616427 86.49325,5.50728927 84.876625,4.30916427 C76.594375,-2.18096073 46,-0.196460725 46,19.9759143 L46,22.7366643 C46,23.6377893 46.779625,24.1777893 47.798875,24.1777893 L51.038875,24.1777893 C51.94,24.1777893 52.71625,23.4015393 52.71625,22.4396643 C52.71625,18.4774143 56.19925,13.9785393 60.81625,13.9785393 C61.440625,13.9751643 62.102125,13.9920393 62.80075,14.0224143 L64.54225,37.2592893 Z" transform="translate(73.000000, 19.864582) scale(-1, 1) translate(-73.000000, -19.864582) "></path>
        </g>
    </g>
</svg>
