<?xml version="1.0" standalone="no"?>
<!DOCTYPE svg PUBLIC "-//W3C//DTD SVG 20010904//EN"
 "http://www.w3.org/TR/2001/REC-SVG-20010904/DTD/svg10.dtd">
<svg version="1.0" xmlns="http://www.w3.org/2000/svg"
 width="450.000000pt" height="123.000000pt" viewBox="0 0 450.000000 123.000000"
 preserveAspectRatio="xMidYMid meet">
<metadata>
Created by potrace 1.13, written by Peter Selinger 2001-2015
</metadata>
<g transform="translate(0.000000,123.000000) scale(0.100000,-0.100000)"
fill="#000000" stroke="none">
<path d="M450 1096 c0 -3 114 -201 140 -243 8 -12 32 -32 54 -45 37 -21 56
-23 189 -26 121 -3 147 -1 147 10 0 19 -65 127 -98 161 -85 90 -223 147 -353
147 -43 0 -79 -2 -79 -4z"/>
<path d="M1430 615 l0 -415 70 0 70 0 0 170 0 170 210 0 210 0 0 65 0 65 -207
2 -208 3 -3 113 -3 112 236 0 235 0 0 65 0 65 -305 0 -305 0 0 -415z"/>
<path d="M2202 618 l3 -413 288 -3 287 -2 0 70 0 70 -215 0 -215 0 0 345 0
345 -75 0 -75 0 2 -412z"/>
<path d="M3877 838 c75 -106 138 -200 140 -208 2 -8 -62 -107 -142 -220 l-146
-205 76 -3 c46 -2 82 2 90 8 8 6 58 76 111 156 54 79 101 144 105 144 4 0 41
-48 82 -107 40 -60 89 -129 107 -155 l34 -48 83 0 c46 0 83 2 83 5 0 2 -67 98
-149 212 l-149 208 31 45 c17 25 82 116 144 203 l112 157 -84 0 -84 0 -98
-142 c-54 -79 -102 -143 -107 -143 -5 0 -52 64 -105 142 l-96 143 -87 0 -87 0
136 -192z"/>
<path d="M120 873 c-73 -116 -94 -277 -51 -403 26 -74 80 -165 92 -153 4 4 38
60 76 123 63 107 68 119 68 175 0 56 -5 68 -70 182 -39 67 -73 122 -77 123 -5
0 -22 -21 -38 -47z"/>
<path d="M653 429 c-44 -22 -73 -60 -161 -216 -45 -80 -44 -83 32 -83 169 0
344 100 426 243 16 29 30 58 30 65 0 9 -35 12 -142 12 -125 0 -148 -3 -185
-21z"/>
</g>
</svg>
