<?xml version="1.0" encoding="UTF-8" standalone="no"?>
<!--

    Copyright (c) 2012-2018 Red Hat, Inc.
    This program and the accompanying materials are made
    available under the terms of the Eclipse Public License 2.0
    which is available at https://www.eclipse.org/legal/epl-2.0/

    SPDX-License-Identifier: EPL-2.0

    Contributors:
      Red Hat, Inc. - initial API and implementation

-->
<svg width="205px" height="232px" viewBox="0 0 205 232" version="1.1" xmlns="http://www.w3.org/2000/svg" xmlns:xlink="http://www.w3.org/1999/xlink">
    <g stroke="none" stroke-width="1" fill="none" fill-rule="evenodd">
        <g fill="#000000">
            <path d="M102.6,231.5 C99.5,231.5 96.4,230.7 93.7,229.1 L65.5,212.4 C61.3,210 63.3,209.2 64.7,208.7 C70.3,206.7 71.5,206.3 77.5,202.9 C78.1,202.5 79,202.7 79.6,203.1 L101.3,216 C102.1,216.4 103.2,216.4 103.9,216 L188.4,167.2 C189.2,166.8 189.7,165.8 189.7,164.9 L189.7,67.4 C189.7,66.4 189.2,65.6 188.4,65.1 L103.9,16.4 C103.1,15.9 102.1,15.9 101.3,16.4 L16.9,65.1 C16.1,65.6 15.6,66.5 15.6,67.4 L15.6,164.9 C15.6,165.8 16.1,166.7 16.9,167.2 L40,180.6 C52.6,186.9 60.2,179.5 60.2,172.1 L60.2,75.8 C60.2,74.4 61.3,73.4 62.7,73.4 L73.4,73.4 C74.7,73.4 75.8,74.5 75.8,75.8 L75.8,172 C75.8,188.8 66.7,198.4 50.8,198.4 C45.9,198.4 42.1,198.4 31.3,193.1 L9.1,180.3 C3.6,177.1 0.2,171.2 0.2,164.9 L0.2,67.4 C0.2,61.1 3.6,55.2 9.1,52 L93.6,3.2 C98.9,0.2 106.1,0.2 111.4,3.2 L195.9,52 C201.4,55.2 204.8,61.1 204.8,67.4 L204.8,164.9 C204.8,171.2 201.4,177.1 195.9,180.3 L111.4,229.1 C108.8,230.6 105.7,231.5 102.6,231.5 L102.6,231.5 Z"></path>
            <path d="M128.7,164.3 C91.7,164.3 84,147.3 84,133.1 C84,131.7 85.1,130.7 86.4,130.7 L97.3,130.7 C98.5,130.7 99.5,131.6 99.7,132.8 C101.3,143.9 106.3,149.5 128.6,149.5 C146.4,149.5 154,145.5 154,136 C154,130.6 151.9,126.5 124.2,123.8 C101.1,121.5 86.8,116.4 86.8,97.9 C86.8,80.9 101.2,70.7 125.3,70.7 C152.4,70.7 165.8,80.1 167.5,100.2 C167.6,100.9 167.3,101.6 166.9,102.1 C166.4,102.6 165.8,102.9 165.1,102.9 L154.1,102.9 C153,102.9 152,102.1 151.7,101 C149.1,89.3 142.7,85.6 125.3,85.6 C105.9,85.6 103.6,92.4 103.6,97.4 C103.6,103.5 106.3,105.3 132.5,108.8 C158.5,112.2 170.8,117.1 170.8,135.3 C170.8,153.7 155.4,164.3 128.7,164.3 L128.7,164.3 Z"></path>
        </g>
    </g>
</svg>
