<?xml version="1.0" encoding="UTF-8" standalone="no"?>
<!--

    Copyright (c) 2012-2018 Red Hat, Inc.
    This program and the accompanying materials are made
    available under the terms of the Eclipse Public License 2.0
    which is available at https://www.eclipse.org/legal/epl-2.0/

    SPDX-License-Identifier: EPL-2.0

    Contributors:
      Red Hat, Inc. - initial API and implementation

-->
<svg xmlns="http://www.w3.org/2000/svg" xmlns:xlink="http://www.w3.org/1999/xlink"
   version="1.1"
   width="50"
   height="50"
   viewBox="0 0 50 50">
  <g
     transform="translate(0.60832417,9.6327104)"
     style="fill:none;fill-rule:evenodd;stroke:none;stroke-width:1">
    <g
       transform="translate(-223,-185)"
       style="fill:#000000">
      <g
         id="C++"
         transform="translate(223,185)">
        <path
           d="m 31.395613,10.706342 0,4.674527 4.469983,0 0,1.477894 -4.469983,0 0,4.707369 -1.603482,0 0,-4.707369 -4.448018,0 0,-1.477894 4.448018,0 0,-4.674527 1.603482,0 z m 12.74,0 0,4.674527 4.469983,0 0,1.477894 -4.469983,0 0,4.707369 -1.603482,0 0,-4.707369 -4.448018,0 0,-1.477894 4.448018,0 0,-4.674527 1.603482,0 z"
           id="++" />
        <path
           d="m 22.376656,23.208342 c 0.302028,0 0.562866,0.116315 0.782522,0.348948 l 2.182823,2.360526 c -1.208109,1.491586 -2.694199,2.634206 -4.458313,3.427895 -1.764115,0.793688 -3.881707,1.190526 -6.35284,1.190526 -2.210291,0 -4.197464,-0.376312 -5.9615783,-1.128947 C 6.8051552,28.654654 5.2984731,27.607823 4.0491781,26.266763 2.799883,24.925704 1.8423333,23.324667 1.1765003,21.463605 0.5106672,19.602543 0.17775566,17.570459 0.17775566,15.36729 c 0,-2.230538 0.37066439,-4.272886 1.11200434,-6.1271056 C 2.0310999,7.3859646 3.0744515,5.788349 4.4198462,4.4472897 5.7652408,3.1062303 7.3748853,2.0628197 9.2488279,1.3170265 11.12277,0.5712333 13.192313,0.19834229 15.457519,0.19834229 c 2.210291,0 4.142551,0.3523649 5.796837,1.05710521 1.654286,0.7047404 3.071734,1.6386784 4.252387,2.8018422 l -1.853341,2.5657894 c -0.109828,0.1642114 -0.250543,0.3078941 -0.42215,0.4310527 -0.171606,0.1231585 -0.408419,0.1847368 -0.710447,0.1847368 -0.315756,0 -0.638371,-0.1231567 -0.967855,-0.3694737 C 21.223465,6.6230779 20.804752,6.3562385 20.296797,6.0688686 19.788841,5.7814987 19.147043,5.5146593 18.371382,5.2683423 17.59572,5.0220253 16.610714,4.8988686 15.416333,4.8988686 c -1.400308,0 -2.687338,0.2428923 -3.861126,0.7286842 C 10.381419,6.1133447 9.3723881,6.8078115 8.5280843,7.7109739 7.6837805,8.6141363 7.0248216,9.7122832 6.5511878,11.005448 6.0775539,12.298612 5.8407406,13.752545 5.8407406,15.36729 c 0,1.669482 0.2368133,3.154204 0.7104472,4.45421 0.4736338,1.300007 1.1154323,2.394733 1.9254148,3.284211 0.8099825,0.889478 1.7641004,1.57026 2.8623814,2.042368 1.098282,0.472108 2.278916,0.708158 3.54194,0.708158 0.755068,0 1.438052,-0.04105 2.048971,-0.123158 0.610919,-0.08211 1.173779,-0.212104 1.688599,-0.39 0.514819,-0.177896 1.002174,-0.407104 1.462079,-0.687631 0.459906,-0.280528 0.916372,-0.626051 1.369413,-1.036579 0.137285,-0.123159 0.281433,-0.222368 0.432446,-0.297632 0.151014,-0.07526 0.315754,-0.112895 0.494224,-0.112895 l 0,0 z"
           id="C" />
      </g>
    </g>
  </g>
</svg>
