<?xml version="1.0" encoding="UTF-8" standalone="no"?>
<!--

    Copyright (c) 2012-2018 Red Hat, Inc.
    This program and the accompanying materials are made
    available under the terms of the Eclipse Public License 2.0
    which is available at https://www.eclipse.org/legal/epl-2.0/

    SPDX-License-Identifier: EPL-2.0

    Contributors:
      Red Hat, Inc. - initial API and implementation

-->
<svg width="72px" height="39px" viewBox="0 0 72 39" version="1.1" xmlns="http://www.w3.org/2000/svg" xmlns:xlink="http://www.w3.org/1999/xlink">
    <g stroke="none" stroke-width="1" fill="none" fill-rule="evenodd">
        <g fill="#000000">
            <path d="M10.15,38.07 L10.15,10.125 L13.885,10.125 L13.885,14.085 C15.685,11.025 18.295,9.495 21.67,9.495 C23.155,9.495 24.505,9.765 25.72,10.395 C26.935,11.025 27.88,11.79 28.51,12.78 C29.14,13.77 29.545,14.895 29.815,16.245 C29.995,17.1 30.04,18.675 30.04,20.835 L30.04,37.98 L25.9,37.98 L25.9,21.015 C25.9,19.08 25.72,17.64 25.405,16.695 C25.09,15.75 24.505,14.985 23.695,14.4 C22.885,13.815 21.895,13.545 20.77,13.545 C19.015,13.545 17.485,14.22 16.18,15.48 C14.92,16.74 14.245,19.17 14.245,22.77 L14.245,38.025 L10.15,38.07 L10.15,38.07 L10.15,38.07 Z M53.125,29.07 L57.4,29.7 C56.725,32.58 55.465,34.785 53.665,36.36 C51.82,37.935 49.48,38.745 46.645,38.745 C43.09,38.745 40.255,37.485 38.14,34.965 C36.07,32.445 34.99,28.935 34.99,24.39 C34.99,19.665 36.07,16.065 38.14,13.455 C40.255,10.89 43,9.54 46.375,9.54 C49.66,9.54 52.315,10.8 54.385,13.365 C56.455,15.93 57.49,19.485 57.49,24.075 C57.49,24.345 57.49,24.75 57.445,25.335 L39.175,25.335 C39.355,28.395 40.075,30.735 41.47,32.4 C42.82,34.02 44.53,34.875 46.6,34.875 C48.13,34.875 49.435,34.425 50.515,33.525 C51.64,32.535 52.495,31.05 53.125,29.07 L53.125,29.07 L53.125,29.07 L53.125,29.07 Z M39.49,21.42 L53.17,21.42 C52.99,19.08 52.495,17.325 51.595,16.11 C50.29,14.31 48.58,13.365 46.465,13.365 C44.575,13.365 43,14.085 41.65,15.525 C40.345,17.01 39.67,18.99 39.49,21.42 L39.49,21.42 L39.49,21.42 L39.49,21.42 Z M71.665,33.84 L72.295,38.025 C71.125,38.295 70.09,38.43 69.19,38.43 C67.66,38.43 66.535,38.16 65.725,37.62 C64.915,37.08 64.33,36.36 63.97,35.505 C63.655,34.65 63.475,32.76 63.475,29.925 L63.475,13.86 L50.2,13.86 L50.2,10.17 L63.43,10.17 L63.43,3.24 L67.57,0.405 L67.57,10.17 L71.755,10.17 L71.755,13.86 L67.57,13.86 L67.57,30.15 C67.57,31.5 67.66,32.355 67.795,32.715 C67.975,33.075 68.155,33.39 68.47,33.66 C68.785,33.885 69.28,33.975 69.865,33.975 C70.315,34.02 70.945,33.975 71.665,33.84 L71.665,33.84 L71.665,33.84 L71.665,33.84 Z"></path>
            <path d="M3.985,30.825 C5.785,30.825 7.315,32.355 7.315,34.2 C7.315,36.045 5.83,37.575 3.985,37.575 C2.185,37.575 0.655,36.045 0.655,34.2 C0.655,32.355 2.14,30.825 3.985,30.825 L3.985,30.825 L3.985,30.825 L3.985,30.825 Z"></path>
        </g>
    </g>
</svg>
