<?xml version="1.0" encoding="UTF-8"?>
<!--

    Copyright (c) 2012-2018 Red Hat, Inc.
    This program and the accompanying materials are made
    available under the terms of the Eclipse Public License 2.0
    which is available at https://www.eclipse.org/legal/epl-2.0/

    SPDX-License-Identifier: EPL-2.0

    Contributors:
      Red Hat, Inc. - initial API and implementation

-->
<svg width="300px" height="300px" viewBox="0 0 300 300" version="1.1" xmlns="http://www.w3.org/2000/svg" xmlns:xlink="http://www.w3.org/1999/xlink">
    <g stroke="none" stroke-width="1" fill="none" fill-rule="evenodd">
        <g fill="#000000">
            <path d="M287.766184,130.123154 C294.116198,141.121701 294.113821,158.957986 287.766184,169.952417 L236.261619,259.160939 C229.911605,270.159486 214.463741,279.07557 201.768466,279.07557 L98.7593373,279.07557 C86.0593088,279.07557 70.6138211,270.155369 64.2661837,259.160939 L12.7616194,169.952417 C6.41160517,158.953869 6.41398201,141.117584 12.7616194,130.123154 L64.2661837,40.9146315 C70.6161979,29.9160842 86.0640625,21 98.7593373,21 L201.768466,21 C214.468494,21 229.913982,29.920201 236.261619,40.9146315 L287.766184,130.123154 Z M226.5498,145.751994 C226.5498,121.343483 215.299786,98.8434562 195.712709,84.1782601 C190.087703,79.8590586 181.951532,80.9639706 177.732777,86.6894238 C173.413576,92.3144305 174.618934,100.450601 180.243941,104.669356 C193.301992,114.513118 200.835483,129.479653 200.835483,145.751994 C200.835483,174.077921 177.732777,197.180627 149.406851,197.180627 C121.080924,197.180627 97.9782179,174.077921 97.9782179,145.751994 C97.9782179,129.479653 105.511709,114.513118 118.56976,104.669356 C124.194767,100.450601 125.400126,92.3144305 121.080924,86.6894238 C116.862169,80.9639706 108.826445,79.8590586 103.100992,84.1782601 C83.5139149,98.8434562 72.2639015,121.343483 72.2639015,145.751994 C72.2639015,188.240884 106.917961,222.894943 149.406851,222.894943 C191.895741,222.894943 226.5498,188.240884 226.5498,145.751994 Z M163.517823,72.3109722 C163.517823,65.5784093 157.123789,60 149.406851,60 C141.689913,60 135.295878,65.5784093 135.295878,72.3109722 L135.295878,143.441022 C135.295878,150.173585 141.689913,155.751994 149.406851,155.751994 C157.123789,155.751994 163.517823,150.173585 163.517823,143.441022 L163.517823,72.3109722 Z" id="spring-boot"></path>
        </g>
    </g>
</svg>

