<?xml version="1.0" encoding="UTF-8" standalone="no"?>
<!--

    Copyright (c) 2012-2018 Red Hat, Inc.
    This program and the accompanying materials are made
    available under the terms of the Eclipse Public License 2.0
    which is available at https://www.eclipse.org/legal/epl-2.0/

    SPDX-License-Identifier: EPL-2.0

    Contributors:
      Red Hat, Inc. - initial API and implementation

-->
<svg xmlns="http://www.w3.org/2000/svg" xmlns:xlink="http://www.w3.org/1999/xlink"
     version="1.1"
     viewBox="15 -10 163 118">
    <g transform="matrix(2,0,0,2,-183.18247,-939.77426)"
        style="font-size:53px;font-style:italic;font-variant:normal;font-weight:500;font-stretch:normal;line-height:125%;letter-spacing:0px;word-spacing:0px;fill:#000000;fill-opacity:1;stroke:none;font-family:Handel Gothic;-inkscape-font-specification:Handel Gothic Italic">
        <path d="m 136.95247,481.62566 -3.73625,18.65063 3.58312,0 2.12844,-10.67281 2.87875,0.023 c 0.9176,10e-6 1.51454,0.18002 1.79156,0.54359 0.277,0.36359 0.33389,0.9795 0.16078,1.84516 l -1.6614,8.26109 3.62906,0 1.74562,-8.65156 c 0.36357,-1.93908 0.10203,-3.25043 -0.78093,-3.94297 -0.86569,-0.69252 -2.18468,-1.0602 -3.95063,-1.09484 l -3.21562,0 1.01062,-4.96125 -3.58312,0 z m -16.42266,4.96125 -3.71328,18.62 3.60609,0 0.98766,-4.93062 3.11609,0 c 1.0561,0 2.08328,-0.12511 3.07016,-0.3675 0.98684,-0.24239 1.91354,-0.80705 2.77922,-1.70734 0.70983,-0.70985 1.26318,-1.51342 1.6614,-2.39641 0.41551,-0.88297 0.6827,-1.77739 0.80391,-2.695 0.31162,-2.00834 0.006,-3.59453 -0.91109,-4.75453 -0.91763,-1.15998 -2.39767,-1.75125 -4.44063,-1.7686 l -6.95953,0 z m 30.78578,0 -3.71328,18.62 3.61375,0 0.98766,-4.93062 3.11609,0 c 1.0561,0 2.07563,-0.12511 3.0625,-0.3675 0.98684,-0.24239 1.91354,-0.80705 2.77922,-1.70734 0.70982,-0.70985 1.26318,-1.51342 1.6614,-2.39641 0.41551,-0.88297 0.6827,-1.77739 0.80391,-2.695 0.31162,-2.00834 0.006,-3.59453 -0.91109,-4.75453 -0.91762,-1.15998 -2.39768,-1.75125 -4.44063,-1.7686 l -6.95953,0 z m -26.62844,2.96297 c 1.38506,-0.0173 2.53535,0.11347 3.45297,0.39047 0.9349,0.27702 1.24569,1.32117 0.93406,3.13906 -0.3809,2.16418 -1.12758,3.43393 -2.23562,3.7975 -1.10807,0.34627 -2.48762,0.5073 -4.14969,0.49 l -0.3675,0 c -0.10389,0 -0.21004,-0.006 -0.3139,-0.023 l 1.55421,-7.77109 c 0.18461,1e-5 0.36002,1e-5 0.52829,0 0.19043,0 0.38941,-0.006 0.59718,-0.023 z m 30.78578,0 c 1.38506,-0.0173 2.53535,0.11347 3.45297,0.39047 0.93491,0.27702 1.24569,1.32117 0.93407,3.13906 -0.38091,2.16418 -1.11993,3.43393 -2.22797,3.7975 -1.10807,0.34627 -2.49528,0.5073 -4.15735,0.49 l -0.3675,0 c -0.10388,0 -0.20237,-0.006 -0.30625,-0.023 l 1.54657,-7.77109 c 0.18459,1e-5 0.36001,1e-5 0.52828,0 0.19043,0 0.38942,-0.006 0.59718,-0.023 z"/>
    </g>
    <path d="m 96.08917,11.16541 c -14.589835,0 -28.232042,1.972 -39.863298,5.398551 C 33.909125,23.138442 18.99542,35.067654 18.99542,48.69666 c 0,20.732302 34.510577,37.53125 77.09375,37.53125 42.58318,0 77.125,-16.798948 77.125,-37.53125 0,-20.732302 -34.54182,-37.53125 -77.125,-37.53125 z m 0.125,1.625 c 4.55066,0 9.00703,0.191955 13.33534,0.559809 35.27153,2.997651 62.03966,17.676134 62.03966,35.346441 0,19.838707 -33.74088,35.9375 -75.375,35.9375 -41.634122,0 -75.40625,-16.098793 -75.40625,-35.9375 0,-19.838702 33.772128,-35.90625 75.40625,-35.90625 z"
          style="fill:#000000;stroke:#000000;stroke-width:7.9405117;stroke-miterlimit:4;stroke-opacity:1"/>
</svg>
