<?xml version="1.0" encoding="utf-8"?>
<!--

    Copyright (c) 2012-2018 Red Hat, Inc.
    This program and the accompanying materials are made
    available under the terms of the Eclipse Public License 2.0
    which is available at https://www.eclipse.org/legal/epl-2.0/

    SPDX-License-Identifier: EPL-2.0

    Contributors:
      Red Hat, Inc. - initial API and implementation

-->
<svg width="40px" height="48px" viewBox="0 0 40 48" version="1.1" xmlns="http://www.w3.org/2000/svg" xmlns:xlink="http://www.w3.org/1999/xlink">
    <g stroke="none" stroke-width="1" fill="none" fill-rule="evenodd">
        <g transform="translate(-65.000000, -117.000000)" fill="#262626">
            <path d="M78.7555968,127.619385 C78.1696586,127.619385 77.6953276,127.117152 77.6953276,126.531214 C77.6953276,125.945275 78.1696586,125.443043 78.7555968,125.443043 C79.3694368,125.443043 79.8437677,125.945275 79.8437677,126.531214 C79.8437677,127.117152 79.3694368,127.619385 78.7555968,127.619385 L78.7555968,127.619385 Z M90.5301644,127.619385 C89.9163243,127.619385 89.4419934,127.117152 89.4419934,126.531214 C89.4419934,125.945275 89.9163243,125.443043 90.5301644,125.443043 C91.1161026,125.443043 91.5904335,125.945275 91.5904335,126.531214 C91.5904335,127.117152 91.1161026,127.619385 90.5301644,127.619385 L90.5301644,127.619385 Z M67.8738874,132.753319 C66.2834837,132.753319 65,134.036803 65,135.599305 L65,147.597087 C65,149.187491 66.2834837,150.470974 67.8738874,150.470974 C69.464291,150.470974 70.7198729,149.187491 70.7198729,147.597087 L70.7198729,135.599305 C70.7198729,134.036803 69.4363892,132.753319 67.8738874,132.753319 L67.8738874,132.753319 Z M97.4498155,133.283454 L71.8359456,133.283454 L71.8359456,151.866065 C71.8359456,153.568076 73.2031348,154.935265 74.9051457,154.935265 L76.9698803,154.935265 L76.9977822,161.268978 C76.9977822,162.859382 78.2812658,164.142866 79.8437677,164.142866 C81.4341714,164.142866 82.717655,162.859382 82.717655,161.268978 L82.717655,154.935265 L86.5681061,154.935265 L86.5681061,161.268978 C86.5681061,162.859382 87.8515897,164.142866 89.4419934,164.142866 C91.0323971,164.142866 92.3158808,162.859382 92.3158808,161.268978 L92.3158808,154.935265 L94.4085172,154.935265 C96.0826263,154.935265 97.4498155,153.568076 97.4498155,151.866065 L97.4498155,133.283454 Z M90.9765935,121.983217 L92.9576226,118.328079 C93.0692299,118.132766 93.0134263,117.88165 92.8181135,117.770043 C92.6228008,117.686337 92.3716844,117.742141 92.2600771,117.937453 L90.2511462,121.620494 C88.5491352,120.867144 86.6518115,120.448617 84.6428806,120.448617 C82.6339496,120.448617 80.7366259,120.867144 79.0346149,121.620494 L77.025684,117.937453 C76.9140767,117.742141 76.6629603,117.686337 76.4676476,117.770043 C76.2723349,117.88165 76.2165312,118.132766 76.3281385,118.328079 L78.3091677,121.983217 C74.3750112,123.992148 71.7243384,127.842599 71.7243384,132.278988 L97.5335209,132.278988 C97.5335209,127.842599 94.8828481,123.992148 90.9765935,121.983217 L90.9765935,121.983217 Z M104.285761,135.599305 C104.285761,134.008901 103.002277,132.753319 101.411874,132.753319 C99.8493719,132.753319 98.5658882,134.008901 98.5658882,135.599305 L98.5658882,147.597087 C98.5658882,149.187491 99.8493719,150.470974 101.411874,150.470974 C103.002277,150.470974 104.285761,149.187491 104.285761,147.597087 L104.285761,135.599305 Z"></path>
        </g>
    </g>
</svg>