<?xml version="1.0" encoding="utf-8"?>
<!--

    Copyright (c) 2012-2017 Codenvy, S.A.
    All rights reserved. This program and the accompanying materials
    are made available under the terms of the Eclipse Public License v1.0
    which accompanies this distribution, and is available at
    http://www.eclipse.org/legal/epl-v10.html

    Contributors:
      Codenvy, S.A. - initial API and implementation

-->
<!DOCTYPE svg PUBLIC "-//W3C//DTD SVG 1.1//EN" "http://www.w3.org/Graphics/SVG/1.1/DTD/svg11.dtd">
<svg version="1.1" xmlns="http://www.w3.org/2000/svg" xmlns:xlink="http://www.w3.org/1999/xlink" x="0px" y="0px" width="32px"
	 height="32px" viewBox="0 0 32 32" enable-background="new 0 0 32 32" xml:space="preserve">
<g>
	<path fill-rule="evenodd" clip-rule="evenodd" fill="#4D4D4D" d="M21.476,9.407c-0.126-0.098-0.286-0.12-0.428-0.059l-6.83,2.958
		c-0.297,0.129-0.668,0.191-1.05,0.191c-0.532,0.001-1.083-0.123-1.467-0.292c-0.138-0.059-0.252-0.124-0.333-0.183
		c0.029-0.014,0.063-0.03,0.104-0.045l6.213-2.689l0.928,0.397v-1.16c0-0.172-0.073-0.336-0.199-0.432
		c-0.126-0.098-0.287-0.12-0.427-0.059l-6.836,2.957c-0.211,0.085-0.392,0.189-0.546,0.342c-0.15,0.147-0.28,0.39-0.278,0.66
		c0,0.008,0.003,0.02,0.003,0.02v10.414c0,0.004-0.002,0.009-0.002,0.014c0,0.004,0.002,0.005,0.002,0.008v0.012h0.001
		c0.015,0.368,0.198,0.604,0.373,0.759c0.552,0.487,1.479,0.759,2.464,0.781c0.467,0,0.94-0.074,1.378-0.259l6.831-2.961
		c0.182-0.074,0.298-0.271,0.298-0.486V9.84C21.674,9.668,21.601,9.504,21.476,9.407L21.476,9.407z M17.043,17.978
		c0.018-0.228,0.066-0.492,0.195-0.731c0.178-0.329,0.474-0.684,0.733-0.978c0.171-0.182,0.315-0.382,0.422-0.601
		c0.11-0.225,0.157-0.442,0.157-0.649c0-0.2-0.047-0.374-0.183-0.466c-0.136-0.091-0.324-0.062-0.521,0.024
		c-0.173,0.075-0.327,0.191-0.456,0.364c-0.1,0.134-0.152,0.276-0.176,0.417c-0.016,0.097-0.093,0.195-0.184,0.234l-0.984,0.428
		c-0.054,0.023-0.1,0.023-0.137,0c-0.036-0.023-0.054-0.063-0.051-0.117c0.025-0.448,0.18-0.901,0.535-1.329
		c0.416-0.501,0.938-0.832,1.452-1.055c0.548-0.238,1.101-0.362,1.521-0.174c0.394,0.175,0.555,0.559,0.555,1.075
		c0,0.344-0.104,0.699-0.303,1.065c-0.202,0.373-0.456,0.706-0.758,0.995c-0.146,0.157-0.289,0.339-0.362,0.531
		c-0.052,0.134-0.075,0.273-0.085,0.399c-0.009,0.101-0.089,0.211-0.187,0.253l-1,0.435c-0.055,0.023-0.101,0.023-0.138,0
		C17.056,18.074,17.039,18.033,17.043,17.978L17.043,17.978z M18.218,19.358l-0.992,0.431c-0.104,0.046-0.188-0.002-0.188-0.105
		V18.96c0-0.104,0.084-0.225,0.188-0.27l0.992-0.431c0.104-0.045,0.188,0.003,0.188,0.105v0.725
		C18.405,19.192,18.321,19.313,18.218,19.358z"/>
</g>
</svg>
