<?xml version="1.0" encoding="utf-8"?>
<!--

    Copyright (c) 2012-2018 Red Hat, Inc.
    This program and the accompanying materials are made
    available under the terms of the Eclipse Public License 2.0
    which is available at https://www.eclipse.org/legal/epl-2.0/

    SPDX-License-Identifier: EPL-2.0

    Contributors:
      Red Hat, Inc. - initial API and implementation

-->
<!DOCTYPE svg PUBLIC "-//W3C//DTD SVG 1.1//EN" "http://www.w3.org/Graphics/SVG/1.1/DTD/svg11.dtd">
<svg version="1.1" id="copy" xmlns="http://www.w3.org/2000/svg" xmlns:xlink="http://www.w3.org/1999/xlink" x="0px" y="0px"
     width="16px" height="16px" viewBox="7 7 18 18" enable-background="new 0 0 32 32" xml:space="preserve">
    <g>
        <path fill-rule="evenodd" clip-rule="evenodd" fill="#4D4D4D" d="M12.499,20H8.188C8.085,20,8,19.916,8,19.813V8.188
                C8,8.084,8.085,8,8.188,8c3.609,0,6.517,0,10.126,0c0.103,0,0.188,0.085,0.188,0.188v2.822c-0.538,0.042-1.053,0.215-1.5,0.501V9.5
                c-2.5,0-5.001,0-7.501,0v9h2.999V20L12.499,20z M23.813,24C23.915,24,24,23.916,24,23.813V12.938c0-0.103-0.085-0.188-0.188-0.188
                h-3.386C20.015,12.29,19.416,12,18.749,12c-0.666,0-1.264,0.29-1.676,0.75h-3.387c-0.103,0-0.188,0.084-0.188,0.188v10.876
                c0,0.103,0.085,0.187,0.188,0.187H23.813L23.813,24z M17.999,14.25c0,0.414,0.336,0.75,0.75,0.75c0.415,0,0.751-0.336,0.751-0.75
                c-0.001-0.415-0.336-0.75-0.751-0.75C18.335,13.5,18,13.835,17.999,14.25L17.999,14.25z M20.999,14.25v1.313
                c0,0.103-0.084,0.187-0.187,0.187h-4.126c-0.103,0-0.187-0.084-0.187-0.187V14.25h-1.501v8.25H22.5v-8.25H20.999z"/>
    </g>
</svg>
