<?xml version="1.0" encoding="utf-8"?>
<!--

    Copyright (c) 2012-2018 Red Hat, Inc.
    This program and the accompanying materials are made
    available under the terms of the Eclipse Public License 2.0
    which is available at https://www.eclipse.org/legal/epl-2.0/

    SPDX-License-Identifier: EPL-2.0

    Contributors:
      Red Hat, Inc. - initial API and implementation

-->
<!DOCTYPE svg PUBLIC "-//W3C//DTD SVG 1.1//EN" "http://www.w3.org/Graphics/SVG/1.1/DTD/svg11.dtd">
<svg version="1.1" id="cut" xmlns="http://www.w3.org/2000/svg" xmlns:xlink="http://www.w3.org/1999/xlink" x="0px" y="0px"
     width="16px" height="16px" viewBox="7 7 18 18" enable-background="new 0 0 32 32" xml:space="preserve">
    <g>
        <path fill-rule="evenodd" clip-rule="evenodd" fill="#4D4D4D" d="M11,8c1.657,0,3,1.343,3,3c0,0.463-0.105,0.901-0.293,1.293
        		l10.001,10c0.389,0.389,0.389,1.025,0,1.414l0,0c-0.389,0.39-1.025,0.39-1.414,0L16,17.414l-2.293,2.293
        		C13.895,20.099,14,20.537,14,21c0,1.657-1.343,3-3,3s-3-1.343-3-3c0-1.656,1.343-3,3-3c0.463,0,0.901,0.105,1.293,0.293L14.586,16
        		l-2.293-2.292C11.901,13.895,11.463,14,11,14c-1.657,0-3-1.343-3-3C8,9.343,9.343,8,11,8L11,8z M23.708,8.292L23.708,8.292
        		c-0.389-0.389-1.025-0.389-1.414,0l-5.587,5.587l1.414,1.414l5.587-5.587C24.097,9.317,24.097,8.681,23.708,8.292L23.708,8.292z
        		 M11,20c-0.552,0-1,0.448-1,1c0,0.553,0.448,1,1,1s1-0.447,1-1C12,20.448,11.552,20,11,20L11,20z M11,10c-0.552,0-1,0.448-1,1
        		s0.448,1,1,1s1-0.448,1-1S11.552,10,11,10z"/>
    </g>
</svg>
