<?xml version="1.0" encoding="utf-8"?>
<!--

    Copyright (c) 2012-2018 Red Hat, Inc.
    This program and the accompanying materials are made
    available under the terms of the Eclipse Public License 2.0
    which is available at https://www.eclipse.org/legal/epl-2.0/

    SPDX-License-Identifier: EPL-2.0

    Contributors:
      Red Hat, Inc. - initial API and implementation

-->
<!DOCTYPE svg PUBLIC "-//W3C//DTD SVG 1.1//EN" "http://www.w3.org/Graphics/SVG/1.1/DTD/svg11.dtd">
<svg version="1.1" id="delete" xmlns="http://www.w3.org/2000/svg" xmlns:xlink="http://www.w3.org/1999/xlink" x="0px" y="0px"
     width="16px" height="16px" viewBox="7 7 18 18" enable-background="new 0 0 32 32" xml:space="preserve">
    <g>
        <path fill-rule="evenodd" clip-rule="evenodd" fill="#4D4D4D" d="M11,9h3c0-0.55,0.45-1,1-1h2.001C17.55,8,18,8.45,18,9h3
        		c0.55,0,1,0.45,1,1v0c0,0.549-0.45,1-1,1H11c-0.55,0-1-0.45-1-1v0C10,9.45,10.45,9,11,9L11,9z M12,12h8c0.55,0,1.055,0.453,1,1
        		l-1,10c-0.054,0.548-0.45,1-1,1h-6c-0.55,0-0.945-0.452-1-1l-1-10C10.946,12.453,11.45,12,12,12z"/>
    </g>
</svg>
