<?xml version="1.0" encoding="utf-8"?>
<!--

    Copyright (c) 2012-2018 Red Hat, Inc.
    This program and the accompanying materials are made
    available under the terms of the Eclipse Public License 2.0
    which is available at https://www.eclipse.org/legal/epl-2.0/

    SPDX-License-Identifier: EPL-2.0

    Contributors:
      Red Hat, Inc. - initial API and implementation

-->
<!DOCTYPE svg PUBLIC "-//W3C//DTD SVG 1.1//EN" "http://www.w3.org/Graphics/SVG/1.1/DTD/svg11.dtd">
<svg version="1.1" id="findAction" xmlns="http://www.w3.org/2000/svg" xmlns:xlink="http://www.w3.org/1999/xlink" x="0px" y="0px"
     width="16px" height="16px" viewBox="7 7 18 18" enable-background="new 0 0 32 32" xml:space="preserve">
    <g>
        <path fill-rule="evenodd" clip-rule="evenodd" fill="#4D4D4D" d="M16,8c4.419,0,8,3.582,8,8c0,4.419-3.581,8-8,8
        		c-4.418,0-8-3.581-8-8C8,11.582,11.582,8,16,8L16,8z M16.5,21.979c2.915-0.241,5.238-2.564,5.479-5.479H20.5
        		c-0.275,0-0.5-0.225-0.5-0.5v0c0-0.275,0.225-0.5,0.5-0.5h1.479c-0.241-2.915-2.564-5.238-5.479-5.479V11.5
        		c0,0.275-0.225,0.5-0.5,0.5l0,0c-0.275,0-0.5-0.225-0.5-0.5v-1.479c-2.915,0.241-5.238,2.564-5.479,5.479H11.5
        		c0.275,0,0.5,0.225,0.5,0.5v0c0,0.275-0.225,0.5-0.5,0.5h-1.479c0.241,2.915,2.564,5.238,5.479,5.479V20.5
        		c0-0.275,0.225-0.5,0.5-0.5l0,0c0.275,0,0.5,0.225,0.5,0.5V21.979z"/>
        	<path fill-rule="evenodd" clip-rule="evenodd" fill="#4D4D4D" d="M11.758,20.243l5.656-2.829l2.829-5.656l-5.657,2.828
        		L11.758,20.243L11.758,20.243z M13.993,18.008l1.338-2.677l1.338,1.338L13.993,18.008z"/>
    </g>
</svg>
