<?xml version="1.0" encoding="utf-8"?>
<!--

    Copyright (c) 2012-2018 Red Hat, Inc.
    This program and the accompanying materials are made
    available under the terms of the Eclipse Public License 2.0
    which is available at https://www.eclipse.org/legal/epl-2.0/

    SPDX-License-Identifier: EPL-2.0

    Contributors:
      Red Hat, Inc. - initial API and implementation

-->
<!DOCTYPE svg PUBLIC "-//W3C//DTD SVG 1.1//EN" "http://www.w3.org/Graphics/SVG/1.1/DTD/svg11.dtd">
<svg version="1.1" id="formatCode" xmlns="http://www.w3.org/2000/svg" xmlns:xlink="http://www.w3.org/1999/xlink" x="0px" y="0px"
     width="16px" height="16px" viewBox="7 7 18 18" enable-background="new 0 0 32 32" xml:space="preserve">
    <g>
        <path fill-rule="evenodd" clip-rule="evenodd" fill="#4D4D4D" d="M9,20.25h14c0.551,0,1,0.45,1,1v0.001c0,0.55-0.449,0.999-1,0.999
         		H9c-0.55,0-1-0.449-1-0.999V21.25C8,20.7,8.45,20.25,9,20.25L9,20.25z M8,16.25V12.25c0-0.194,0.103-0.36,0.276-0.447
         		C8.45,11.716,8.645,11.733,8.8,11.85l2.668,2c0.13,0.098,0.199,0.237,0.199,0.4c0,0.162-0.069,0.302-0.199,0.399l-2.668,2
         		c-0.155,0.116-0.35,0.134-0.523,0.048C8.103,16.611,8,16.445,8,16.25L8,16.25z M9.334,9.75l2.666,2h11c0.551,0,1-0.45,1-1v0
         		c0-0.55-0.449-1-1-1H9.334L9.334,9.75z M13.46,13.25H23c0.551,0,1,0.45,1,1v0c0,0.55-0.449,1-1,1h-9.54
         		c0.135-0.311,0.207-0.649,0.207-1S13.596,13.561,13.46,13.25L13.46,13.25z M12,16.75l-2.667,2H23c0.551,0,1-0.449,1-0.999V17.75
         		c0-0.55-0.449-1-1-1H12z"/>
    </g>
</svg>
