<?xml version="1.0" encoding="utf-8"?>
<!--

    Copyright (c) 2012-2018 Red Hat, Inc.
    This program and the accompanying materials are made
    available under the terms of the Eclipse Public License 2.0
    which is available at https://www.eclipse.org/legal/epl-2.0/

    SPDX-License-Identifier: EPL-2.0

    Contributors:
      Red Hat, Inc. - initial API and implementation

-->
<!-- The icon can be used freely in both personal and commercial projects with no attribution required, but always appreciated. 
You may NOT sub-license, resell, rent, redistribute or otherwise transfer the icon without express written permission from iconmonstr.com -->


<!DOCTYPE svg PUBLIC "-//W3C//DTD SVG 1.1//EN" "http://www.w3.org/Graphics/SVG/1.1/DTD/svg11.dtd">

<svg version="1.1" xmlns="http://www.w3.org/2000/svg" xmlns:xlink="http://www.w3.org/1999/xlink" x="0px" y="0px"

	 width="20px" height="20px" viewBox="0 0 512 512" enable-background="new 0 0 512 512" xml:space="preserve">


<path
     d="m 94.65625,219.9375 c 6.36303,-6.39904 12.615,-12.74331 18.9375,-19.125 11.38398,11.51165 22.81719,22.97451 34.21875,34.46875 13.50288,-13.68439 27.09687,-27.27836 40.78125,-40.78125 -11.49424,-11.40156 -22.95709,-22.83479 -34.46875,-34.21875 6.38403,-6.32946 12.72536,-12.5716 19.125,-18.9375 -26.19792,0 -52.39583,0 -78.59375,0 0,26.19792 0,52.39583 0,78.59375 z M 358.3125,141.375 c -6.45833,0.0165 -12.91664,0.0394 -19.375,0.0312 6.31666,6.31877 12.63753,12.63364 19,18.90625 -11.28231,11.20632 -22.51533,22.23145 -33.78125,33.4375 13.68175,13.55777 27.26881,27.21068 40.8125,40.90625 C 376.12661,223.41837 387.2727,212.16859 398.5,201 c 6.31007,6.30452 12.62536,12.6038 18.9375,18.90625 0,-26.1875 0,-52.375 0,-78.5625 -19.70833,0.008 -39.41671,-0.0232 -59.125,0.0312 z M 139.625,284.96875 c -8.67668,8.65182 -17.34802,17.36443 -26.03125,26.03125 -6.31007,-6.30452 -12.62536,-12.6038 -18.9375,-18.90625 0,26.19792 0,52.39583 0,78.59375 26.19792,0 52.39583,0 78.59375,0 -6.321,-6.32481 -12.58329,-12.7087 -18.96875,-18.96875 11.45201,-11.3915 22.84508,-22.84268 34.34375,-34.1875 -13.70023,-13.51677 -27.30854,-27.15094 -40.875,-40.78125 -2.70833,2.73958 -5.41667,5.47917 -8.125,8.21875 z M 343.90625,298.625 c -6.56737,6.55773 -13.1455,13.10464 -19.75,19.625 11.24581,11.12905 22.44443,22.30583 33.6875,33.4375 -6.3696,6.29674 -12.67657,12.65686 -19,19 26.19792,0 52.39583,0 78.59375,0 0,-26.1875 0,-52.375 0,-78.5625 -6.31676,6.28739 -12.63078,12.57754 -18.9375,18.875 -11.16531,-11.15761 -22.33355,-22.31228 -33.5,-33.46875 -7.03125,7.03125 -14.0625,14.0625 -21.09375,21.09375 z"
     id="fullscreen-5-icon" />
</svg>

