<?xml version="1.0" encoding="utf-8"?>
<!--

    Copyright (c) 2012-2018 Red Hat, Inc.
    This program and the accompanying materials are made
    available under the terms of the Eclipse Public License 2.0
    which is available at https://www.eclipse.org/legal/epl-2.0/

    SPDX-License-Identifier: EPL-2.0

    Contributors:
      Red Hat, Inc. - initial API and implementation

-->
<!DOCTYPE svg PUBLIC "-//W3C//DTD SVG 1.1//EN" "http://www.w3.org/Graphics/SVG/1.1/DTD/svg11.dtd">
<svg version="1.1" id="importLocal" xmlns="http://www.w3.org/2000/svg" xmlns:xlink="http://www.w3.org/1999/xlink" x="0px" y="0px"
     width="16px" height="16px" viewBox="7 7 18 18" enable-background="new 0 0 32 32" xml:space="preserve">
    <g>
        <path fill-rule="evenodd" clip-rule="evenodd" fill="#4D4D4D" d="M9,8c1.796,0,2.976,0,4.771,0c0.549,0,0.786,0.493,0.999,1
        		l0.615,1.461h7.615c0.55,0,0.999,0.451,0.999,1v9.075c0,0.55-0.45,1-0.999,1H18v-2.415h2.535L16,14.586l-4.535,4.535h2.536v2.415H9
        		c-0.55,0-1-0.45-1-1V9C8,8.45,8.45,8,9,8L9,8z M15.001,24h2v-5.879h1.121L16,16l-2.121,2.121h1.122V24z"/>
    </g>
</svg>
