<?xml version="1.0" encoding="utf-8"?>
<!--

    Copyright (c) 2012-2018 Red Hat, Inc.
    This program and the accompanying materials are made
    available under the terms of the Eclipse Public License 2.0
    which is available at https://www.eclipse.org/legal/epl-2.0/

    SPDX-License-Identifier: EPL-2.0

    Contributors:
      Red Hat, Inc. - initial API and implementation

-->
<!DOCTYPE svg PUBLIC "-//W3C//DTD SVG 1.1//EN" "http://www.w3.org/Graphics/SVG/1.1/DTD/svg11.dtd">
<svg version="1.1" id="importLocation" xmlns="http://www.w3.org/2000/svg" xmlns:xlink="http://www.w3.org/1999/xlink" x="0px" y="0px"
     width="16px" height="16px" viewBox="7 7 18 18" enable-background="new 0 0 32 32" xml:space="preserve">
    <g>
        <path fill-rule="evenodd" clip-rule="evenodd" fill="#4D4D4D" d="M9,8c1.796,0,2.976,0,4.771,0c0.549,0,0.786,0.493,0.999,1
        		l0.615,1.461h7.615c0.55,0,0.999,0.451,0.999,1v9.075c0,0.55-0.449,1-0.999,1h-6.243c0.156-0.484,0.24-1.001,0.24-1.536
        		c0-2.762-2.241-5-5.002-5C10.363,15,8.912,15.787,8,17.002V9C8,8.45,8.45,8,9,8L9,8z M11.996,16C9.794,16,8,17.792,8,20
        		s1.794,4,3.996,4c2.211,0,4.003-1.792,4.003-4S14.207,16,11.996,16L11.996,16z M13.426,18.713c-0.04,0.031-0.066,0.089-0.118,0.1
        		c0.025-0.006,0.052-0.1,0.067-0.12c0.031-0.037,0.071-0.058,0.113-0.077c0.089-0.037,0.178-0.048,0.271-0.063
        		c0.089-0.021,0.197-0.021,0.267,0.058c-0.016-0.016,0.108-0.125,0.124-0.13c0.048-0.026,0.126-0.017,0.157-0.063
        		c0.011-0.016,0.011-0.113,0.011-0.113c-0.089,0.009-0.12-0.073-0.126-0.146c0,0.005-0.011,0.021-0.031,0.042
        		c0.005-0.079-0.093-0.021-0.131-0.031c-0.119-0.031-0.104-0.115-0.14-0.203c-0.021-0.047-0.078-0.063-0.1-0.109
        		c-0.021-0.031-0.031-0.1-0.078-0.104c-0.03-0.006-0.089,0.109-0.098,0.104c-0.048-0.026-0.068,0.01-0.104,0.031
        		c-0.032,0.021-0.057,0.011-0.088,0.026c0.093-0.033-0.041-0.084-0.089-0.073c0.073-0.021,0.037-0.1-0.005-0.136
        		c0.011,0,0.016,0,0.026,0c-0.011-0.048-0.155-0.088-0.202-0.119c-0.049-0.031-0.297-0.084-0.35-0.053
        		c-0.063,0.037,0.016,0.142,0.016,0.192c0.006,0.063-0.063,0.078-0.063,0.131c0,0.089,0.166,0.073,0.126,0.192
        		c-0.026,0.072-0.126,0.089-0.167,0.146c-0.042,0.053,0.005,0.146,0.047,0.184c0.041,0.031-0.073,0.082-0.089,0.093
        		c-0.088,0.042-0.155-0.089-0.177-0.166c-0.019-0.058-0.025-0.126-0.087-0.157c-0.031-0.01-0.13-0.026-0.151,0.006
        		c-0.031-0.079-0.144-0.11-0.215-0.135c-0.103-0.038-0.191-0.038-0.3-0.022c0.036-0.004-0.011-0.166-0.099-0.14
        		c0.025-0.053,0.016-0.11,0.025-0.162c0.011-0.042,0.031-0.084,0.063-0.119c0.011-0.021,0.124-0.141,0.088-0.146
        		c0.089,0.011,0.188,0.016,0.259-0.058c0.047-0.047,0.068-0.124,0.115-0.176c0.068-0.079,0.154,0.021,0.226,0.024
        		c0.108,0.007,0.103-0.108,0.04-0.161c0.073,0.006,0.011-0.12-0.026-0.136c-0.045-0.016-0.224,0.031-0.129,0.068
        		c-0.021-0.011-0.146,0.251-0.22,0.12c-0.02-0.026-0.031-0.136-0.076-0.14c-0.042,0-0.066,0.046-0.082,0.077
        		c0.024-0.068-0.146-0.114-0.183-0.119c0.078-0.053,0.016-0.11-0.042-0.142c-0.042-0.025-0.171-0.047-0.206-0.005
        		c-0.1,0.12,0.103,0.136,0.155,0.166c0.016,0.012,0.078,0.047,0.04,0.073c-0.031,0.016-0.123,0.042-0.134,0.063
        		c-0.031,0.047,0.036,0.1-0.011,0.146c-0.047-0.047-0.047-0.125-0.082-0.178c0.047,0.058-0.188,0.028-0.182,0.028
        		c-0.078,0-0.204,0.05-0.262-0.028c-0.01-0.021-0.01-0.14,0.021-0.115c-0.047-0.035-0.079-0.071-0.11-0.093
        		c-0.171,0.058-0.333,0.13-0.485,0.213c0.021,0.006,0.036,0.006,0.063-0.005c0.04-0.016,0.074-0.042,0.115-0.063
        		c0.053-0.02,0.161-0.084,0.219-0.037c0.007-0.009,0.021-0.02,0.027-0.024c0.037,0.042,0.072,0.082,0.104,0.129
        		c-0.04-0.021-0.109-0.01-0.155-0.005c-0.037,0.011-0.1,0.021-0.115,0.063c0.016,0.026,0.036,0.068,0.024,0.095
        		c-0.066-0.048-0.118-0.126-0.21-0.137c-0.04,0-0.081,0-0.113,0.006c-0.503,0.275-0.926,0.677-1.228,1.156
        		c0.021,0.021,0.043,0.037,0.063,0.042c0.053,0.016,0,0.166,0.1,0.088c0.031,0.027,0.036,0.063,0.016,0.099
        		c0.005-0.005,0.213,0.131,0.229,0.142c0.037,0.03,0.095,0.066,0.11,0.108c0.011,0.037-0.021,0.078-0.053,0.094
        		c-0.005-0.01-0.082-0.087-0.094-0.067c-0.015,0.026,0,0.167,0.058,0.162c-0.084,0.005-0.046,0.328-0.068,0.391
        		c0,0.004,0.011,0.004,0.011,0.004c-0.015,0.063,0.036,0.309,0.142,0.282c-0.068,0.016,0.12,0.255,0.146,0.271
        		c0.066,0.047,0.146,0.078,0.193,0.146c0.053,0.073,0.053,0.182,0.126,0.239c-0.022,0.063,0.11,0.136,0.104,0.224
        		c-0.011,0.005-0.016,0.005-0.026,0.012c0.026,0.071,0.126,0.071,0.164,0.14c0.02,0.042,0,0.14,0.066,0.119
        		c0.011-0.114-0.066-0.229-0.124-0.323c-0.033-0.051-0.064-0.098-0.091-0.15c-0.024-0.047-0.031-0.104-0.051-0.156
        		c0.02,0.005,0.135,0.047,0.126,0.063c-0.042,0.104,0.166,0.286,0.221,0.354c0.016,0.016,0.134,0.171,0.071,0.171
        		c0.067,0,0.162,0.104,0.193,0.157c0.047,0.078,0.035,0.176,0.068,0.26c0.031,0.104,0.177,0.151,0.261,0.198
        		c0.073,0.037,0.136,0.088,0.209,0.115c0.108,0.042,0.134,0.004,0.226-0.012c0.135-0.02,0.15,0.131,0.26,0.188
        		c0.066,0.036,0.211,0.089,0.282,0.058c-0.029,0.01,0.112,0.224,0.122,0.239c0.048,0.063,0.137,0.094,0.188,0.156
        		c0.016-0.011,0.03-0.026,0.036-0.047c-0.021,0.058,0.08,0.166,0.133,0.155c0.058-0.009,0.073-0.124,0.073-0.166
        		c-0.106,0.053-0.201,0.011-0.257-0.094c-0.012-0.026-0.094-0.173-0.021-0.173c0.098,0,0.031-0.077,0.021-0.15
        		c-0.012-0.073-0.083-0.12-0.12-0.183c-0.031,0.063-0.137,0.047-0.168-0.004c0,0.016-0.016,0.042-0.016,0.062
        		c-0.026,0-0.052,0.005-0.078-0.004c0.012-0.064,0.016-0.142,0.031-0.209c0.026-0.095,0.199-0.276-0.024-0.266
        		c-0.078,0.005-0.109,0.035-0.136,0.104c-0.026,0.062-0.016,0.119-0.089,0.15c-0.046,0.021-0.202,0.011-0.249-0.016
        		c-0.096-0.058-0.161-0.239-0.161-0.344c-0.007-0.14,0.065-0.266,0-0.395c0.031-0.026,0.061-0.08,0.097-0.104
        		c0.029-0.022,0.064,0.016,0.08-0.049c-0.016-0.009-0.035-0.031-0.04-0.031c0.078,0.038,0.223-0.051,0.289,0
        		c0.042,0.031,0.089,0.042,0.115-0.009c0.005-0.016-0.037-0.079-0.016-0.12c0.016,0.089,0.071,0.104,0.149,0.047
        		c0.031,0.031,0.115,0.021,0.173,0.052c0.058,0.037,0.068,0.093,0.137,0.015c0.04,0.063,0.045,0.063,0.061,0.127
        		c0.016,0.056,0.047,0.202,0.1,0.229c0.112,0.066,0.086-0.115,0.075-0.178c-0.007-0.004-0.007-0.178-0.011-0.178
        		c-0.169-0.035-0.106-0.166-0.011-0.255c0.015-0.009,0.135-0.051,0.186-0.093c0.047-0.042,0.104-0.115,0.078-0.183
        		c0.026,0,0.049-0.021,0.058-0.046c-0.016-0.007-0.077-0.058-0.089-0.054c0.037-0.02,0.031-0.051,0.012-0.082
        		c0.051-0.032,0.025-0.089,0.077-0.11c0.058,0.078,0.173-0.009,0.115-0.073c0.053-0.071,0.174-0.035,0.205-0.104
        		c0.078,0.022,0.021-0.077,0.063-0.135c0.037-0.047,0.1-0.047,0.145-0.073c0,0.006,0.131-0.071,0.089-0.078
        		c0.088,0.012,0.266-0.082,0.131-0.161c0.02-0.047-0.047-0.067-0.094-0.078c0.036-0.01,0.082,0.011,0.113-0.01
        		c0.068-0.048,0.022-0.068-0.035-0.084C13.577,18.631,13.483,18.677,13.426,18.713L13.426,18.713z M12.577,23.281
        		c-0.007-0.026-0.011-0.079-0.011-0.084c-0.007-0.084,0.084-0.14,0.079-0.219c-0.06-0.016-0.075-0.073-0.063-0.136
        		c0.011-0.089,0.09-0.15,0.15-0.208c0.061-0.057,0.078-0.176,0.061-0.249c-0.025-0.126-0.025-0.255-0.045-0.381
        		c0.004,0.031,0.094,0.021,0.109,0.062c0.02-0.035,0.03-0.082,0.057-0.119c0.021-0.031,0.058-0.041,0.089-0.067
        		c0.053-0.031,0.163-0.15,0.226-0.078c0.053,0.063-0.078,0.13-0.011,0.188c0.021-0.042,0-0.104,0.042-0.146
        		c0.084-0.094,0.142,0.011,0.224,0.037c0.089,0.026,0.12,0.058,0.187,0.115c-0.02-0.021,0.084-0.058,0.096-0.063
        		c0.098-0.021,0.14,0.037,0.208,0.089c0.071,0.053,0.187,0.088,0.176,0.192c0.053,0.011,0.084,0.026,0.126,0.042
        		c0.042,0.021,0.098,0.011,0.129,0.042C13.926,22.801,13.291,23.155,12.577,23.281L12.577,23.281z M10.803,19.286h0.149l0.065-0.118
        		l-0.139-0.033l-0.224,0.068c0.001,0.001,0.003,0.003,0.004,0.004C10.709,19.23,10.757,19.257,10.803,19.286z"/>
    </g>
</svg>
