<?xml version="1.0" encoding="utf-8"?>
<!--

    Copyright (c) 2012-2018 Red Hat, Inc.
    This program and the accompanying materials are made
    available under the terms of the Eclipse Public License 2.0
    which is available at https://www.eclipse.org/legal/epl-2.0/

    SPDX-License-Identifier: EPL-2.0

    Contributors:
      Red Hat, Inc. - initial API and implementation

-->
<!DOCTYPE svg PUBLIC "-//W3C//DTD SVG 1.1//EN" "http://www.w3.org/Graphics/SVG/1.1/DTD/svg11.dtd">
<svg version="1.1" id="navigateToFile" xmlns="http://www.w3.org/2000/svg" xmlns:xlink="http://www.w3.org/1999/xlink" x="0px" y="0px"
     width="16px" height="16px" viewBox="7 7 18 18" enable-background="new 0 0 32 32" xml:space="preserve">
    <g>
        <path fill-rule="evenodd" clip-rule="evenodd" fill="#4D4D4D" d="M22.91,18.121C22.374,21.455,19.484,24,16,24
        		s-6.374-2.545-6.91-5.879H8L10.121,16l2.122,2.121h-1.117c0.436,1.901,1.955,3.39,3.874,3.779V17h-1.001C13.45,17,13,16.551,13,16
        		v0c0-0.55,0.45-1,0.999-1H15v-1.171c-1.165-0.412-2-1.523-2-2.829c0-1.657,1.343-3,3-3s3,1.343,3,3c0,1.306-0.835,2.417-2,2.829V15
        		h1c0.55,0,1,0.45,1,1v0c0,0.55-0.45,1-1,1h-1v4.9c1.919-0.39,3.438-1.878,3.874-3.779h-1.117L21.879,16L24,18.121H22.91
        		L22.91,18.121z M16,10c-0.552,0-1,0.448-1,1s0.448,1,1,1s1-0.448,1-1S16.552,10,16,10z"/>
    </g>
</svg>
