<?xml version="1.0" encoding="utf-8"?>
<!--

    Copyright (c) 2012-2018 Red Hat, Inc.
    This program and the accompanying materials are made
    available under the terms of the Eclipse Public License 2.0
    which is available at https://www.eclipse.org/legal/epl-2.0/

    SPDX-License-Identifier: EPL-2.0

    Contributors:
      Red Hat, Inc. - initial API and implementation

-->
<!DOCTYPE svg PUBLIC "-//W3C//DTD SVG 1.1//EN" "http://www.w3.org/Graphics/SVG/1.1/DTD/svg11.dtd">
<svg version="1.1" id="newGroup" xmlns="http://www.w3.org/2000/svg" xmlns:xlink="http://www.w3.org/1999/xlink" x="0px" y="0px"
     width="16px" height="16px" viewBox="7 7 18 18" enable-background="new 0 0 32 32" xml:space="preserve">
    <g>
        <path fill-rule="evenodd" clip-rule="evenodd" fill="#4D4D4D" d="M9,8c1.796,0,2.976,0,4.771,0c0.549,0,0.786,0.493,0.999,1
        		l0.615,1.461h7.615c0.55,0,0.999,0.451,0.999,1v6.625C23.844,18.03,23.676,18,23.5,18h-1.499v-1.5c0-0.826-0.673-1.498-1.499-1.499
        		l-1.001,0c-0.827,0-1.5,0.672-1.5,1.5V18h-1.5c-0.827,0-1.499,0.673-1.499,1.499l-0.001,1c-0.001,0.402,0.158,0.768,0.416,1.037H9
        		c-0.55,0-0.999-0.45-0.999-1V9C8.001,8.45,8.45,8,9,8L9,8z M16.001,20.5c0,0.275,0.225,0.499,0.5,0.5H19v2.5
        		c0,0.275,0.225,0.5,0.5,0.5h1.001c0.275,0,0.5-0.226,0.5-0.5V21H23.5c0.276,0,0.5-0.225,0.5-0.5v-1.001
        		C24,19.225,23.776,19,23.5,19h-2.499v-2.5c0-0.274-0.225-0.5-0.5-0.499L19.5,16c-0.275,0-0.5,0.225-0.5,0.5V19h-2.499
        		c-0.275,0-0.5,0.225-0.5,0.5V20.5z"/>
    </g>
</svg>
