<?xml version="1.0" encoding="utf-8"?>
<!--

    Copyright (c) 2012-2018 Red Hat, Inc.
    This program and the accompanying materials are made
    available under the terms of the Eclipse Public License 2.0
    which is available at https://www.eclipse.org/legal/epl-2.0/

    SPDX-License-Identifier: EPL-2.0

    Contributors:
      Red Hat, Inc. - initial API and implementation

-->
<!DOCTYPE svg PUBLIC "-//W3C//DTD SVG 1.1//EN" "http://www.w3.org/Graphics/SVG/1.1/DTD/svg11.dtd">
<svg version="1.1" id="newProject" xmlns="http://www.w3.org/2000/svg" xmlns:xlink="http://www.w3.org/1999/xlink" x="0px" y="0px"
     width="16px" height="16px" viewBox="7 7 18 18" enable-background="new 0 0 32 32" xml:space="preserve">
    <g>
        <path fill-rule="evenodd" clip-rule="evenodd" fill="#4D4D4D" d="M9,8c1.796,0,2.976,0,4.771,0c0.549,0,0.786,0.493,0.999,1
        		l0.615,1.461h7.615c0.55,0,0.999,0.451,0.999,1v5.364l-3.999-2.31l-5,2.887v4.134H9c-0.55,0-0.999-0.45-0.999-1V9
        		C8.001,8.45,8.45,8,9,8L9,8z M20.501,24L24,21.979v-3.425l-3.499,2.021V24L20.501,24z M23.503,17.692l-3.502-2.022L16.5,17.691
        		l3.502,2.021L23.503,17.692L23.503,17.692z M16.001,18.556v3.424L19.5,24v-3.424L16.001,18.556z"/>
    </g>
</svg>
