<?xml version="1.0" encoding="utf-8"?>
<!--

    Copyright (c) 2012-2017 Codenvy, S.A.
    All rights reserved. This program and the accompanying materials
    are made available under the terms of the Eclipse Public License v1.0
    which accompanies this distribution, and is available at
    http://www.eclipse.org/legal/epl-v10.html

    Contributors:
      Codenvy, S.A. - initial API and implementation

-->
<!DOCTYPE svg PUBLIC "-//W3C//DTD SVG 1.1//EN" "http://www.w3.org/Graphics/SVG/1.1/DTD/svg11.dtd">
<svg version="1.1" id="preferences" xmlns="http://www.w3.org/2000/svg" xmlns:xlink="http://www.w3.org/1999/xlink" x="0px" y="0px"
     width="16px" height="16px" viewBox="7 7 18 18" enable-background="new 0 0 32 32" xml:space="preserve">
    <g>
        <path fill-rule="evenodd" clip-rule="evenodd" fill="#4D4D4D" d="M9,8h14.001C23.55,8,24,8.45,24,9v14c0,0.55-0.45,1-0.999,1H9
        		c-0.55,0-0.999-0.45-0.999-1V9C8.001,8.45,8.45,8,9,8L9,8z M13,14c-0.55,0-0.999,0.45-0.999,1V15c0,0.55,0.449,1,0.999,1h6.001
        		C19.55,16,20,15.55,20,15V15c0-0.55-0.45-1-0.999-1H13L13,14z M13,18c-0.55,0-0.999,0.45-0.999,1v0.001
        		C12.001,19.551,12.45,20,13,20h6.001C19.55,20,20,19.551,20,19.001V19c0-0.55-0.45-1-0.999-1H13L13,18z M10,12v10h12.001V12H10z"/>
    </g>
</svg>
