<?xml version="1.0" encoding="utf-8"?>
<!--

    Copyright (c) 2012-2017 Codenvy, S.A.
    All rights reserved. This program and the accompanying materials
    are made available under the terms of the Eclipse Public License v1.0
    which accompanies this distribution, and is available at
    http://www.eclipse.org/legal/epl-v10.html

    Contributors:
      Codenvy, S.A. - initial API and implementation

-->
<!DOCTYPE svg PUBLIC "-//W3C//DTD SVG 1.1//EN" "http://www.w3.org/Graphics/SVG/1.1/DTD/svg11.dtd">
<svg version="1.1" id="projectConfiguration" xmlns="http://www.w3.org/2000/svg" xmlns:xlink="http://www.w3.org/1999/xlink" x="0px" y="0px"
     width="16px" height="16px" viewBox="7 7 18 18" enable-background="new 0 0 32 32" xml:space="preserve">
    <g>
        <path fill-rule="evenodd" clip-rule="evenodd" fill="#4D4D4D" d="M9,8c1.795,0,2.976,0,4.771,0c0.549,0,0.786,0.493,1,1
        		l0.615,1.461H23c0.55,0,1,0.451,1,1v9.075c0,0.183-0.05,0.354-0.136,0.502l-1.921-1.92c0.199-1.112-0.149-2.271-0.971-3.092
        		c-0.827-0.827-2.013-1.186-3.158-0.958c-0.454,0.09-0.817,0.419-0.952,0.862c-0.135,0.444-0.016,0.919,0.313,1.247v0.001
        		c-0.328-0.328-0.804-0.447-1.248-0.313c-0.442,0.135-0.771,0.497-0.861,0.952c-0.229,1.146,0.131,2.331,0.957,3.157
        		c0.223,0.223,0.47,0.41,0.734,0.562H9c-0.55,0-1-0.45-1-1V9C8,8.45,8.45,8,9,8L9,8z M22.516,23.933
        		c0.688-0.184,1.23-0.727,1.415-1.413l-3.105-3.105c0.352-0.897,0.165-1.956-0.56-2.682c-0.591-0.59-1.438-0.847-2.257-0.684
        		c-0.092,0.019-0.162,0.082-0.189,0.172c-0.027,0.091-0.005,0.182,0.063,0.249l0.616,0.616c0.39,0.39,0.389,1.026,0,1.415
        		c-0.39,0.389-1.025,0.389-1.414,0l-0.616-0.617c-0.067-0.066-0.159-0.09-0.25-0.062c-0.09,0.027-0.153,0.097-0.172,0.189
        		c-0.163,0.819,0.094,1.666,0.684,2.256c0.726,0.726,1.785,0.912,2.682,0.561L22.516,23.933z"/>
    </g>
</svg>
