<?xml version="1.0" encoding="utf-8"?>
<!--

    Copyright (c) 2012-2017 Codenvy, S.A.
    All rights reserved. This program and the accompanying materials
    are made available under the terms of the Eclipse Public License v1.0
    which accompanies this distribution, and is available at
    http://www.eclipse.org/legal/epl-v10.html

    Contributors:
      Codenvy, S.A. - initial API and implementation

-->
<!DOCTYPE svg PUBLIC "-//W3C//DTD SVG 1.1//EN" "http://www.w3.org/Graphics/SVG/1.1/DTD/svg11.dtd">
<svg version="1.1" xmlns="http://www.w3.org/2000/svg" xmlns:xlink="http://www.w3.org/1999/xlink" x="0px" y="0px"
	 width="16px" height="16px" viewBox="7 7 18 18" enable-background="new 0 0 32.001 32" xml:space="preserve">
<g>
	<path fill-rule="evenodd" clip-rule="evenodd" fill="#4D4D4D" d="M12.465,19.536c1.953,1.952,5.119,1.952,7.071,0
		c1.404-1.404,1.799-3.436,1.184-5.193h2.083c0.557,2.294-0.061,4.815-1.853,6.607c-2.733,2.733-7.166,2.733-9.899,0l-0.707,0.707
		v-3h3L12.465,19.536L12.465,19.536z M19.536,12.464l-0.879,0.879h3v-3L20.95,11.05c-2.733-2.734-7.166-2.734-9.899,0
		c-1.792,1.792-2.408,4.313-1.852,6.607h2.083c-0.616-1.757-0.222-3.789,1.183-5.193C14.418,10.512,17.584,10.512,19.536,12.464z"/>
</g>
</svg>
