<?xml version="1.0" encoding="utf-8"?>
<!--

    Copyright (c) 2012-2017 Codenvy, S.A.
    All rights reserved. This program and the accompanying materials
    are made available under the terms of the Eclipse Public License v1.0
    which accompanies this distribution, and is available at
    http://www.eclipse.org/legal/epl-v10.html

    Contributors:
      Codenvy, S.A. - initial API and implementation

-->
<!DOCTYPE svg PUBLIC "-//W3C//DTD SVG 1.1//EN" "http://www.w3.org/Graphics/SVG/1.1/DTD/svg11.dtd">
<svg version="1.1" xmlns="http://www.w3.org/2000/svg" xmlns:xlink="http://www.w3.org/1999/xlink" x="0px" y="0px" width="32px"
	 height="32px" viewBox="0 0 32 32" enable-background="new 0 0 32 32" xml:space="preserve">
<g>
	<g>
		<path fill-rule="evenodd" clip-rule="evenodd" fill="#808080" d="M8.249,12H10.5v2H9.999v4H10.5v2H8.249
			C8.111,20,8,19.888,8,19.75v-7.5C8,12.112,8.111,12,8.249,12L8.249,12z M13.499,12H23.75c0.137,0,0.25,0.112,0.25,0.25v7.5
			c0,0.138-0.113,0.25-0.25,0.25H13.499v-2H22v-4h-8.501V12z"/>
		<path fill-rule="evenodd" clip-rule="evenodd" fill="#3193D4" d="M12.5,9v14h2.25c0.137,0,0.25,0.112,0.25,0.25v0.5
			c0,0.138-0.113,0.25-0.25,0.25c-1.834,0-3.668,0-5.501,0C9.111,24,9,23.888,9,23.75v-0.5C9,23.112,9.111,23,9.249,23H11.5V9H9.249
			C9.111,9,9,8.888,9,8.75v-0.5C9,8.112,9.111,8,9.249,8c1.833,0,3.667,0,5.501,0C14.887,8,15,8.112,15,8.25v0.5
			C15,8.888,14.887,9,14.75,9H12.5z"/>
	</g>
</g>
</svg>
