<?xml version="1.0" encoding="utf-8"?>
<!--

    Copyright (c) 2012-2017 Codenvy, S.A.
    All rights reserved. This program and the accompanying materials
    are made available under the terms of the Eclipse Public License v1.0
    which accompanies this distribution, and is available at
    http://www.eclipse.org/legal/epl-v10.html

    Contributors:
      Codenvy, S.A. - initial API and implementation

-->
<!DOCTYPE svg PUBLIC "-//W3C//DTD SVG 1.1//EN" "http://www.w3.org/Graphics/SVG/1.1/DTD/svg11.dtd">
<svg version="1.1" xmlns="http://www.w3.org/2000/svg" xmlns:xlink="http://www.w3.org/1999/xlink" x="0px" y="0px" width="32px"
	 height="32px" viewBox="0 0 32 32" enable-background="new 0 0 32 32" xml:space="preserve">
<g id="_x30_8">
	<path id="_x3C_Path_x3E__19_" fill-rule="evenodd" clip-rule="evenodd" fill="#3193D4" d="M24,11.415l-0.011,11.573
		c-0.001,0.551-0.449,0.999-0.999,0.999L9.001,24C8.45,24.001,8,23.552,8,23V9c0-0.551,0.449-1,1-1h11.586
		c0.275,0,0.513,0.098,0.707,0.293l2.414,2.414C23.902,10.902,24,11.139,24,11.415L24,11.415z M10,16v6h12v-6H10L10,16z M12,14h8V9
		h-8V14L12,14z M18,13h1.001v-3H18V13z"/>
</g>
</svg>
