<?xml version="1.0" encoding="utf-8"?>
<!--

    Copyright (c) 2012-2018 Red Hat, Inc.
    This program and the accompanying materials are made
    available under the terms of the Eclipse Public License 2.0
    which is available at https://www.eclipse.org/legal/epl-2.0/

    SPDX-License-Identifier: EPL-2.0

    Contributors:
      Red Hat, Inc. - initial API and implementation

-->
<!DOCTYPE svg PUBLIC "-//W3C//DTD SVG 1.1//EN" "http://www.w3.org/Graphics/SVG/1.1/DTD/svg11.dtd">
<svg version="1.1" id="showHiddenFiles" xmlns="http://www.w3.org/2000/svg" xmlns:xlink="http://www.w3.org/1999/xlink" x="0px" y="0px"
     width="16px" height="16px" viewBox="7 7 18 18" enable-background="new 0 0 32 32" xml:space="preserve">
    <g>
        <path fill-rule="evenodd" clip-rule="evenodd" fill="#4D4D4D" d="M21.75,8h-9.667c-0.068,0-0.129,0.025-0.178,0.074l-3.833,3.853
        		C8.024,11.975,8,12.035,8,12.103V23.75C8,23.888,8.112,24,8.25,24h10.552l0,0c-1.861-0.001-3.61-0.735-4.899-2H10v-9.172h2.578
        		c0.138,0,0.249-0.112,0.249-0.25V10L20,10v6.104c0.702,0.122,1.376,0.349,2,0.669V8.25C22,8.112,21.888,8,21.75,8L21.75,8z
        		 M18.802,17c2.222,0,4.16,1.206,5.198,3c-1.038,1.794-2.977,3-5.198,3c-2.221,0-4.16-1.206-5.197-3
        		C14.642,18.206,16.581,17,18.802,17L18.802,17z M19.982,18.449c0.954,0.246,1.808,0.788,2.44,1.551
        		c-0.633,0.763-1.486,1.305-2.44,1.551c0.467-0.355,0.769-0.918,0.769-1.551S20.449,18.805,19.982,18.449L19.982,18.449z
        		 M17.622,21.551c-0.954-0.246-1.809-0.788-2.44-1.551c0.632-0.763,1.486-1.305,2.44-1.551c-0.468,0.355-0.769,0.918-0.769,1.551
        		S17.154,21.195,17.622,21.551z"/>
    </g>
</svg>
