<?xml version="1.0" encoding="utf-8"?>
<!--

    Copyright (c) 2012-2017 Codenvy, S.A.
    All rights reserved. This program and the accompanying materials
    are made available under the terms of the Eclipse Public License v1.0
    which accompanies this distribution, and is available at
    http://www.eclipse.org/legal/epl-v10.html

    Contributors:
      Codenvy, S.A. - initial API and implementation

-->
<!DOCTYPE svg PUBLIC "-//W3C//DTD SVG 1.1//EN" "http://www.w3.org/Graphics/SVG/1.1/DTD/svg11.dtd">
<svg version="1.1" id="zipFolder" xmlns="http://www.w3.org/2000/svg" xmlns:xlink="http://www.w3.org/1999/xlink" x="0px" y="0px"
     width="16px" height="16px" viewBox="7 7 18 18" enable-background="new 0 0 32 32" xml:space="preserve">
    <g>
        <path fill-rule="evenodd" clip-rule="evenodd" fill="#4D4D4D" d="M9,8c1.795,0,2.976,0,4.771,0c0.549,0,0.786,0.493,1,1
        		l0.615,1.461v0.728h0.728v0.728v0.727h0.45c0.164,0,0.307,0.108,0.353,0.268c0.483,1.629,0.609,1.982,0.607,1.982
        		c0.029,0.097,0.046,0.193,0.046,0.295c0,0.631-0.609,1.091-1.456,1.091s-1.456-0.46-1.456-1.091c0-0.102,0.018-0.198,0.046-0.295
        		c0,0,0.119-0.354,0.688-2.25v-0.727h0.723h0.724v-0.728h-0.724v-0.728h1.276l4.488,4.489L24,12.829v7.707c0,0.55-0.45,1-1,1H9
        		c-0.55,0-1-0.45-1-1V9C8,8.45,8.45,8,9,8L9,8z M22.879,8h-2v3.415h-1.122l2.121,2.121L24,11.415h-1.121V8L22.879,8z M16.113,15.552
        		c0.407,0,0.733-0.165,0.733-0.363c0-0.198-0.326-0.363-0.733-0.363s-0.733,0.165-0.733,0.363
        		C15.38,15.388,15.706,15.552,16.113,15.552z"/>
    </g>
</svg>
