<?xml version="1.0" encoding="UTF-8" standalone="no"?>
<!--

    Copyright (c) 2012-2016 Codenvy, S.A.
    All rights reserved. This program and the accompanying materials
    are made available under the terms of the Eclipse Public License v1.0
    which accompanies this distribution, and is available at
    http://www.eclipse.org/legal/epl-v10.html

    Contributors:
      Codenvy, S.A. - initial API and implementation

-->
<svg width="14px" height="6px" viewBox="0 0 14 6" version="1.1" xmlns="http://www.w3.org/2000/svg" xmlns:xlink="http://www.w3.org/1999/xlink">
    <g stroke="none" stroke-width="1" fill="none" fill-rule="evenodd">
        <g transform="translate(0.000000, -1.000000)" fill="#AAAAAA">
            <g transform="translate(0.000000, 1.000000)">
                <path d="M13.7991129,2.42856717 C13.7991129,2.39285284 13.7812557,2.35267422 13.75447,2.32588848 L13.5312554,2.10267393 C13.5044697,2.07588818 13.464291,2.05803102 13.4285767,2.05803102 C13.3928624,2.05803102 13.3526838,2.07588818 13.325898,2.10267393 L11.5714316,3.8571403 L9.81696526,2.10267393 C9.79017951,2.07588818 9.75000089,2.05803102 9.71428657,2.05803102 C9.67410795,2.05803102 9.63839362,2.07588818 9.61160787,2.10267393 L9.38839332,2.32588848 C9.36160757,2.35267422 9.34375041,2.39285284 9.34375041,2.42856717 C9.34375041,2.4642815 9.36160757,2.50446012 9.38839332,2.53124586 L11.4687529,4.61160549 C11.4955387,4.63839123 11.5357173,4.6562484 11.5714316,4.6562484 C11.607146,4.6562484 11.6473246,4.63839123 11.6741103,4.61160549 L13.75447,2.53124586 C13.7812557,2.50446012 13.7991129,2.4642815 13.7991129,2.42856717 L13.7991129,2.42856717 Z" ></path>
                <path d="M6.85715103,5.14285612 C6.85715103,4.98660593 6.72768659,4.85714149 6.57143641,4.85714149 L0.285714626,4.85714149 C0.12946444,4.85714149 0,4.98660593 0,5.14285612 L0,5.71428537 C0,5.87053556 0.12946444,6 0.285714626,6 L6.57143641,6 C6.72768659,6 6.85715103,5.87053556 6.85715103,5.71428537 L6.85715103,5.14285612 Z M6.85715103,2.85713911 C6.85715103,2.70088892 6.72768659,2.57142448 6.57143641,2.57142448 L0.285714626,2.57142448 C0.12946444,2.57142448 0,2.70088892 0,2.85713911 L0,3.42856836 C0,3.58481855 0.12946444,3.71428299 0.285714626,3.71428299 L6.57143641,3.71428299 C6.72768659,3.71428299 6.85715103,3.58481855 6.85715103,3.42856836 L6.85715103,2.85713911 Z M6.85715103,0.5714221 C6.85715103,0.415171914 6.72768659,0.285707474 6.57143641,0.285707474 L0.285714626,0.285707474 C0.12946444,0.285707474 0,0.415171914 0,0.5714221 L0,1.14285135 C0,1.29910154 0.12946444,1.42856598 0.285714626,1.42856598 L6.57143641,1.42856598 C6.72768659,1.42856598 6.85715103,1.29910154 6.85715103,1.14285135 L6.85715103,0.5714221 Z"></path>
            </g>
        </g>
    </g>
</svg>
