<?xml version="1.0" encoding="UTF-8" standalone="no"?>
<!--

    Copyright (c) 2012-2018 Red Hat, Inc.
    This program and the accompanying materials are made
    available under the terms of the Eclipse Public License 2.0
    which is available at https://www.eclipse.org/legal/epl-2.0/

    SPDX-License-Identifier: EPL-2.0

    Contributors:
      Red Hat, Inc. - initial API and implementation

-->
<svg
   xmlns="http://www.w3.org/2000/svg"
   width="32"
   height="32"
   viewBox="0 0 8.4666659 8.4666659">
  <g
     transform="translate(0,-288.53334)"
     style="display:inline">
    <path
       style="fill:#f44d27;fill-opacity:1;stroke-width:0.38836536"
       d="m 4.2333343,288.53338 c -0.099261,0 -0.1985572,0.0382 -0.2746163,0.11425 l -0.8989392,0.89892 0.9257572,0.93328 a 0.68654065,0.68653531 0 0 1 0.2477983,-0.0473 0.68654065,0.68653531 0 0 1 0.6865406,0.68654 0.68654065,0.68653531 0 0 1 -0.048808,0.25317 l 0.7525129,0.75841 a 0.68654065,0.68653531 0 0 1 0.2574527,-0.0505 0.68654065,0.68653531 0 0 1 0.6865407,0.68654 0.68654065,0.68653531 0 0 1 -0.6865407,0.68653 0.68654065,0.68653531 0 0 1 -0.6865407,-0.68653 0.68654065,0.68653531 0 0 1 0.045054,-0.24351 l -0.7315955,-0.73746 v 2.00008 a 0.68654065,0.68653531 0 0 1 0.4119244,0.6286 0.68654065,0.68653531 0 0 1 -0.6865406,0.68655 0.68654065,0.68653531 0 0 1 -0.6865407,-0.68655 0.68654065,0.68653531 0 0 1 0.4119244,-0.6286 v -2.03816 a 0.68654065,0.68653531 0 0 1 -0.4119244,-0.62861 0.68654065,0.68653531 0 0 1 0.048808,-0.25317 l -0.9241481,-0.9311 -2.55736404,2.55735 c -0.1521184,0.1521 -0.15211855,0.39712 0,0.54923 l 3.84462784,3.84457 c 0.1521183,0.15213 0.3971142,0.15213 0.5492325,0 l 3.8446278,-3.84457 c 0.1521185,-0.15211 0.1521185,-0.39713 0,-0.54923 l -3.8446273,-3.8446 c -0.076059,-0.0761 -0.1753548,-0.11425 -0.2746162,-0.11425 z"/>
    <path
       style="opacity:0;fill:#ffcc00;fill-opacity:1;stroke-width:0.04419417"
       d="M 7.9939976,23.979065 0.01702591,16.002002 8.0050921,8.0139357 15.993159,0.02586931 l 7.988066,7.98806639 7.988066,7.9880663 -7.976972,7.977063 c -4.387334,4.387385 -7.986957,7.977064 -7.99916,7.977064 -0.0122,0 -3.611827,-3.589679 -7.9991614,-7.977064 z"
       transform="matrix(0.26458333,0,0,0.26458333,0,288.53334)" />
  </g>
</svg>
