<?xml version="1.0" encoding="UTF-8" standalone="no"?>
<!--

    Copyright (c) 2012-2018 Red Hat, Inc.
    This program and the accompanying materials are made
    available under the terms of the Eclipse Public License 2.0
    which is available at https://www.eclipse.org/legal/epl-2.0/

    SPDX-License-Identifier: EPL-2.0

    Contributors:
      Red Hat, Inc. - initial API and implementation

-->
<svg
   xmlns="http://www.w3.org/2000/svg"   
   width="32"
   height="32"
   viewBox="0 0 8.4666665 8.4666669">
  <g
     transform="translate(0,-288.53332)">
    <path
       style="fill:#959dab;fill-opacity:1;stroke-width:0.75590551;stroke-miterlimit:4;stroke-dasharray:none;paint-order:markers stroke fill"
       d="m 1,17 v 8 c 0,0.5 0.5,1 1,1 h 28.000001 c 0.5,0 1,-0.500006 1,-1.000006 V 17 Z m 2,1 26.000001,0 c 0.5,0 1,0.5 0.999999,1 v 5 c -1e-6,0.5 -0.5,1 -1,1 H 3 C 2.5,25 2,24.5 2,24 v -5 c 0,-0.5 0.5,-1 1,-1 z"
       transform="matrix(0.26458333,0,0,0.26458333,0,288.53332)" />
    <path
       style="fill:#959dab;fill-opacity:1;stroke-width:0.75590551;stroke-miterlimit:4;stroke-dasharray:none;paint-order:markers stroke fill"
       d="m 8,4.5 c -1.5,0 -2.5,2 -2.5,2 C 4.1275241,9.7749599 2.1263395,14.167856 1,17 h 2.5000001 c -0.5,0 -1.4210526,0 -1,-1 L 6.5,6.5 C 6.5473784,6.3874763 7,5.5 8,5.5 h 15.5 c 1,0 1.460938,0.9257807 1.5,1 l 4.500001,9.5 c 0.139513,0.294526 0.0221,1 -1,1 H 31 L 26,6.5 c -0.154679,-0.4116122 -1,-2 -2.5,-2 -5.833334,1.5e-6 -9.666666,0 -15.5,0 z"
       transform="matrix(0.26458333,0,0,0.26458333,0,288.53332)" />
    <circle
       style="fill:#959dab;fill-opacity:1;stroke-width:0.19999999;stroke-miterlimit:4;stroke-dasharray:none;paint-order:markers stroke fill"
       cy="294.22186"
       cx="7.2760372"
       r="0.39687416" />
    <circle
       style="fill:#ffffff;fill-opacity:1;stroke-width:0.20000003;stroke-miterlimit:4;stroke-dasharray:none;paint-order:markers stroke fill"
       cx="7.2760363"
       cy="294.22186"
       r="0.19843708" />
    <circle
       style="fill:#959dab;fill-opacity:1;stroke-width:0.19999999;stroke-miterlimit:4;stroke-dasharray:none;paint-order:markers stroke fill"
       cy="294.22186"
       cx="6.2838507"
       r="0.39687419" />
    <circle
       style="fill:#ffffff;fill-opacity:1;stroke-width:0.20000003;stroke-miterlimit:4;stroke-dasharray:none;paint-order:markers stroke fill"
       cx="6.2838502"
       cy="294.22186"
       r="0.19843709" />
    <circle
       style="fill:#959dab;fill-opacity:1;stroke-width:0.19999999;stroke-miterlimit:4;stroke-dasharray:none;paint-order:markers stroke fill"
       cy="294.22186"
       cx="5.291666"
       r="0.39687419" />
    <circle
       style="fill:#ffffff;fill-opacity:1;stroke-width:0.20000003;stroke-miterlimit:4;stroke-dasharray:none;paint-order:markers stroke fill"
       cx="5.2916651"
       cy="294.22186"
       r="0.19843709" />
    <ellipse
       style="fill:#2b1100;fill-opacity:1;stroke-width:0.2;stroke-miterlimit:4;stroke-dasharray:none;paint-order:markers stroke fill"
       cx="8.0697918"
       cy="293.09738"
       rx="7.5199102e-15"
       ry="0.06614583" />
  </g>
</svg>
