<?xml version="1.0" encoding="utf-8"?>
<!--

    Copyright (c) 2012-2017 Codenvy, S.A.
    All rights reserved. This program and the accompanying materials
    are made available under the terms of the Eclipse Public License v1.0
    which accompanies this distribution, and is available at
    http://www.eclipse.org/legal/epl-v10.html

    Contributors:
      Codenvy, S.A. - initial API and implementation

-->
<!DOCTYPE svg PUBLIC "-//W3C//DTD SVG 1.1//EN" "http://www.w3.org/Graphics/SVG/1.1/DTD/svg11.dtd">
<svg version="1.1" xmlns="http://www.w3.org/2000/svg" xmlns:xlink="http://www.w3.org/1999/xlink" x="0px" y="0px" width="32px"
	 height="32px" viewBox="0 0 32 32" enable-background="new 0 0 32 32" xml:space="preserve">
<g>
	<path fill-rule="evenodd" clip-rule="evenodd" fill="#4D4D4D" d="M9,8h7.93l-0.146,0.146c-0.586,0.585-0.586,1.537-0.001,2.122
		l1.061,1.061L17.172,12H10v10h12v-6.57c0.579,0.36,1.352,0.29,1.854-0.213L24,15.071V23c0,0.55-0.449,1-1,1H9c-0.55,0-1-0.45-1-1V9
		C8,8.45,8.45,8,9,8L9,8z M18.197,14.511c0.195,0.195,0.513,0.193,0.707,0l1.768-1.768l1.768,1.768c0.195,0.195,0.513,0.195,0.707,0
		l0.708-0.708c0.194-0.195,0.193-0.513,0-0.707l-1.768-1.768l1.767-1.768c0.195-0.195,0.195-0.512,0-0.708l-0.707-0.708
		c-0.194-0.194-0.512-0.194-0.707,0l-1.768,1.768l-1.768-1.768c-0.194-0.194-0.512-0.195-0.706,0L17.49,8.854
		c-0.195,0.195-0.195,0.513,0,0.708l1.768,1.768l-1.768,1.768c-0.194,0.194-0.195,0.512,0,0.707L18.197,14.511z"/>
</g>
</svg>
