<?xml version="1.0" encoding="UTF-8" standalone="no"?>
<!--

    Copyright (c) 2015-2017 Codenvy, S.A.
    All rights reserved. This program and the accompanying materials
    are made available under the terms of the Eclipse Public License v1.0
    which accompanies this distribution, and is available at
    http://www.eclipse.org/legal/epl-v10.html

    Contributors:
      Codenvy, S.A. - initial API and implementation

-->
<svg width="128px" height="85px" viewBox="0 0 128 85" version="1.1" xmlns="http://www.w3.org/2000/svg" xmlns:xlink="http://www.w3.org/1999/xlink">
    <g id="Page-2" stroke="none" stroke-width="1" fill="none" fill-rule="evenodd">
        <g id="Artboard-1" transform="translate(-143.000000, -621.000000)" fill="#FFFFFF">
            <g id="administration" transform="translate(143.000000, 621.000000)">
                <path d="M41.8896484,85 L32,85 C14.4,85 0,70.65625 0,53.125 C0,36.65625 12.2666667,23.375 28.8,21.25 C35.2,8.5 48.5333333,0 64,0 C83.7333333,0 99.7333333,13.8125 103.466667,31.875 C116.8,32.9375 128,44.625 128,58.4375 C128,73.3125 116.266667,85 101.333333,85 L86.3164062,85 L93,85 L93,77.625 C93,67.66875 73.45625,62.875 63.5,62.875 C53.54375,62.875 34,67.66875 34,77.625 L34,85 L41.8896484,85 Z M63.5,55.5 C71.6125,55.5 78.25,48.8625 78.25,40.75 C78.25,32.6375 71.6125,26 63.5,26 C55.3875,26 48.75,32.6375 48.75,40.75 C48.75,48.8625 55.3875,55.5 63.5,55.5 Z" id="Shape-Copy-4"></path>
            </g>
        </g>
    </g>
</svg>
