<?xml version="1.0" encoding="UTF-8" standalone="no"?>
<!--

    Copyright (c) 2015-2017 Codenvy, S.A.
    All rights reserved. This program and the accompanying materials
    are made available under the terms of the Eclipse Public License v1.0
    which accompanies this distribution, and is available at
    http://www.eclipse.org/legal/epl-v10.html

    Contributors:
      Codenvy, S.A. - initial API and implementation

-->
<svg width="12px" height="16px" viewBox="0 0 12 16" version="1.1" xmlns="http://www.w3.org/2000/svg" xmlns:xlink="http://www.w3.org/1999/xlink">
    <g stroke="none" stroke-width="1" fill="none" fill-rule="evenodd">
        <g transform="translate(-12.000000, -144.000000)" fill="#808B9C">
            <g id="rocket" transform="translate(12.000000, 144.000000)">
                <path d="M0.23853117,16 C0.23853117,16 0.00386450358,14.2753333 0.249197837,13.832 L1.9938645,10.6793333 C2.2518645,11.746 2.55919784,12.8606667 2.94119784,14.26 L0.23853117,16 Z M9.98719784,10.6426667 C9.72653117,11.7466667 9.4518645,12.7893333 9.07453117,14.27 L11.7625312,16 C11.7625312,16 11.9965312,14.276 11.7511978,13.832 L9.98719784,10.6426667 Z M5.0358645,16 L6.9658645,16 L7.3338645,14.6666667 L4.66719784,14.6666667 L5.0358645,16 L5.0358645,16 Z M6.00053117,0 C3.67453117,1.66866667 2.66719784,3.65866667 2.66719784,6.12733333 C2.66719784,8.354 3.43119784,10.9773333 4.2538645,14 L7.76919784,14 C8.55653117,10.888 9.31053117,8.282 9.3338645,6.104 C9.36053117,3.61666667 8.37319784,1.678 6.00053117,0 L6.00053117,0 Z M7.78319784,4.35933333 C7.41119784,4.562 6.00053117,4.66666667 6.00053117,4.66666667 C6.00053117,4.66666667 4.61919784,4.57 4.2398645,4.378 C4.53453117,3.37 5.10919784,2.49533333 6.00853117,1.69533333 C6.9278645,2.496 7.49919784,3.356 7.78319784,4.35933333 Z"></path>
            </g>
        </g>
    </g>
</svg>
