<?xml version="1.0" encoding="UTF-8" standalone="no"?>
<!--

    Copyright (c) 2015-2017 Codenvy, S.A.
    All rights reserved. This program and the accompanying materials
    are made available under the terms of the Eclipse Public License v1.0
    which accompanies this distribution, and is available at
    http://www.eclipse.org/legal/epl-v10.html

    Contributors:
      Codenvy, S.A. - initial API and implementation

-->
<svg width="16px" height="20px" viewBox="0 0 16 20" version="1.1" xmlns="http://www.w3.org/2000/svg" xmlns:xlink="http://www.w3.org/1999/xlink">
    <g stroke="none" stroke-width="1" fill="none" fill-rule="evenodd">
        <g transform="translate(-27.000000, -246.000000)" fill="#C5D0DF">
            <g transform="translate(-1.000000, 0.000000)">
                <path d="M37.9966829,263.434078 L34.0517521,263.434078 L34.862487,264.851602 L37.1858512,264.851602 L37.9966829,263.434078 L37.9966829,263.434078 Z M37.7729501,254.246505 C37.7729501,255.228301 36.9791126,256.024175 35.999985,256.024175 C35.0207606,256.024175 34.2269231,255.228252 34.2269231,254.246505 C34.2269231,253.26466 35.0207606,252.468786 35.999985,252.468786 C36.979161,252.468786 37.7729501,253.26466 37.7729501,254.246505 L37.7729501,254.246505 Z M39.4450635,249.134612 C38.3208316,248.007427 36.9821144,248.054078 35.9955791,246 C34.9994089,248.074369 33.6052548,247.966165 32.4913356,249.083204 C29.2728465,252.310097 31.5535074,258.388641 33.6093702,262.470922 L38.3905998,262.470922 C40.4465595,258.388447 42.7440209,252.442379 39.4450635,249.134612 L39.4450635,249.134612 Z M35.999985,256.994806 C34.4885177,256.994806 33.2588345,255.761942 33.2588345,254.246505 C33.2588345,252.731068 34.4885177,251.498204 35.999985,251.498204 C37.511404,251.498204 38.7410387,252.731068 38.7410387,254.246505 C38.7410387,255.761942 37.511404,256.994806 35.999985,256.994806 L35.999985,256.994806 Z M42.9002126,260.88835 C42.3949861,260.21432 41.937934,259.586408 41.464614,258.954466 C40.9396335,260.563544 40.3356372,261.737573 39.9193035,262.605534 C39.9193035,262.605534 40.8165587,263.150777 41.1599287,263.387233 C41.6674308,263.73665 42.0608636,264.09466 41.8404715,264.828398 C41.7628114,265.086893 41.5122074,266 41.5122074,266 L42.5326827,266 C42.5326827,266 43.1732819,264.940777 43.6671789,264.026602 C44.3389099,262.782913 43.9489632,262.287524 42.9002126,260.88835 L42.9002126,260.88835 Z M28.3328879,264.026602 C28.8267366,264.940777 29.4673357,266 29.4673357,266 L30.487811,266 C30.487811,266 30.2371586,265.086893 30.1595469,264.828398 C29.9391064,264.09466 30.3325392,263.73665 30.8400897,263.387233 C31.1834598,263.150825 32.080715,262.605534 32.080715,262.605534 C31.6643812,261.737573 31.060385,260.563592 30.5354045,258.954466 C30.0620844,259.586408 29.6049839,260.21432 29.0998058,260.88835 C28.0510069,262.287524 27.6610601,262.782913 28.3328879,264.026602 L28.3328879,264.026602 Z"></path>
            </g>
        </g>
    </g>
</svg>
