<?xml version="1.0" encoding="UTF-8" standalone="no"?>
<!--

    Copyright (c) 2015-2018 Red Hat, Inc.
    This program and the accompanying materials are made
    available under the terms of the Eclipse Public License 2.0
    which is available at https://www.eclipse.org/legal/epl-2.0/

    SPDX-License-Identifier: EPL-2.0

    Contributors:
      Red Hat, Inc. - initial API and implementation

-->
<svg
   xmlns:dc="http://purl.org/dc/elements/1.1/"
   xmlns:cc="http://creativecommons.org/ns#"
   xmlns:rdf="http://www.w3.org/1999/02/22-rdf-syntax-ns#"
   xmlns:svg="http://www.w3.org/2000/svg"
   xmlns="http://www.w3.org/2000/svg"
   version="1.1"
   width="24"
   height="30"
   viewBox="0 0 24 30"
   id="svg2">
  <g
     transform="matrix(0.81941964,0,0,0.81941964,3.5802651,3.0010986)"
     id="g3855">
    <path
       d="m -1.5625,16.908353 c -1.235387,0.696685 -2.093751,1.852329 -2.09375,3.1875 0,1.416667 0.954729,2.664865 2.3125,3.34375 l 0.03125,0.03125 c 2.950379,1.424817 4.167778,2.336596 7.96875,3.96875 0.04774,0.0205 0.04518,0.04177 0.09375,0.0625 l 0,-0.03125 c 2.333971,1.133412 4.922809,1.132345 7.25,-0.03125 2.996158,-1.511151 4.999111,-2.505182 8,-4 1.35777,-0.678885 2.34375,-1.927083 2.34375,-3.34375 0,-1.33018 -0.894209,-2.458843 -2.125,-3.15625 -0.232222,0.238231 -0.508333,0.472917 -0.875,0.65625 -0.810938,0.403949 -1.451947,0.742945 -2.15625,1.09375 0.48035,0.251684 1.058538,0.538423 1.46875,0.75 0.642229,0.321115 0.6875,0.572917 0.6875,0.65625 0,0.08144 -0.08683,0.345471 -0.6875,0.65625 -2.999113,1.493934 -4.996158,2.516223 -8,4.03125 -1.642229,0.821115 -3.014021,0.821115 -4.65625,0 L 7.96875,24.752103 7.9375,24.720853 C 4.18906,23.121305 3.154807,22.275644 0,20.752103 c -0.598783,-0.3103 -0.65625,-0.574899 -0.65625,-0.65625 0,-0.08333 0.01402,-0.335135 0.65625,-0.65625 l 0.03125,0 c 0.438745,-0.229967 0.96189,-0.501601 1.4375,-0.75 -0.630034,-0.337121 -1.30201,-0.696306 -2.125,-1.09375 -0.383334,-0.191667 -0.669861,-0.436443 -0.90625,-0.6875 z"
       id="path3048"
       style="font-size:medium;font-style:normal;font-variant:normal;font-weight:normal;font-stretch:normal;text-indent:0;text-align:start;text-decoration:none;line-height:normal;letter-spacing:normal;word-spacing:normal;text-transform:none;direction:ltr;block-progression:tb;writing-mode:lr-tb;text-anchor:start;baseline-shift:baseline;color:#000000;fill:#000000;fill-opacity:1;fill-rule:nonzero;stroke:none;stroke-width:3;marker:none;visibility:visible;display:inline;overflow:visible;enable-background:accumulate;font-family:Sans;-inkscape-font-specification:Sans" />
    <path
       d="m 10.40625,2.1271026 c -1.197321,-7.58e-5 -2.387352,0.3195652 -3.53125,0.875 l -0.03125,-0.03125 c -2.59584,1.0878998 -5.731393,2.7913248 -8.15625,4.0625 -0.0074,0.00391 -0.02381,-0.0039 -0.03125,0 l 0,0.03125 c -1.336275,0.6833301 -2.312501,1.8788902 -2.3125,3.2812504 0,1.416667 0.985979,2.664865 2.34375,3.34375 l 0,0.03125 0.03125,0 c 2.950378,1.424818 4.167777,2.336596 7.96875,3.96875 0.04774,0.0205 0.04518,0.04177 0.09375,0.0625 l 0,-0.03125 c 2.333775,1.133042 4.92306,1.13222 7.25,-0.03125 2.996158,-1.511151 4.999111,-2.505181 8,-4 1.35777,-0.678885 2.3125,-1.927083 2.3125,-3.34375 0,-1.416667 -0.95473,-2.6336148 -2.3125,-3.3125004 -2.082098,-1.0738965 -5.401028,-2.9141154 -8,-4 -0.03249,-0.013576 -0.06149,-0.049167 -0.09375,-0.0625 l 0,0.03125 c -1.143809,-0.555399 -2.333929,-0.8749242 -3.53125,-0.875 z m 0,2.96875 c 0.730747,5.42e-5 1.453022,0.1796358 2.28125,0.59375 l 0.0625,0.03125 0.03125,0.03125 c 2.308882,0.9543116 5.684629,2.8077588 7.875,3.9375 l 0.03125,0 c 0.642229,0.3211144 0.65625,0.5729174 0.65625,0.6562504 0,0.08135 -0.05747,0.345951 -0.65625,0.65625 -2.999113,1.493935 -4.996158,2.516223 -8,4.03125 -1.642229,0.821115 -3.014021,0.821115 -4.65625,0 L 8,15.002103 7.9375,14.970853 C 4.206769,13.378862 3.151306,12.543376 0.03125,11.033353 0.00206,11.018753 0.02675,11.016413 0,11.002103 c -0.560941,-0.300482 -0.65625,-0.576705 -0.65625,-0.65625 0,-0.08333 0.04527,-0.335136 0.6875,-0.6562504 l 0.03125,0 c 2.443422,-1.2807075 5.590774,-2.9409054 7.96875,-3.9375 l 0.03125,-0.03125 0.03125,-0.03125 c 0.828134,-0.414067 1.581753,-0.5938042 2.3125,-0.59375 z"
       id="path3048-3-6"
       style="font-size:medium;font-style:normal;font-variant:normal;font-weight:normal;font-stretch:normal;text-indent:0;text-align:start;text-decoration:none;line-height:normal;letter-spacing:normal;word-spacing:normal;text-transform:none;direction:ltr;block-progression:tb;writing-mode:lr-tb;text-anchor:start;baseline-shift:baseline;color:#000000;fill:#000000;fill-opacity:1;fill-rule:nonzero;stroke:none;stroke-width:3;marker:none;visibility:visible;display:inline;overflow:visible;enable-background:accumulate;font-family:Sans;-inkscape-font-specification:Sans" />
    <path
       d="m -1.5625,12.03326 c -1.235387,0.696685 -2.093751,1.852329 -2.09375,3.1875 0,1.416667 0.954729,2.664865 2.3125,3.34375 l 0.03125,0.03125 c 2.950379,1.424817 4.167778,2.336596 7.96875,3.96875 0.04774,0.0205 0.04518,0.04177 0.09375,0.0625 l 0,-0.03125 c 2.333971,1.133412 4.922809,1.132345 7.25,-0.03125 2.996158,-1.511151 4.999111,-2.505182 8,-4 1.35777,-0.678885 2.34375,-1.927083 2.34375,-3.34375 0,-1.33018 -0.894209,-2.458843 -2.125,-3.15625 -0.232222,0.238231 -0.508333,0.472917 -0.875,0.65625 -0.810938,0.403949 -1.451947,0.742945 -2.15625,1.09375 0.48035,0.251684 1.058538,0.538423 1.46875,0.75 0.642229,0.321115 0.6875,0.572917 0.6875,0.65625 0,0.08144 -0.08683,0.345471 -0.6875,0.65625 -2.999113,1.493934 -4.996158,2.516223 -8,4.03125 -1.642229,0.821115 -3.014021,0.821115 -4.65625,0 L 7.96875,19.87701 7.9375,19.84576 C 4.18906,18.246212 3.154807,17.400551 0,15.87701 c -0.598783,-0.3103 -0.65625,-0.574899 -0.65625,-0.65625 0,-0.08333 0.01402,-0.335135 0.65625,-0.65625 l 0.03125,0 c 0.438745,-0.229967 0.96189,-0.501601 1.4375,-0.75 -0.630034,-0.337121 -1.30201,-0.696306 -2.125,-1.09375 -0.383334,-0.191667 -0.669861,-0.436443 -0.90625,-0.6875 z"
       id="path3048-7"
       style="font-size:medium;font-style:normal;font-variant:normal;font-weight:normal;font-stretch:normal;text-indent:0;text-align:start;text-decoration:none;line-height:normal;letter-spacing:normal;word-spacing:normal;text-transform:none;direction:ltr;block-progression:tb;writing-mode:lr-tb;text-anchor:start;baseline-shift:baseline;color:#000000;fill:#000000;fill-opacity:1;fill-rule:nonzero;stroke:none;stroke-width:3;marker:none;visibility:visible;display:inline;overflow:visible;enable-background:accumulate;font-family:Sans;-inkscape-font-specification:Sans" />
  </g>
</svg>
