<?xml version="1.0" encoding="UTF-8" standalone="no"?>
<!--

    Copyright (c) 2015-2017 Codenvy, S.A.
    All rights reserved. This program and the accompanying materials
    are made available under the terms of the Eclipse Public License v1.0
    which accompanies this distribution, and is available at
    http://www.eclipse.org/legal/epl-v10.html

    Contributors:
      Codenvy, S.A. - initial API and implementation

-->
<svg xmlns="http://www.w3.org/2000/svg" xmlns:xlink="http://www.w3.org/1999/xlink"
   version="1.1"
   width="326"
   height="87"
   viewBox="0 0 326 87"
   id="svg3034">
  <g
     transform="matrix(0.45,0,0,0.45,89.6225,24.035)"
     id="g3036"
     style="fill:none;stroke:none">
    <g
       style="fill:#adadad">
      <path
         d="m 48,73.4 -23.2,0 -3.2,12 -20.8,0 24.8,-72.8 22.2,0 24.8,72.8 -21.3,0 -3.3,-12 0,0 z m -4.3,-15.7 -7.3,-26.2 -7.2,26.2 14.5,0 0,0 z m 20.5,3.6 19.4,-1.4 c 0.5,3.5 1.3,6.1 2.6,7.9 2.1,2.9 5.1,4.4 9,4.4 2.9,0 5.1,-0.7 6.7,-2.3 1.5,-1.5 2.4,-3.3 2.4,-5.2 0,-1.9 -0.7,-3.6 -2.3,-5.1 -1.5,-1.5 -5,-2.9 -10.4,-4.2 -8.9,-2.2 -15.3,-5.2 -19.1,-8.8 -3.8,-3.6 -5.7,-8.4 -5.7,-14 0,-3.7 1,-7.3 2.9,-10.6 2,-3.3 4.9,-5.9 8.8,-7.8 3.9,-1.9 9.3,-2.8 16.2,-2.8 8.4,0 14.9,1.7 19.2,5.2 4.4,3.5 7,8.9 7.8,16.5 l -19.2,1.3 C 102,31.1 101,28.7 99.3,27.2 97.7,25.7 95.4,25 92.6,25 c -2.4,0 -4.2,0.5 -5.4,1.6 -1.2,1.1 -1.8,2.5 -1.8,4 0,1.2 0.5,2.2 1.5,3.1 1,1 3.3,1.8 6.8,2.6 8.9,2.1 15.2,4.3 19.1,6.5 3.8,2.2 6.7,4.8 8.4,8.1 1.7,3.2 2.6,6.8 2.6,10.8 0,4.6 -1.2,8.9 -3.6,12.9 -2.4,3.9 -5.6,6.9 -9.8,8.9 -4.2,2 -9.5,3 -15.9,3 -11.2,0 -19,-2.4 -23.2,-7.2 -4,-4.6 -6.5,-10.6 -7.1,-18 l 0,0 0,0 z m 58.8,-48.7 33.8,0 c 7.4,0 12.9,1.9 16.6,5.8 3.6,3.8 5.5,9.4 5.5,16.5 0,7.4 -2,13.1 -6,17.2 -4,4.1 -10.1,6.2 -18.3,6.2 l -11.1,0 0,27.1 -20.5,0 0,-72.8 0,0 z m 20.4,31 5,0 c 3.9,0 6.7,-0.7 8.3,-2.3 1.5,-1.5 2.4,-3.5 2.4,-5.7 0,-2.2 -0.7,-4.3 -2.1,-5.8 -1.4,-1.5 -3.9,-2.4 -7.7,-2.4 l -5.8,0 0,16.2 -0.1,0 0,0 z"
         />
      <path
         d="m 187,84.6 0,-62.1 8.3,0 0,8.8 c 4,-6.8 9.8,-10.2 17.3,-10.2 3.3,0 6.3,0.6 9,2 2.7,1.4 4.8,3.1 6.2,5.3 1.4,2.2 2.3,4.7 2.9,7.7 0.4,1.9 0.5,5.4 0.5,10.2 l 0,38.1 -9.2,0 0,-37.7 c 0,-4.3 -0.4,-7.5 -1.1,-9.6 -0.7,-2.1 -2,-3.8 -3.8,-5.1 -1.8,-1.3 -4,-1.9 -6.5,-1.9 -3.9,0 -7.3,1.5 -10.2,4.3 -2.8,2.8 -4.3,8.2 -4.3,16.2 l 0,33.9 -9.1,0.1 0,0 z m 95.5,-20 9.5,1.4 c -1.5,6.4 -4.3,11.3 -8.3,14.8 -4.1,3.5 -9.3,5.3 -15.6,5.3 -7.9,0 -14.2,-2.8 -18.9,-8.4 -4.6,-5.6 -7,-13.4 -7,-23.5 0,-10.5 2.4,-18.5 7,-24.3 4.7,-5.7 10.8,-8.7 18.3,-8.7 7.3,0 13.2,2.8 17.8,8.5 4.6,5.7 6.9,13.6 6.9,23.8 0,0.6 0,1.5 -0.1,2.8 l -40.6,0 c 0.4,6.8 2,12 5.1,15.7 3,3.6 6.8,5.5 11.4,5.5 3.4,0 6.3,-1 8.7,-3 2.5,-2.2 4.4,-5.5 5.8,-9.9 l 0,0 0,0 z m -30.3,-17 30.4,0 c -0.4,-5.2 -1.5,-9.1 -3.5,-11.8 -2.9,-4 -6.7,-6.1 -11.4,-6.1 -4.2,0 -7.7,1.6 -10.7,4.8 -2.9,3.3 -4.4,7.7 -4.8,13.1 l 0,0 0,0 z m 71.5,27.6 1.4,9.3 c -2.6,0.6 -4.9,0.9 -6.9,0.9 -3.4,0 -5.9,-0.6 -7.7,-1.8 -1.8,-1.2 -3.1,-2.8 -3.9,-4.7 -0.7,-1.9 -1.1,-6.1 -1.1,-12.4 l 0,-35.7 -29.5,0 0,-8.2 29.4,0 0,-15.4 9.2,-6.3 0,21.7 9.3,0 0,8.2 -9.3,0 0,36.2 c 0,3 0.2,4.9 0.5,5.7 0.4,0.8 0.8,1.5 1.5,2.1 0.7,0.5 1.8,0.7 3.1,0.7 1,0.1 2.4,0 4,-0.3 l 0,0 0,0 z"
         />
      <path
         d="m 173.3,68.5 c 4,0 7.4,3.4 7.4,7.5 0,4.1 -3.3,7.5 -7.4,7.5 -4,0 -7.4,-3.4 -7.4,-7.5 0,-4.1 3.3,-7.5 7.4,-7.5 l 0,0 0,0 z"
         />
    </g>
  </g>
</svg>
