<?xml version="1.0" ?>
<!--

    Copyright (c) 2015-2017 Codenvy, S.A.
    All rights reserved. This program and the accompanying materials
    are made available under the terms of the Eclipse Public License v1.0
    which accompanies this distribution, and is available at
    http://www.eclipse.org/legal/epl-v10.html

    Contributors:
      Codenvy, S.A. - initial API and implementation

-->
<!DOCTYPE svg  PUBLIC '-//W3C//DTD SVG 1.1//EN'  'http://www.w3.org/Graphics/SVG/1.1/DTD/svg11.dtd'>
<svg enable-background="new 0 0 512 512" height="512px" id="PictoFoundry_Icons" version="1.1" viewBox="0 0 512 512" width="512px" xml:space="preserve" xmlns="http://www.w3.org/2000/svg" xmlns:xlink="http://www.w3.org/1999/xlink"><g id="_x3C_Diamond_x3E_"><g><polygon fill="#010101" points="509.91,151.772 368.115,151.772 256.903,447.809 259.367,456.002   "/><polygon fill="#010101" points="256.237,445.601 334.749,151.772 171.914,151.772   "/><polygon fill="#010101" points="256.237,449.651 253.545,457.105 256,460.09 258.783,456.705   "/><polygon fill="#010101" points="255.571,447.809 143.885,151.772 2.089,151.772 252.98,456.422   "/></g><g><polygon fill="#010101" points="294.439,49 204.596,49 165.162,133.087 341.336,133.087   "/><polygon fill="#010101" points="370.707,133.087 512,133.087 461.545,49 410.141,49   "/><polygon fill="#010101" points="150.235,120.678 183.838,49 110.254,49   "/><polygon fill="#010101" points="315.799,49 355.779,120.678 389.383,49   "/><polygon fill="#010101" points="88.895,49 50.456,49 0,133.087 135.792,133.087   "/></g></g></svg>
