<?xml version="1.0" encoding="UTF-8" standalone="no"?>
<!--

    Copyright (c) 2015-2017 Codenvy, S.A.
    All rights reserved. This program and the accompanying materials
    are made available under the terms of the Eclipse Public License v1.0
    which accompanies this distribution, and is available at
    http://www.eclipse.org/legal/epl-v10.html

    Contributors:
      Codenvy, S.A. - initial API and implementation

-->
<svg xmlns="http://www.w3.org/2000/svg" xmlns:xlink="http://www.w3.org/1999/xlink"
   version="1.1"
   width="50"
   height="50"
   id="svg3435">
  <g
     transform="matrix(1.0876385,0,0,1.0817215,3.086532,-2.832756)"
     id="gopher"
     style="fill:none;stroke:none">
    <g
       id="Group">
      <path
         d="m 23.84375,-1.84375 c -4.239836,0.096351 -9.631871,1.19334846 -14.0625,5.375 C 8.9120836,4.3598723 5.461646,2.0474712 4.0625,4.6875 c -1.632337,3.0832454 3.3168903,3.3818105 3.0625,4.75 -0.4875812,2.466597 -0.1628352,6.115207 0.21875,9.71875 0.2149177,2.211783 -0.3056927,5.562063 -0.5625,9.1875 -1.1530067,0.08437 -1.8660998,3.381276 -0.125,3.6875 0.042858,5.116144 1.222259,10.280808 6.09375,13.375 -0.473144,-0.01619 -0.908433,0.183397 -1.375,0.8125 -0.423984,0.558839 -0.459624,0.960946 0.21875,1.25 2.5863,1.079135 4.900416,-0.376574 4.03125,-0.78125 -0.150682,-0.06927 -0.264456,-0.144969 -0.40625,-0.21875 2.539324,0.683144 6.501834,1.082014 10.0625,1.15625 l 0.03125,0 c 3.253613,-0.06783 6.527426,-0.391862 8.875,-0.96875 -0.230765,0.520055 1.862317,1.595185 4.1875,0.625 0.678373,-0.289054 0.673983,-0.691162 0.25,-1.25 C 38.254249,45.531342 37.869613,45.319873 37.5,45.25 c 4.656231,-3.110629 5.797258,-8.189857 5.84375,-13.21875 1.704294,-0.337904 1.021562,-3.6036 -0.125,-3.6875 -0.253056,-3.638333 -0.785459,-6.972085 -0.5625,-9.1875 0.360387,-3.603543 0.685132,-7.252153 0.21875,-9.71875 -0.254391,-1.3681895 4.694838,-1.6860249 3.0625,-4.75 -1.420345,-2.6400288 -4.849583,-0.3276277 -5.71875,-1.15625 -4.451827,-4.16238121 -9.843862,-5.1822972 -14.0625,-5.375 l -2.3125,0 z"
         transform="matrix(0.91942314,0,0,0.92445237,-2.8378289,2.618748)"
         id="Shape"
         style="fill:#000000" />
      <g
         transform="translate(6.875,6.894737)"
         id="g3461">
        <path
           d="M 6.4703892,1.7785144 C 12.980389,2.4732783 12.103293,8.67271 9.5889521,10.685744 4.9111078,14.42678 0.03835329,10.685744 0.5841018,6.9090786 1.0908683,3.274929 4.4628144,1.5647409 6.4703892,1.7785144 l 0,0 z"
           id="path3463"
           style="fill:#ffffff" />
        <ellipse
           cx="6.0415869"
           cy="7.1228523"
           rx="2.221976"
           ry="2.0308483"
           id="ellipse3465"
           style="fill:#111212" />
        <ellipse
           cx="6.6263175"
           cy="6.2499437"
           rx="0.70167667"
           ry="0.64132053"
           id="ellipse3467"
           style="fill:#ffffff" />
      </g>
      <path
         d="M 4.5159581,7.3727957 C 4.6329042,7.7468994 4.1066467,7.693456 3.9117365,8.8513958 3.8337725,9.2789429 2.1575449,8.2278898 2.8397305,7.461868 3.385479,6.8205475 4.399012,6.9986921 4.5159581,7.3727957 l 0,0 z"
         id="path3479"
         style="fill:#ffffff" />
      <path
         d="m 37.824173,7.799267 c 0.209852,0.4389664 0.638238,1.3232029 -0.863762,1.4458952 -0.02781,0.00227 -0.09938,-0.00294 -0.128528,-0.0012 -0.0055,0.030224 -0.08472,-0.023772 -0.09406,-0.031869 -0.03374,-0.029278 -0.05434,-0.061737 -0.07126,-0.071724 -0.08136,-0.048004 -0.06564,-0.093941 -0.08551,-0.2440357 C 36.561844,8.7512456 36.56188,8.5723324 36.460246,8.4326541 36.367979,8.3058475 36.183302,8.1790241 36.036307,8.0509074 35.890314,7.9236639 35.865735,7.8759682 35.869312,7.7176352 c 6.28e-4,-0.027795 -0.0019,-0.062389 0.01687,-0.1011208 0.01828,-0.021483 0.03379,-0.048964 0.05364,-0.068042 0.572659,-0.55044 1.771329,-0.1107776 1.884351,0.2507946 z"
         id="path3479-7"
         style="fill:#ffffff;stroke:none" />
      <path
         d="m 21.874592,18.419086 c 0.253226,0.09502 0.428791,0.188517 0.616295,0.282997 0.04687,0.02362 0.09449,0.04538 0.144257,0.0639 2.444314,0.909376 1.834751,2.252827 0.46737,2.958725 -0.217649,0.112359 -0.51316,0.161794 -0.809562,0.228627 -0.291882,0.06581 -0.209261,0.03181 -0.393253,0.06524 -0.605326,0.1098 -1.447853,0.02238 -1.974762,0.02339 -0.656948,0.0013 -1.247575,-0.0011 -1.744123,-0.01432 -1.887547,-0.05018 -2.624322,-1.7058 -1.790012,-2.559608 0.533175,-0.552428 1.214189,-0.830783 2.08746,-1.103804 0.135907,-0.04249 0.21149,-0.170031 0.466524,-0.296115 0.141678,-0.07004 0.305232,-0.131054 0.432042,-0.177942 0.134327,-0.04967 0.345551,-0.123374 0.475863,-0.130884 0.127091,-0.0073 0.209957,-0.0052 0.316994,-0.0081 0.397735,-0.01077 0.817478,0.195934 1.121877,0.345269 0.103193,0.05063 0.149444,0.07213 0.230633,0.121584 0.04556,0.02775 0.110726,0.07267 0.231433,0.159284 z"
         id="path3463-0"
         style="fill:#ffffff;stroke:none" />
      <path
         d="m 21.014316,22.036342 c 0.102275,-0.01298 0.160079,0.0062 0.25572,-0.01065 0.220051,-0.03871 0.395088,-0.07302 0.488201,-0.03305 0.05458,0.02343 0.07158,0.06034 0.07809,0.109521 0.0042,0.03182 -0.01246,-0.0091 0.03102,0.04025 0.160446,0.182292 0.167759,0.687062 0.110364,0.961228 -0.04532,0.21647 -0.100229,0.53505 -0.221464,0.739559 -0.01963,0.03311 -0.02361,0.07014 -0.034,0.08661 -0.03587,0.05689 -0.0586,0.0658 -0.07562,0.09545 -0.01218,0.02122 -0.06642,0.06548 -0.131228,0.101397 -0.120873,0.06699 -0.04682,0.04006 -0.174875,0.07469 -0.105377,0.02844 -0.249719,0.03802 -0.36498,0.04832 -0.914329,0.08168 -0.680519,0.04498 -1.027824,0.05628 -0.640552,0.02084 -1.232176,-0.07915 -1.477128,-0.203387 -0.560832,-0.284438 -0.697824,-1.521213 -0.389273,-1.991094 0.107146,-0.1652 0.04308,-0.120196 0.156291,-0.121756 0.324106,-0.0045 1.254782,-0.0014 1.704093,0.01595 0.328471,0.01268 0.426701,-0.0529 0.593395,0.01079 0.07634,0.02917 0.161354,-0.0168 0.22786,-0.0019 z"
         id="path3463-0-6"
         style="fill:#ffffff;stroke:none" />
    </g>
  </g>
  <path
     d="m 33.072731,6.8395467 c 2.0459,0.217156 3.756758,1.271489 4.708841,2.225193 2.342922,2.3469143 1.732481,6.1671243 -0.212026,7.7154713 -2.714227,2.060432 -5.440745,1.518251 -7.625674,-0.145195 -1.311775,-0.998689 -1.381129,-1.467917 -1.8916,-2.284275 -0.277484,-0.44376 -0.48001,-1.303713 -0.603279,-1.859913 -0.08443,-1.394811 0.08349,-3.0018573 0.891939,-3.8823623 1.405305,-1.530556 3.345694,-1.915714 4.731799,-1.768919 z"
     id="path3463-6"
     style="fill:#ffffff;stroke:none" />
  <ellipse
     cx="6.0415869"
     cy="7.1228523"
     rx="2.221976"
     ry="2.0308483"
     transform="matrix(1.0876385,0,0,1.0817215,25.97891,4.5026937)"
     id="ellipse3465-4"
     style="fill:#111212;stroke:none" />
  <ellipse
     cx="6.6263175"
     cy="6.2499437"
     rx="0.70167667"
     ry="0.64132053"
     transform="matrix(1.0876385,0,0,1.0817215,24.823428,4.5810917)"
     id="ellipse3467-2"
     style="fill:#ffffff;stroke:none" />
</svg>
