<?xml version="1.0" ?>
<!--

    Copyright (c) 2015-2017 Codenvy, S.A.
    All rights reserved. This program and the accompanying materials
    are made available under the terms of the Eclipse Public License v1.0
    which accompanies this distribution, and is available at
    http://www.eclipse.org/legal/epl-v10.html

    Contributors:
      Codenvy, S.A. - initial API and implementation

-->
<!DOCTYPE svg  PUBLIC '-//W3C//DTD SVG 1.1 Tiny//EN'  'http://www.w3.org/Graphics/SVG/1.1/DTD/svg11-tiny.dtd'>
<svg baseProfile="tiny" height="512px" version="1.1" viewBox="0 0 512 512" width="512px" xml:space="preserve" xmlns="http://www.w3.org/2000/svg" xmlns:xlink="http://www.w3.org/1999/xlink"><g id="Layer_1"><g><path d="M112.155,67.644h84.212v236.019c0,106.375-50.969,143.497-132.414,143.497c-19.944,0-45.429-3.324-62.052-8.864    l9.419-68.146c11.635,3.878,26.594,6.648,43.214,6.648c35.458,0,57.621-16.068,57.621-73.687V67.644z"/><path d="M269.484,354.634c22.161,11.635,57.62,23.27,93.632,23.27c38.783,0,59.282-16.066,59.282-40.998    c0-22.715-17.729-36.565-62.606-52.079c-62.053-22.162-103.05-56.512-103.05-111.36c0-63.715,53.741-111.917,141.278-111.917    c42.662,0,73.132,8.313,95.295,18.838l-18.839,67.592c-14.404-7.201-41.553-17.729-77.562-17.729    c-36.567,0-54.297,17.175-54.297,36.013c0,23.824,20.499,34.349,69.256,53.188c65.928,24.378,96.4,58.728,96.4,111.915    c0,62.606-47.647,115.794-150.143,115.794c-42.662,0-84.77-11.636-105.82-23.27L269.484,354.634z"/></g></g></svg>
