<?xml version="1.0" encoding="UTF-8" standalone="no"?>
<!--

    Copyright (c) 2012-2018 Red Hat, Inc.
    This program and the accompanying materials are made
    available under the terms of the Eclipse Public License 2.0
    which is available at https://www.eclipse.org/legal/epl-2.0/

    SPDX-License-Identifier: EPL-2.0

    Contributors:
      Red Hat, Inc. - initial API and implementation

-->
<svg width="16px" height="16px" viewBox="0 0 399 354" version="1.1" xmlns="http://www.w3.org/2000/svg" xmlns:xlink="http://www.w3.org/1999/xlink">
    <g stroke="none" stroke-width="1" fill="none" fill-rule="evenodd">
        <path d="M385.894,208.586 C395.779,208.586 398.791,200.574 398.791,190.69 C398.791,180.805 395.778,172.794 385.894,172.794 L345.097,172.794 C335.326,172.794 329.014001,173.608008 324.254,154.643 C319.493999,135.677992 329.115,134.858 337.24,131.654 L375.137,116.709 C384.333,113.083 383.847,104.689 380.221,95.494 C376.595,86.3 371.201,79.785 362.008,83.411 L323.039,98.779 C317.465,100.977 310.57,99.405 307.316,91.851 C303.51,83.018 299.197,74.765 294.421,67.275 C264.599,80.703 238.439,89.9320002 212.797,91.8510002 L212.797,354 C255.861,345.093 286.646,317.561 303.134,289.849 C307.564,282.403 313.793,280.983 319.494,283.564 L362.974,303.233 C371.956,307.299 377.575,301.328 381.657,292.304 C385.73,283.298 386.732,274.697 377.727,270.622 L336.625,252.029 C328.213,248.221 320.374312,250.367297 323.661,228.175 C326.947688,205.982703 335.871,208.586 345.35,208.586 L385.894,208.586 Z M105.577,67.274 C100.913,74.588 96.691,82.629 92.951,91.229 C89.093,100.1 81.97,100.754 76.961,98.778 L37.992,83.41 C28.798,79.784 23.404,86.299 19.778,95.493 C16.152,104.688 15.666,113.082 24.862,116.708 L62.759,131.653 C71.182,134.974 79.1230015,138.64337 75.882,153.632 C71.8804382,172.137987 64.288,172.794 54.903,172.794 L14.106,172.794 C4.221,172.794 0.209,180.806 0.209,190.69 C0.209,200.574 4.222,208.586 14.106,208.586 L54.649,208.586 C64.371,208.586 71.7430013,206.561502 76.123,226.812 C80.5029987,247.062498 72.256,248.008 63.372,252.03 L22.27,270.623 C13.265,274.697 14.267,282.299 18.341,291.305 C22.417,300.32 28.029,307.303 37.023,303.234 L80.503,283.565 C85.718,281.205 92.191,281.729 95.801,288.031 C112.011,316.348 143.195,344.896 187.2,353.999 L187.2,90.279 C161.565,88.36 135.404,80.705 105.577,67.274 Z M199.999,0.397 C244.181059,0.317999997 264.104273,35.3776818 277.127273,51.9536818 C257.311206,62.3188942 236.283903,68.5220606 200.131835,68.5631844 C163.691757,68.6046359 144.664035,62.4014695 124.690101,51.9536818 C137.915101,35.1206818 155.308946,0.317999997 199.999,0.397 Z" fill="#000000"></path>
    </g>
</svg>
