<?xml version="1.0" encoding="utf-8"?>
<!--

    Copyright (c) 2012-2017 Codenvy, S.A.
    All rights reserved. This program and the accompanying materials
    are made available under the terms of the Eclipse Public License v1.0
    which accompanies this distribution, and is available at
    http://www.eclipse.org/legal/epl-v10.html

    Contributors:
      Codenvy, S.A. - initial API and implementation

-->
<!-- License Agreement at http://iconmonstr.com/license/ -->

<!DOCTYPE svg PUBLIC "-//W3C//DTD SVG 1.1//EN" "http://www.w3.org/Graphics/SVG/1.1/DTD/svg11.dtd">
<svg version="1.1" xmlns="http://www.w3.org/2000/svg" xmlns:xlink="http://www.w3.org/1999/xlink" x="0px" y="0px"
	 width="512px" height="512px" viewBox="0 0 512 512" enable-background="new 0 0 512 512" xml:space="preserve">
<path id="wrench-7-icon" d="M256,50C142.229,50,50,142.229,50,256s92.229,206,206,206c113.716,0,206-92.208,206-206
	C462,142.229,369.771,50,256,50z M402.631,333.983l-28.964-28.964c-11.249-11.249-17.07-26.818-15.979-42.688
	c1.959-28.476-7.94-57.61-29.708-79.378c-28.623-28.623-69.984-36.729-105.832-24.333l65.082,65.083
	c1.494,25.39-37.764,64.646-63.153,63.152l-65.081-65.082c-12.396,35.848-4.291,77.21,24.332,105.833
	c21.767,21.768,50.902,31.666,79.378,29.707c15.855-1.091,31.45,4.74,42.688,15.979l29.076,29.075
	C310.626,415.191,283.837,422,256,422c-44.341,0-86.027-17.267-117.38-48.62C107.267,342.027,90,300.341,90,256
	s17.267-86.027,48.62-117.38C169.973,107.267,211.659,90,256,90s86.027,17.267,117.38,48.62C404.733,169.973,422,211.659,422,256
	C422,283.647,415.285,310.261,402.631,333.983z"/>
</svg>
