<?xml version="1.0" encoding="utf-8"?>
<!--

    Copyright (c) 2012-2017 Codenvy, S.A.
    All rights reserved. This program and the accompanying materials
    are made available under the terms of the Eclipse Public License v1.0
    which accompanies this distribution, and is available at
    http://www.eclipse.org/legal/epl-v10.html

    Contributors:
      Codenvy, S.A. - initial API and implementation

-->
<!-- The icon can be used freely in both personal and commercial projects with no attribution required, but always appreciated. 
You may NOT sub-license, resell, rent, redistribute or otherwise transfer the icon without express written permission from iconmonstr.com -->

<!DOCTYPE svg PUBLIC "-//W3C//DTD SVG 1.1//EN" "http://www.w3.org/Graphics/SVG/1.1/DTD/svg11.dtd">
<svg version="1.1" xmlns="http://www.w3.org/2000/svg" xmlns:xlink="http://www.w3.org/1999/xlink" x="0px" y="0px"
	 width="512px" height="512px" viewBox="0 0 512 512" enable-background="new 0 0 512 512" xml:space="preserve">
<path id="database-10-icon" d="M334.493,306.558v20.995c0,14.922-33.564,27.019-74.969,27.019
	c-41.402,0-74.967-12.097-74.967-27.019v-20.995c4.641,3.336,10.463,6.276,17.368,8.766c15.593,5.619,36.051,8.714,57.599,8.714
	c21.552,0,42.008-3.095,57.603-8.714C324.031,312.834,329.854,309.894,334.493,306.558z M317.127,271.439
	c-15.595,5.62-36.051,8.716-57.603,8.716c-21.548,0-42.006-3.096-57.599-8.716c-6.905-2.488-12.728-5.429-17.368-8.765v20.807
	c0,14.922,33.564,27.019,74.967,27.019c41.404,0,74.969-12.097,74.969-27.019v-20.807
	C329.854,266.011,324.031,268.951,317.127,271.439z M259.524,168.642c-41.402,0-74.967,12.098-74.967,27.02
	s33.564,27.02,74.967,27.02c41.404,0,74.969-12.098,74.969-27.02S300.929,168.642,259.524,168.642z M317.127,227.502
	c-15.595,5.621-36.051,8.716-57.603,8.716c-21.548,0-42.006-3.095-57.599-8.716c-6.905-2.488-12.728-5.43-17.368-8.765v20.86
	c0,14.923,33.564,27.019,74.967,27.019c41.404,0,74.969-12.096,74.969-27.019v-20.86
	C329.854,222.072,324.031,225.014,317.127,227.502z M256.413,50c-56.215,0-111.16,22.526-148.33,59.033L72.618,73.567
	L49.587,199.744l126.176-23.032l-35.859-35.859C168.929,112.489,212.626,95,256.413,95c88.918,0,161,72.082,161,161
	s-72.082,161-161,161c-88.662,0-160.578-71.672-160.99-160.238l-44.793,8.461C55.456,374.712,145.735,462,256.413,462
	c113.771,0,206-92.229,206-206S370.185,50,256.413,50z"/>
</svg>
