<?xml version="1.0" encoding="utf-8"?>
<!--

    Copyright (c) 2012-2017 Codenvy, S.A.
    All rights reserved. This program and the accompanying materials
    are made available under the terms of the Eclipse Public License v1.0
    which accompanies this distribution, and is available at
    http://www.eclipse.org/legal/epl-v10.html

    Contributors:
      Codenvy, S.A. - initial API and implementation

-->
<!-- The icon can be used freely in both personal and commercial projects with no attribution required, but always appreciated. 
You may NOT sub-license, resell, rent, redistribute or otherwise transfer the icon without express written permission from iconmonstr.com -->

<!DOCTYPE svg PUBLIC "-//W3C//DTD SVG 1.1//EN" "http://www.w3.org/Graphics/SVG/1.1/DTD/svg11.dtd">
<svg version="1.1" xmlns="http://www.w3.org/2000/svg" xmlns:xlink="http://www.w3.org/1999/xlink" x="0px" y="0px"
	 width="512px" height="512px" viewBox="0 0 512 512" enable-background="new 0 0 512 512" xml:space="preserve">
<path id="lock-15-icon" d="M256,90.001c91.74,0,166,74.243,166,166c0,91.74-74.243,165.998-166,165.998
	c-91.741,0-166-74.241-166-165.998C90,164.259,164.243,90.001,256,90.001 M256,50.001c-113.771,0-206,92.229-206,206
	s92.229,205.998,206,205.998c113.771,0,206-92.227,206-205.998S369.771,50.001,256,50.001L256,50.001z M358.999,242.667V347h-148
	V242.667H358.999z M238.667,196.333v31.334h25v-31.334c0-30.511-24.822-55.333-55.334-55.333c-30.51,0-55.332,24.822-55.332,55.333
	v31.334h25v-31.334c0-16.726,13.607-30.333,30.332-30.333C225.06,166,238.667,179.607,238.667,196.333z"/>
</svg>
