<?xml version="1.0" encoding="utf-8"?>
<!--

    Copyright (c) 2012-2018 Red Hat, Inc.
    This program and the accompanying materials are made
    available under the terms of the Eclipse Public License 2.0
    which is available at https://www.eclipse.org/legal/epl-2.0/

    SPDX-License-Identifier: EPL-2.0

    Contributors:
      Red Hat, Inc. - initial API and implementation

-->
<!DOCTYPE svg PUBLIC "-//W3C//DTD SVG 1.1//EN" "http://www.w3.org/Graphics/SVG/1.1/DTD/svg11.dtd">
<svg version="1.1" xmlns="http://www.w3.org/2000/svg" xmlns:xlink="http://www.w3.org/1999/xlink" x="0px" y="0px" width="32px"
	 height="32px" viewBox="0 0 32 32" enable-background="new 0 0 32 32" xml:space="preserve">
<g id="Python">
	<path fill-rule="evenodd" clip-rule="evenodd" fill="#3193D4" d="M18.158,21.344c0.4,0,0.724,0.327,0.724,0.732
		c0,0.406-0.323,0.737-0.724,0.737c-0.397,0-0.724-0.331-0.724-0.737C17.435,21.671,17.761,21.344,18.158,21.344L18.158,21.344z
		 M13.817,9.096c0.399,0,0.725,0.331,0.725,0.737c0,0.406-0.325,0.733-0.725,0.733s-0.723-0.327-0.723-0.733
		C13.095,9.427,13.418,9.096,13.817,9.096L13.817,9.096z M15.905,7.912c-0.66,0.003-1.29,0.059-1.844,0.158
		c-1.634,0.288-1.93,0.892-1.93,2.005v1.471h3.858v0.49h-5.307c-1.122,0-2.104,0.674-2.411,1.957c-0.354,1.47-0.37,2.387,0,3.921
		c0.274,1.144,0.93,1.957,2.051,1.957h1.326v-1.763c0-1.274,1.104-2.398,2.412-2.398h3.854c1.074,0,1.93-0.883,1.93-1.961v-3.675
		c0-1.046-0.882-1.832-1.93-2.005C17.253,7.959,16.564,7.909,15.905,7.912L15.905,7.912z M20.326,12.037v1.714
		c0,1.329-1.126,2.447-2.411,2.447h-3.854c-1.057,0-1.93,0.903-1.93,1.962v3.674c0,1.046,0.909,1.661,1.93,1.961
		c1.221,0.359,2.393,0.425,3.854,0c0.972-0.281,1.93-0.847,1.93-1.961v-1.471H15.99v-0.49h5.784c1.122,0,1.539-0.782,1.93-1.957
		c0.402-1.208,0.386-2.371,0-3.921c-0.277-1.116-0.807-1.957-1.93-1.957H20.326z"/>
</g>
</svg>
