<?xml version="1.0" encoding="utf-8"?>
<!--

    Copyright (c) 2012-2018 Red Hat, Inc.
    This program and the accompanying materials are made
    available under the terms of the Eclipse Public License 2.0
    which is available at https://www.eclipse.org/legal/epl-2.0/

    SPDX-License-Identifier: EPL-2.0

    Contributors:
      Red Hat, Inc. - initial API and implementation

-->
<!DOCTYPE svg PUBLIC "-//W3C//DTD SVG 1.1//EN" "http://www.w3.org/Graphics/SVG/1.1/DTD/svg11.dtd">
<svg version="1.1" id="Layer_1" xmlns="http://www.w3.org/2000/svg" xmlns:xlink="http://www.w3.org/1999/xlink" x="0px" y="0px"
     width="20px" height="20px" viewBox="0 10 90 90">
    <path fill="#dbdbdb" d="M67.373,72.461l2.724-2.724v14.516c0,1.752-1.426,3.177-3.178,3.177H46.488h-7.247H18.81
	c-1.752,0-3.178-1.425-3.178-3.177V20.713c0-1.752,1.426-3.177,3.178-3.177h10.171l-0.367,1.656
	c-0.031,0.139-0.046,0.266-0.046,0.386v7.262c0,1.001,0.814,1.815,1.815,1.815h24.962c1.001,0,1.816-0.814,1.816-1.815v-7.262
	c0-0.121-0.016-0.247-0.047-0.386l-0.367-1.656h10.171h0.001c1.752,0,3.177,1.425,3.177,3.177v21.581l-2.724,2.724V20.713
	c0-0.25-0.204-0.454-0.454-0.454h-7.034v6.581c0,2.502-2.036,4.539-4.539,4.539H30.383c-2.503,0-4.539-2.036-4.539-4.539v-6.581
	H18.81c-0.25,0-0.454,0.204-0.454,0.454v63.541c0,0.25,0.204,0.454,0.454,0.454h20.431h7.247h20.431c0.25,0,0.454-0.204,0.454-0.454
	V72.461z M31.879,26.95h21.97c0.883,0,1.598-0.715,1.598-1.598v-6.391c0-0.883-0.715-1.598-1.598-1.598h-5.991
	c0-2.647-2.249-4.793-5.021-4.793c-2.774,0-5.022,2.146-5.022,4.793h-5.935c-0.883,0-1.597,0.715-1.597,1.598v6.391
	C30.283,26.234,30.997,26.95,31.879,26.95z M39.094,55.421l-8.604-8.603l-3.535,3.535l12.139,12.139l19.681-19.681l-3.535-3.535
	L39.094,55.421z M83.763,48.116l-6.181-6.182c-0.91-0.909-2.521-0.777-3.594,0.296l-3.403,3.403l9.48,8.479l3.402-3.403
	C84.541,50.637,84.672,49.025,83.763,48.116z M69.006,47.212l9.479,8.479L55.881,79.296c-0.104,0.104-0.391,0.392-0.795,0.494
	c-0.047,0.022-0.094,0.041-0.142,0.057l-11.797,3.759c-0.33,0.105-0.662,0.038-0.877-0.178c-0.215-0.216-0.283-0.548-0.179-0.878
	l3.76-11.795c0.016-0.049,0.035-0.096,0.057-0.142c0.103-0.405,0.39-0.692,0.495-0.796L69.006,47.212z M52.965,78.568l-5.836-5.836
	l-1.565,4.915l2.487,2.487L52.965,78.568z M68.642,50.98c-0.336-0.336-0.88-0.336-1.215,0L49.805,68.602
	c-0.336,0.335-0.336,0.88,0,1.215c0.335,0.335,0.879,0.335,1.215,0l17.622-17.622C68.978,51.859,68.978,51.315,68.642,50.98z"/>
</svg>
